<?xml version="1.0" encoding="UTF-8" standalone="no"?>
<!DOCTYPE svg PUBLIC "-//W3C//DTD SVG 1.1//EN"
 "http://www.w3.org/Graphics/SVG/1.1/DTD/svg11.dtd">
<!-- Generated by graphviz version 14.1.5 (0)
 -->
<!-- Title: k_DAG_Will Pages: 1 -->
<svg width="586pt" height="908pt"
 viewBox="0.00 0.00 586.00 908.00" xmlns="http://www.w3.org/2000/svg" xmlns:xlink="http://www.w3.org/1999/xlink">
<g id="graph0" class="graph" transform="scale(1 1) rotate(0) translate(4 904)">
<title>k_DAG_Will</title>
<polygon fill="white" stroke="none" points="-4,4 -4,-904 582,-904 582,4 -4,4"/>
<!-- Start -->
<g id="node1" class="node">
<title>Start</title>
<ellipse fill="green" stroke="green" cx="340" cy="-882" rx="30.16" ry="18"/>
<text xml:space="preserve" text-anchor="middle" x="340" y="-877.33" font-family="Times,serif" font-size="14.00">Start</text>
</g>
<!-- quake.x(0)@t0 -->
<g id="node3" class="node">
<title>quake.x(0)@t0</title>
<ellipse fill="none" stroke="black" cx="99" cy="-810" rx="27" ry="18"/>
<text xml:space="preserve" text-anchor="middle" x="99" y="-805.33" font-family="Times,serif" font-size="14.00">x</text>
</g>
<!-- Start&#45;&gt;quake.x(0)@t0 -->
<g id="edge1" class="edge">
<title>Start&#45;&gt;quake.x(0)@t0</title>
<path fill="none" stroke="black" d="M311.82,-874.79C272.78,-865.91 200.23,-848.36 140,-828 137.25,-827.07 134.43,-826.05 131.61,-824.98"/>
<polygon fill="black" stroke="black" points="132.91,-821.73 122.33,-821.29 130.33,-828.24 132.91,-821.73"/>
</g>
<!-- quake.x(2)@t1 -->
<g id="node4" class="node">
<title>quake.x(2)@t1</title>
<ellipse fill="none" stroke="black" cx="27" cy="-738" rx="27" ry="18"/>
<text xml:space="preserve" text-anchor="middle" x="27" y="-733.33" font-family="Times,serif" font-size="14.00">x</text>
</g>
<!-- Start&#45;&gt;quake.x(2)@t1 -->
<g id="edge2" class="edge">
<title>Start&#45;&gt;quake.x(2)@t1</title>
<path fill="none" stroke="black" d="M310.04,-878.85C246.41,-873.72 100.55,-858.85 63,-828 44.78,-813.03 35.71,-787.44 31.23,-767.52"/>
<polygon fill="black" stroke="black" points="34.68,-766.93 29.34,-757.78 27.81,-768.26 34.68,-766.93"/>
</g>
<!-- quake.cr1(1,0)@t3 params=(1.5707963267948966,) -->
<g id="node6" class="node">
<title>quake.cr1(1,0)@t3 params=(1.5707963267948966,)</title>
<ellipse fill="none" stroke="black" cx="99" cy="-666" rx="27" ry="18"/>
<text xml:space="preserve" text-anchor="middle" x="99" y="-661.33" font-family="Times,serif" font-size="14.00">cr1</text>
</g>
<!-- Start&#45;&gt;quake.cr1(1,0)@t3 params=(1.5707963267948966,) -->
<g id="edge4" class="edge">
<title>Start&#45;&gt;quake.cr1(1,0)@t3 params=(1.5707963267948966,)</title>
<path fill="none" stroke="black" d="M311.39,-875.81C281.17,-869.12 233.48,-854.98 201,-828 157.73,-792.05 165.48,-767.28 135,-720 129.04,-710.76 122.32,-700.76 116.31,-691.96"/>
<polygon fill="black" stroke="black" points="119.32,-690.15 110.77,-683.89 113.55,-694.11 119.32,-690.15"/>
</g>
<!-- quake.h(0)@t0 -->
<g id="node11" class="node">
<title>quake.h(0)@t0</title>
<ellipse fill="none" stroke="black" cx="247" cy="-810" rx="27" ry="18"/>
<text xml:space="preserve" text-anchor="middle" x="247" y="-805.33" font-family="Times,serif" font-size="14.00">h</text>
</g>
<!-- Start&#45;&gt;quake.h(0)@t0 -->
<g id="edge15" class="edge">
<title>Start&#45;&gt;quake.h(0)@t0</title>
<path fill="none" stroke="black" d="M322.07,-867.5C308.34,-857.17 289.2,-842.76 273.68,-831.08"/>
<polygon fill="black" stroke="black" points="275.86,-828.35 265.77,-825.13 271.66,-833.94 275.86,-828.35"/>
</g>
<!-- quake.cx(0,1)@t1 -->
<g id="node12" class="node">
<title>quake.cx(0,1)@t1</title>
<ellipse fill="none" stroke="black" cx="238" cy="-738" rx="27" ry="18"/>
<text xml:space="preserve" text-anchor="middle" x="238" y="-733.33" font-family="Times,serif" font-size="14.00">cx</text>
</g>
<!-- Start&#45;&gt;quake.cx(0,1)@t1 -->
<g id="edge17" class="edge">
<title>Start&#45;&gt;quake.cx(0,1)@t1</title>
<path fill="none" stroke="black" d="M310.28,-878.12C279.55,-873.38 233.04,-860.88 211,-828 197.97,-808.56 208.35,-782.6 219.81,-763.74"/>
<polygon fill="black" stroke="black" points="222.59,-765.88 225.13,-755.6 216.73,-762.05 222.59,-765.88"/>
</g>
<!-- quake.cx(0,2)@t2 -->
<g id="node13" class="node">
<title>quake.cx(0,2)@t2</title>
<ellipse fill="none" stroke="black" cx="285" cy="-666" rx="27" ry="18"/>
<text xml:space="preserve" text-anchor="middle" x="285" y="-661.33" font-family="Times,serif" font-size="14.00">cx</text>
</g>
<!-- Start&#45;&gt;quake.cx(0,2)@t2 -->
<g id="edge19" class="edge">
<title>Start&#45;&gt;quake.cx(0,2)@t2</title>
<path fill="none" stroke="black" d="M335.42,-863.82C332.67,-853.46 329.11,-839.98 326,-828 313.87,-781.25 300.07,-726.78 291.97,-694.69"/>
<polygon fill="black" stroke="black" points="295.47,-694.24 289.63,-685.4 288.68,-695.95 295.47,-694.24"/>
</g>
<!-- quake.cx(0,3)@t3 -->
<g id="node14" class="node">
<title>quake.cx(0,3)@t3</title>
<ellipse fill="none" stroke="black" cx="323" cy="-594" rx="27" ry="18"/>
<text xml:space="preserve" text-anchor="middle" x="323" y="-589.33" font-family="Times,serif" font-size="14.00">cx</text>
</g>
<!-- Start&#45;&gt;quake.cx(0,3)@t3 -->
<g id="edge21" class="edge">
<title>Start&#45;&gt;quake.cx(0,3)@t3</title>
<path fill="none" stroke="black" d="M338.96,-863.54C336.12,-815.76 328.2,-682.51 324.7,-623.61"/>
<polygon fill="black" stroke="black" points="328.2,-623.52 324.11,-613.74 321.21,-623.93 328.2,-623.52"/>
</g>
<!-- quake.cx(0,4)@t4 -->
<g id="node15" class="node">
<title>quake.cx(0,4)@t4</title>
<ellipse fill="none" stroke="black" cx="361" cy="-522" rx="27" ry="18"/>
<text xml:space="preserve" text-anchor="middle" x="361" y="-517.33" font-family="Times,serif" font-size="14.00">cx</text>
</g>
<!-- Start&#45;&gt;quake.cx(0,4)@t4 -->
<g id="edge23" class="edge">
<title>Start&#45;&gt;quake.cx(0,4)@t4</title>
<path fill="none" stroke="black" d="M347.51,-864.34C358.58,-838.2 378,-785.7 378,-739 378,-739 378,-739 378,-665 378,-625.24 371.35,-579.67 366.37,-551.1"/>
<polygon fill="black" stroke="black" points="369.85,-550.68 364.63,-541.46 362.96,-551.92 369.85,-550.68"/>
</g>
<!-- quake.cx(0,5)@t5 -->
<g id="node16" class="node">
<title>quake.cx(0,5)@t5</title>
<ellipse fill="none" stroke="black" cx="399" cy="-450" rx="27" ry="18"/>
<text xml:space="preserve" text-anchor="middle" x="399" y="-445.32" font-family="Times,serif" font-size="14.00">cx</text>
</g>
<!-- Start&#45;&gt;quake.cx(0,5)@t5 -->
<g id="edge25" class="edge">
<title>Start&#45;&gt;quake.cx(0,5)@t5</title>
<path fill="none" stroke="black" d="M354.65,-865.83C376.74,-841.3 416,-790.45 416,-739 416,-739 416,-739 416,-593 416,-553.24 409.35,-507.67 404.37,-479.1"/>
<polygon fill="black" stroke="black" points="407.85,-478.68 402.63,-469.46 400.96,-479.92 407.85,-478.68"/>
</g>
<!-- quake.cx(0,6)@t6 -->
<g id="node17" class="node">
<title>quake.cx(0,6)@t6</title>
<ellipse fill="none" stroke="black" cx="437" cy="-378" rx="27" ry="18"/>
<text xml:space="preserve" text-anchor="middle" x="437" y="-373.32" font-family="Times,serif" font-size="14.00">cx</text>
</g>
<!-- Start&#45;&gt;quake.cx(0,6)@t6 -->
<g id="edge27" class="edge">
<title>Start&#45;&gt;quake.cx(0,6)@t6</title>
<path fill="none" stroke="black" d="M360.64,-868.32C393.5,-846.38 454,-797.96 454,-739 454,-739 454,-739 454,-521 454,-481.24 447.35,-435.67 442.37,-407.1"/>
<polygon fill="black" stroke="black" points="445.85,-406.68 440.63,-397.46 438.96,-407.92 445.85,-406.68"/>
</g>
<!-- quake.cx(0,7)@t7 -->
<g id="node18" class="node">
<title>quake.cx(0,7)@t7</title>
<ellipse fill="none" stroke="black" cx="475" cy="-306" rx="27" ry="18"/>
<text xml:space="preserve" text-anchor="middle" x="475" y="-301.32" font-family="Times,serif" font-size="14.00">cx</text>
</g>
<!-- Start&#45;&gt;quake.cx(0,7)@t7 -->
<g id="edge29" class="edge">
<title>Start&#45;&gt;quake.cx(0,7)@t7</title>
<path fill="none" stroke="black" d="M364.76,-871.38C407.83,-852.84 492,-807.79 492,-739 492,-739 492,-739 492,-449 492,-409.24 485.35,-363.67 480.37,-335.1"/>
<polygon fill="black" stroke="black" points="483.85,-334.68 478.63,-325.46 476.96,-335.92 483.85,-334.68"/>
</g>
<!-- quake.cx(0,8)@t8 -->
<g id="node19" class="node">
<title>quake.cx(0,8)@t8</title>
<ellipse fill="none" stroke="black" cx="513" cy="-234" rx="27" ry="18"/>
<text xml:space="preserve" text-anchor="middle" x="513" y="-229.32" font-family="Times,serif" font-size="14.00">cx</text>
</g>
<!-- Start&#45;&gt;quake.cx(0,8)@t8 -->
<g id="edge31" class="edge">
<title>Start&#45;&gt;quake.cx(0,8)@t8</title>
<path fill="none" stroke="black" d="M367.63,-874.22C420.32,-859.45 530,-819.1 530,-739 530,-739 530,-739 530,-377 530,-337.24 523.35,-291.67 518.37,-263.1"/>
<polygon fill="black" stroke="black" points="521.85,-262.68 516.63,-253.46 514.96,-263.92 521.85,-262.68"/>
</g>
<!-- quake.cx(0,9)@t9 -->
<g id="node20" class="node">
<title>quake.cx(0,9)@t9</title>
<ellipse fill="none" stroke="black" cx="551" cy="-162" rx="27" ry="18"/>
<text xml:space="preserve" text-anchor="middle" x="551" y="-157.32" font-family="Times,serif" font-size="14.00">cx</text>
</g>
<!-- Start&#45;&gt;quake.cx(0,9)@t9 -->
<g id="edge33" class="edge">
<title>Start&#45;&gt;quake.cx(0,9)@t9</title>
<path fill="none" stroke="black" d="M369.34,-876.74C430.92,-865.96 568,-831.57 568,-739 568,-739 568,-739 568,-305 568,-265.24 561.35,-219.67 556.37,-191.1"/>
<polygon fill="black" stroke="black" points="559.85,-190.68 554.63,-181.46 552.96,-191.92 559.85,-190.68"/>
</g>
<!-- End -->
<g id="node2" class="node">
<title>End</title>
<ellipse fill="red" stroke="red" cx="401" cy="-18" rx="27.53" ry="18"/>
<text xml:space="preserve" text-anchor="middle" x="401" y="-13.32" font-family="Times,serif" font-size="14.00">End</text>
</g>
<!-- quake.h(0)@t2 -->
<g id="node5" class="node">
<title>quake.h(0)@t2</title>
<ellipse fill="none" stroke="black" cx="99" cy="-738" rx="27" ry="18"/>
<text xml:space="preserve" text-anchor="middle" x="99" y="-733.33" font-family="Times,serif" font-size="14.00">h</text>
</g>
<!-- quake.x(0)@t0&#45;&gt;quake.h(0)@t2 -->
<g id="edge3" class="edge">
<title>quake.x(0)@t0&#45;&gt;quake.h(0)@t2</title>
<path fill="none" stroke="black" d="M99,-791.7C99,-784.41 99,-775.73 99,-767.54"/>
<polygon fill="black" stroke="black" points="102.5,-767.62 99,-757.62 95.5,-767.62 102.5,-767.62"/>
</g>
<!-- quake.cr1(2,0)@t4 params=(0.7853981633974483,) -->
<g id="node7" class="node">
<title>quake.cr1(2,0)@t4 params=(0.7853981633974483,)</title>
<ellipse fill="none" stroke="black" cx="27" cy="-594" rx="27" ry="18"/>
<text xml:space="preserve" text-anchor="middle" x="27" y="-589.33" font-family="Times,serif" font-size="14.00">cr1</text>
</g>
<!-- quake.x(2)@t1&#45;&gt;quake.cr1(2,0)@t4 params=(0.7853981633974483,) -->
<g id="edge6" class="edge">
<title>quake.x(2)@t1&#45;&gt;quake.cr1(2,0)@t4 params=(0.7853981633974483,)</title>
<path fill="none" stroke="black" d="M27,-719.59C27,-695.61 27,-652.14 27,-623.42"/>
<polygon fill="black" stroke="black" points="30.5,-623.62 27,-613.62 23.5,-623.62 30.5,-623.62"/>
</g>
<!-- quake.h(0)@t2&#45;&gt;quake.cr1(1,0)@t3 params=(1.5707963267948966,) -->
<g id="edge5" class="edge">
<title>quake.h(0)@t2&#45;&gt;quake.cr1(1,0)@t3 params=(1.5707963267948966,)</title>
<path fill="none" stroke="black" d="M99,-719.7C99,-712.41 99,-703.73 99,-695.54"/>
<polygon fill="black" stroke="black" points="102.5,-695.62 99,-685.62 95.5,-695.62 102.5,-695.62"/>
</g>
<!-- quake.cr1(1,0)@t3 params=(1.5707963267948966,)&#45;&gt;quake.cr1(2,0)@t4 params=(0.7853981633974483,) -->
<g id="edge7" class="edge">
<title>quake.cr1(1,0)@t3 params=(1.5707963267948966,)&#45;&gt;quake.cr1(2,0)@t4 params=(0.7853981633974483,)</title>
<path fill="none" stroke="black" d="M84.08,-650.5C74.23,-640.92 61.14,-628.19 49.97,-617.34"/>
<polygon fill="black" stroke="black" points="52.59,-615 42.98,-610.54 47.71,-620.02 52.59,-615"/>
</g>
<!-- quake.h(1)@t5 -->
<g id="node8" class="node">
<title>quake.h(1)@t5</title>
<ellipse fill="none" stroke="black" cx="99" cy="-594" rx="27" ry="18"/>
<text xml:space="preserve" text-anchor="middle" x="99" y="-589.33" font-family="Times,serif" font-size="14.00">h</text>
</g>
<!-- quake.cr1(1,0)@t3 params=(1.5707963267948966,)&#45;&gt;quake.h(1)@t5 -->
<g id="edge8" class="edge">
<title>quake.cr1(1,0)@t3 params=(1.5707963267948966,)&#45;&gt;quake.h(1)@t5</title>
<path fill="none" stroke="black" d="M99,-647.7C99,-640.41 99,-631.73 99,-623.54"/>
<polygon fill="black" stroke="black" points="102.5,-623.62 99,-613.62 95.5,-623.62 102.5,-623.62"/>
</g>
<!-- quake.cr1(2,1)@t6 params=(1.5707963267948966,) -->
<g id="node9" class="node">
<title>quake.cr1(2,1)@t6 params=(1.5707963267948966,)</title>
<ellipse fill="none" stroke="black" cx="63" cy="-522" rx="27" ry="18"/>
<text xml:space="preserve" text-anchor="middle" x="63" y="-517.33" font-family="Times,serif" font-size="14.00">cr1</text>
</g>
<!-- quake.cr1(2,0)@t4 params=(0.7853981633974483,)&#45;&gt;quake.cr1(2,1)@t6 params=(1.5707963267948966,) -->
<g id="edge9" class="edge">
<title>quake.cr1(2,0)@t4 params=(0.7853981633974483,)&#45;&gt;quake.cr1(2,1)@t6 params=(1.5707963267948966,)</title>
<path fill="none" stroke="black" d="M35.35,-576.76C39.58,-568.55 44.81,-558.37 49.58,-549.09"/>
<polygon fill="black" stroke="black" points="52.54,-550.99 54,-540.49 46.32,-547.79 52.54,-550.99"/>
</g>
<!-- quake.h(1)@t5&#45;&gt;quake.cr1(2,1)@t6 params=(1.5707963267948966,) -->
<g id="edge10" class="edge">
<title>quake.h(1)@t5&#45;&gt;quake.cr1(2,1)@t6 params=(1.5707963267948966,)</title>
<path fill="none" stroke="black" d="M90.65,-576.76C86.42,-568.55 81.19,-558.37 76.42,-549.09"/>
<polygon fill="black" stroke="black" points="79.68,-547.79 72,-540.49 73.46,-550.99 79.68,-547.79"/>
</g>
<!-- quake.h(2)@t7 -->
<g id="node10" class="node">
<title>quake.h(2)@t7</title>
<ellipse fill="none" stroke="black" cx="63" cy="-450" rx="27" ry="18"/>
<text xml:space="preserve" text-anchor="middle" x="63" y="-445.32" font-family="Times,serif" font-size="14.00">h</text>
</g>
<!-- quake.cr1(2,1)@t6 params=(1.5707963267948966,)&#45;&gt;quake.h(2)@t7 -->
<g id="edge11" class="edge">
<title>quake.cr1(2,1)@t6 params=(1.5707963267948966,)&#45;&gt;quake.h(2)@t7</title>
<path fill="none" stroke="black" d="M63,-503.7C63,-496.41 63,-487.73 63,-479.54"/>
<polygon fill="black" stroke="black" points="66.5,-479.62 63,-469.62 59.5,-479.62 66.5,-479.62"/>
</g>
<!-- quake.h(0)@t0&#45;&gt;quake.cx(0,1)@t1 -->
<g id="edge16" class="edge">
<title>quake.h(0)@t0&#45;&gt;quake.cx(0,1)@t1</title>
<path fill="none" stroke="black" d="M244.78,-791.7C243.83,-784.32 242.7,-775.52 241.63,-767.25"/>
<polygon fill="black" stroke="black" points="245.14,-767.08 240.39,-757.61 238.2,-767.97 245.14,-767.08"/>
</g>
<!-- quake.cx(0,1)@t1&#45;&gt;quake.cx(0,2)@t2 -->
<g id="edge18" class="edge">
<title>quake.cx(0,1)@t1&#45;&gt;quake.cx(0,2)@t2</title>
<path fill="none" stroke="black" d="M248.67,-721.12C254.37,-712.61 261.54,-701.94 268,-692.32"/>
<polygon fill="black" stroke="black" points="270.86,-694.33 273.53,-684.08 265.05,-690.43 270.86,-694.33"/>
</g>
<!-- quake.mz(0,1,2,3,4,5,6,7,8,9)@t10 -->
<g id="node21" class="node">
<title>quake.mz(0,1,2,3,4,5,6,7,8,9)@t10</title>
<ellipse fill="yellow" stroke="yellow" cx="401" cy="-90" rx="27" ry="18"/>
<text xml:space="preserve" text-anchor="middle" x="401" y="-85.33" font-family="Times,serif" font-size="14.00">mz</text>
</g>
<!-- quake.cx(0,1)@t1&#45;&gt;quake.mz(0,1,2,3,4,5,6,7,8,9)@t10 -->
<g id="edge35" class="edge">
<title>quake.cx(0,1)@t1&#45;&gt;quake.mz(0,1,2,3,4,5,6,7,8,9)@t10</title>
<path fill="none" stroke="black" d="M236.42,-719.97C234.09,-693.33 230,-640.19 230,-595 230,-595 230,-595 230,-233 230,-186.96 248.63,-174.63 283,-144 306.55,-123.01 339.79,-109.1 364.99,-100.81"/>
<polygon fill="black" stroke="black" points="365.99,-104.17 374.5,-97.85 363.91,-97.49 365.99,-104.17"/>
</g>
<!-- quake.cx(0,2)@t2&#45;&gt;quake.cx(0,3)@t3 -->
<g id="edge20" class="edge">
<title>quake.cx(0,2)@t2&#45;&gt;quake.cx(0,3)@t3</title>
<path fill="none" stroke="black" d="M293.81,-648.76C298.27,-640.55 303.8,-630.37 308.84,-621.09"/>
<polygon fill="black" stroke="black" points="311.82,-622.94 313.51,-612.48 305.67,-619.6 311.82,-622.94"/>
</g>
<!-- quake.cx(0,2)@t2&#45;&gt;quake.mz(0,1,2,3,4,5,6,7,8,9)@t10 -->
<g id="edge36" class="edge">
<title>quake.cx(0,2)@t2&#45;&gt;quake.mz(0,1,2,3,4,5,6,7,8,9)@t10</title>
<path fill="none" stroke="black" d="M281.64,-648.03C276.69,-621.48 268,-568.44 268,-523 268,-523 268,-523 268,-233 268,-173.78 330.39,-129.07 369.7,-106.77"/>
<polygon fill="black" stroke="black" points="371.21,-109.94 378.3,-102.06 367.85,-103.8 371.21,-109.94"/>
</g>
<!-- quake.cx(0,3)@t3&#45;&gt;quake.cx(0,4)@t4 -->
<g id="edge22" class="edge">
<title>quake.cx(0,3)@t3&#45;&gt;quake.cx(0,4)@t4</title>
<path fill="none" stroke="black" d="M331.81,-576.76C336.27,-568.55 341.8,-558.37 346.84,-549.09"/>
<polygon fill="black" stroke="black" points="349.82,-550.94 351.51,-540.48 343.67,-547.6 349.82,-550.94"/>
</g>
<!-- quake.cx(0,3)@t3&#45;&gt;quake.mz(0,1,2,3,4,5,6,7,8,9)@t10 -->
<g id="edge37" class="edge">
<title>quake.cx(0,3)@t3&#45;&gt;quake.mz(0,1,2,3,4,5,6,7,8,9)@t10</title>
<path fill="none" stroke="black" d="M319.64,-576.03C314.69,-549.48 306,-496.44 306,-451 306,-451 306,-451 306,-233 306,-182.95 347.27,-137.19 375.41,-111.8"/>
<polygon fill="black" stroke="black" points="377.64,-114.5 382.88,-105.29 373.04,-109.23 377.64,-114.5"/>
</g>
<!-- quake.cx(0,4)@t4&#45;&gt;quake.cx(0,5)@t5 -->
<g id="edge24" class="edge">
<title>quake.cx(0,4)@t4&#45;&gt;quake.cx(0,5)@t5</title>
<path fill="none" stroke="black" d="M369.81,-504.76C374.27,-496.55 379.8,-486.37 384.84,-477.09"/>
<polygon fill="black" stroke="black" points="387.82,-478.94 389.51,-468.48 381.67,-475.6 387.82,-478.94"/>
</g>
<!-- quake.cx(0,4)@t4&#45;&gt;quake.mz(0,1,2,3,4,5,6,7,8,9)@t10 -->
<g id="edge38" class="edge">
<title>quake.cx(0,4)@t4&#45;&gt;quake.mz(0,1,2,3,4,5,6,7,8,9)@t10</title>
<path fill="none" stroke="black" d="M357.64,-504.03C352.69,-477.48 344,-424.44 344,-379 344,-379 344,-379 344,-233 344,-189.66 367.15,-143.88 383.95,-116.38"/>
<polygon fill="black" stroke="black" points="386.82,-118.38 389.2,-108.06 380.9,-114.65 386.82,-118.38"/>
</g>
<!-- quake.cx(0,5)@t5&#45;&gt;quake.cx(0,6)@t6 -->
<g id="edge26" class="edge">
<title>quake.cx(0,5)@t5&#45;&gt;quake.cx(0,6)@t6</title>
<path fill="none" stroke="black" d="M407.81,-432.76C412.27,-424.55 417.8,-414.37 422.84,-405.09"/>
<polygon fill="black" stroke="black" points="425.82,-406.94 427.51,-396.48 419.67,-403.6 425.82,-406.94"/>
</g>
<!-- quake.cx(0,5)@t5&#45;&gt;quake.mz(0,1,2,3,4,5,6,7,8,9)@t10 -->
<g id="edge39" class="edge">
<title>quake.cx(0,5)@t5&#45;&gt;quake.mz(0,1,2,3,4,5,6,7,8,9)@t10</title>
<path fill="none" stroke="black" d="M395.64,-432.03C390.69,-405.48 382,-352.44 382,-307 382,-307 382,-307 382,-233 382,-193.17 389.43,-147.61 395,-119.07"/>
<polygon fill="black" stroke="black" points="398.4,-119.93 396.95,-109.43 391.54,-118.54 398.4,-119.93"/>
</g>
<!-- quake.cx(0,6)@t6&#45;&gt;quake.cx(0,7)@t7 -->
<g id="edge28" class="edge">
<title>quake.cx(0,6)@t6&#45;&gt;quake.cx(0,7)@t7</title>
<path fill="none" stroke="black" d="M445.81,-360.76C450.27,-352.55 455.8,-342.37 460.84,-333.09"/>
<polygon fill="black" stroke="black" points="463.82,-334.94 465.51,-324.48 457.67,-331.6 463.82,-334.94"/>
</g>
<!-- quake.cx(0,6)@t6&#45;&gt;quake.mz(0,1,2,3,4,5,6,7,8,9)@t10 -->
<g id="edge40" class="edge">
<title>quake.cx(0,6)@t6&#45;&gt;quake.mz(0,1,2,3,4,5,6,7,8,9)@t10</title>
<path fill="none" stroke="black" d="M434.86,-359.97C428.88,-312.49 411.99,-178.31 404.57,-119.36"/>
<polygon fill="black" stroke="black" points="408.09,-119.29 403.37,-109.81 401.14,-120.17 408.09,-119.29"/>
</g>
<!-- quake.cx(0,7)@t7&#45;&gt;quake.cx(0,8)@t8 -->
<g id="edge30" class="edge">
<title>quake.cx(0,7)@t7&#45;&gt;quake.cx(0,8)@t8</title>
<path fill="none" stroke="black" d="M483.81,-288.76C488.27,-280.55 493.8,-270.37 498.84,-261.09"/>
<polygon fill="black" stroke="black" points="501.82,-262.94 503.51,-252.48 495.67,-259.6 501.82,-262.94"/>
</g>
<!-- quake.cx(0,7)@t7&#45;&gt;quake.mz(0,1,2,3,4,5,6,7,8,9)@t10 -->
<g id="edge41" class="edge">
<title>quake.cx(0,7)@t7&#45;&gt;quake.mz(0,1,2,3,4,5,6,7,8,9)@t10</title>
<path fill="none" stroke="black" d="M472.44,-287.99C467.54,-258 455.39,-194.14 434,-144 429.9,-134.4 424.22,-124.52 418.72,-115.93"/>
<polygon fill="black" stroke="black" points="421.76,-114.17 413.3,-107.79 415.93,-118.06 421.76,-114.17"/>
</g>
<!-- quake.cx(0,8)@t8&#45;&gt;quake.cx(0,9)@t9 -->
<g id="edge32" class="edge">
<title>quake.cx(0,8)@t8&#45;&gt;quake.cx(0,9)@t9</title>
<path fill="none" stroke="black" d="M521.81,-216.76C526.27,-208.55 531.8,-198.37 536.84,-189.09"/>
<polygon fill="black" stroke="black" points="539.82,-190.94 541.51,-180.48 533.67,-187.6 539.82,-190.94"/>
</g>
<!-- quake.cx(0,8)@t8&#45;&gt;quake.mz(0,1,2,3,4,5,6,7,8,9)@t10 -->
<g id="edge42" class="edge">
<title>quake.cx(0,8)@t8&#45;&gt;quake.mz(0,1,2,3,4,5,6,7,8,9)@t10</title>
<path fill="none" stroke="black" d="M507.95,-215.87C501.73,-196.85 489.77,-165.95 472,-144 460.63,-129.96 444.74,-117.64 430.88,-108.42"/>
<polygon fill="black" stroke="black" points="432.82,-105.51 422.51,-103.09 429.06,-111.42 432.82,-105.51"/>
</g>
<!-- quake.cx(0,9)@t9&#45;&gt;quake.mz(0,1,2,3,4,5,6,7,8,9)@t10 -->
<g id="edge34" class="edge">
<title>quake.cx(0,9)@t9&#45;&gt;quake.mz(0,1,2,3,4,5,6,7,8,9)@t10</title>
<path fill="none" stroke="black" d="M527.66,-152.28C501.52,-141.16 459.45,-121.72 430.95,-107.71"/>
<polygon fill="black" stroke="black" points="432.62,-104.63 422.11,-103.31 429.5,-110.9 432.62,-104.63"/>
</g>
<!-- quake.cx(0,9)@t9&#45;&gt;quake.mz(0,1,2,3,4,5,6,7,8,9)@t10 -->
<g id="edge43" class="edge">
<title>quake.cx(0,9)@t9&#45;&gt;quake.mz(0,1,2,3,4,5,6,7,8,9)@t10</title>
<path fill="none" stroke="black" d="M531.09,-149.28C506.35,-136.8 464.19,-117.1 434.5,-104.11"/>
<polygon fill="black" stroke="black" points="436.14,-101.01 425.57,-100.26 433.36,-107.43 436.14,-101.01"/>
</g>
<!-- quake.mz(0,1,2,3,4,5,6,7,8,9)@t10&#45;&gt;End -->
<g id="edge12" class="edge">
<title>quake.mz(0,1,2,3,4,5,6,7,8,9)@t10&#45;&gt;End</title>
<path fill="none" stroke="black" d="M374.42,-85.99C332.95,-75.54 329.23,-40.62 363.25,-25.77"/>
<polygon fill="black" stroke="black" points="364.08,-29.19 372.41,-22.64 361.82,-22.56 364.08,-29.19"/>
</g>
<!-- quake.mz(0,1,2,3,4,5,6,7,8,9)@t10&#45;&gt;End -->
<g id="edge13" class="edge">
<title>quake.mz(0,1,2,3,4,5,6,7,8,9)@t10&#45;&gt;End</title>
<path fill="none" stroke="black" d="M375.08,-83.97C350.29,-72.72 347.11,-45.34 365.54,-29.95"/>
<polygon fill="black" stroke="black" points="366.87,-33.25 373.48,-24.98 363.15,-27.32 366.87,-33.25"/>
</g>
<!-- quake.mz(0,1,2,3,4,5,6,7,8,9)@t10&#45;&gt;End -->
<g id="edge14" class="edge">
<title>quake.mz(0,1,2,3,4,5,6,7,8,9)@t10&#45;&gt;End</title>
<path fill="none" stroke="black" d="M377.93,-80.42C366.49,-69.61 364.24,-50.76 371.18,-36.78"/>
<polygon fill="black" stroke="black" points="373.88,-39.01 376.96,-28.88 368.23,-34.88 373.88,-39.01"/>
</g>
<!-- quake.mz(0,1,2,3,4,5,6,7,8,9)@t10&#45;&gt;End -->
<g id="edge44" class="edge">
<title>quake.mz(0,1,2,3,4,5,6,7,8,9)@t10&#45;&gt;End</title>
<path fill="none" stroke="black" d="M384.63,-75.5C380.83,-66.4 379.82,-54.13 381.61,-43.35"/>
<polygon fill="black" stroke="black" points="384.92,-44.49 384.24,-33.91 378.18,-42.61 384.92,-44.49"/>
</g>
<!-- quake.mz(0,1,2,3,4,5,6,7,8,9)@t10&#45;&gt;End -->
<g id="edge45" class="edge">
<title>quake.mz(0,1,2,3,4,5,6,7,8,9)@t10&#45;&gt;End</title>
<path fill="none" stroke="black" d="M395.12,-72.05C394.33,-64.57 394.08,-55.58 394.37,-47.14"/>
<polygon fill="black" stroke="black" points="397.85,-47.51 395.04,-37.3 390.87,-47.04 397.85,-47.51"/>
</g>
<!-- quake.mz(0,1,2,3,4,5,6,7,8,9)@t10&#45;&gt;End -->
<g id="edge46" class="edge">
<title>quake.mz(0,1,2,3,4,5,6,7,8,9)@t10&#45;&gt;End</title>
<path fill="none" stroke="black" d="M406.88,-72.05C407.67,-64.57 407.92,-55.58 407.63,-47.14"/>
<polygon fill="black" stroke="black" points="411.13,-47.04 406.96,-37.3 404.15,-47.51 411.13,-47.04"/>
</g>
<!-- quake.mz(0,1,2,3,4,5,6,7,8,9)@t10&#45;&gt;End -->
<g id="edge47" class="edge">
<title>quake.mz(0,1,2,3,4,5,6,7,8,9)@t10&#45;&gt;End</title>
<path fill="none" stroke="black" d="M417.37,-75.5C421.17,-66.4 422.18,-54.13 420.39,-43.35"/>
<polygon fill="black" stroke="black" points="423.82,-42.61 417.76,-33.91 417.08,-44.49 423.82,-42.61"/>
</g>
<!-- quake.mz(0,1,2,3,4,5,6,7,8,9)@t10&#45;&gt;End -->
<g id="edge48" class="edge">
<title>quake.mz(0,1,2,3,4,5,6,7,8,9)@t10&#45;&gt;End</title>
<path fill="none" stroke="black" d="M424.07,-80.42C435.51,-69.61 437.76,-50.76 430.82,-36.78"/>
<polygon fill="black" stroke="black" points="433.77,-34.88 425.04,-28.88 428.12,-39.01 433.77,-34.88"/>
</g>
<!-- quake.mz(0,1,2,3,4,5,6,7,8,9)@t10&#45;&gt;End -->
<g id="edge49" class="edge">
<title>quake.mz(0,1,2,3,4,5,6,7,8,9)@t10&#45;&gt;End</title>
<path fill="none" stroke="black" d="M426.92,-83.97C451.71,-72.72 454.89,-45.34 436.46,-29.95"/>
<polygon fill="black" stroke="black" points="438.85,-27.32 428.52,-24.98 435.13,-33.25 438.85,-27.32"/>
</g>
<!-- quake.mz(0,1,2,3,4,5,6,7,8,9)@t10&#45;&gt;End -->
<g id="edge50" class="edge">
<title>quake.mz(0,1,2,3,4,5,6,7,8,9)@t10&#45;&gt;End</title>
<path fill="none" stroke="black" d="M427.58,-85.99C469.05,-75.54 472.77,-40.62 438.75,-25.77"/>
<polygon fill="black" stroke="black" points="440.18,-22.56 429.59,-22.64 437.92,-29.19 440.18,-22.56"/>
</g>
</g>
</svg>
