<?xml version="1.0" encoding="UTF-8" standalone="no"?>
<!DOCTYPE svg PUBLIC "-//W3C//DTD SVG 1.1//EN"
 "http://www.w3.org/Graphics/SVG/1.1/DTD/svg11.dtd">
<!-- Generated by graphviz version 2.43.0 (0)
 -->
<!-- Title: k_DAG Pages: 1 -->
<svg width="1050pt" height="908pt"
 viewBox="0.00 0.00 1050.39 908.00" xmlns="http://www.w3.org/2000/svg" xmlns:xlink="http://www.w3.org/1999/xlink">
<g id="graph0" class="graph" transform="scale(1 1) rotate(0) translate(4 904)">
<title>k_DAG</title>
<polygon fill="white" stroke="transparent" points="-4,4 -4,-904 1046.39,-904 1046.39,4 -4,4"/>
<!-- q0_start -->
<g id="node1" class="node">
<title>q0_start</title>
<ellipse fill="green" stroke="green" cx="653.2" cy="-882" rx="49.29" ry="18"/>
<text text-anchor="middle" x="653.2" y="-878.3" font-family="Times,serif" font-size="14.00">q0_start</text>
</g>
<!-- quake.h(0)@t0 -->
<g id="node11" class="node">
<title>quake.h(0)@t0</title>
<ellipse fill="none" stroke="black" cx="653.2" cy="-810" rx="27" ry="18"/>
<text text-anchor="middle" x="653.2" y="-806.3" font-family="Times,serif" font-size="14.00">h</text>
</g>
<!-- q0_start&#45;&gt;quake.h(0)@t0 -->
<g id="edge1" class="edge">
<title>q0_start&#45;&gt;quake.h(0)@t0</title>
<path fill="none" stroke="black" d="M653.2,-863.7C653.2,-855.98 653.2,-846.71 653.2,-838.11"/>
<polygon fill="black" stroke="black" points="656.7,-838.1 653.2,-828.1 649.7,-838.1 656.7,-838.1"/>
</g>
<!-- q1_start -->
<g id="node2" class="node">
<title>q1_start</title>
<ellipse fill="green" stroke="green" cx="747.2" cy="-810" rx="49.29" ry="18"/>
<text text-anchor="middle" x="747.2" y="-806.3" font-family="Times,serif" font-size="14.00">q1_start</text>
</g>
<!-- quake.cx(0,1)@t1 -->
<g id="node12" class="node">
<title>quake.cx(0,1)@t1</title>
<ellipse fill="none" stroke="black" cx="700.2" cy="-738" rx="27" ry="18"/>
<text text-anchor="middle" x="700.2" y="-734.3" font-family="Times,serif" font-size="14.00">cx</text>
</g>
<!-- q1_start&#45;&gt;quake.cx(0,1)@t1 -->
<g id="edge3" class="edge">
<title>q1_start&#45;&gt;quake.cx(0,1)@t1</title>
<path fill="none" stroke="black" d="M736.06,-792.41C730.24,-783.74 723.01,-772.97 716.56,-763.38"/>
<polygon fill="black" stroke="black" points="719.41,-761.34 710.93,-754.99 713.6,-765.24 719.41,-761.34"/>
</g>
<!-- q2_start -->
<g id="node3" class="node">
<title>q2_start</title>
<ellipse fill="green" stroke="green" cx="606.2" cy="-738" rx="49.29" ry="18"/>
<text text-anchor="middle" x="606.2" y="-734.3" font-family="Times,serif" font-size="14.00">q2_start</text>
</g>
<!-- quake.cx(0,2)@t2 -->
<g id="node13" class="node">
<title>quake.cx(0,2)@t2</title>
<ellipse fill="none" stroke="black" cx="645.2" cy="-666" rx="27" ry="18"/>
<text text-anchor="middle" x="645.2" y="-662.3" font-family="Times,serif" font-size="14.00">cx</text>
</g>
<!-- q2_start&#45;&gt;quake.cx(0,2)@t2 -->
<g id="edge5" class="edge">
<title>q2_start&#45;&gt;quake.cx(0,2)@t2</title>
<path fill="none" stroke="black" d="M615.64,-720.05C620.3,-711.68 626.03,-701.4 631.19,-692.13"/>
<polygon fill="black" stroke="black" points="634.3,-693.75 636.11,-683.31 628.19,-690.34 634.3,-693.75"/>
</g>
<!-- q3_start -->
<g id="node4" class="node">
<title>q3_start</title>
<ellipse fill="green" stroke="green" cx="551.2" cy="-666" rx="49.29" ry="18"/>
<text text-anchor="middle" x="551.2" y="-662.3" font-family="Times,serif" font-size="14.00">q3_start</text>
</g>
<!-- quake.cx(0,3)@t3 -->
<g id="node14" class="node">
<title>quake.cx(0,3)@t3</title>
<ellipse fill="none" stroke="black" cx="599.2" cy="-594" rx="27" ry="18"/>
<text text-anchor="middle" x="599.2" y="-590.3" font-family="Times,serif" font-size="14.00">cx</text>
</g>
<!-- q3_start&#45;&gt;quake.cx(0,3)@t3 -->
<g id="edge7" class="edge">
<title>q3_start&#45;&gt;quake.cx(0,3)@t3</title>
<path fill="none" stroke="black" d="M562.57,-648.41C568.51,-639.74 575.9,-628.97 582.48,-619.38"/>
<polygon fill="black" stroke="black" points="585.46,-621.21 588.23,-610.99 579.69,-617.26 585.46,-621.21"/>
</g>
<!-- q4_start -->
<g id="node5" class="node">
<title>q4_start</title>
<ellipse fill="green" stroke="green" cx="505.2" cy="-594" rx="49.29" ry="18"/>
<text text-anchor="middle" x="505.2" y="-590.3" font-family="Times,serif" font-size="14.00">q4_start</text>
</g>
<!-- quake.cx(0,4)@t4 -->
<g id="node15" class="node">
<title>quake.cx(0,4)@t4</title>
<ellipse fill="none" stroke="black" cx="561.2" cy="-522" rx="27" ry="18"/>
<text text-anchor="middle" x="561.2" y="-518.3" font-family="Times,serif" font-size="14.00">cx</text>
</g>
<!-- q4_start&#45;&gt;quake.cx(0,4)@t4 -->
<g id="edge9" class="edge">
<title>q4_start&#45;&gt;quake.cx(0,4)@t4</title>
<path fill="none" stroke="black" d="M518.47,-576.41C525.64,-567.44 534.62,-556.21 542.5,-546.37"/>
<polygon fill="black" stroke="black" points="545.27,-548.51 548.79,-538.51 539.81,-544.13 545.27,-548.51"/>
</g>
<!-- q5_start -->
<g id="node6" class="node">
<title>q5_start</title>
<ellipse fill="green" stroke="green" cx="467.2" cy="-522" rx="49.29" ry="18"/>
<text text-anchor="middle" x="467.2" y="-518.3" font-family="Times,serif" font-size="14.00">q5_start</text>
</g>
<!-- quake.cx(0,5)@t5 -->
<g id="node16" class="node">
<title>quake.cx(0,5)@t5</title>
<ellipse fill="none" stroke="black" cx="523.2" cy="-450" rx="27" ry="18"/>
<text text-anchor="middle" x="523.2" y="-446.3" font-family="Times,serif" font-size="14.00">cx</text>
</g>
<!-- q5_start&#45;&gt;quake.cx(0,5)@t5 -->
<g id="edge11" class="edge">
<title>q5_start&#45;&gt;quake.cx(0,5)@t5</title>
<path fill="none" stroke="black" d="M480.47,-504.41C487.64,-495.44 496.62,-484.21 504.5,-474.37"/>
<polygon fill="black" stroke="black" points="507.27,-476.51 510.79,-466.51 501.81,-472.13 507.27,-476.51"/>
</g>
<!-- q6_start -->
<g id="node7" class="node">
<title>q6_start</title>
<ellipse fill="green" stroke="green" cx="429.2" cy="-450" rx="49.29" ry="18"/>
<text text-anchor="middle" x="429.2" y="-446.3" font-family="Times,serif" font-size="14.00">q6_start</text>
</g>
<!-- quake.cx(0,6)@t6 -->
<g id="node17" class="node">
<title>quake.cx(0,6)@t6</title>
<ellipse fill="none" stroke="black" cx="485.2" cy="-378" rx="27" ry="18"/>
<text text-anchor="middle" x="485.2" y="-374.3" font-family="Times,serif" font-size="14.00">cx</text>
</g>
<!-- q6_start&#45;&gt;quake.cx(0,6)@t6 -->
<g id="edge13" class="edge">
<title>q6_start&#45;&gt;quake.cx(0,6)@t6</title>
<path fill="none" stroke="black" d="M442.47,-432.41C449.64,-423.44 458.62,-412.21 466.5,-402.37"/>
<polygon fill="black" stroke="black" points="469.27,-404.51 472.79,-394.51 463.81,-400.13 469.27,-404.51"/>
</g>
<!-- q7_start -->
<g id="node8" class="node">
<title>q7_start</title>
<ellipse fill="green" stroke="green" cx="391.2" cy="-378" rx="49.29" ry="18"/>
<text text-anchor="middle" x="391.2" y="-374.3" font-family="Times,serif" font-size="14.00">q7_start</text>
</g>
<!-- quake.cx(0,7)@t7 -->
<g id="node18" class="node">
<title>quake.cx(0,7)@t7</title>
<ellipse fill="none" stroke="black" cx="419.2" cy="-306" rx="27" ry="18"/>
<text text-anchor="middle" x="419.2" y="-302.3" font-family="Times,serif" font-size="14.00">cx</text>
</g>
<!-- q7_start&#45;&gt;quake.cx(0,7)@t7 -->
<g id="edge15" class="edge">
<title>q7_start&#45;&gt;quake.cx(0,7)@t7</title>
<path fill="none" stroke="black" d="M397.97,-360.05C401.21,-351.97 405.15,-342.12 408.75,-333.11"/>
<polygon fill="black" stroke="black" points="412.02,-334.37 412.48,-323.79 405.52,-331.77 412.02,-334.37"/>
</g>
<!-- q8_start -->
<g id="node9" class="node">
<title>q8_start</title>
<ellipse fill="green" stroke="green" cx="293.2" cy="-306" rx="49.29" ry="18"/>
<text text-anchor="middle" x="293.2" y="-302.3" font-family="Times,serif" font-size="14.00">q8_start</text>
</g>
<!-- quake.cx(0,8)@t8 -->
<g id="node19" class="node">
<title>quake.cx(0,8)@t8</title>
<ellipse fill="none" stroke="black" cx="293.2" cy="-234" rx="27" ry="18"/>
<text text-anchor="middle" x="293.2" y="-230.3" font-family="Times,serif" font-size="14.00">cx</text>
</g>
<!-- q8_start&#45;&gt;quake.cx(0,8)@t8 -->
<g id="edge17" class="edge">
<title>q8_start&#45;&gt;quake.cx(0,8)@t8</title>
<path fill="none" stroke="black" d="M293.2,-287.7C293.2,-279.98 293.2,-270.71 293.2,-262.11"/>
<polygon fill="black" stroke="black" points="296.7,-262.1 293.2,-252.1 289.7,-262.1 296.7,-262.1"/>
</g>
<!-- q9_start -->
<g id="node10" class="node">
<title>q9_start</title>
<ellipse fill="green" stroke="green" cx="387.2" cy="-234" rx="49.29" ry="18"/>
<text text-anchor="middle" x="387.2" y="-230.3" font-family="Times,serif" font-size="14.00">q9_start</text>
</g>
<!-- quake.cx(0,9)@t9 -->
<g id="node20" class="node">
<title>quake.cx(0,9)@t9</title>
<ellipse fill="none" stroke="black" cx="398.2" cy="-162" rx="27" ry="18"/>
<text text-anchor="middle" x="398.2" y="-158.3" font-family="Times,serif" font-size="14.00">cx</text>
</g>
<!-- q9_start&#45;&gt;quake.cx(0,9)@t9 -->
<g id="edge19" class="edge">
<title>q9_start&#45;&gt;quake.cx(0,9)@t9</title>
<path fill="none" stroke="black" d="M389.92,-215.7C391.13,-207.98 392.58,-198.71 393.94,-190.11"/>
<polygon fill="black" stroke="black" points="397.41,-190.53 395.51,-180.1 390.5,-189.44 397.41,-190.53"/>
</g>
<!-- quake.h(0)@t0&#45;&gt;quake.cx(0,1)@t1 -->
<g id="edge2" class="edge">
<title>quake.h(0)@t0&#45;&gt;quake.cx(0,1)@t1</title>
<path fill="none" stroke="black" d="M663.86,-793.12C669.75,-784.34 677.19,-773.26 683.8,-763.42"/>
<polygon fill="black" stroke="black" points="686.9,-765.07 689.57,-754.82 681.09,-761.17 686.9,-765.07"/>
</g>
<!-- quake.cx(0,1)@t1&#45;&gt;quake.cx(0,2)@t2 -->
<g id="edge4" class="edge">
<title>quake.cx(0,1)@t1&#45;&gt;quake.cx(0,2)@t2</title>
<path fill="none" stroke="black" d="M688.26,-721.81C680.98,-712.55 671.53,-700.52 663.34,-690.09"/>
<polygon fill="black" stroke="black" points="666.04,-687.86 657.11,-682.16 660.53,-692.18 666.04,-687.86"/>
</g>
<!-- quake.mz(0,1,2,3,4,5,6,7,8,9)@t10 -->
<g id="node21" class="node">
<title>quake.mz(0,1,2,3,4,5,6,7,8,9)@t10</title>
<ellipse fill="yellow" stroke="yellow" cx="521.2" cy="-90" rx="27" ry="18"/>
<text text-anchor="middle" x="521.2" y="-86.3" font-family="Times,serif" font-size="14.00">mz</text>
</g>
<!-- quake.cx(0,1)@t1&#45;&gt;quake.mz(0,1,2,3,4,5,6,7,8,9)@t10 -->
<g id="edge21" class="edge">
<title>quake.cx(0,1)@t1&#45;&gt;quake.mz(0,1,2,3,4,5,6,7,8,9)@t10</title>
<path fill="none" stroke="black" d="M700.2,-719.95C700.2,-693.29 700.2,-640.11 700.2,-595 700.2,-595 700.2,-595 700.2,-233 700.2,-159.93 607.5,-118.49 555.52,-101"/>
<polygon fill="black" stroke="black" points="556.3,-97.57 545.71,-97.81 554.14,-104.23 556.3,-97.57"/>
</g>
<!-- quake.cx(0,2)@t2&#45;&gt;quake.cx(0,3)@t3 -->
<g id="edge6" class="edge">
<title>quake.cx(0,2)@t2&#45;&gt;quake.cx(0,3)@t3</title>
<path fill="none" stroke="black" d="M634.76,-649.12C628.99,-640.34 621.71,-629.26 615.24,-619.42"/>
<polygon fill="black" stroke="black" points="618.01,-617.26 609.59,-610.82 612.16,-621.1 618.01,-617.26"/>
</g>
<!-- quake.cx(0,2)@t2&#45;&gt;quake.mz(0,1,2,3,4,5,6,7,8,9)@t10 -->
<g id="edge22" class="edge">
<title>quake.cx(0,2)@t2&#45;&gt;quake.mz(0,1,2,3,4,5,6,7,8,9)@t10</title>
<path fill="none" stroke="black" d="M646.97,-647.97C649.6,-621.34 654.2,-568.21 654.2,-523 654.2,-523 654.2,-523 654.2,-233 654.2,-173.27 590.74,-128.31 551.49,-106.21"/>
<polygon fill="black" stroke="black" points="553.02,-103.05 542.56,-101.34 549.67,-109.2 553.02,-103.05"/>
</g>
<!-- quake.cx(0,3)@t3&#45;&gt;quake.cx(0,4)@t4 -->
<g id="edge8" class="edge">
<title>quake.cx(0,3)@t3&#45;&gt;quake.cx(0,4)@t4</title>
<path fill="none" stroke="black" d="M590.38,-576.76C585.78,-568.28 580.04,-557.71 574.87,-548.2"/>
<polygon fill="black" stroke="black" points="577.81,-546.27 569.96,-539.15 571.66,-549.61 577.81,-546.27"/>
</g>
<!-- quake.cx(0,3)@t3&#45;&gt;quake.mz(0,1,2,3,4,5,6,7,8,9)@t10 -->
<g id="edge23" class="edge">
<title>quake.cx(0,3)@t3&#45;&gt;quake.mz(0,1,2,3,4,5,6,7,8,9)@t10</title>
<path fill="none" stroke="black" d="M602.55,-576.03C607.51,-549.48 616.2,-496.44 616.2,-451 616.2,-451 616.2,-451 616.2,-233 616.2,-182.52 574.2,-136.39 546.06,-111.15"/>
<polygon fill="black" stroke="black" points="548.02,-108.22 538.18,-104.3 543.43,-113.5 548.02,-108.22"/>
</g>
<!-- quake.cx(0,4)@t4&#45;&gt;quake.cx(0,5)@t5 -->
<g id="edge10" class="edge">
<title>quake.cx(0,4)@t4&#45;&gt;quake.cx(0,5)@t5</title>
<path fill="none" stroke="black" d="M552.38,-504.76C547.78,-496.28 542.04,-485.71 536.87,-476.2"/>
<polygon fill="black" stroke="black" points="539.81,-474.27 531.96,-467.15 533.66,-477.61 539.81,-474.27"/>
</g>
<!-- quake.cx(0,4)@t4&#45;&gt;quake.mz(0,1,2,3,4,5,6,7,8,9)@t10 -->
<g id="edge24" class="edge">
<title>quake.cx(0,4)@t4&#45;&gt;quake.mz(0,1,2,3,4,5,6,7,8,9)@t10</title>
<path fill="none" stroke="black" d="M564.55,-504.03C569.51,-477.48 578.2,-424.44 578.2,-379 578.2,-379 578.2,-379 578.2,-233 578.2,-189.09 554.43,-142.67 537.59,-115.3"/>
<polygon fill="black" stroke="black" points="540.5,-113.35 532.19,-106.78 534.58,-117.1 540.5,-113.35"/>
</g>
<!-- quake.cx(0,5)@t5&#45;&gt;quake.cx(0,6)@t6 -->
<g id="edge12" class="edge">
<title>quake.cx(0,5)@t5&#45;&gt;quake.cx(0,6)@t6</title>
<path fill="none" stroke="black" d="M514.38,-432.76C509.78,-424.28 504.04,-413.71 498.87,-404.2"/>
<polygon fill="black" stroke="black" points="501.81,-402.27 493.96,-395.15 495.66,-405.61 501.81,-402.27"/>
</g>
<!-- quake.cx(0,5)@t5&#45;&gt;quake.mz(0,1,2,3,4,5,6,7,8,9)@t10 -->
<g id="edge25" class="edge">
<title>quake.cx(0,5)@t5&#45;&gt;quake.mz(0,1,2,3,4,5,6,7,8,9)@t10</title>
<path fill="none" stroke="black" d="M526.55,-432.03C531.51,-405.48 540.2,-352.44 540.2,-307 540.2,-307 540.2,-307 540.2,-233 540.2,-192.64 532.56,-146.39 526.97,-117.94"/>
<polygon fill="black" stroke="black" points="530.37,-117.06 524.95,-107.95 523.5,-118.45 530.37,-117.06"/>
</g>
<!-- quake.cx(0,6)@t6&#45;&gt;quake.cx(0,7)@t7 -->
<g id="edge14" class="edge">
<title>quake.cx(0,6)@t6&#45;&gt;quake.cx(0,7)@t7</title>
<path fill="none" stroke="black" d="M471.2,-362.15C462.19,-352.6 450.3,-339.99 440.17,-329.25"/>
<polygon fill="black" stroke="black" points="442.58,-326.7 433.17,-321.82 437.49,-331.5 442.58,-326.7"/>
</g>
<!-- quake.cx(0,6)@t6&#45;&gt;quake.mz(0,1,2,3,4,5,6,7,8,9)@t10 -->
<g id="edge26" class="edge">
<title>quake.cx(0,6)@t6&#45;&gt;quake.mz(0,1,2,3,4,5,6,7,8,9)@t10</title>
<path fill="none" stroke="black" d="M487.34,-359.97C493.36,-312.18 510.43,-176.54 517.77,-118.22"/>
<polygon fill="black" stroke="black" points="521.29,-118.3 519.06,-107.94 514.34,-117.43 521.29,-118.3"/>
</g>
<!-- quake.cx(0,7)@t7&#45;&gt;quake.cx(0,8)@t8 -->
<g id="edge16" class="edge">
<title>quake.cx(0,7)@t7&#45;&gt;quake.cx(0,8)@t8</title>
<path fill="none" stroke="black" d="M398.95,-293.75C378.19,-282.22 345.71,-264.18 322.22,-251.12"/>
<polygon fill="black" stroke="black" points="323.83,-248.02 313.39,-246.22 320.43,-254.13 323.83,-248.02"/>
</g>
<!-- quake.cx(0,7)@t7&#45;&gt;quake.mz(0,1,2,3,4,5,6,7,8,9)@t10 -->
<g id="edge27" class="edge">
<title>quake.cx(0,7)@t7&#45;&gt;quake.mz(0,1,2,3,4,5,6,7,8,9)@t10</title>
<path fill="none" stroke="black" d="M427.73,-288.45C432.97,-278.07 439.71,-264.37 445.2,-252 466.14,-204.77 464.89,-190.11 488.2,-144 493.06,-134.38 499.12,-124.23 504.72,-115.42"/>
<polygon fill="black" stroke="black" points="507.81,-117.1 510.32,-106.81 501.94,-113.29 507.81,-117.1"/>
</g>
<!-- quake.cx(0,8)@t8&#45;&gt;quake.cx(0,9)@t9 -->
<g id="edge18" class="edge">
<title>quake.cx(0,8)@t8&#45;&gt;quake.cx(0,9)@t9</title>
<path fill="none" stroke="black" d="M311.97,-220.49C328.47,-209.49 352.67,-193.35 371.24,-180.97"/>
<polygon fill="black" stroke="black" points="373.21,-183.87 379.59,-175.41 369.32,-178.04 373.21,-183.87"/>
</g>
<!-- quake.cx(0,8)@t8&#45;&gt;quake.mz(0,1,2,3,4,5,6,7,8,9)@t10 -->
<g id="edge28" class="edge">
<title>quake.cx(0,8)@t8&#45;&gt;quake.mz(0,1,2,3,4,5,6,7,8,9)@t10</title>
<path fill="none" stroke="black" d="M301.75,-216.82C313.04,-196.94 334.76,-163.44 362.2,-144 399.52,-117.55 450.98,-103.59 485.13,-96.77"/>
<polygon fill="black" stroke="black" points="485.96,-100.17 495.13,-94.87 484.66,-93.29 485.96,-100.17"/>
</g>
<!-- quake.cx(0,9)@t9&#45;&gt;quake.mz(0,1,2,3,4,5,6,7,8,9)@t10 -->
<g id="edge20" class="edge">
<title>quake.cx(0,9)@t9&#45;&gt;quake.mz(0,1,2,3,4,5,6,7,8,9)@t10</title>
<path fill="none" stroke="black" d="M415.66,-148C435.13,-135.92 466.61,-117.97 490.22,-105.45"/>
<polygon fill="black" stroke="black" points="491.92,-108.51 499.17,-100.78 488.68,-102.3 491.92,-108.51"/>
</g>
<!-- quake.cx(0,9)@t9&#45;&gt;quake.mz(0,1,2,3,4,5,6,7,8,9)@t10 -->
<g id="edge29" class="edge">
<title>quake.cx(0,9)@t9&#45;&gt;quake.mz(0,1,2,3,4,5,6,7,8,9)@t10</title>
<path fill="none" stroke="black" d="M420.14,-151.27C441.23,-140.44 472.8,-122.7 495.12,-109.26"/>
<polygon fill="black" stroke="black" points="497.06,-112.18 503.77,-103.98 493.41,-106.2 497.06,-112.18"/>
</g>
<!-- q0_end -->
<g id="node22" class="node">
<title>q0_end</title>
<ellipse fill="red" stroke="red" cx="44.2" cy="-18" rx="44.39" ry="18"/>
<text text-anchor="middle" x="44.2" y="-14.3" font-family="Times,serif" font-size="14.00">q0_end</text>
</g>
<!-- quake.mz(0,1,2,3,4,5,6,7,8,9)@t10&#45;&gt;q0_end -->
<g id="edge30" class="edge">
<title>quake.mz(0,1,2,3,4,5,6,7,8,9)@t10&#45;&gt;q0_end</title>
<path fill="none" stroke="black" d="M494.11,-87.37C426.47,-82.91 244.97,-68.64 97.2,-36 93.59,-35.2 89.87,-34.26 86.17,-33.24"/>
<polygon fill="black" stroke="black" points="87.03,-29.85 76.45,-30.4 85.06,-36.57 87.03,-29.85"/>
</g>
<!-- q1_end -->
<g id="node23" class="node">
<title>q1_end</title>
<ellipse fill="red" stroke="red" cx="150.2" cy="-18" rx="44.39" ry="18"/>
<text text-anchor="middle" x="150.2" y="-14.3" font-family="Times,serif" font-size="14.00">q1_end</text>
</g>
<!-- quake.mz(0,1,2,3,4,5,6,7,8,9)@t10&#45;&gt;q1_end -->
<g id="edge31" class="edge">
<title>quake.mz(0,1,2,3,4,5,6,7,8,9)@t10&#45;&gt;q1_end</title>
<path fill="none" stroke="black" d="M494.55,-85.89C439.58,-79.18 309.81,-61.84 203.2,-36 199.76,-35.17 196.22,-34.22 192.68,-33.22"/>
<polygon fill="black" stroke="black" points="193.36,-29.77 182.78,-30.27 191.36,-36.48 193.36,-29.77"/>
</g>
<!-- q2_end -->
<g id="node24" class="node">
<title>q2_end</title>
<ellipse fill="red" stroke="red" cx="256.2" cy="-18" rx="44.39" ry="18"/>
<text text-anchor="middle" x="256.2" y="-14.3" font-family="Times,serif" font-size="14.00">q2_end</text>
</g>
<!-- quake.mz(0,1,2,3,4,5,6,7,8,9)@t10&#45;&gt;q2_end -->
<g id="edge32" class="edge">
<title>quake.mz(0,1,2,3,4,5,6,7,8,9)@t10&#45;&gt;q2_end</title>
<path fill="none" stroke="black" d="M495.93,-83.25C456.04,-74.04 376.15,-55.08 309.2,-36 305.89,-35.06 302.48,-34.05 299.06,-33.01"/>
<polygon fill="black" stroke="black" points="300.04,-29.65 289.46,-30.03 297.97,-36.34 300.04,-29.65"/>
</g>
<!-- q3_end -->
<g id="node25" class="node">
<title>q3_end</title>
<ellipse fill="red" stroke="red" cx="362.2" cy="-18" rx="44.39" ry="18"/>
<text text-anchor="middle" x="362.2" y="-14.3" font-family="Times,serif" font-size="14.00">q3_end</text>
</g>
<!-- quake.mz(0,1,2,3,4,5,6,7,8,9)@t10&#45;&gt;q3_end -->
<g id="edge33" class="edge">
<title>quake.mz(0,1,2,3,4,5,6,7,8,9)@t10&#45;&gt;q3_end</title>
<path fill="none" stroke="black" d="M499.09,-79.27C473.57,-68.03 431.16,-49.36 400.29,-35.77"/>
<polygon fill="black" stroke="black" points="401.68,-32.56 391.12,-31.73 398.86,-38.96 401.68,-32.56"/>
</g>
<!-- q4_end -->
<g id="node26" class="node">
<title>q4_end</title>
<ellipse fill="red" stroke="red" cx="468.2" cy="-18" rx="44.39" ry="18"/>
<text text-anchor="middle" x="468.2" y="-14.3" font-family="Times,serif" font-size="14.00">q4_end</text>
</g>
<!-- quake.mz(0,1,2,3,4,5,6,7,8,9)@t10&#45;&gt;q4_end -->
<g id="edge34" class="edge">
<title>quake.mz(0,1,2,3,4,5,6,7,8,9)@t10&#45;&gt;q4_end</title>
<path fill="none" stroke="black" d="M509.43,-73.46C502.76,-64.65 494.26,-53.43 486.72,-43.46"/>
<polygon fill="black" stroke="black" points="489.49,-41.33 480.66,-35.47 483.91,-45.55 489.49,-41.33"/>
</g>
<!-- q5_end -->
<g id="node27" class="node">
<title>q5_end</title>
<ellipse fill="red" stroke="red" cx="574.2" cy="-18" rx="44.39" ry="18"/>
<text text-anchor="middle" x="574.2" y="-14.3" font-family="Times,serif" font-size="14.00">q5_end</text>
</g>
<!-- quake.mz(0,1,2,3,4,5,6,7,8,9)@t10&#45;&gt;q5_end -->
<g id="edge35" class="edge">
<title>quake.mz(0,1,2,3,4,5,6,7,8,9)@t10&#45;&gt;q5_end</title>
<path fill="none" stroke="black" d="M532.96,-73.46C539.63,-64.65 548.13,-53.43 555.67,-43.46"/>
<polygon fill="black" stroke="black" points="558.48,-45.55 561.73,-35.47 552.9,-41.33 558.48,-45.55"/>
</g>
<!-- q6_end -->
<g id="node28" class="node">
<title>q6_end</title>
<ellipse fill="red" stroke="red" cx="680.2" cy="-18" rx="44.39" ry="18"/>
<text text-anchor="middle" x="680.2" y="-14.3" font-family="Times,serif" font-size="14.00">q6_end</text>
</g>
<!-- quake.mz(0,1,2,3,4,5,6,7,8,9)@t10&#45;&gt;q6_end -->
<g id="edge36" class="edge">
<title>quake.mz(0,1,2,3,4,5,6,7,8,9)@t10&#45;&gt;q6_end</title>
<path fill="none" stroke="black" d="M543.3,-79.27C568.82,-68.03 611.24,-49.36 642.1,-35.77"/>
<polygon fill="black" stroke="black" points="643.53,-38.96 651.28,-31.73 640.71,-32.56 643.53,-38.96"/>
</g>
<!-- q7_end -->
<g id="node29" class="node">
<title>q7_end</title>
<ellipse fill="red" stroke="red" cx="786.2" cy="-18" rx="44.39" ry="18"/>
<text text-anchor="middle" x="786.2" y="-14.3" font-family="Times,serif" font-size="14.00">q7_end</text>
</g>
<!-- quake.mz(0,1,2,3,4,5,6,7,8,9)@t10&#45;&gt;q7_end -->
<g id="edge37" class="edge">
<title>quake.mz(0,1,2,3,4,5,6,7,8,9)@t10&#45;&gt;q7_end</title>
<path fill="none" stroke="black" d="M546.47,-83.25C586.35,-74.04 666.25,-55.08 733.2,-36 736.5,-35.06 739.91,-34.05 743.34,-33.01"/>
<polygon fill="black" stroke="black" points="744.42,-36.34 752.94,-30.03 742.35,-29.65 744.42,-36.34"/>
</g>
<!-- q8_end -->
<g id="node30" class="node">
<title>q8_end</title>
<ellipse fill="red" stroke="red" cx="892.2" cy="-18" rx="44.39" ry="18"/>
<text text-anchor="middle" x="892.2" y="-14.3" font-family="Times,serif" font-size="14.00">q8_end</text>
</g>
<!-- quake.mz(0,1,2,3,4,5,6,7,8,9)@t10&#45;&gt;q8_end -->
<g id="edge38" class="edge">
<title>quake.mz(0,1,2,3,4,5,6,7,8,9)@t10&#45;&gt;q8_end</title>
<path fill="none" stroke="black" d="M547.84,-85.89C602.81,-79.18 732.58,-61.84 839.2,-36 842.63,-35.17 846.17,-34.22 849.71,-33.22"/>
<polygon fill="black" stroke="black" points="851.03,-36.48 859.61,-30.27 849.03,-29.77 851.03,-36.48"/>
</g>
<!-- q9_end -->
<g id="node31" class="node">
<title>q9_end</title>
<ellipse fill="red" stroke="red" cx="998.2" cy="-18" rx="44.39" ry="18"/>
<text text-anchor="middle" x="998.2" y="-14.3" font-family="Times,serif" font-size="14.00">q9_end</text>
</g>
<!-- quake.mz(0,1,2,3,4,5,6,7,8,9)@t10&#45;&gt;q9_end -->
<g id="edge39" class="edge">
<title>quake.mz(0,1,2,3,4,5,6,7,8,9)@t10&#45;&gt;q9_end</title>
<path fill="none" stroke="black" d="M548.28,-87.37C615.92,-82.91 797.42,-68.64 945.2,-36 948.81,-35.2 952.52,-34.26 956.23,-33.24"/>
<polygon fill="black" stroke="black" points="957.33,-36.57 965.94,-30.4 955.36,-29.85 957.33,-36.57"/>
</g>
</g>
</svg>
