<?xml version="1.0" encoding="UTF-8" standalone="no"?>
<!DOCTYPE svg PUBLIC "-//W3C//DTD SVG 1.1//EN"
 "http://www.w3.org/Graphics/SVG/1.1/DTD/svg11.dtd">
<!-- Generated by graphviz version 2.43.0 (0)
 -->
<!-- Title: k_DAG Pages: 1 -->
<svg width="1050pt" height="908pt"
 viewBox="0.00 0.00 1050.39 908.00" xmlns="http://www.w3.org/2000/svg" xmlns:xlink="http://www.w3.org/1999/xlink">
<g id="graph0" class="graph" transform="scale(1 1) rotate(0) translate(4 904)">
<title>k_DAG</title>
<polygon fill="white" stroke="transparent" points="-4,4 -4,-904 1046.39,-904 1046.39,4 -4,4"/>
<!-- q0_start -->
<g id="node1" class="node">
<title>q0_start</title>
<ellipse fill="green" stroke="green" cx="507.2" cy="-882" rx="49.29" ry="18"/>
<text text-anchor="middle" x="507.2" y="-878.3" font-family="Times,serif" font-size="14.00">q0_start</text>
</g>
<!-- quake.x(0)@t0 -->
<g id="node4" class="node">
<title>quake.x(0)@t0</title>
<ellipse fill="none" stroke="black" cx="413.2" cy="-810" rx="27" ry="18"/>
<text text-anchor="middle" x="413.2" y="-806.3" font-family="Times,serif" font-size="14.00">x</text>
</g>
<!-- q0_start&#45;&gt;quake.x(0)@t0 -->
<g id="edge1" class="edge">
<title>q0_start&#45;&gt;quake.x(0)@t0</title>
<path fill="none" stroke="black" d="M486.33,-865.46C472.32,-855.03 453.75,-841.2 438.84,-830.09"/>
<polygon fill="black" stroke="black" points="440.65,-827.08 430.54,-823.91 436.47,-832.69 440.65,-827.08"/>
</g>
<!-- quake.h(0)@t0 -->
<g id="node22" class="node">
<title>quake.h(0)@t0</title>
<ellipse fill="none" stroke="black" cx="615.2" cy="-810" rx="27" ry="18"/>
<text text-anchor="middle" x="615.2" y="-806.3" font-family="Times,serif" font-size="14.00">h</text>
</g>
<!-- q0_start&#45;&gt;quake.h(0)@t0 -->
<g id="edge15" class="edge">
<title>q0_start&#45;&gt;quake.h(0)@t0</title>
<path fill="none" stroke="black" d="M530.36,-865.98C547.15,-855.1 569.91,-840.35 587.63,-828.87"/>
<polygon fill="black" stroke="black" points="589.89,-831.57 596.38,-823.2 586.08,-825.7 589.89,-831.57"/>
</g>
<!-- q1_start -->
<g id="node2" class="node">
<title>q1_start</title>
<ellipse fill="green" stroke="green" cx="516.2" cy="-810" rx="49.29" ry="18"/>
<text text-anchor="middle" x="516.2" y="-806.3" font-family="Times,serif" font-size="14.00">q1_start</text>
</g>
<!-- quake.cr1(1,0)@t3 params=(1.5707963267948966,) -->
<g id="node7" class="node">
<title>quake.cr1(1,0)@t3 params=(1.5707963267948966,)</title>
<ellipse fill="none" stroke="black" cx="377.2" cy="-666" rx="27" ry="18"/>
<text text-anchor="middle" x="377.2" y="-662.3" font-family="Times,serif" font-size="14.00">cr1</text>
</g>
<!-- q1_start&#45;&gt;quake.cr1(1,0)@t3 params=(1.5707963267948966,) -->
<g id="edge4" class="edge">
<title>q1_start&#45;&gt;quake.cr1(1,0)@t3 params=(1.5707963267948966,)</title>
<path fill="none" stroke="black" d="M500.74,-792.84C483.59,-774.95 455.05,-745.28 430.2,-720 419.97,-709.6 408.55,-698.15 398.93,-688.57"/>
<polygon fill="black" stroke="black" points="401.22,-685.9 391.66,-681.33 396.28,-690.87 401.22,-685.9"/>
</g>
<!-- quake.cx(0,1)@t1 -->
<g id="node23" class="node">
<title>quake.cx(0,1)@t1</title>
<ellipse fill="none" stroke="black" cx="634.2" cy="-738" rx="27" ry="18"/>
<text text-anchor="middle" x="634.2" y="-734.3" font-family="Times,serif" font-size="14.00">cx</text>
</g>
<!-- q1_start&#45;&gt;quake.cx(0,1)@t1 -->
<g id="edge17" class="edge">
<title>q1_start&#45;&gt;quake.cx(0,1)@t1</title>
<path fill="none" stroke="black" d="M540.93,-794.33C559.84,-783.11 585.92,-767.64 605.7,-755.91"/>
<polygon fill="black" stroke="black" points="607.75,-758.76 614.56,-750.65 604.18,-752.74 607.75,-758.76"/>
</g>
<!-- q2_start -->
<g id="node3" class="node">
<title>q2_start</title>
<ellipse fill="green" stroke="green" cx="538.2" cy="-738" rx="49.29" ry="18"/>
<text text-anchor="middle" x="538.2" y="-734.3" font-family="Times,serif" font-size="14.00">q2_start</text>
</g>
<!-- quake.x(2)@t1 -->
<g id="node5" class="node">
<title>quake.x(2)@t1</title>
<ellipse fill="none" stroke="black" cx="449.2" cy="-666" rx="27" ry="18"/>
<text text-anchor="middle" x="449.2" y="-662.3" font-family="Times,serif" font-size="14.00">x</text>
</g>
<!-- q2_start&#45;&gt;quake.x(2)@t1 -->
<g id="edge2" class="edge">
<title>q2_start&#45;&gt;quake.x(2)@t1</title>
<path fill="none" stroke="black" d="M518.44,-721.46C505.38,-711.19 488.15,-697.64 474.14,-686.62"/>
<polygon fill="black" stroke="black" points="475.93,-683.57 465.9,-680.14 471.6,-689.07 475.93,-683.57"/>
</g>
<!-- quake.cx(0,2)@t2 -->
<g id="node24" class="node">
<title>quake.cx(0,2)@t2</title>
<ellipse fill="none" stroke="black" cx="637.2" cy="-666" rx="27" ry="18"/>
<text text-anchor="middle" x="637.2" y="-662.3" font-family="Times,serif" font-size="14.00">cx</text>
</g>
<!-- q2_start&#45;&gt;quake.cx(0,2)@t2 -->
<g id="edge19" class="edge">
<title>q2_start&#45;&gt;quake.cx(0,2)@t2</title>
<path fill="none" stroke="black" d="M560.17,-721.46C575.16,-710.86 595.1,-696.76 610.94,-685.57"/>
<polygon fill="black" stroke="black" points="613.11,-688.32 619.25,-679.69 609.07,-682.6 613.11,-688.32"/>
</g>
<!-- quake.h(0)@t2 -->
<g id="node6" class="node">
<title>quake.h(0)@t2</title>
<ellipse fill="none" stroke="black" cx="394.2" cy="-738" rx="27" ry="18"/>
<text text-anchor="middle" x="394.2" y="-734.3" font-family="Times,serif" font-size="14.00">h</text>
</g>
<!-- quake.x(0)@t0&#45;&gt;quake.h(0)@t2 -->
<g id="edge3" class="edge">
<title>quake.x(0)@t0&#45;&gt;quake.h(0)@t2</title>
<path fill="none" stroke="black" d="M408.6,-792.05C406.45,-784.14 403.84,-774.54 401.44,-765.69"/>
<polygon fill="black" stroke="black" points="404.75,-764.52 398.75,-755.79 397.99,-766.36 404.75,-764.52"/>
</g>
<!-- quake.cr1(2,0)@t4 params=(0.7853981633974483,) -->
<g id="node8" class="node">
<title>quake.cr1(2,0)@t4 params=(0.7853981633974483,)</title>
<ellipse fill="none" stroke="black" cx="394.2" cy="-594" rx="27" ry="18"/>
<text text-anchor="middle" x="394.2" y="-590.3" font-family="Times,serif" font-size="14.00">cr1</text>
</g>
<!-- quake.x(2)@t1&#45;&gt;quake.cr1(2,0)@t4 params=(0.7853981633974483,) -->
<g id="edge6" class="edge">
<title>quake.x(2)@t1&#45;&gt;quake.cr1(2,0)@t4 params=(0.7853981633974483,)</title>
<path fill="none" stroke="black" d="M437.26,-649.81C429.98,-640.55 420.53,-628.52 412.34,-618.09"/>
<polygon fill="black" stroke="black" points="415.04,-615.86 406.11,-610.16 409.53,-620.18 415.04,-615.86"/>
</g>
<!-- quake.h(0)@t2&#45;&gt;quake.cr1(1,0)@t3 params=(1.5707963267948966,) -->
<g id="edge5" class="edge">
<title>quake.h(0)@t2&#45;&gt;quake.cr1(1,0)@t3 params=(1.5707963267948966,)</title>
<path fill="none" stroke="black" d="M390.08,-720.05C388.19,-712.26 385.9,-702.82 383.77,-694.08"/>
<polygon fill="black" stroke="black" points="387.15,-693.17 381.39,-684.28 380.35,-694.82 387.15,-693.17"/>
</g>
<!-- quake.cr1(1,0)@t3 params=(1.5707963267948966,)&#45;&gt;quake.cr1(2,0)@t4 params=(0.7853981633974483,) -->
<g id="edge7" class="edge">
<title>quake.cr1(1,0)@t3 params=(1.5707963267948966,)&#45;&gt;quake.cr1(2,0)@t4 params=(0.7853981633974483,)</title>
<path fill="none" stroke="black" d="M381.31,-648.05C383.2,-640.26 385.5,-630.82 387.62,-622.08"/>
<polygon fill="black" stroke="black" points="391.04,-622.82 390,-612.28 384.24,-621.17 391.04,-622.82"/>
</g>
<!-- quake.h(1)@t5 -->
<g id="node9" class="node">
<title>quake.h(1)@t5</title>
<ellipse fill="none" stroke="black" cx="322.2" cy="-594" rx="27" ry="18"/>
<text text-anchor="middle" x="322.2" y="-590.3" font-family="Times,serif" font-size="14.00">h</text>
</g>
<!-- quake.cr1(1,0)@t3 params=(1.5707963267948966,)&#45;&gt;quake.h(1)@t5 -->
<g id="edge8" class="edge">
<title>quake.cr1(1,0)@t3 params=(1.5707963267948966,)&#45;&gt;quake.h(1)@t5</title>
<path fill="none" stroke="black" d="M365.26,-649.81C357.98,-640.55 348.53,-628.52 340.34,-618.09"/>
<polygon fill="black" stroke="black" points="343.04,-615.86 334.11,-610.16 337.53,-620.18 343.04,-615.86"/>
</g>
<!-- quake.cr1(2,1)@t6 params=(1.5707963267948966,) -->
<g id="node10" class="node">
<title>quake.cr1(2,1)@t6 params=(1.5707963267948966,)</title>
<ellipse fill="none" stroke="black" cx="322.2" cy="-522" rx="27" ry="18"/>
<text text-anchor="middle" x="322.2" y="-518.3" font-family="Times,serif" font-size="14.00">cr1</text>
</g>
<!-- quake.cr1(2,0)@t4 params=(0.7853981633974483,)&#45;&gt;quake.cr1(2,1)@t6 params=(1.5707963267948966,) -->
<g id="edge9" class="edge">
<title>quake.cr1(2,0)@t4 params=(0.7853981633974483,)&#45;&gt;quake.cr1(2,1)@t6 params=(1.5707963267948966,)</title>
<path fill="none" stroke="black" d="M379.63,-578.83C369.45,-568.94 355.67,-555.55 344.17,-544.36"/>
<polygon fill="black" stroke="black" points="346.6,-541.85 336.99,-537.38 341.72,-546.87 346.6,-541.85"/>
</g>
<!-- quake.h(1)@t5&#45;&gt;quake.cr1(2,1)@t6 params=(1.5707963267948966,) -->
<g id="edge10" class="edge">
<title>quake.h(1)@t5&#45;&gt;quake.cr1(2,1)@t6 params=(1.5707963267948966,)</title>
<path fill="none" stroke="black" d="M322.2,-575.7C322.2,-567.98 322.2,-558.71 322.2,-550.11"/>
<polygon fill="black" stroke="black" points="325.7,-550.1 322.2,-540.1 318.7,-550.1 325.7,-550.1"/>
</g>
<!-- quake.h(2)@t7 -->
<g id="node11" class="node">
<title>quake.h(2)@t7</title>
<ellipse fill="none" stroke="black" cx="290.2" cy="-450" rx="27" ry="18"/>
<text text-anchor="middle" x="290.2" y="-446.3" font-family="Times,serif" font-size="14.00">h</text>
</g>
<!-- quake.cr1(2,1)@t6 params=(1.5707963267948966,)&#45;&gt;quake.h(2)@t7 -->
<g id="edge11" class="edge">
<title>quake.cr1(2,1)@t6 params=(1.5707963267948966,)&#45;&gt;quake.h(2)@t7</title>
<path fill="none" stroke="black" d="M314.61,-504.41C310.83,-496.13 306.16,-485.92 301.93,-476.66"/>
<polygon fill="black" stroke="black" points="305.07,-475.11 297.73,-467.47 298.7,-478.02 305.07,-475.11"/>
</g>
<!-- q0_end -->
<g id="node12" class="node">
<title>q0_end</title>
<ellipse fill="red" stroke="red" cx="44.2" cy="-18" rx="44.39" ry="18"/>
<text text-anchor="middle" x="44.2" y="-14.3" font-family="Times,serif" font-size="14.00">q0_end</text>
</g>
<!-- q1_end -->
<g id="node13" class="node">
<title>q1_end</title>
<ellipse fill="red" stroke="red" cx="150.2" cy="-18" rx="44.39" ry="18"/>
<text text-anchor="middle" x="150.2" y="-14.3" font-family="Times,serif" font-size="14.00">q1_end</text>
</g>
<!-- q2_end -->
<g id="node14" class="node">
<title>q2_end</title>
<ellipse fill="red" stroke="red" cx="256.2" cy="-18" rx="44.39" ry="18"/>
<text text-anchor="middle" x="256.2" y="-14.3" font-family="Times,serif" font-size="14.00">q2_end</text>
</g>
<!-- q3_start -->
<g id="node15" class="node">
<title>q3_start</title>
<ellipse fill="green" stroke="green" cx="543.2" cy="-666" rx="49.29" ry="18"/>
<text text-anchor="middle" x="543.2" y="-662.3" font-family="Times,serif" font-size="14.00">q3_start</text>
</g>
<!-- quake.cx(0,3)@t3 -->
<g id="node25" class="node">
<title>quake.cx(0,3)@t3</title>
<ellipse fill="none" stroke="black" cx="599.2" cy="-594" rx="27" ry="18"/>
<text text-anchor="middle" x="599.2" y="-590.3" font-family="Times,serif" font-size="14.00">cx</text>
</g>
<!-- q3_start&#45;&gt;quake.cx(0,3)@t3 -->
<g id="edge21" class="edge">
<title>q3_start&#45;&gt;quake.cx(0,3)@t3</title>
<path fill="none" stroke="black" d="M556.47,-648.41C563.64,-639.44 572.62,-628.21 580.5,-618.37"/>
<polygon fill="black" stroke="black" points="583.27,-620.51 586.79,-610.51 577.81,-616.13 583.27,-620.51"/>
</g>
<!-- q4_start -->
<g id="node16" class="node">
<title>q4_start</title>
<ellipse fill="green" stroke="green" cx="505.2" cy="-594" rx="49.29" ry="18"/>
<text text-anchor="middle" x="505.2" y="-590.3" font-family="Times,serif" font-size="14.00">q4_start</text>
</g>
<!-- quake.cx(0,4)@t4 -->
<g id="node26" class="node">
<title>quake.cx(0,4)@t4</title>
<ellipse fill="none" stroke="black" cx="561.2" cy="-522" rx="27" ry="18"/>
<text text-anchor="middle" x="561.2" y="-518.3" font-family="Times,serif" font-size="14.00">cx</text>
</g>
<!-- q4_start&#45;&gt;quake.cx(0,4)@t4 -->
<g id="edge23" class="edge">
<title>q4_start&#45;&gt;quake.cx(0,4)@t4</title>
<path fill="none" stroke="black" d="M518.47,-576.41C525.64,-567.44 534.62,-556.21 542.5,-546.37"/>
<polygon fill="black" stroke="black" points="545.27,-548.51 548.79,-538.51 539.81,-544.13 545.27,-548.51"/>
</g>
<!-- q5_start -->
<g id="node17" class="node">
<title>q5_start</title>
<ellipse fill="green" stroke="green" cx="467.2" cy="-522" rx="49.29" ry="18"/>
<text text-anchor="middle" x="467.2" y="-518.3" font-family="Times,serif" font-size="14.00">q5_start</text>
</g>
<!-- quake.cx(0,5)@t5 -->
<g id="node27" class="node">
<title>quake.cx(0,5)@t5</title>
<ellipse fill="none" stroke="black" cx="508.2" cy="-450" rx="27" ry="18"/>
<text text-anchor="middle" x="508.2" y="-446.3" font-family="Times,serif" font-size="14.00">cx</text>
</g>
<!-- q5_start&#45;&gt;quake.cx(0,5)@t5 -->
<g id="edge25" class="edge">
<title>q5_start&#45;&gt;quake.cx(0,5)@t5</title>
<path fill="none" stroke="black" d="M477.12,-504.05C482.03,-495.68 488.05,-485.4 493.47,-476.13"/>
<polygon fill="black" stroke="black" points="496.61,-477.7 498.64,-467.31 490.57,-474.17 496.61,-477.7"/>
</g>
<!-- q6_start -->
<g id="node18" class="node">
<title>q6_start</title>
<ellipse fill="green" stroke="green" cx="384.2" cy="-450" rx="49.29" ry="18"/>
<text text-anchor="middle" x="384.2" y="-446.3" font-family="Times,serif" font-size="14.00">q6_start</text>
</g>
<!-- quake.cx(0,6)@t6 -->
<g id="node28" class="node">
<title>quake.cx(0,6)@t6</title>
<ellipse fill="none" stroke="black" cx="369.2" cy="-378" rx="27" ry="18"/>
<text text-anchor="middle" x="369.2" y="-374.3" font-family="Times,serif" font-size="14.00">cx</text>
</g>
<!-- q6_start&#45;&gt;quake.cx(0,6)@t6 -->
<g id="edge27" class="edge">
<title>q6_start&#45;&gt;quake.cx(0,6)@t6</title>
<path fill="none" stroke="black" d="M380.49,-431.7C378.84,-423.98 376.85,-414.71 375.01,-406.11"/>
<polygon fill="black" stroke="black" points="378.38,-405.15 372.86,-396.1 371.53,-406.62 378.38,-405.15"/>
</g>
<!-- q7_start -->
<g id="node19" class="node">
<title>q7_start</title>
<ellipse fill="green" stroke="green" cx="463.2" cy="-378" rx="49.29" ry="18"/>
<text text-anchor="middle" x="463.2" y="-374.3" font-family="Times,serif" font-size="14.00">q7_start</text>
</g>
<!-- quake.cx(0,7)@t7 -->
<g id="node29" class="node">
<title>quake.cx(0,7)@t7</title>
<ellipse fill="none" stroke="black" cx="463.2" cy="-306" rx="27" ry="18"/>
<text text-anchor="middle" x="463.2" y="-302.3" font-family="Times,serif" font-size="14.00">cx</text>
</g>
<!-- q7_start&#45;&gt;quake.cx(0,7)@t7 -->
<g id="edge29" class="edge">
<title>q7_start&#45;&gt;quake.cx(0,7)@t7</title>
<path fill="none" stroke="black" d="M463.2,-359.7C463.2,-351.98 463.2,-342.71 463.2,-334.11"/>
<polygon fill="black" stroke="black" points="466.7,-334.1 463.2,-324.1 459.7,-334.1 466.7,-334.1"/>
</g>
<!-- q8_start -->
<g id="node20" class="node">
<title>q8_start</title>
<ellipse fill="green" stroke="green" cx="369.2" cy="-306" rx="49.29" ry="18"/>
<text text-anchor="middle" x="369.2" y="-302.3" font-family="Times,serif" font-size="14.00">q8_start</text>
</g>
<!-- quake.cx(0,8)@t8 -->
<g id="node30" class="node">
<title>quake.cx(0,8)@t8</title>
<ellipse fill="none" stroke="black" cx="447.2" cy="-234" rx="27" ry="18"/>
<text text-anchor="middle" x="447.2" y="-230.3" font-family="Times,serif" font-size="14.00">cx</text>
</g>
<!-- q8_start&#45;&gt;quake.cx(0,8)@t8 -->
<g id="edge31" class="edge">
<title>q8_start&#45;&gt;quake.cx(0,8)@t8</title>
<path fill="none" stroke="black" d="M386.9,-289.12C397.85,-279.28 412.04,-266.55 423.91,-255.9"/>
<polygon fill="black" stroke="black" points="426.57,-258.21 431.68,-248.93 421.9,-253 426.57,-258.21"/>
</g>
<!-- q9_start -->
<g id="node21" class="node">
<title>q9_start</title>
<ellipse fill="green" stroke="green" cx="353.2" cy="-234" rx="49.29" ry="18"/>
<text text-anchor="middle" x="353.2" y="-230.3" font-family="Times,serif" font-size="14.00">q9_start</text>
</g>
<!-- quake.cx(0,9)@t9 -->
<g id="node31" class="node">
<title>quake.cx(0,9)@t9</title>
<ellipse fill="none" stroke="black" cx="409.2" cy="-162" rx="27" ry="18"/>
<text text-anchor="middle" x="409.2" y="-158.3" font-family="Times,serif" font-size="14.00">cx</text>
</g>
<!-- q9_start&#45;&gt;quake.cx(0,9)@t9 -->
<g id="edge33" class="edge">
<title>q9_start&#45;&gt;quake.cx(0,9)@t9</title>
<path fill="none" stroke="black" d="M366.47,-216.41C373.64,-207.44 382.62,-196.21 390.5,-186.37"/>
<polygon fill="black" stroke="black" points="393.27,-188.51 396.79,-178.51 387.81,-184.13 393.27,-188.51"/>
</g>
<!-- quake.h(0)@t0&#45;&gt;quake.cx(0,1)@t1 -->
<g id="edge16" class="edge">
<title>quake.h(0)@t0&#45;&gt;quake.cx(0,1)@t1</title>
<path fill="none" stroke="black" d="M619.8,-792.05C621.94,-784.14 624.55,-774.54 626.95,-765.69"/>
<polygon fill="black" stroke="black" points="630.4,-766.36 629.64,-755.79 623.64,-764.52 630.4,-766.36"/>
</g>
<!-- quake.cx(0,1)@t1&#45;&gt;quake.cx(0,2)@t2 -->
<g id="edge18" class="edge">
<title>quake.cx(0,1)@t1&#45;&gt;quake.cx(0,2)@t2</title>
<path fill="none" stroke="black" d="M634.94,-719.7C635.27,-711.98 635.67,-702.71 636.03,-694.11"/>
<polygon fill="black" stroke="black" points="639.53,-694.25 636.46,-684.1 632.54,-693.95 639.53,-694.25"/>
</g>
<!-- quake.mz(0,1,2,3,4,5,6,7,8,9)@t10 -->
<g id="node32" class="node">
<title>quake.mz(0,1,2,3,4,5,6,7,8,9)@t10</title>
<ellipse fill="yellow" stroke="yellow" cx="521.2" cy="-90" rx="27" ry="18"/>
<text text-anchor="middle" x="521.2" y="-86.3" font-family="Times,serif" font-size="14.00">mz</text>
</g>
<!-- quake.cx(0,1)@t1&#45;&gt;quake.mz(0,1,2,3,4,5,6,7,8,9)@t10 -->
<g id="edge35" class="edge">
<title>quake.cx(0,1)@t1&#45;&gt;quake.mz(0,1,2,3,4,5,6,7,8,9)@t10</title>
<path fill="none" stroke="black" d="M647.67,-722.32C656.22,-712.24 666.83,-698.17 673.2,-684 689.78,-647.11 692.2,-635.45 692.2,-595 692.2,-595 692.2,-595 692.2,-233 692.2,-162.42 604.91,-120.21 555.06,-101.86"/>
<polygon fill="black" stroke="black" points="555.93,-98.45 545.33,-98.4 553.59,-105.05 555.93,-98.45"/>
</g>
<!-- quake.cx(0,2)@t2&#45;&gt;quake.cx(0,3)@t3 -->
<g id="edge20" class="edge">
<title>quake.cx(0,2)@t2&#45;&gt;quake.cx(0,3)@t3</title>
<path fill="none" stroke="black" d="M628.38,-648.76C623.78,-640.28 618.04,-629.71 612.87,-620.2"/>
<polygon fill="black" stroke="black" points="615.81,-618.27 607.96,-611.15 609.66,-621.61 615.81,-618.27"/>
</g>
<!-- quake.cx(0,2)@t2&#45;&gt;quake.mz(0,1,2,3,4,5,6,7,8,9)@t10 -->
<g id="edge36" class="edge">
<title>quake.cx(0,2)@t2&#45;&gt;quake.mz(0,1,2,3,4,5,6,7,8,9)@t10</title>
<path fill="none" stroke="black" d="M640.55,-648.03C645.51,-621.48 654.2,-568.44 654.2,-523 654.2,-523 654.2,-523 654.2,-233 654.2,-173.27 590.74,-128.31 551.49,-106.21"/>
<polygon fill="black" stroke="black" points="553.02,-103.05 542.56,-101.34 549.67,-109.2 553.02,-103.05"/>
</g>
<!-- quake.cx(0,3)@t3&#45;&gt;quake.cx(0,4)@t4 -->
<g id="edge22" class="edge">
<title>quake.cx(0,3)@t3&#45;&gt;quake.cx(0,4)@t4</title>
<path fill="none" stroke="black" d="M590.38,-576.76C585.78,-568.28 580.04,-557.71 574.87,-548.2"/>
<polygon fill="black" stroke="black" points="577.81,-546.27 569.96,-539.15 571.66,-549.61 577.81,-546.27"/>
</g>
<!-- quake.cx(0,3)@t3&#45;&gt;quake.mz(0,1,2,3,4,5,6,7,8,9)@t10 -->
<g id="edge37" class="edge">
<title>quake.cx(0,3)@t3&#45;&gt;quake.mz(0,1,2,3,4,5,6,7,8,9)@t10</title>
<path fill="none" stroke="black" d="M602.55,-576.03C607.51,-549.48 616.2,-496.44 616.2,-451 616.2,-451 616.2,-451 616.2,-233 616.2,-182.52 574.2,-136.39 546.06,-111.15"/>
<polygon fill="black" stroke="black" points="548.02,-108.22 538.18,-104.3 543.43,-113.5 548.02,-108.22"/>
</g>
<!-- quake.cx(0,4)@t4&#45;&gt;quake.cx(0,5)@t5 -->
<g id="edge24" class="edge">
<title>quake.cx(0,4)@t4&#45;&gt;quake.cx(0,5)@t5</title>
<path fill="none" stroke="black" d="M549.43,-505.46C542.57,-496.4 533.78,-484.79 526.07,-474.61"/>
<polygon fill="black" stroke="black" points="528.75,-472.35 519.93,-466.49 523.17,-476.58 528.75,-472.35"/>
</g>
<!-- quake.cx(0,4)@t4&#45;&gt;quake.mz(0,1,2,3,4,5,6,7,8,9)@t10 -->
<g id="edge38" class="edge">
<title>quake.cx(0,4)@t4&#45;&gt;quake.mz(0,1,2,3,4,5,6,7,8,9)@t10</title>
<path fill="none" stroke="black" d="M564.55,-504.03C569.51,-477.48 578.2,-424.44 578.2,-379 578.2,-379 578.2,-379 578.2,-233 578.2,-189.09 554.43,-142.67 537.59,-115.3"/>
<polygon fill="black" stroke="black" points="540.5,-113.35 532.19,-106.78 534.58,-117.1 540.5,-113.35"/>
</g>
<!-- quake.cx(0,5)@t5&#45;&gt;quake.cx(0,6)@t6 -->
<g id="edge26" class="edge">
<title>quake.cx(0,5)@t5&#45;&gt;quake.cx(0,6)@t6</title>
<path fill="none" stroke="black" d="M487.39,-438.52C464.05,-426.77 425.99,-407.6 399.38,-394.2"/>
<polygon fill="black" stroke="black" points="400.65,-390.92 390.15,-389.55 397.51,-397.18 400.65,-390.92"/>
</g>
<!-- quake.cx(0,5)@t5&#45;&gt;quake.mz(0,1,2,3,4,5,6,7,8,9)@t10 -->
<g id="edge39" class="edge">
<title>quake.cx(0,5)@t5&#45;&gt;quake.mz(0,1,2,3,4,5,6,7,8,9)@t10</title>
<path fill="none" stroke="black" d="M514.52,-432.23C523.84,-405.94 540.2,-353.25 540.2,-307 540.2,-307 540.2,-307 540.2,-233 540.2,-192.64 532.56,-146.39 526.97,-117.94"/>
<polygon fill="black" stroke="black" points="530.37,-117.06 524.95,-107.95 523.5,-118.45 530.37,-117.06"/>
</g>
<!-- quake.cx(0,6)@t6&#45;&gt;quake.cx(0,7)@t7 -->
<g id="edge28" class="edge">
<title>quake.cx(0,6)@t6&#45;&gt;quake.cx(0,7)@t7</title>
<path fill="none" stroke="black" d="M386.88,-363.83C401.15,-353.21 421.42,-338.11 437.48,-326.15"/>
<polygon fill="black" stroke="black" points="439.98,-328.65 445.91,-319.87 435.8,-323.04 439.98,-328.65"/>
</g>
<!-- quake.cx(0,6)@t6&#45;&gt;quake.mz(0,1,2,3,4,5,6,7,8,9)@t10 -->
<g id="edge40" class="edge">
<title>quake.cx(0,6)@t6&#45;&gt;quake.mz(0,1,2,3,4,5,6,7,8,9)@t10</title>
<path fill="none" stroke="black" d="M350.71,-364.8C337.68,-355.24 320.9,-340.77 311.2,-324 286.89,-282 275.73,-260.45 295.2,-216 328.22,-140.56 430.19,-109.03 485.17,-97.23"/>
<polygon fill="black" stroke="black" points="486.09,-100.62 495.19,-95.19 484.69,-93.76 486.09,-100.62"/>
</g>
<!-- quake.cx(0,7)@t7&#45;&gt;quake.cx(0,8)@t8 -->
<g id="edge30" class="edge">
<title>quake.cx(0,7)@t7&#45;&gt;quake.cx(0,8)@t8</title>
<path fill="none" stroke="black" d="M459.32,-288.05C457.54,-280.26 455.38,-270.82 453.39,-262.08"/>
<polygon fill="black" stroke="black" points="456.79,-261.24 451.14,-252.28 449.96,-262.8 456.79,-261.24"/>
</g>
<!-- quake.cx(0,7)@t7&#45;&gt;quake.mz(0,1,2,3,4,5,6,7,8,9)@t10 -->
<g id="edge41" class="edge">
<title>quake.cx(0,7)@t7&#45;&gt;quake.mz(0,1,2,3,4,5,6,7,8,9)@t10</title>
<path fill="none" stroke="black" d="M470.06,-288.48C474.21,-278.12 479.41,-264.42 483.2,-252 497.36,-205.61 509.38,-150.35 515.91,-118.11"/>
<polygon fill="black" stroke="black" points="519.38,-118.61 517.91,-108.11 512.52,-117.23 519.38,-118.61"/>
</g>
<!-- quake.cx(0,8)@t8&#45;&gt;quake.cx(0,9)@t9 -->
<g id="edge32" class="edge">
<title>quake.cx(0,8)@t8&#45;&gt;quake.cx(0,9)@t9</title>
<path fill="none" stroke="black" d="M438.38,-216.76C433.78,-208.28 428.04,-197.71 422.87,-188.2"/>
<polygon fill="black" stroke="black" points="425.81,-186.27 417.96,-179.15 419.66,-189.61 425.81,-186.27"/>
</g>
<!-- quake.cx(0,8)@t8&#45;&gt;quake.mz(0,1,2,3,4,5,6,7,8,9)@t10 -->
<g id="edge42" class="edge">
<title>quake.cx(0,8)@t8&#45;&gt;quake.mz(0,1,2,3,4,5,6,7,8,9)@t10</title>
<path fill="none" stroke="black" d="M454.15,-216.29C461.86,-198.18 474.96,-168.56 488.2,-144 493.31,-134.51 499.43,-124.4 505.01,-115.57"/>
<polygon fill="black" stroke="black" points="508.1,-117.23 510.55,-106.93 502.21,-113.45 508.1,-117.23"/>
</g>
<!-- quake.cx(0,9)@t9&#45;&gt;quake.mz(0,1,2,3,4,5,6,7,8,9)@t10 -->
<g id="edge34" class="edge">
<title>quake.cx(0,9)@t9&#45;&gt;quake.mz(0,1,2,3,4,5,6,7,8,9)@t10</title>
<path fill="none" stroke="black" d="M425.33,-147.5C442.52,-135.74 469.74,-118.68 490.88,-106.38"/>
<polygon fill="black" stroke="black" points="492.87,-109.28 499.82,-101.27 489.4,-103.2 492.87,-109.28"/>
</g>
<!-- quake.cx(0,9)@t9&#45;&gt;quake.mz(0,1,2,3,4,5,6,7,8,9)@t10 -->
<g id="edge43" class="edge">
<title>quake.cx(0,9)@t9&#45;&gt;quake.mz(0,1,2,3,4,5,6,7,8,9)@t10</title>
<path fill="none" stroke="black" d="M430.41,-150.82C449.29,-140.23 476.61,-123.4 496.45,-110.28"/>
<polygon fill="black" stroke="black" points="498.62,-113.04 504.97,-104.56 494.72,-107.23 498.62,-113.04"/>
</g>
<!-- quake.mz(0,1,2,3,4,5,6,7,8,9)@t10&#45;&gt;q0_end -->
<g id="edge12" class="edge">
<title>quake.mz(0,1,2,3,4,5,6,7,8,9)@t10&#45;&gt;q0_end</title>
<path fill="none" stroke="black" d="M494.11,-87.37C426.47,-82.91 244.97,-68.64 97.2,-36 93.59,-35.2 89.87,-34.26 86.17,-33.24"/>
<polygon fill="black" stroke="black" points="87.03,-29.85 76.45,-30.4 85.06,-36.57 87.03,-29.85"/>
</g>
<!-- quake.mz(0,1,2,3,4,5,6,7,8,9)@t10&#45;&gt;q1_end -->
<g id="edge13" class="edge">
<title>quake.mz(0,1,2,3,4,5,6,7,8,9)@t10&#45;&gt;q1_end</title>
<path fill="none" stroke="black" d="M494.55,-85.89C439.58,-79.18 309.81,-61.84 203.2,-36 199.76,-35.17 196.22,-34.22 192.68,-33.22"/>
<polygon fill="black" stroke="black" points="193.36,-29.77 182.78,-30.27 191.36,-36.48 193.36,-29.77"/>
</g>
<!-- quake.mz(0,1,2,3,4,5,6,7,8,9)@t10&#45;&gt;q2_end -->
<g id="edge14" class="edge">
<title>quake.mz(0,1,2,3,4,5,6,7,8,9)@t10&#45;&gt;q2_end</title>
<path fill="none" stroke="black" d="M495.93,-83.25C456.04,-74.04 376.15,-55.08 309.2,-36 305.89,-35.06 302.48,-34.05 299.06,-33.01"/>
<polygon fill="black" stroke="black" points="300.04,-29.65 289.46,-30.03 297.97,-36.34 300.04,-29.65"/>
</g>
<!-- q3_end -->
<g id="node33" class="node">
<title>q3_end</title>
<ellipse fill="red" stroke="red" cx="362.2" cy="-18" rx="44.39" ry="18"/>
<text text-anchor="middle" x="362.2" y="-14.3" font-family="Times,serif" font-size="14.00">q3_end</text>
</g>
<!-- quake.mz(0,1,2,3,4,5,6,7,8,9)@t10&#45;&gt;q3_end -->
<g id="edge44" class="edge">
<title>quake.mz(0,1,2,3,4,5,6,7,8,9)@t10&#45;&gt;q3_end</title>
<path fill="none" stroke="black" d="M499.09,-79.27C473.57,-68.03 431.16,-49.36 400.29,-35.77"/>
<polygon fill="black" stroke="black" points="401.68,-32.56 391.12,-31.73 398.86,-38.96 401.68,-32.56"/>
</g>
<!-- q4_end -->
<g id="node34" class="node">
<title>q4_end</title>
<ellipse fill="red" stroke="red" cx="468.2" cy="-18" rx="44.39" ry="18"/>
<text text-anchor="middle" x="468.2" y="-14.3" font-family="Times,serif" font-size="14.00">q4_end</text>
</g>
<!-- quake.mz(0,1,2,3,4,5,6,7,8,9)@t10&#45;&gt;q4_end -->
<g id="edge45" class="edge">
<title>quake.mz(0,1,2,3,4,5,6,7,8,9)@t10&#45;&gt;q4_end</title>
<path fill="none" stroke="black" d="M509.43,-73.46C502.76,-64.65 494.26,-53.43 486.72,-43.46"/>
<polygon fill="black" stroke="black" points="489.49,-41.33 480.66,-35.47 483.91,-45.55 489.49,-41.33"/>
</g>
<!-- q5_end -->
<g id="node35" class="node">
<title>q5_end</title>
<ellipse fill="red" stroke="red" cx="574.2" cy="-18" rx="44.39" ry="18"/>
<text text-anchor="middle" x="574.2" y="-14.3" font-family="Times,serif" font-size="14.00">q5_end</text>
</g>
<!-- quake.mz(0,1,2,3,4,5,6,7,8,9)@t10&#45;&gt;q5_end -->
<g id="edge46" class="edge">
<title>quake.mz(0,1,2,3,4,5,6,7,8,9)@t10&#45;&gt;q5_end</title>
<path fill="none" stroke="black" d="M532.96,-73.46C539.63,-64.65 548.13,-53.43 555.67,-43.46"/>
<polygon fill="black" stroke="black" points="558.48,-45.55 561.73,-35.47 552.9,-41.33 558.48,-45.55"/>
</g>
<!-- q6_end -->
<g id="node36" class="node">
<title>q6_end</title>
<ellipse fill="red" stroke="red" cx="680.2" cy="-18" rx="44.39" ry="18"/>
<text text-anchor="middle" x="680.2" y="-14.3" font-family="Times,serif" font-size="14.00">q6_end</text>
</g>
<!-- quake.mz(0,1,2,3,4,5,6,7,8,9)@t10&#45;&gt;q6_end -->
<g id="edge47" class="edge">
<title>quake.mz(0,1,2,3,4,5,6,7,8,9)@t10&#45;&gt;q6_end</title>
<path fill="none" stroke="black" d="M543.3,-79.27C568.82,-68.03 611.24,-49.36 642.1,-35.77"/>
<polygon fill="black" stroke="black" points="643.53,-38.96 651.28,-31.73 640.71,-32.56 643.53,-38.96"/>
</g>
<!-- q7_end -->
<g id="node37" class="node">
<title>q7_end</title>
<ellipse fill="red" stroke="red" cx="786.2" cy="-18" rx="44.39" ry="18"/>
<text text-anchor="middle" x="786.2" y="-14.3" font-family="Times,serif" font-size="14.00">q7_end</text>
</g>
<!-- quake.mz(0,1,2,3,4,5,6,7,8,9)@t10&#45;&gt;q7_end -->
<g id="edge48" class="edge">
<title>quake.mz(0,1,2,3,4,5,6,7,8,9)@t10&#45;&gt;q7_end</title>
<path fill="none" stroke="black" d="M546.47,-83.25C586.35,-74.04 666.25,-55.08 733.2,-36 736.5,-35.06 739.91,-34.05 743.34,-33.01"/>
<polygon fill="black" stroke="black" points="744.42,-36.34 752.94,-30.03 742.35,-29.65 744.42,-36.34"/>
</g>
<!-- q8_end -->
<g id="node38" class="node">
<title>q8_end</title>
<ellipse fill="red" stroke="red" cx="892.2" cy="-18" rx="44.39" ry="18"/>
<text text-anchor="middle" x="892.2" y="-14.3" font-family="Times,serif" font-size="14.00">q8_end</text>
</g>
<!-- quake.mz(0,1,2,3,4,5,6,7,8,9)@t10&#45;&gt;q8_end -->
<g id="edge49" class="edge">
<title>quake.mz(0,1,2,3,4,5,6,7,8,9)@t10&#45;&gt;q8_end</title>
<path fill="none" stroke="black" d="M547.84,-85.89C602.81,-79.18 732.58,-61.84 839.2,-36 842.63,-35.17 846.17,-34.22 849.71,-33.22"/>
<polygon fill="black" stroke="black" points="851.03,-36.48 859.61,-30.27 849.03,-29.77 851.03,-36.48"/>
</g>
<!-- q9_end -->
<g id="node39" class="node">
<title>q9_end</title>
<ellipse fill="red" stroke="red" cx="998.2" cy="-18" rx="44.39" ry="18"/>
<text text-anchor="middle" x="998.2" y="-14.3" font-family="Times,serif" font-size="14.00">q9_end</text>
</g>
<!-- quake.mz(0,1,2,3,4,5,6,7,8,9)@t10&#45;&gt;q9_end -->
<g id="edge50" class="edge">
<title>quake.mz(0,1,2,3,4,5,6,7,8,9)@t10&#45;&gt;q9_end</title>
<path fill="none" stroke="black" d="M548.28,-87.37C615.92,-82.91 797.42,-68.64 945.2,-36 948.81,-35.2 952.52,-34.26 956.23,-33.24"/>
<polygon fill="black" stroke="black" points="957.33,-36.57 965.94,-30.4 955.36,-29.85 957.33,-36.57"/>
</g>
</g>
</svg>
