<?xml version="1.0" encoding="UTF-8" standalone="no"?>
<!DOCTYPE svg PUBLIC "-//W3C//DTD SVG 1.1//EN"
 "http://www.w3.org/Graphics/SVG/1.1/DTD/svg11.dtd">
<!-- Generated by graphviz version 14.1.5 (0)
 -->
<!-- Title: k_DAG_Will Pages: 1 -->
<svg width="404pt" height="908pt"
 viewBox="0.00 0.00 404.00 908.00" xmlns="http://www.w3.org/2000/svg" xmlns:xlink="http://www.w3.org/1999/xlink">
<g id="graph0" class="graph" transform="scale(1 1) rotate(0) translate(4 904)">
<title>k_DAG_Will</title>
<polygon fill="white" stroke="none" points="-4,4 -4,-904 400,-904 400,4 -4,4"/>
<!-- Start -->
<g id="node1" class="node">
<title>Start</title>
<ellipse fill="green" stroke="green" cx="215" cy="-882" rx="30.16" ry="18"/>
<text xml:space="preserve" text-anchor="middle" x="215" y="-877.33" font-family="Times,serif" font-size="14.00">Start</text>
</g>
<!-- quake.h(0)@t0 -->
<g id="node3" class="node">
<title>quake.h(0)@t0</title>
<ellipse fill="none" stroke="black" cx="27" cy="-810" rx="27" ry="18"/>
<text xml:space="preserve" text-anchor="middle" x="27" y="-805.33" font-family="Times,serif" font-size="14.00">h</text>
</g>
<!-- Start&#45;&gt;quake.h(0)@t0 -->
<g id="edge1" class="edge">
<title>Start&#45;&gt;quake.h(0)@t0</title>
<path fill="none" stroke="black" d="M189.37,-872.17C159.93,-861.93 110.25,-844.36 68,-828 65.36,-826.98 62.63,-825.9 59.9,-824.8"/>
<polygon fill="black" stroke="black" points="61.46,-821.66 50.88,-821.12 58.82,-828.14 61.46,-821.66"/>
</g>
<!-- quake.cx(0,1)@t1 -->
<g id="node4" class="node">
<title>quake.cx(0,1)@t1</title>
<ellipse fill="none" stroke="black" cx="56" cy="-738" rx="27" ry="18"/>
<text xml:space="preserve" text-anchor="middle" x="56" y="-733.33" font-family="Times,serif" font-size="14.00">cx</text>
</g>
<!-- Start&#45;&gt;quake.cx(0,1)@t1 -->
<g id="edge3" class="edge">
<title>Start&#45;&gt;quake.cx(0,1)@t1</title>
<path fill="none" stroke="black" d="M188.57,-873.21C164.69,-865.08 129.74,-850.37 106,-828 87.78,-810.83 74.44,-785.51 66.15,-766.26"/>
<polygon fill="black" stroke="black" points="69.44,-765.07 62.42,-757.13 62.96,-767.71 69.44,-765.07"/>
</g>
<!-- quake.cx(0,2)@t2 -->
<g id="node5" class="node">
<title>quake.cx(0,2)@t2</title>
<ellipse fill="none" stroke="black" cx="103" cy="-666" rx="27" ry="18"/>
<text xml:space="preserve" text-anchor="middle" x="103" y="-661.33" font-family="Times,serif" font-size="14.00">cx</text>
</g>
<!-- Start&#45;&gt;quake.cx(0,2)@t2 -->
<g id="edge5" class="edge">
<title>Start&#45;&gt;quake.cx(0,2)@t2</title>
<path fill="none" stroke="black" d="M192.52,-869.63C176.66,-860.48 156.14,-846.16 144,-828 116.72,-787.21 107.59,-729.54 104.54,-695.44"/>
<polygon fill="black" stroke="black" points="108.03,-695.22 103.78,-685.52 101.05,-695.76 108.03,-695.22"/>
</g>
<!-- quake.cx(0,3)@t3 -->
<g id="node6" class="node">
<title>quake.cx(0,3)@t3</title>
<ellipse fill="none" stroke="black" cx="141" cy="-594" rx="27" ry="18"/>
<text xml:space="preserve" text-anchor="middle" x="141" y="-589.33" font-family="Times,serif" font-size="14.00">cx</text>
</g>
<!-- Start&#45;&gt;quake.cx(0,3)@t3 -->
<g id="edge7" class="edge">
<title>Start&#45;&gt;quake.cx(0,3)@t3</title>
<path fill="none" stroke="black" d="M202.87,-865.15C195.73,-855.04 187.11,-841.36 182,-828 155.09,-757.7 145.7,-668.64 142.53,-623.71"/>
<polygon fill="black" stroke="black" points="146.03,-623.53 141.89,-613.77 139.04,-623.98 146.03,-623.53"/>
</g>
<!-- quake.cx(0,4)@t4 -->
<g id="node7" class="node">
<title>quake.cx(0,4)@t4</title>
<ellipse fill="none" stroke="black" cx="179" cy="-522" rx="27" ry="18"/>
<text xml:space="preserve" text-anchor="middle" x="179" y="-517.33" font-family="Times,serif" font-size="14.00">cx</text>
</g>
<!-- Start&#45;&gt;quake.cx(0,4)@t4 -->
<g id="edge9" class="edge">
<title>Start&#45;&gt;quake.cx(0,4)@t4</title>
<path fill="none" stroke="black" d="M211.25,-864.05C205.71,-837.52 196,-784.52 196,-739 196,-739 196,-739 196,-665 196,-625.24 189.35,-579.67 184.37,-551.1"/>
<polygon fill="black" stroke="black" points="187.85,-550.68 182.63,-541.46 180.96,-551.92 187.85,-550.68"/>
</g>
<!-- quake.cx(0,5)@t5 -->
<g id="node8" class="node">
<title>quake.cx(0,5)@t5</title>
<ellipse fill="none" stroke="black" cx="217" cy="-450" rx="27" ry="18"/>
<text xml:space="preserve" text-anchor="middle" x="217" y="-445.32" font-family="Times,serif" font-size="14.00">cx</text>
</g>
<!-- Start&#45;&gt;quake.cx(0,5)@t5 -->
<g id="edge11" class="edge">
<title>Start&#45;&gt;quake.cx(0,5)@t5</title>
<path fill="none" stroke="black" d="M218.75,-864.05C224.29,-837.52 234,-784.52 234,-739 234,-739 234,-739 234,-593 234,-553.24 227.35,-507.67 222.37,-479.1"/>
<polygon fill="black" stroke="black" points="225.85,-478.68 220.63,-469.46 218.96,-479.92 225.85,-478.68"/>
</g>
<!-- quake.cx(0,6)@t6 -->
<g id="node9" class="node">
<title>quake.cx(0,6)@t6</title>
<ellipse fill="none" stroke="black" cx="255" cy="-378" rx="27" ry="18"/>
<text xml:space="preserve" text-anchor="middle" x="255" y="-373.32" font-family="Times,serif" font-size="14.00">cx</text>
</g>
<!-- Start&#45;&gt;quake.cx(0,6)@t6 -->
<g id="edge13" class="edge">
<title>Start&#45;&gt;quake.cx(0,6)@t6</title>
<path fill="none" stroke="black" d="M226.26,-864.8C242.87,-839.29 272,-787.61 272,-739 272,-739 272,-739 272,-521 272,-481.24 265.35,-435.67 260.37,-407.1"/>
<polygon fill="black" stroke="black" points="263.85,-406.68 258.63,-397.46 256.96,-407.92 263.85,-406.68"/>
</g>
<!-- quake.cx(0,7)@t7 -->
<g id="node10" class="node">
<title>quake.cx(0,7)@t7</title>
<ellipse fill="none" stroke="black" cx="293" cy="-306" rx="27" ry="18"/>
<text xml:space="preserve" text-anchor="middle" x="293" y="-301.32" font-family="Times,serif" font-size="14.00">cx</text>
</g>
<!-- Start&#45;&gt;quake.cx(0,7)@t7 -->
<g id="edge15" class="edge">
<title>Start&#45;&gt;quake.cx(0,7)@t7</title>
<path fill="none" stroke="black" d="M232.42,-867.33C259.85,-844.13 310,-794.17 310,-739 310,-739 310,-739 310,-449 310,-409.24 303.35,-363.67 298.37,-335.1"/>
<polygon fill="black" stroke="black" points="301.85,-334.68 296.63,-325.46 294.96,-335.92 301.85,-334.68"/>
</g>
<!-- quake.cx(0,8)@t8 -->
<g id="node11" class="node">
<title>quake.cx(0,8)@t8</title>
<ellipse fill="none" stroke="black" cx="331" cy="-234" rx="27" ry="18"/>
<text xml:space="preserve" text-anchor="middle" x="331" y="-229.32" font-family="Times,serif" font-size="14.00">cx</text>
</g>
<!-- Start&#45;&gt;quake.cx(0,8)@t8 -->
<g id="edge17" class="edge">
<title>Start&#45;&gt;quake.cx(0,8)@t8</title>
<path fill="none" stroke="black" d="M237.86,-869.87C275.89,-849.57 348,-802.67 348,-739 348,-739 348,-739 348,-377 348,-337.24 341.35,-291.67 336.37,-263.1"/>
<polygon fill="black" stroke="black" points="339.85,-262.68 334.63,-253.46 332.96,-263.92 339.85,-262.68"/>
</g>
<!-- quake.cx(0,9)@t9 -->
<g id="node12" class="node">
<title>quake.cx(0,9)@t9</title>
<ellipse fill="none" stroke="black" cx="369" cy="-162" rx="27" ry="18"/>
<text xml:space="preserve" text-anchor="middle" x="369" y="-157.32" font-family="Times,serif" font-size="14.00">cx</text>
</g>
<!-- Start&#45;&gt;quake.cx(0,9)@t9 -->
<g id="edge19" class="edge">
<title>Start&#45;&gt;quake.cx(0,9)@t9</title>
<path fill="none" stroke="black" d="M241.34,-872.84C289.31,-856.14 386,-813.28 386,-739 386,-739 386,-739 386,-305 386,-265.24 379.35,-219.67 374.37,-191.1"/>
<polygon fill="black" stroke="black" points="377.85,-190.68 372.63,-181.46 370.96,-191.92 377.85,-190.68"/>
</g>
<!-- End -->
<g id="node2" class="node">
<title>End</title>
<ellipse fill="red" stroke="red" cx="219" cy="-18" rx="27.53" ry="18"/>
<text xml:space="preserve" text-anchor="middle" x="219" y="-13.32" font-family="Times,serif" font-size="14.00">End</text>
</g>
<!-- quake.h(0)@t0&#45;&gt;quake.cx(0,1)@t1 -->
<g id="edge2" class="edge">
<title>quake.h(0)@t0&#45;&gt;quake.cx(0,1)@t1</title>
<path fill="none" stroke="black" d="M33.87,-792.41C37.16,-784.48 41.18,-774.78 44.88,-765.84"/>
<polygon fill="black" stroke="black" points="48,-767.45 48.6,-756.87 41.54,-764.77 48,-767.45"/>
</g>
<!-- quake.cx(0,1)@t1&#45;&gt;quake.cx(0,2)@t2 -->
<g id="edge4" class="edge">
<title>quake.cx(0,1)@t1&#45;&gt;quake.cx(0,2)@t2</title>
<path fill="none" stroke="black" d="M66.67,-721.12C72.37,-712.61 79.54,-701.94 86,-692.32"/>
<polygon fill="black" stroke="black" points="88.86,-694.33 91.53,-684.08 83.05,-690.43 88.86,-694.33"/>
</g>
<!-- quake.mz(0,1,2,3,4,5,6,7,8,9)@t10 -->
<g id="node13" class="node">
<title>quake.mz(0,1,2,3,4,5,6,7,8,9)@t10</title>
<ellipse fill="yellow" stroke="yellow" cx="219" cy="-90" rx="27" ry="18"/>
<text xml:space="preserve" text-anchor="middle" x="219" y="-85.33" font-family="Times,serif" font-size="14.00">mz</text>
</g>
<!-- quake.cx(0,1)@t1&#45;&gt;quake.mz(0,1,2,3,4,5,6,7,8,9)@t10 -->
<g id="edge21" class="edge">
<title>quake.cx(0,1)@t1&#45;&gt;quake.mz(0,1,2,3,4,5,6,7,8,9)@t10</title>
<path fill="none" stroke="black" d="M54.42,-719.97C52.09,-693.33 48,-640.19 48,-595 48,-595 48,-595 48,-233 48,-186.96 66.63,-174.63 101,-144 124.55,-123.01 157.79,-109.1 182.99,-100.81"/>
<polygon fill="black" stroke="black" points="183.99,-104.17 192.5,-97.85 181.91,-97.49 183.99,-104.17"/>
</g>
<!-- quake.cx(0,2)@t2&#45;&gt;quake.cx(0,3)@t3 -->
<g id="edge6" class="edge">
<title>quake.cx(0,2)@t2&#45;&gt;quake.cx(0,3)@t3</title>
<path fill="none" stroke="black" d="M111.81,-648.76C116.27,-640.55 121.8,-630.37 126.84,-621.09"/>
<polygon fill="black" stroke="black" points="129.82,-622.94 131.51,-612.48 123.67,-619.6 129.82,-622.94"/>
</g>
<!-- quake.cx(0,2)@t2&#45;&gt;quake.mz(0,1,2,3,4,5,6,7,8,9)@t10 -->
<g id="edge22" class="edge">
<title>quake.cx(0,2)@t2&#45;&gt;quake.mz(0,1,2,3,4,5,6,7,8,9)@t10</title>
<path fill="none" stroke="black" d="M99.64,-648.03C94.69,-621.48 86,-568.44 86,-523 86,-523 86,-523 86,-233 86,-173.78 148.39,-129.07 187.7,-106.77"/>
<polygon fill="black" stroke="black" points="189.21,-109.94 196.3,-102.06 185.85,-103.8 189.21,-109.94"/>
</g>
<!-- quake.cx(0,3)@t3&#45;&gt;quake.cx(0,4)@t4 -->
<g id="edge8" class="edge">
<title>quake.cx(0,3)@t3&#45;&gt;quake.cx(0,4)@t4</title>
<path fill="none" stroke="black" d="M149.81,-576.76C154.27,-568.55 159.8,-558.37 164.84,-549.09"/>
<polygon fill="black" stroke="black" points="167.82,-550.94 169.51,-540.48 161.67,-547.6 167.82,-550.94"/>
</g>
<!-- quake.cx(0,3)@t3&#45;&gt;quake.mz(0,1,2,3,4,5,6,7,8,9)@t10 -->
<g id="edge23" class="edge">
<title>quake.cx(0,3)@t3&#45;&gt;quake.mz(0,1,2,3,4,5,6,7,8,9)@t10</title>
<path fill="none" stroke="black" d="M137.64,-576.03C132.69,-549.48 124,-496.44 124,-451 124,-451 124,-451 124,-233 124,-182.95 165.27,-137.19 193.41,-111.8"/>
<polygon fill="black" stroke="black" points="195.64,-114.5 200.88,-105.29 191.04,-109.23 195.64,-114.5"/>
</g>
<!-- quake.cx(0,4)@t4&#45;&gt;quake.cx(0,5)@t5 -->
<g id="edge10" class="edge">
<title>quake.cx(0,4)@t4&#45;&gt;quake.cx(0,5)@t5</title>
<path fill="none" stroke="black" d="M187.81,-504.76C192.27,-496.55 197.8,-486.37 202.84,-477.09"/>
<polygon fill="black" stroke="black" points="205.82,-478.94 207.51,-468.48 199.67,-475.6 205.82,-478.94"/>
</g>
<!-- quake.cx(0,4)@t4&#45;&gt;quake.mz(0,1,2,3,4,5,6,7,8,9)@t10 -->
<g id="edge24" class="edge">
<title>quake.cx(0,4)@t4&#45;&gt;quake.mz(0,1,2,3,4,5,6,7,8,9)@t10</title>
<path fill="none" stroke="black" d="M175.64,-504.03C170.69,-477.48 162,-424.44 162,-379 162,-379 162,-379 162,-233 162,-189.66 185.15,-143.88 201.95,-116.38"/>
<polygon fill="black" stroke="black" points="204.82,-118.38 207.2,-108.06 198.9,-114.65 204.82,-118.38"/>
</g>
<!-- quake.cx(0,5)@t5&#45;&gt;quake.cx(0,6)@t6 -->
<g id="edge12" class="edge">
<title>quake.cx(0,5)@t5&#45;&gt;quake.cx(0,6)@t6</title>
<path fill="none" stroke="black" d="M225.81,-432.76C230.27,-424.55 235.8,-414.37 240.84,-405.09"/>
<polygon fill="black" stroke="black" points="243.82,-406.94 245.51,-396.48 237.67,-403.6 243.82,-406.94"/>
</g>
<!-- quake.cx(0,5)@t5&#45;&gt;quake.mz(0,1,2,3,4,5,6,7,8,9)@t10 -->
<g id="edge25" class="edge">
<title>quake.cx(0,5)@t5&#45;&gt;quake.mz(0,1,2,3,4,5,6,7,8,9)@t10</title>
<path fill="none" stroke="black" d="M213.64,-432.03C208.69,-405.48 200,-352.44 200,-307 200,-307 200,-307 200,-233 200,-193.17 207.43,-147.61 213,-119.07"/>
<polygon fill="black" stroke="black" points="216.4,-119.93 214.95,-109.43 209.54,-118.54 216.4,-119.93"/>
</g>
<!-- quake.cx(0,6)@t6&#45;&gt;quake.cx(0,7)@t7 -->
<g id="edge14" class="edge">
<title>quake.cx(0,6)@t6&#45;&gt;quake.cx(0,7)@t7</title>
<path fill="none" stroke="black" d="M263.81,-360.76C268.27,-352.55 273.8,-342.37 278.84,-333.09"/>
<polygon fill="black" stroke="black" points="281.82,-334.94 283.51,-324.48 275.67,-331.6 281.82,-334.94"/>
</g>
<!-- quake.cx(0,6)@t6&#45;&gt;quake.mz(0,1,2,3,4,5,6,7,8,9)@t10 -->
<g id="edge26" class="edge">
<title>quake.cx(0,6)@t6&#45;&gt;quake.mz(0,1,2,3,4,5,6,7,8,9)@t10</title>
<path fill="none" stroke="black" d="M252.86,-359.97C246.88,-312.49 229.99,-178.31 222.57,-119.36"/>
<polygon fill="black" stroke="black" points="226.09,-119.29 221.37,-109.81 219.14,-120.17 226.09,-119.29"/>
</g>
<!-- quake.cx(0,7)@t7&#45;&gt;quake.cx(0,8)@t8 -->
<g id="edge16" class="edge">
<title>quake.cx(0,7)@t7&#45;&gt;quake.cx(0,8)@t8</title>
<path fill="none" stroke="black" d="M301.81,-288.76C306.27,-280.55 311.8,-270.37 316.84,-261.09"/>
<polygon fill="black" stroke="black" points="319.82,-262.94 321.51,-252.48 313.67,-259.6 319.82,-262.94"/>
</g>
<!-- quake.cx(0,7)@t7&#45;&gt;quake.mz(0,1,2,3,4,5,6,7,8,9)@t10 -->
<g id="edge27" class="edge">
<title>quake.cx(0,7)@t7&#45;&gt;quake.mz(0,1,2,3,4,5,6,7,8,9)@t10</title>
<path fill="none" stroke="black" d="M290.44,-287.99C285.54,-258 273.39,-194.14 252,-144 247.9,-134.4 242.22,-124.52 236.72,-115.93"/>
<polygon fill="black" stroke="black" points="239.76,-114.17 231.3,-107.79 233.93,-118.06 239.76,-114.17"/>
</g>
<!-- quake.cx(0,8)@t8&#45;&gt;quake.cx(0,9)@t9 -->
<g id="edge18" class="edge">
<title>quake.cx(0,8)@t8&#45;&gt;quake.cx(0,9)@t9</title>
<path fill="none" stroke="black" d="M339.81,-216.76C344.27,-208.55 349.8,-198.37 354.84,-189.09"/>
<polygon fill="black" stroke="black" points="357.82,-190.94 359.51,-180.48 351.67,-187.6 357.82,-190.94"/>
</g>
<!-- quake.cx(0,8)@t8&#45;&gt;quake.mz(0,1,2,3,4,5,6,7,8,9)@t10 -->
<g id="edge28" class="edge">
<title>quake.cx(0,8)@t8&#45;&gt;quake.mz(0,1,2,3,4,5,6,7,8,9)@t10</title>
<path fill="none" stroke="black" d="M325.95,-215.87C319.73,-196.85 307.77,-165.95 290,-144 278.63,-129.96 262.74,-117.64 248.88,-108.42"/>
<polygon fill="black" stroke="black" points="250.82,-105.51 240.51,-103.09 247.06,-111.42 250.82,-105.51"/>
</g>
<!-- quake.cx(0,9)@t9&#45;&gt;quake.mz(0,1,2,3,4,5,6,7,8,9)@t10 -->
<g id="edge20" class="edge">
<title>quake.cx(0,9)@t9&#45;&gt;quake.mz(0,1,2,3,4,5,6,7,8,9)@t10</title>
<path fill="none" stroke="black" d="M345.66,-152.28C319.52,-141.16 277.45,-121.72 248.95,-107.71"/>
<polygon fill="black" stroke="black" points="250.62,-104.63 240.11,-103.31 247.5,-110.9 250.62,-104.63"/>
</g>
<!-- quake.cx(0,9)@t9&#45;&gt;quake.mz(0,1,2,3,4,5,6,7,8,9)@t10 -->
<g id="edge29" class="edge">
<title>quake.cx(0,9)@t9&#45;&gt;quake.mz(0,1,2,3,4,5,6,7,8,9)@t10</title>
<path fill="none" stroke="black" d="M349.09,-149.28C324.35,-136.8 282.19,-117.1 252.5,-104.11"/>
<polygon fill="black" stroke="black" points="254.14,-101.01 243.57,-100.26 251.36,-107.43 254.14,-101.01"/>
</g>
<!-- quake.mz(0,1,2,3,4,5,6,7,8,9)@t10&#45;&gt;End -->
<g id="edge30" class="edge">
<title>quake.mz(0,1,2,3,4,5,6,7,8,9)@t10&#45;&gt;End</title>
<path fill="none" stroke="black" d="M192.42,-85.99C150.95,-75.54 147.23,-40.62 181.25,-25.77"/>
<polygon fill="black" stroke="black" points="182.08,-29.19 190.41,-22.64 179.82,-22.56 182.08,-29.19"/>
</g>
<!-- quake.mz(0,1,2,3,4,5,6,7,8,9)@t10&#45;&gt;End -->
<g id="edge31" class="edge">
<title>quake.mz(0,1,2,3,4,5,6,7,8,9)@t10&#45;&gt;End</title>
<path fill="none" stroke="black" d="M193.08,-83.97C168.29,-72.72 165.11,-45.34 183.54,-29.95"/>
<polygon fill="black" stroke="black" points="184.87,-33.25 191.48,-24.98 181.15,-27.32 184.87,-33.25"/>
</g>
<!-- quake.mz(0,1,2,3,4,5,6,7,8,9)@t10&#45;&gt;End -->
<g id="edge32" class="edge">
<title>quake.mz(0,1,2,3,4,5,6,7,8,9)@t10&#45;&gt;End</title>
<path fill="none" stroke="black" d="M195.93,-80.42C184.49,-69.61 182.24,-50.76 189.18,-36.78"/>
<polygon fill="black" stroke="black" points="191.88,-39.01 194.96,-28.88 186.23,-34.88 191.88,-39.01"/>
</g>
<!-- quake.mz(0,1,2,3,4,5,6,7,8,9)@t10&#45;&gt;End -->
<g id="edge33" class="edge">
<title>quake.mz(0,1,2,3,4,5,6,7,8,9)@t10&#45;&gt;End</title>
<path fill="none" stroke="black" d="M202.63,-75.5C198.83,-66.4 197.82,-54.13 199.61,-43.35"/>
<polygon fill="black" stroke="black" points="202.92,-44.49 202.24,-33.91 196.18,-42.61 202.92,-44.49"/>
</g>
<!-- quake.mz(0,1,2,3,4,5,6,7,8,9)@t10&#45;&gt;End -->
<g id="edge34" class="edge">
<title>quake.mz(0,1,2,3,4,5,6,7,8,9)@t10&#45;&gt;End</title>
<path fill="none" stroke="black" d="M213.12,-72.05C212.33,-64.57 212.08,-55.58 212.37,-47.14"/>
<polygon fill="black" stroke="black" points="215.85,-47.51 213.04,-37.3 208.87,-47.04 215.85,-47.51"/>
</g>
<!-- quake.mz(0,1,2,3,4,5,6,7,8,9)@t10&#45;&gt;End -->
<g id="edge35" class="edge">
<title>quake.mz(0,1,2,3,4,5,6,7,8,9)@t10&#45;&gt;End</title>
<path fill="none" stroke="black" d="M224.88,-72.05C225.67,-64.57 225.92,-55.58 225.63,-47.14"/>
<polygon fill="black" stroke="black" points="229.13,-47.04 224.96,-37.3 222.15,-47.51 229.13,-47.04"/>
</g>
<!-- quake.mz(0,1,2,3,4,5,6,7,8,9)@t10&#45;&gt;End -->
<g id="edge36" class="edge">
<title>quake.mz(0,1,2,3,4,5,6,7,8,9)@t10&#45;&gt;End</title>
<path fill="none" stroke="black" d="M235.37,-75.5C239.17,-66.4 240.18,-54.13 238.39,-43.35"/>
<polygon fill="black" stroke="black" points="241.82,-42.61 235.76,-33.91 235.08,-44.49 241.82,-42.61"/>
</g>
<!-- quake.mz(0,1,2,3,4,5,6,7,8,9)@t10&#45;&gt;End -->
<g id="edge37" class="edge">
<title>quake.mz(0,1,2,3,4,5,6,7,8,9)@t10&#45;&gt;End</title>
<path fill="none" stroke="black" d="M242.07,-80.42C253.51,-69.61 255.76,-50.76 248.82,-36.78"/>
<polygon fill="black" stroke="black" points="251.77,-34.88 243.04,-28.88 246.12,-39.01 251.77,-34.88"/>
</g>
<!-- quake.mz(0,1,2,3,4,5,6,7,8,9)@t10&#45;&gt;End -->
<g id="edge38" class="edge">
<title>quake.mz(0,1,2,3,4,5,6,7,8,9)@t10&#45;&gt;End</title>
<path fill="none" stroke="black" d="M244.92,-83.97C269.71,-72.72 272.89,-45.34 254.46,-29.95"/>
<polygon fill="black" stroke="black" points="256.85,-27.32 246.52,-24.98 253.13,-33.25 256.85,-27.32"/>
</g>
<!-- quake.mz(0,1,2,3,4,5,6,7,8,9)@t10&#45;&gt;End -->
<g id="edge39" class="edge">
<title>quake.mz(0,1,2,3,4,5,6,7,8,9)@t10&#45;&gt;End</title>
<path fill="none" stroke="black" d="M245.58,-85.99C287.05,-75.54 290.77,-40.62 256.75,-25.77"/>
<polygon fill="black" stroke="black" points="258.18,-22.56 247.59,-22.64 255.92,-29.19 258.18,-22.56"/>
</g>
</g>
</svg>
