<?xml version="1.0" encoding="UTF-8" standalone="no"?>
<!DOCTYPE svg PUBLIC "-//W3C//DTD SVG 1.1//EN"
 "http://www.w3.org/Graphics/SVG/1.1/DTD/svg11.dtd">
<!-- Generated by graphviz version 14.1.5 (0)
 -->
<!-- Title: kernel_DAG_Will Pages: 1 -->
<svg width="172pt" height="548pt"
 viewBox="0.00 0.00 172.00 548.00" xmlns="http://www.w3.org/2000/svg" xmlns:xlink="http://www.w3.org/1999/xlink">
<g id="graph0" class="graph" transform="scale(1 1) rotate(0) translate(4 544)">
<title>kernel_DAG_Will</title>
<polygon fill="white" stroke="none" points="-4,4 -4,-544 168,-544 168,4 -4,4"/>
<!-- Start -->
<g id="node1" class="node">
<title>Start</title>
<ellipse fill="green" stroke="green" cx="82" cy="-522" rx="30.16" ry="18"/>
<text xml:space="preserve" text-anchor="middle" x="82" y="-517.33" font-family="Times,serif" font-size="14.00">Start</text>
</g>
<!-- quake.x(0)@t0 -->
<g id="node3" class="node">
<title>quake.x(0)@t0</title>
<ellipse fill="none" stroke="black" cx="137" cy="-450" rx="27" ry="18"/>
<text xml:space="preserve" text-anchor="middle" x="137" y="-445.32" font-family="Times,serif" font-size="14.00">x</text>
</g>
<!-- Start&#45;&gt;quake.x(0)@t0 -->
<g id="edge1" class="edge">
<title>Start&#45;&gt;quake.x(0)@t0</title>
<path fill="none" stroke="black" d="M94.48,-505.12C101.4,-496.31 110.14,-485.18 117.9,-475.31"/>
<polygon fill="black" stroke="black" points="120.59,-477.56 124.01,-467.53 115.08,-473.23 120.59,-477.56"/>
</g>
<!-- quake.x(2)@t1 -->
<g id="node4" class="node">
<title>quake.x(2)@t1</title>
<ellipse fill="none" stroke="black" cx="27" cy="-378" rx="27" ry="18"/>
<text xml:space="preserve" text-anchor="middle" x="27" y="-373.32" font-family="Times,serif" font-size="14.00">x</text>
</g>
<!-- Start&#45;&gt;quake.x(2)@t1 -->
<g id="edge2" class="edge">
<title>Start&#45;&gt;quake.x(2)@t1</title>
<path fill="none" stroke="black" d="M75.47,-504.15C66.13,-480.03 48.83,-435.36 37.62,-406.43"/>
<polygon fill="black" stroke="black" points="40.94,-405.3 34.06,-397.24 34.41,-407.83 40.94,-405.3"/>
</g>
<!-- quake.cr1(1,0)@t3 params=(1.5707963267948966,) -->
<g id="node6" class="node">
<title>quake.cr1(1,0)@t3 params=(1.5707963267948966,)</title>
<ellipse fill="none" stroke="black" cx="90" cy="-306" rx="27" ry="18"/>
<text xml:space="preserve" text-anchor="middle" x="90" y="-301.32" font-family="Times,serif" font-size="14.00">cr1</text>
</g>
<!-- Start&#45;&gt;quake.cr1(1,0)@t3 params=(1.5707963267948966,) -->
<g id="edge4" class="edge">
<title>Start&#45;&gt;quake.cr1(1,0)@t3 params=(1.5707963267948966,)</title>
<path fill="none" stroke="black" d="M82.64,-503.85C84.01,-467.14 87.25,-380.66 88.93,-335.53"/>
<polygon fill="black" stroke="black" points="92.42,-335.87 89.3,-325.74 85.43,-335.61 92.42,-335.87"/>
</g>
<!-- End -->
<g id="node2" class="node">
<title>End</title>
<ellipse fill="red" stroke="red" cx="82" cy="-18" rx="27.53" ry="18"/>
<text xml:space="preserve" text-anchor="middle" x="82" y="-13.32" font-family="Times,serif" font-size="14.00">End</text>
</g>
<!-- quake.h(0)@t2 -->
<g id="node5" class="node">
<title>quake.h(0)@t2</title>
<ellipse fill="none" stroke="black" cx="137" cy="-378" rx="27" ry="18"/>
<text xml:space="preserve" text-anchor="middle" x="137" y="-373.32" font-family="Times,serif" font-size="14.00">h</text>
</g>
<!-- quake.x(0)@t0&#45;&gt;quake.h(0)@t2 -->
<g id="edge3" class="edge">
<title>quake.x(0)@t0&#45;&gt;quake.h(0)@t2</title>
<path fill="none" stroke="black" d="M137,-431.7C137,-424.41 137,-415.73 137,-407.54"/>
<polygon fill="black" stroke="black" points="140.5,-407.62 137,-397.62 133.5,-407.62 140.5,-407.62"/>
</g>
<!-- quake.cr1(2,0)@t4 params=(0.7853981633974483,) -->
<g id="node7" class="node">
<title>quake.cr1(2,0)@t4 params=(0.7853981633974483,)</title>
<ellipse fill="none" stroke="black" cx="27" cy="-234" rx="27" ry="18"/>
<text xml:space="preserve" text-anchor="middle" x="27" y="-229.32" font-family="Times,serif" font-size="14.00">cr1</text>
</g>
<!-- quake.x(2)@t1&#45;&gt;quake.cr1(2,0)@t4 params=(0.7853981633974483,) -->
<g id="edge6" class="edge">
<title>quake.x(2)@t1&#45;&gt;quake.cr1(2,0)@t4 params=(0.7853981633974483,)</title>
<path fill="none" stroke="black" d="M27,-359.59C27,-335.61 27,-292.14 27,-263.42"/>
<polygon fill="black" stroke="black" points="30.5,-263.62 27,-253.62 23.5,-263.62 30.5,-263.62"/>
</g>
<!-- quake.h(0)@t2&#45;&gt;quake.cr1(1,0)@t3 params=(1.5707963267948966,) -->
<g id="edge5" class="edge">
<title>quake.h(0)@t2&#45;&gt;quake.cr1(1,0)@t3 params=(1.5707963267948966,)</title>
<path fill="none" stroke="black" d="M126.33,-361.12C120.63,-352.61 113.46,-341.94 107,-332.32"/>
<polygon fill="black" stroke="black" points="109.95,-330.43 101.47,-324.08 104.14,-334.33 109.95,-330.43"/>
</g>
<!-- quake.cr1(1,0)@t3 params=(1.5707963267948966,)&#45;&gt;quake.cr1(2,0)@t4 params=(0.7853981633974483,) -->
<g id="edge7" class="edge">
<title>quake.cr1(1,0)@t3 params=(1.5707963267948966,)&#45;&gt;quake.cr1(2,0)@t4 params=(0.7853981633974483,)</title>
<path fill="none" stroke="black" d="M76.64,-290.15C68.29,-280.87 57.35,-268.73 47.87,-258.19"/>
<polygon fill="black" stroke="black" points="50.65,-256.04 41.35,-250.95 45.44,-260.72 50.65,-256.04"/>
</g>
<!-- quake.h(1)@t5 -->
<g id="node8" class="node">
<title>quake.h(1)@t5</title>
<ellipse fill="none" stroke="black" cx="99" cy="-234" rx="27" ry="18"/>
<text xml:space="preserve" text-anchor="middle" x="99" y="-229.32" font-family="Times,serif" font-size="14.00">h</text>
</g>
<!-- quake.cr1(1,0)@t3 params=(1.5707963267948966,)&#45;&gt;quake.h(1)@t5 -->
<g id="edge8" class="edge">
<title>quake.cr1(1,0)@t3 params=(1.5707963267948966,)&#45;&gt;quake.h(1)@t5</title>
<path fill="none" stroke="black" d="M92.22,-287.7C93.17,-280.32 94.3,-271.52 95.37,-263.25"/>
<polygon fill="black" stroke="black" points="98.8,-263.97 96.61,-253.61 91.86,-263.08 98.8,-263.97"/>
</g>
<!-- quake.cr1(2,0)@t4 params=(0.7853981633974483,)&#45;&gt;End -->
<g id="edge12" class="edge">
<title>quake.cr1(2,0)@t4 params=(0.7853981633974483,)&#45;&gt;End</title>
<path fill="none" stroke="black" d="M26.4,-215.93C25.91,-185.84 27.41,-121.84 46,-72 49.79,-61.85 55.9,-51.76 62.02,-43.14"/>
<polygon fill="black" stroke="black" points="64.68,-45.43 67.9,-35.33 59.09,-41.22 64.68,-45.43"/>
</g>
<!-- quake.cr1(2,1)@t6 params=(1.5707963267948966,) -->
<g id="node9" class="node">
<title>quake.cr1(2,1)@t6 params=(1.5707963267948966,)</title>
<ellipse fill="none" stroke="black" cx="90" cy="-162" rx="27" ry="18"/>
<text xml:space="preserve" text-anchor="middle" x="90" y="-157.32" font-family="Times,serif" font-size="14.00">cr1</text>
</g>
<!-- quake.cr1(2,0)@t4 params=(0.7853981633974483,)&#45;&gt;quake.cr1(2,1)@t6 params=(1.5707963267948966,) -->
<g id="edge9" class="edge">
<title>quake.cr1(2,0)@t4 params=(0.7853981633974483,)&#45;&gt;quake.cr1(2,1)@t6 params=(1.5707963267948966,)</title>
<path fill="none" stroke="black" d="M40.36,-218.15C48.71,-208.87 59.65,-196.73 69.13,-186.19"/>
<polygon fill="black" stroke="black" points="71.56,-188.72 75.65,-178.95 66.35,-184.04 71.56,-188.72"/>
</g>
<!-- quake.h(1)@t5&#45;&gt;quake.cr1(2,1)@t6 params=(1.5707963267948966,) -->
<g id="edge10" class="edge">
<title>quake.h(1)@t5&#45;&gt;quake.cr1(2,1)@t6 params=(1.5707963267948966,)</title>
<path fill="none" stroke="black" d="M96.78,-215.7C95.83,-208.32 94.7,-199.52 93.63,-191.25"/>
<polygon fill="black" stroke="black" points="97.14,-191.08 92.39,-181.61 90.2,-191.97 97.14,-191.08"/>
</g>
<!-- quake.cr1(2,1)@t6 params=(1.5707963267948966,)&#45;&gt;End -->
<g id="edge13" class="edge">
<title>quake.cr1(2,1)@t6 params=(1.5707963267948966,)&#45;&gt;End</title>
<path fill="none" stroke="black" d="M101.02,-145.13C107.35,-135.01 114.69,-121.33 118,-108 121.85,-92.47 122.7,-87.29 118,-72 114.82,-61.65 108.85,-51.51 102.67,-42.91"/>
<polygon fill="black" stroke="black" points="105.55,-40.91 96.67,-35.13 100.01,-45.19 105.55,-40.91"/>
</g>
<!-- quake.h(2)@t7 -->
<g id="node10" class="node">
<title>quake.h(2)@t7</title>
<ellipse fill="none" stroke="black" cx="82" cy="-90" rx="27" ry="18"/>
<text xml:space="preserve" text-anchor="middle" x="82" y="-85.33" font-family="Times,serif" font-size="14.00">h</text>
</g>
<!-- quake.cr1(2,1)@t6 params=(1.5707963267948966,)&#45;&gt;quake.h(2)@t7 -->
<g id="edge11" class="edge">
<title>quake.cr1(2,1)@t6 params=(1.5707963267948966,)&#45;&gt;quake.h(2)@t7</title>
<path fill="none" stroke="black" d="M88.02,-143.7C87.19,-136.41 86.2,-127.73 85.26,-119.54"/>
<polygon fill="black" stroke="black" points="88.74,-119.15 84.13,-109.61 81.78,-119.94 88.74,-119.15"/>
</g>
<!-- quake.h(2)@t7&#45;&gt;End -->
<g id="edge14" class="edge">
<title>quake.h(2)@t7&#45;&gt;End</title>
<path fill="none" stroke="black" d="M82,-71.7C82,-64.41 82,-55.73 82,-47.54"/>
<polygon fill="black" stroke="black" points="85.5,-47.62 82,-37.62 78.5,-47.62 85.5,-47.62"/>
</g>
</g>
</svg>
