<?xml version="1.0" encoding="UTF-8" standalone="no"?>
<!DOCTYPE svg PUBLIC "-//W3C//DTD SVG 1.1//EN"
 "http://www.w3.org/Graphics/SVG/1.1/DTD/svg11.dtd">
<!-- Generated by graphviz version 2.43.0 (0)
 -->
<!-- Title: kernel_DAG_Will Pages: 1 -->
<svg width="172pt" height="548pt"
 viewBox="0.00 0.00 172.00 548.00" xmlns="http://www.w3.org/2000/svg" xmlns:xlink="http://www.w3.org/1999/xlink">
<g id="graph0" class="graph" transform="scale(1 1) rotate(0) translate(4 544)">
<title>kernel_DAG_Will</title>
<polygon fill="white" stroke="transparent" points="-4,4 -4,-544 168,-544 168,4 -4,4"/>
<!-- Start -->
<g id="node1" class="node">
<title>Start</title>
<ellipse fill="green" stroke="green" cx="82" cy="-522" rx="34.39" ry="18"/>
<text text-anchor="middle" x="82" y="-518.3" font-family="Times,serif" font-size="14.00">Start</text>
</g>
<!-- quake.x(0)@t0 -->
<g id="node3" class="node">
<title>quake.x(0)@t0</title>
<ellipse fill="none" stroke="black" cx="137" cy="-450" rx="27" ry="18"/>
<text text-anchor="middle" x="137" y="-446.3" font-family="Times,serif" font-size="14.00">x</text>
</g>
<!-- Start&#45;&gt;quake.x(0)@t0 -->
<g id="edge1" class="edge">
<title>Start&#45;&gt;quake.x(0)@t0</title>
<path fill="none" stroke="black" d="M94.48,-505.12C101.61,-496.04 110.69,-484.49 118.62,-474.39"/>
<polygon fill="black" stroke="black" points="121.52,-476.37 124.95,-466.34 116.02,-472.04 121.52,-476.37"/>
</g>
<!-- quake.x(2)@t1 -->
<g id="node4" class="node">
<title>quake.x(2)@t1</title>
<ellipse fill="none" stroke="black" cx="27" cy="-378" rx="27" ry="18"/>
<text text-anchor="middle" x="27" y="-374.3" font-family="Times,serif" font-size="14.00">x</text>
</g>
<!-- Start&#45;&gt;quake.x(2)@t1 -->
<g id="edge2" class="edge">
<title>Start&#45;&gt;quake.x(2)@t1</title>
<path fill="none" stroke="black" d="M75.47,-504.15C66.01,-479.71 48.37,-434.17 37.18,-405.29"/>
<polygon fill="black" stroke="black" points="40.39,-403.89 33.52,-395.82 33.86,-406.41 40.39,-403.89"/>
</g>
<!-- quake.cr1(1,0)@t3 params=(1.5707963267948966,) -->
<g id="node6" class="node">
<title>quake.cr1(1,0)@t3 params=(1.5707963267948966,)</title>
<ellipse fill="none" stroke="black" cx="90" cy="-306" rx="27" ry="18"/>
<text text-anchor="middle" x="90" y="-302.3" font-family="Times,serif" font-size="14.00">cr1</text>
</g>
<!-- Start&#45;&gt;quake.cr1(1,0)@t3 params=(1.5707963267948966,) -->
<g id="edge4" class="edge">
<title>Start&#45;&gt;quake.cr1(1,0)@t3 params=(1.5707963267948966,)</title>
<path fill="none" stroke="black" d="M82.64,-503.85C84.02,-466.83 87.3,-379.18 88.98,-334.39"/>
<polygon fill="black" stroke="black" points="92.48,-334.36 89.36,-324.23 85.48,-334.09 92.48,-334.36"/>
</g>
<!-- End -->
<g id="node2" class="node">
<title>End</title>
<ellipse fill="red" stroke="red" cx="82" cy="-18" rx="29.5" ry="18"/>
<text text-anchor="middle" x="82" y="-14.3" font-family="Times,serif" font-size="14.00">End</text>
</g>
<!-- quake.h(0)@t2 -->
<g id="node5" class="node">
<title>quake.h(0)@t2</title>
<ellipse fill="none" stroke="black" cx="137" cy="-378" rx="27" ry="18"/>
<text text-anchor="middle" x="137" y="-374.3" font-family="Times,serif" font-size="14.00">h</text>
</g>
<!-- quake.x(0)@t0&#45;&gt;quake.h(0)@t2 -->
<g id="edge3" class="edge">
<title>quake.x(0)@t0&#45;&gt;quake.h(0)@t2</title>
<path fill="none" stroke="black" d="M137,-431.7C137,-423.98 137,-414.71 137,-406.11"/>
<polygon fill="black" stroke="black" points="140.5,-406.1 137,-396.1 133.5,-406.1 140.5,-406.1"/>
</g>
<!-- quake.cr1(2,0)@t4 params=(0.7853981633974483,) -->
<g id="node7" class="node">
<title>quake.cr1(2,0)@t4 params=(0.7853981633974483,)</title>
<ellipse fill="none" stroke="black" cx="27" cy="-234" rx="27" ry="18"/>
<text text-anchor="middle" x="27" y="-230.3" font-family="Times,serif" font-size="14.00">cr1</text>
</g>
<!-- quake.x(2)@t1&#45;&gt;quake.cr1(2,0)@t4 params=(0.7853981633974483,) -->
<g id="edge6" class="edge">
<title>quake.x(2)@t1&#45;&gt;quake.cr1(2,0)@t4 params=(0.7853981633974483,)</title>
<path fill="none" stroke="black" d="M27,-359.87C27,-335.67 27,-291.21 27,-262.39"/>
<polygon fill="black" stroke="black" points="30.5,-262.19 27,-252.19 23.5,-262.19 30.5,-262.19"/>
</g>
<!-- quake.h(0)@t2&#45;&gt;quake.cr1(1,0)@t3 params=(1.5707963267948966,) -->
<g id="edge5" class="edge">
<title>quake.h(0)@t2&#45;&gt;quake.cr1(1,0)@t3 params=(1.5707963267948966,)</title>
<path fill="none" stroke="black" d="M126.33,-361.12C120.45,-352.34 113.01,-341.26 106.39,-331.42"/>
<polygon fill="black" stroke="black" points="109.1,-329.17 100.62,-322.82 103.29,-333.07 109.1,-329.17"/>
</g>
<!-- quake.cr1(1,0)@t3 params=(1.5707963267948966,)&#45;&gt;quake.cr1(2,0)@t4 params=(0.7853981633974483,) -->
<g id="edge7" class="edge">
<title>quake.cr1(1,0)@t3 params=(1.5707963267948966,)&#45;&gt;quake.cr1(2,0)@t4 params=(0.7853981633974483,)</title>
<path fill="none" stroke="black" d="M76.64,-290.15C68.12,-280.69 56.91,-268.24 47.31,-257.56"/>
<polygon fill="black" stroke="black" points="49.63,-254.92 40.34,-249.82 44.43,-259.6 49.63,-254.92"/>
</g>
<!-- quake.h(1)@t5 -->
<g id="node8" class="node">
<title>quake.h(1)@t5</title>
<ellipse fill="none" stroke="black" cx="99" cy="-234" rx="27" ry="18"/>
<text text-anchor="middle" x="99" y="-230.3" font-family="Times,serif" font-size="14.00">h</text>
</g>
<!-- quake.cr1(1,0)@t3 params=(1.5707963267948966,)&#45;&gt;quake.h(1)@t5 -->
<g id="edge8" class="edge">
<title>quake.cr1(1,0)@t3 params=(1.5707963267948966,)&#45;&gt;quake.h(1)@t5</title>
<path fill="none" stroke="black" d="M92.18,-288.05C93.17,-280.35 94.37,-271.03 95.48,-262.36"/>
<polygon fill="black" stroke="black" points="98.98,-262.64 96.78,-252.28 92.03,-261.75 98.98,-262.64"/>
</g>
<!-- quake.cr1(2,0)@t4 params=(0.7853981633974483,)&#45;&gt;End -->
<g id="edge12" class="edge">
<title>quake.cr1(2,0)@t4 params=(0.7853981633974483,)&#45;&gt;End</title>
<path fill="none" stroke="black" d="M26.4,-215.93C25.91,-185.84 27.41,-121.84 46,-72 49.91,-61.53 56.3,-51.11 62.61,-42.32"/>
<polygon fill="black" stroke="black" points="65.57,-44.21 68.81,-34.12 59.99,-39.98 65.57,-44.21"/>
</g>
<!-- quake.cr1(2,1)@t6 params=(1.5707963267948966,) -->
<g id="node9" class="node">
<title>quake.cr1(2,1)@t6 params=(1.5707963267948966,)</title>
<ellipse fill="none" stroke="black" cx="90" cy="-162" rx="27" ry="18"/>
<text text-anchor="middle" x="90" y="-158.3" font-family="Times,serif" font-size="14.00">cr1</text>
</g>
<!-- quake.cr1(2,0)@t4 params=(0.7853981633974483,)&#45;&gt;quake.cr1(2,1)@t6 params=(1.5707963267948966,) -->
<g id="edge9" class="edge">
<title>quake.cr1(2,0)@t4 params=(0.7853981633974483,)&#45;&gt;quake.cr1(2,1)@t6 params=(1.5707963267948966,)</title>
<path fill="none" stroke="black" d="M40.36,-218.15C48.88,-208.69 60.09,-196.24 69.69,-185.56"/>
<polygon fill="black" stroke="black" points="72.57,-187.6 76.66,-177.82 67.37,-182.92 72.57,-187.6"/>
</g>
<!-- quake.h(1)@t5&#45;&gt;quake.cr1(2,1)@t6 params=(1.5707963267948966,) -->
<g id="edge10" class="edge">
<title>quake.h(1)@t5&#45;&gt;quake.cr1(2,1)@t6 params=(1.5707963267948966,)</title>
<path fill="none" stroke="black" d="M96.82,-216.05C95.83,-208.35 94.63,-199.03 93.52,-190.36"/>
<polygon fill="black" stroke="black" points="96.97,-189.75 92.22,-180.28 90.02,-190.64 96.97,-189.75"/>
</g>
<!-- quake.cr1(2,1)@t6 params=(1.5707963267948966,)&#45;&gt;End -->
<g id="edge13" class="edge">
<title>quake.cr1(2,1)@t6 params=(1.5707963267948966,)&#45;&gt;End</title>
<path fill="none" stroke="black" d="M101.02,-145.13C107.35,-135.01 114.69,-121.33 118,-108 121.85,-92.47 122.7,-87.29 118,-72 114.71,-61.31 108.46,-50.85 102.07,-42.08"/>
<polygon fill="black" stroke="black" points="104.65,-39.69 95.75,-33.93 99.12,-43.98 104.65,-39.69"/>
</g>
<!-- quake.h(2)@t7 -->
<g id="node10" class="node">
<title>quake.h(2)@t7</title>
<ellipse fill="none" stroke="black" cx="82" cy="-90" rx="27" ry="18"/>
<text text-anchor="middle" x="82" y="-86.3" font-family="Times,serif" font-size="14.00">h</text>
</g>
<!-- quake.cr1(2,1)@t6 params=(1.5707963267948966,)&#45;&gt;quake.h(2)@t7 -->
<g id="edge11" class="edge">
<title>quake.cr1(2,1)@t6 params=(1.5707963267948966,)&#45;&gt;quake.h(2)@t7</title>
<path fill="none" stroke="black" d="M88.02,-143.7C87.14,-135.98 86.08,-126.71 85.1,-118.11"/>
<polygon fill="black" stroke="black" points="88.57,-117.64 83.95,-108.1 81.61,-118.44 88.57,-117.64"/>
</g>
<!-- quake.h(2)@t7&#45;&gt;End -->
<g id="edge14" class="edge">
<title>quake.h(2)@t7&#45;&gt;End</title>
<path fill="none" stroke="black" d="M82,-71.7C82,-63.98 82,-54.71 82,-46.11"/>
<polygon fill="black" stroke="black" points="85.5,-46.1 82,-36.1 78.5,-46.1 85.5,-46.1"/>
</g>
</g>
</svg>
