<?xml version="1.0" encoding="UTF-8" standalone="no"?>
<!DOCTYPE svg PUBLIC "-//W3C//DTD SVG 1.1//EN"
 "http://www.w3.org/Graphics/SVG/1.1/DTD/svg11.dtd">
<!-- Generated by graphviz version 2.43.0 (0)
 -->
<!-- Title: kernel_DAG_Will Pages: 1 -->
<svg width="1087pt" height="908pt"
 viewBox="0.00 0.00 1086.85 908.00" xmlns="http://www.w3.org/2000/svg" xmlns:xlink="http://www.w3.org/1999/xlink">
<g id="graph0" class="graph" transform="scale(1 1) rotate(0) translate(4 904)">
<title>kernel_DAG_Will</title>
<polygon fill="white" stroke="transparent" points="-4,4 -4,-904 1082.85,-904 1082.85,4 -4,4"/>
<!-- Start -->
<g id="node1" class="node">
<title>Start</title>
<ellipse fill="green" stroke="green" cx="250.56" cy="-882" rx="34.39" ry="18"/>
<text text-anchor="middle" x="250.56" y="-878.3" font-family="Times,serif" font-size="14.00">Start</text>
</g>
<!-- quake.h(0)@t0 -->
<g id="node3" class="node">
<title>quake.h(0)@t0</title>
<ellipse fill="none" stroke="black" cx="43.56" cy="-810" rx="27" ry="18"/>
<text text-anchor="middle" x="43.56" y="-806.3" font-family="Times,serif" font-size="14.00">h</text>
</g>
<!-- Start&#45;&gt;quake.h(0)@t0 -->
<g id="edge15" class="edge">
<title>Start&#45;&gt;quake.h(0)@t0</title>
<path fill="none" stroke="black" d="M221.22,-872.45C187.85,-862.53 131.86,-845.32 84.56,-828 81.45,-826.86 78.23,-825.62 75.02,-824.36"/>
<polygon fill="black" stroke="black" points="76.14,-821.03 65.56,-820.52 73.51,-827.52 76.14,-821.03"/>
</g>
<!-- quake.cx(0,1)@t1 -->
<g id="node4" class="node">
<title>quake.cx(0,1)@t1</title>
<ellipse fill="none" stroke="black" cx="34.56" cy="-738" rx="27" ry="18"/>
<text text-anchor="middle" x="34.56" y="-734.3" font-family="Times,serif" font-size="14.00">cx</text>
</g>
<!-- Start&#45;&gt;quake.cx(0,1)@t1 -->
<g id="edge17" class="edge">
<title>Start&#45;&gt;quake.cx(0,1)@t1</title>
<path fill="none" stroke="black" d="M216.52,-878.7C155.96,-873.81 33.43,-860.12 7.56,-828 -7.63,-809.13 4.25,-781.81 16.7,-762.43"/>
<polygon fill="black" stroke="black" points="19.61,-764.37 22.36,-754.14 13.83,-760.42 19.61,-764.37"/>
</g>
<!-- quake.cx(0,2)@t2 -->
<g id="node5" class="node">
<title>quake.cx(0,2)@t2</title>
<ellipse fill="none" stroke="black" cx="81.56" cy="-666" rx="27" ry="18"/>
<text text-anchor="middle" x="81.56" y="-662.3" font-family="Times,serif" font-size="14.00">cx</text>
</g>
<!-- Start&#45;&gt;quake.cx(0,2)@t2 -->
<g id="edge19" class="edge">
<title>Start&#45;&gt;quake.cx(0,2)@t2</title>
<path fill="none" stroke="black" d="M217.91,-875.92C188.74,-869.66 146.97,-856.18 122.56,-828 89.84,-790.23 82.63,-729.84 81.39,-694.75"/>
<polygon fill="black" stroke="black" points="84.88,-694.23 81.17,-684.31 77.88,-694.38 84.88,-694.23"/>
</g>
<!-- quake.cx(0,3)@t3 -->
<g id="node6" class="node">
<title>quake.cx(0,3)@t3</title>
<ellipse fill="none" stroke="black" cx="119.56" cy="-594" rx="27" ry="18"/>
<text text-anchor="middle" x="119.56" y="-590.3" font-family="Times,serif" font-size="14.00">cx</text>
</g>
<!-- Start&#45;&gt;quake.cx(0,3)@t3 -->
<g id="edge21" class="edge">
<title>Start&#45;&gt;quake.cx(0,3)@t3</title>
<path fill="none" stroke="black" d="M222.07,-871.59C201.69,-863.35 175.34,-849.31 160.56,-828 137.68,-795 125.83,-676.49 121.51,-622.34"/>
<polygon fill="black" stroke="black" points="124.98,-621.81 120.73,-612.11 118,-622.35 124.98,-621.81"/>
</g>
<!-- quake.cx(0,4)@t4 -->
<g id="node7" class="node">
<title>quake.cx(0,4)@t4</title>
<ellipse fill="none" stroke="black" cx="157.56" cy="-522" rx="27" ry="18"/>
<text text-anchor="middle" x="157.56" y="-518.3" font-family="Times,serif" font-size="14.00">cx</text>
</g>
<!-- Start&#45;&gt;quake.cx(0,4)@t4 -->
<g id="edge23" class="edge">
<title>Start&#45;&gt;quake.cx(0,4)@t4</title>
<path fill="none" stroke="black" d="M232.23,-866.58C220.98,-856.81 207.14,-842.99 198.56,-828 178.22,-792.44 174.56,-779.97 174.56,-739 174.56,-739 174.56,-739 174.56,-665 174.56,-624.71 167.73,-578.44 162.73,-549.96"/>
<polygon fill="black" stroke="black" points="166.14,-549.19 160.92,-539.97 159.26,-550.43 166.14,-549.19"/>
</g>
<!-- quake.cx(0,5)@t5 -->
<g id="node8" class="node">
<title>quake.cx(0,5)@t5</title>
<ellipse fill="none" stroke="black" cx="195.56" cy="-450" rx="27" ry="18"/>
<text text-anchor="middle" x="195.56" y="-446.3" font-family="Times,serif" font-size="14.00">cx</text>
</g>
<!-- Start&#45;&gt;quake.cx(0,5)@t5 -->
<g id="edge25" class="edge">
<title>Start&#45;&gt;quake.cx(0,5)@t5</title>
<path fill="none" stroke="black" d="M243.05,-864.34C231.98,-838.2 212.56,-785.7 212.56,-739 212.56,-739 212.56,-739 212.56,-593 212.56,-552.71 205.73,-506.44 200.73,-477.96"/>
<polygon fill="black" stroke="black" points="204.14,-477.19 198.92,-467.97 197.26,-478.43 204.14,-477.19"/>
</g>
<!-- quake.cx(0,6)@t6 -->
<g id="node9" class="node">
<title>quake.cx(0,6)@t6</title>
<ellipse fill="none" stroke="black" cx="233.56" cy="-378" rx="27" ry="18"/>
<text text-anchor="middle" x="233.56" y="-374.3" font-family="Times,serif" font-size="14.00">cx</text>
</g>
<!-- Start&#45;&gt;quake.cx(0,6)@t6 -->
<g id="edge27" class="edge">
<title>Start&#45;&gt;quake.cx(0,6)@t6</title>
<path fill="none" stroke="black" d="M250.56,-863.95C250.56,-837.29 250.56,-784.11 250.56,-739 250.56,-739 250.56,-739 250.56,-521 250.56,-480.71 243.73,-434.44 238.73,-405.96"/>
<polygon fill="black" stroke="black" points="242.14,-405.19 236.92,-395.97 235.26,-406.43 242.14,-405.19"/>
</g>
<!-- quake.cx(0,7)@t7 -->
<g id="node10" class="node">
<title>quake.cx(0,7)@t7</title>
<ellipse fill="none" stroke="black" cx="271.56" cy="-306" rx="27" ry="18"/>
<text text-anchor="middle" x="271.56" y="-302.3" font-family="Times,serif" font-size="14.00">cx</text>
</g>
<!-- Start&#45;&gt;quake.cx(0,7)@t7 -->
<g id="edge29" class="edge">
<title>Start&#45;&gt;quake.cx(0,7)@t7</title>
<path fill="none" stroke="black" d="M258.07,-864.34C269.14,-838.2 288.56,-785.7 288.56,-739 288.56,-739 288.56,-739 288.56,-449 288.56,-408.71 281.73,-362.44 276.73,-333.96"/>
<polygon fill="black" stroke="black" points="280.14,-333.19 274.92,-323.97 273.26,-334.43 280.14,-333.19"/>
</g>
<!-- quake.cx(0,8)@t8 -->
<g id="node11" class="node">
<title>quake.cx(0,8)@t8</title>
<ellipse fill="none" stroke="black" cx="309.56" cy="-234" rx="27" ry="18"/>
<text text-anchor="middle" x="309.56" y="-230.3" font-family="Times,serif" font-size="14.00">cx</text>
</g>
<!-- Start&#45;&gt;quake.cx(0,8)@t8 -->
<g id="edge31" class="edge">
<title>Start&#45;&gt;quake.cx(0,8)@t8</title>
<path fill="none" stroke="black" d="M265.58,-865.43C287.72,-840.74 326.56,-790.17 326.56,-739 326.56,-739 326.56,-739 326.56,-377 326.56,-336.71 319.73,-290.44 314.73,-261.96"/>
<polygon fill="black" stroke="black" points="318.14,-261.19 312.92,-251.97 311.26,-262.43 318.14,-261.19"/>
</g>
<!-- quake.cx(0,9)@t9 -->
<g id="node12" class="node">
<title>quake.cx(0,9)@t9</title>
<ellipse fill="none" stroke="black" cx="347.56" cy="-162" rx="27" ry="18"/>
<text text-anchor="middle" x="347.56" y="-158.3" font-family="Times,serif" font-size="14.00">cx</text>
</g>
<!-- Start&#45;&gt;quake.cx(0,9)@t9 -->
<g id="edge33" class="edge">
<title>Start&#45;&gt;quake.cx(0,9)@t9</title>
<path fill="none" stroke="black" d="M272,-867.79C305.03,-845.6 364.56,-797.49 364.56,-739 364.56,-739 364.56,-739 364.56,-305 364.56,-264.71 357.73,-218.44 352.73,-189.96"/>
<polygon fill="black" stroke="black" points="356.14,-189.19 350.92,-179.97 349.26,-190.43 356.14,-189.19"/>
</g>
<!-- quake.x(0)@t0 -->
<g id="node14" class="node">
<title>quake.x(0)@t0</title>
<ellipse fill="none" stroke="black" cx="596.56" cy="-810" rx="78.79" ry="18"/>
<text text-anchor="middle" x="596.56" y="-806.3" font-family="Times,serif" font-size="14.00">quake.x(0)@t0</text>
</g>
<!-- Start&#45;&gt;quake.x(0)@t0 -->
<g id="edge1" class="edge">
<title>Start&#45;&gt;quake.x(0)@t0</title>
<path fill="none" stroke="black" d="M282.18,-874.6C337.95,-863.32 454.9,-839.66 529.38,-824.59"/>
<polygon fill="black" stroke="black" points="530.49,-827.94 539.59,-822.53 529.1,-821.08 530.49,-827.94"/>
</g>
<!-- quake.x(2)@t1 -->
<g id="node15" class="node">
<title>quake.x(2)@t1</title>
<ellipse fill="none" stroke="black" cx="471.56" cy="-738" rx="78.79" ry="18"/>
<text text-anchor="middle" x="471.56" y="-734.3" font-family="Times,serif" font-size="14.00">quake.x(2)@t1</text>
</g>
<!-- Start&#45;&gt;quake.x(2)@t1 -->
<g id="edge2" class="edge">
<title>Start&#45;&gt;quake.x(2)@t1</title>
<path fill="none" stroke="black" d="M279.77,-872.36C306.74,-863.6 347.24,-848.43 378.56,-828 406.2,-809.97 432.89,-783.13 450.54,-763.64"/>
<polygon fill="black" stroke="black" points="453.26,-765.85 457.3,-756.05 448.03,-761.19 453.26,-765.85"/>
</g>
<!-- quake.cr1(1,0)@t3 params=(1.5707963267948966,) -->
<g id="node17" class="node">
<title>quake.cr1(1,0)@t3 params=(1.5707963267948966,)</title>
<ellipse fill="none" stroke="black" cx="754.56" cy="-666" rx="254.55" ry="18"/>
<text text-anchor="middle" x="754.56" y="-662.3" font-family="Times,serif" font-size="14.00">quake.cr1(1,0)@t3 params=(1.5707963267948966,)</text>
</g>
<!-- Start&#45;&gt;quake.cr1(1,0)@t3 params=(1.5707963267948966,) -->
<g id="edge4" class="edge">
<title>Start&#45;&gt;quake.cr1(1,0)@t3 params=(1.5707963267948966,)</title>
<path fill="none" stroke="black" d="M285.09,-880.33C375.56,-878.04 617.18,-868.21 684.56,-828 731.37,-800.07 746.94,-732.58 752.07,-694.45"/>
<polygon fill="black" stroke="black" points="755.6,-694.42 753.31,-684.08 748.65,-693.59 755.6,-694.42"/>
</g>
<!-- End -->
<g id="node2" class="node">
<title>End</title>
<ellipse fill="red" stroke="red" cx="197.56" cy="-18" rx="29.5" ry="18"/>
<text text-anchor="middle" x="197.56" y="-14.3" font-family="Times,serif" font-size="14.00">End</text>
</g>
<!-- quake.h(0)@t0&#45;&gt;quake.cx(0,1)@t1 -->
<g id="edge16" class="edge">
<title>quake.h(0)@t0&#45;&gt;quake.cx(0,1)@t1</title>
<path fill="none" stroke="black" d="M41.38,-792.05C40.39,-784.35 39.19,-775.03 38.08,-766.36"/>
<polygon fill="black" stroke="black" points="41.53,-765.75 36.78,-756.28 34.59,-766.64 41.53,-765.75"/>
</g>
<!-- quake.cx(0,1)@t1&#45;&gt;quake.cx(0,2)@t2 -->
<g id="edge18" class="edge">
<title>quake.cx(0,1)@t1&#45;&gt;quake.cx(0,2)@t2</title>
<path fill="none" stroke="black" d="M45.23,-721.12C51.11,-712.34 58.55,-701.26 65.17,-691.42"/>
<polygon fill="black" stroke="black" points="68.27,-693.07 70.94,-682.82 62.46,-689.17 68.27,-693.07"/>
</g>
<!-- quake.mz(0,1,2,3,4,5,6,7,8,9)@t10 -->
<g id="node13" class="node">
<title>quake.mz(0,1,2,3,4,5,6,7,8,9)@t10</title>
<ellipse fill="yellow" stroke="yellow" cx="197.56" cy="-90" rx="27" ry="18"/>
<text text-anchor="middle" x="197.56" y="-86.3" font-family="Times,serif" font-size="14.00">mz</text>
</g>
<!-- quake.cx(0,1)@t1&#45;&gt;quake.mz(0,1,2,3,4,5,6,7,8,9)@t10 -->
<g id="edge35" class="edge">
<title>quake.cx(0,1)@t1&#45;&gt;quake.mz(0,1,2,3,4,5,6,7,8,9)@t10</title>
<path fill="none" stroke="black" d="M32.98,-719.97C30.65,-693.33 26.56,-640.19 26.56,-595 26.56,-595 26.56,-595 26.56,-233 26.56,-186.73 45.94,-174.69 80.56,-144 104.32,-122.94 137.84,-108.91 162.92,-100.61"/>
<polygon fill="black" stroke="black" points="164.27,-103.85 172.75,-97.5 162.16,-97.17 164.27,-103.85"/>
</g>
<!-- quake.cx(0,2)@t2&#45;&gt;quake.cx(0,3)@t3 -->
<g id="edge20" class="edge">
<title>quake.cx(0,2)@t2&#45;&gt;quake.cx(0,3)@t3</title>
<path fill="none" stroke="black" d="M90.37,-648.76C94.98,-640.28 100.72,-629.71 105.88,-620.2"/>
<polygon fill="black" stroke="black" points="109.1,-621.61 110.79,-611.15 102.95,-618.27 109.1,-621.61"/>
</g>
<!-- quake.cx(0,2)@t2&#45;&gt;quake.mz(0,1,2,3,4,5,6,7,8,9)@t10 -->
<g id="edge36" class="edge">
<title>quake.cx(0,2)@t2&#45;&gt;quake.mz(0,1,2,3,4,5,6,7,8,9)@t10</title>
<path fill="none" stroke="black" d="M78.2,-648.03C73.25,-621.48 64.56,-568.44 64.56,-523 64.56,-523 64.56,-523 64.56,-233 64.56,-173.27 128.01,-128.31 167.26,-106.21"/>
<polygon fill="black" stroke="black" points="169.09,-109.2 176.19,-101.34 165.74,-103.05 169.09,-109.2"/>
</g>
<!-- quake.cx(0,3)@t3&#45;&gt;quake.cx(0,4)@t4 -->
<g id="edge22" class="edge">
<title>quake.cx(0,3)@t3&#45;&gt;quake.cx(0,4)@t4</title>
<path fill="none" stroke="black" d="M128.37,-576.76C132.98,-568.28 138.72,-557.71 143.88,-548.2"/>
<polygon fill="black" stroke="black" points="147.1,-549.61 148.79,-539.15 140.95,-546.27 147.1,-549.61"/>
</g>
<!-- quake.cx(0,3)@t3&#45;&gt;quake.mz(0,1,2,3,4,5,6,7,8,9)@t10 -->
<g id="edge37" class="edge">
<title>quake.cx(0,3)@t3&#45;&gt;quake.mz(0,1,2,3,4,5,6,7,8,9)@t10</title>
<path fill="none" stroke="black" d="M116.2,-576.03C111.25,-549.48 102.56,-496.44 102.56,-451 102.56,-451 102.56,-451 102.56,-233 102.56,-182.52 144.55,-136.39 172.7,-111.15"/>
<polygon fill="black" stroke="black" points="175.33,-113.5 180.58,-104.3 170.73,-108.22 175.33,-113.5"/>
</g>
<!-- quake.cx(0,4)@t4&#45;&gt;quake.cx(0,5)@t5 -->
<g id="edge24" class="edge">
<title>quake.cx(0,4)@t4&#45;&gt;quake.cx(0,5)@t5</title>
<path fill="none" stroke="black" d="M166.37,-504.76C170.98,-496.28 176.72,-485.71 181.88,-476.2"/>
<polygon fill="black" stroke="black" points="185.1,-477.61 186.79,-467.15 178.95,-474.27 185.1,-477.61"/>
</g>
<!-- quake.cx(0,4)@t4&#45;&gt;quake.mz(0,1,2,3,4,5,6,7,8,9)@t10 -->
<g id="edge38" class="edge">
<title>quake.cx(0,4)@t4&#45;&gt;quake.mz(0,1,2,3,4,5,6,7,8,9)@t10</title>
<path fill="none" stroke="black" d="M154.2,-504.03C149.25,-477.48 140.56,-424.44 140.56,-379 140.56,-379 140.56,-379 140.56,-233 140.56,-189.09 164.33,-142.67 181.17,-115.3"/>
<polygon fill="black" stroke="black" points="184.17,-117.1 186.57,-106.78 178.26,-113.35 184.17,-117.1"/>
</g>
<!-- quake.cx(0,5)@t5&#45;&gt;quake.cx(0,6)@t6 -->
<g id="edge26" class="edge">
<title>quake.cx(0,5)@t5&#45;&gt;quake.cx(0,6)@t6</title>
<path fill="none" stroke="black" d="M204.37,-432.76C208.98,-424.28 214.72,-413.71 219.88,-404.2"/>
<polygon fill="black" stroke="black" points="223.1,-405.61 224.79,-395.15 216.95,-402.27 223.1,-405.61"/>
</g>
<!-- quake.cx(0,5)@t5&#45;&gt;quake.mz(0,1,2,3,4,5,6,7,8,9)@t10 -->
<g id="edge39" class="edge">
<title>quake.cx(0,5)@t5&#45;&gt;quake.mz(0,1,2,3,4,5,6,7,8,9)@t10</title>
<path fill="none" stroke="black" d="M192.2,-432.03C187.25,-405.48 178.56,-352.44 178.56,-307 178.56,-307 178.56,-307 178.56,-233 178.56,-192.64 186.19,-146.39 191.78,-117.94"/>
<polygon fill="black" stroke="black" points="195.25,-118.45 193.81,-107.95 188.39,-117.06 195.25,-118.45"/>
</g>
<!-- quake.cx(0,6)@t6&#45;&gt;quake.cx(0,7)@t7 -->
<g id="edge28" class="edge">
<title>quake.cx(0,6)@t6&#45;&gt;quake.cx(0,7)@t7</title>
<path fill="none" stroke="black" d="M242.37,-360.76C246.98,-352.28 252.72,-341.71 257.88,-332.2"/>
<polygon fill="black" stroke="black" points="261.1,-333.61 262.79,-323.15 254.95,-330.27 261.1,-333.61"/>
</g>
<!-- quake.cx(0,6)@t6&#45;&gt;quake.mz(0,1,2,3,4,5,6,7,8,9)@t10 -->
<g id="edge40" class="edge">
<title>quake.cx(0,6)@t6&#45;&gt;quake.mz(0,1,2,3,4,5,6,7,8,9)@t10</title>
<path fill="none" stroke="black" d="M231.42,-359.97C225.4,-312.18 208.33,-176.54 200.99,-118.22"/>
<polygon fill="black" stroke="black" points="204.41,-117.43 199.69,-107.94 197.47,-118.3 204.41,-117.43"/>
</g>
<!-- quake.cx(0,7)@t7&#45;&gt;quake.cx(0,8)@t8 -->
<g id="edge30" class="edge">
<title>quake.cx(0,7)@t7&#45;&gt;quake.cx(0,8)@t8</title>
<path fill="none" stroke="black" d="M280.37,-288.76C284.98,-280.28 290.72,-269.71 295.88,-260.2"/>
<polygon fill="black" stroke="black" points="299.1,-261.61 300.79,-251.15 292.95,-258.27 299.1,-261.61"/>
</g>
<!-- quake.cx(0,7)@t7&#45;&gt;quake.mz(0,1,2,3,4,5,6,7,8,9)@t10 -->
<g id="edge41" class="edge">
<title>quake.cx(0,7)@t7&#45;&gt;quake.mz(0,1,2,3,4,5,6,7,8,9)@t10</title>
<path fill="none" stroke="black" d="M269,-287.99C264.1,-258 251.95,-194.14 230.56,-144 226.33,-134.08 220.41,-123.87 214.74,-115.09"/>
<polygon fill="black" stroke="black" points="217.49,-112.9 209.02,-106.54 211.67,-116.79 217.49,-112.9"/>
</g>
<!-- quake.cx(0,8)@t8&#45;&gt;quake.cx(0,9)@t9 -->
<g id="edge32" class="edge">
<title>quake.cx(0,8)@t8&#45;&gt;quake.cx(0,9)@t9</title>
<path fill="none" stroke="black" d="M318.37,-216.76C322.98,-208.28 328.72,-197.71 333.88,-188.2"/>
<polygon fill="black" stroke="black" points="337.1,-189.61 338.79,-179.15 330.95,-186.27 337.1,-189.61"/>
</g>
<!-- quake.cx(0,8)@t8&#45;&gt;quake.mz(0,1,2,3,4,5,6,7,8,9)@t10 -->
<g id="edge42" class="edge">
<title>quake.cx(0,8)@t8&#45;&gt;quake.mz(0,1,2,3,4,5,6,7,8,9)@t10</title>
<path fill="none" stroke="black" d="M304.62,-216.21C298.44,-197.23 286.44,-166.08 268.56,-144 256.97,-129.68 240.68,-117.16 226.63,-107.89"/>
<polygon fill="black" stroke="black" points="228.11,-104.68 217.79,-102.28 224.36,-110.59 228.11,-104.68"/>
</g>
<!-- quake.cx(0,9)@t9&#45;&gt;quake.mz(0,1,2,3,4,5,6,7,8,9)@t10 -->
<g id="edge34" class="edge">
<title>quake.cx(0,9)@t9&#45;&gt;quake.mz(0,1,2,3,4,5,6,7,8,9)@t10</title>
<path fill="none" stroke="black" d="M324.55,-152.42C298.14,-141.2 255.16,-121.33 226.53,-107.23"/>
<polygon fill="black" stroke="black" points="227.93,-104.01 217.42,-102.69 224.81,-110.28 227.93,-104.01"/>
</g>
<!-- quake.cx(0,9)@t9&#45;&gt;quake.mz(0,1,2,3,4,5,6,7,8,9)@t10 -->
<g id="edge43" class="edge">
<title>quake.cx(0,9)@t9&#45;&gt;quake.mz(0,1,2,3,4,5,6,7,8,9)@t10</title>
<path fill="none" stroke="black" d="M327.96,-149.44C302.98,-136.83 259.9,-116.69 230.03,-103.66"/>
<polygon fill="black" stroke="black" points="231.41,-100.44 220.84,-99.7 228.63,-106.87 231.41,-100.44"/>
</g>
<!-- quake.mz(0,1,2,3,4,5,6,7,8,9)@t10&#45;&gt;End -->
<g id="edge12" class="edge">
<title>quake.mz(0,1,2,3,4,5,6,7,8,9)@t10&#45;&gt;End</title>
<path fill="none" stroke="black" d="M170.98,-85.99C129.54,-75.55 125.79,-40.67 159.74,-25.8"/>
<polygon fill="black" stroke="black" points="160.91,-29.1 169.18,-22.48 158.59,-22.5 160.91,-29.1"/>
</g>
<!-- quake.mz(0,1,2,3,4,5,6,7,8,9)@t10&#45;&gt;End -->
<g id="edge13" class="edge">
<title>quake.mz(0,1,2,3,4,5,6,7,8,9)@t10&#45;&gt;End</title>
<path fill="none" stroke="black" d="M171.64,-83.97C147.21,-72.88 143.77,-46.14 161.31,-30.64"/>
<polygon fill="black" stroke="black" points="163.74,-33.22 170.11,-24.76 159.85,-27.4 163.74,-33.22"/>
</g>
<!-- quake.mz(0,1,2,3,4,5,6,7,8,9)@t10&#45;&gt;End -->
<g id="edge14" class="edge">
<title>quake.mz(0,1,2,3,4,5,6,7,8,9)@t10&#45;&gt;End</title>
<path fill="none" stroke="black" d="M174.49,-80.42C163.08,-69.64 160.81,-50.86 167.68,-36.9"/>
<polygon fill="black" stroke="black" points="170.66,-38.75 173.51,-28.55 164.92,-34.74 170.66,-38.75"/>
</g>
<!-- quake.mz(0,1,2,3,4,5,6,7,8,9)@t10&#45;&gt;End -->
<g id="edge44" class="edge">
<title>quake.mz(0,1,2,3,4,5,6,7,8,9)@t10&#45;&gt;End</title>
<path fill="none" stroke="black" d="M181.19,-75.5C177.32,-66.23 176.34,-53.67 178.27,-42.75"/>
<polygon fill="black" stroke="black" points="181.69,-43.51 181.01,-32.93 174.95,-41.63 181.69,-43.51"/>
</g>
<!-- quake.mz(0,1,2,3,4,5,6,7,8,9)@t10&#45;&gt;End -->
<g id="edge45" class="edge">
<title>quake.mz(0,1,2,3,4,5,6,7,8,9)@t10&#45;&gt;End</title>
<path fill="none" stroke="black" d="M191.72,-72.41C190.86,-64.51 190.61,-54.85 190.97,-45.94"/>
<polygon fill="black" stroke="black" points="194.46,-46.18 191.68,-35.96 187.48,-45.68 194.46,-46.18"/>
</g>
<!-- quake.mz(0,1,2,3,4,5,6,7,8,9)@t10&#45;&gt;End -->
<g id="edge46" class="edge">
<title>quake.mz(0,1,2,3,4,5,6,7,8,9)@t10&#45;&gt;End</title>
<path fill="none" stroke="black" d="M203.4,-72.41C204.26,-64.51 204.51,-54.85 204.15,-45.94"/>
<polygon fill="black" stroke="black" points="207.64,-45.68 203.44,-35.96 200.66,-46.18 207.64,-45.68"/>
</g>
<!-- quake.mz(0,1,2,3,4,5,6,7,8,9)@t10&#45;&gt;End -->
<g id="edge47" class="edge">
<title>quake.mz(0,1,2,3,4,5,6,7,8,9)@t10&#45;&gt;End</title>
<path fill="none" stroke="black" d="M213.93,-75.5C217.8,-66.23 218.78,-53.67 216.85,-42.75"/>
<polygon fill="black" stroke="black" points="220.17,-41.63 214.11,-32.93 213.43,-43.51 220.17,-41.63"/>
</g>
<!-- quake.mz(0,1,2,3,4,5,6,7,8,9)@t10&#45;&gt;End -->
<g id="edge48" class="edge">
<title>quake.mz(0,1,2,3,4,5,6,7,8,9)@t10&#45;&gt;End</title>
<path fill="none" stroke="black" d="M220.63,-80.42C232.04,-69.64 234.31,-50.86 227.44,-36.9"/>
<polygon fill="black" stroke="black" points="230.2,-34.74 221.61,-28.55 224.47,-38.75 230.2,-34.74"/>
</g>
<!-- quake.mz(0,1,2,3,4,5,6,7,8,9)@t10&#45;&gt;End -->
<g id="edge49" class="edge">
<title>quake.mz(0,1,2,3,4,5,6,7,8,9)@t10&#45;&gt;End</title>
<path fill="none" stroke="black" d="M223.48,-83.97C247.91,-72.88 251.36,-46.14 233.81,-30.64"/>
<polygon fill="black" stroke="black" points="235.27,-27.4 225.01,-24.76 231.39,-33.22 235.27,-27.4"/>
</g>
<!-- quake.mz(0,1,2,3,4,5,6,7,8,9)@t10&#45;&gt;End -->
<g id="edge50" class="edge">
<title>quake.mz(0,1,2,3,4,5,6,7,8,9)@t10&#45;&gt;End</title>
<path fill="none" stroke="black" d="M224.14,-85.99C265.58,-75.55 269.33,-40.67 235.38,-25.8"/>
<polygon fill="black" stroke="black" points="236.53,-22.5 225.94,-22.48 234.21,-29.1 236.53,-22.5"/>
</g>
<!-- quake.h(0)@t2 -->
<g id="node16" class="node">
<title>quake.h(0)@t2</title>
<ellipse fill="none" stroke="black" cx="647.56" cy="-738" rx="79.09" ry="18"/>
<text text-anchor="middle" x="647.56" y="-734.3" font-family="Times,serif" font-size="14.00">quake.h(0)@t2</text>
</g>
<!-- quake.x(0)@t0&#45;&gt;quake.h(0)@t2 -->
<g id="edge3" class="edge">
<title>quake.x(0)@t0&#45;&gt;quake.h(0)@t2</title>
<path fill="none" stroke="black" d="M608.91,-792.05C615.05,-783.63 622.59,-773.28 629.37,-763.97"/>
<polygon fill="black" stroke="black" points="632.27,-765.93 635.33,-755.79 626.61,-761.81 632.27,-765.93"/>
</g>
<!-- quake.cr1(2,0)@t4 params=(0.7853981633974483,) -->
<g id="node18" class="node">
<title>quake.cr1(2,0)@t4 params=(0.7853981633974483,)</title>
<ellipse fill="none" stroke="black" cx="647.56" cy="-594" rx="254.55" ry="18"/>
<text text-anchor="middle" x="647.56" y="-590.3" font-family="Times,serif" font-size="14.00">quake.cr1(2,0)@t4 params=(0.7853981633974483,)</text>
</g>
<!-- quake.x(2)@t1&#45;&gt;quake.cr1(2,0)@t4 params=(0.7853981633974483,) -->
<g id="edge6" class="edge">
<title>quake.x(2)@t1&#45;&gt;quake.cr1(2,0)@t4 params=(0.7853981633974483,)</title>
<path fill="none" stroke="black" d="M470.49,-719.71C470.24,-699.95 472.9,-667.82 490.56,-648 504.05,-632.86 522,-622.04 540.95,-614.31"/>
<polygon fill="black" stroke="black" points="542.21,-617.58 550.31,-610.76 539.72,-611.03 542.21,-617.58"/>
</g>
<!-- quake.h(0)@t2&#45;&gt;quake.cr1(1,0)@t3 params=(1.5707963267948966,) -->
<g id="edge5" class="edge">
<title>quake.h(0)@t2&#45;&gt;quake.cr1(1,0)@t3 params=(1.5707963267948966,)</title>
<path fill="none" stroke="black" d="M672.38,-720.76C686.41,-711.58 704.19,-699.95 719.62,-689.86"/>
<polygon fill="black" stroke="black" points="721.93,-692.53 728.39,-684.12 718.1,-686.67 721.93,-692.53"/>
</g>
<!-- quake.cr1(1,0)@t3 params=(1.5707963267948966,)&#45;&gt;quake.cr1(2,0)@t4 params=(0.7853981633974483,) -->
<g id="edge7" class="edge">
<title>quake.cr1(1,0)@t3 params=(1.5707963267948966,)&#45;&gt;quake.cr1(2,0)@t4 params=(0.7853981633974483,)</title>
<path fill="none" stroke="black" d="M728.66,-648.05C714.7,-638.92 697.29,-627.53 682.18,-617.65"/>
<polygon fill="black" stroke="black" points="683.88,-614.58 673.59,-612.03 680.05,-620.44 683.88,-614.58"/>
</g>
<!-- quake.h(1)@t5 -->
<g id="node19" class="node">
<title>quake.h(1)@t5</title>
<ellipse fill="none" stroke="black" cx="999.56" cy="-594" rx="79.09" ry="18"/>
<text text-anchor="middle" x="999.56" y="-590.3" font-family="Times,serif" font-size="14.00">quake.h(1)@t5</text>
</g>
<!-- quake.cr1(1,0)@t3 params=(1.5707963267948966,)&#45;&gt;quake.h(1)@t5 -->
<g id="edge8" class="edge">
<title>quake.cr1(1,0)@t3 params=(1.5707963267948966,)&#45;&gt;quake.h(1)@t5</title>
<path fill="none" stroke="black" d="M812.62,-648.41C851.89,-637.19 903.5,-622.45 942.54,-611.29"/>
<polygon fill="black" stroke="black" points="943.53,-614.65 952.18,-608.54 941.61,-607.92 943.53,-614.65"/>
</g>
<!-- quake.cr1(2,1)@t6 params=(1.5707963267948966,) -->
<g id="node20" class="node">
<title>quake.cr1(2,1)@t6 params=(1.5707963267948966,)</title>
<ellipse fill="none" stroke="black" cx="823.56" cy="-522" rx="254.55" ry="18"/>
<text text-anchor="middle" x="823.56" y="-518.3" font-family="Times,serif" font-size="14.00">quake.cr1(2,1)@t6 params=(1.5707963267948966,)</text>
</g>
<!-- quake.cr1(2,0)@t4 params=(0.7853981633974483,)&#45;&gt;quake.cr1(2,1)@t6 params=(1.5707963267948966,) -->
<g id="edge9" class="edge">
<title>quake.cr1(2,0)@t4 params=(0.7853981633974483,)&#45;&gt;quake.cr1(2,1)@t6 params=(1.5707963267948966,)</title>
<path fill="none" stroke="black" d="M689.72,-576.23C714.35,-566.43 745.64,-553.99 771.77,-543.6"/>
<polygon fill="black" stroke="black" points="773.14,-546.82 781.14,-539.87 770.55,-540.32 773.14,-546.82"/>
</g>
<!-- quake.h(1)@t5&#45;&gt;quake.cr1(2,1)@t6 params=(1.5707963267948966,) -->
<g id="edge10" class="edge">
<title>quake.h(1)@t5&#45;&gt;quake.cr1(2,1)@t6 params=(1.5707963267948966,)</title>
<path fill="none" stroke="black" d="M961.8,-577.98C936.6,-567.96 903.12,-554.64 875.42,-543.62"/>
<polygon fill="black" stroke="black" points="876.47,-540.28 865.88,-539.83 873.88,-546.78 876.47,-540.28"/>
</g>
<!-- quake.h(2)@t7 -->
<g id="node21" class="node">
<title>quake.h(2)@t7</title>
<ellipse fill="none" stroke="black" cx="823.56" cy="-450" rx="79.09" ry="18"/>
<text text-anchor="middle" x="823.56" y="-446.3" font-family="Times,serif" font-size="14.00">quake.h(2)@t7</text>
</g>
<!-- quake.cr1(2,1)@t6 params=(1.5707963267948966,)&#45;&gt;quake.h(2)@t7 -->
<g id="edge11" class="edge">
<title>quake.cr1(2,1)@t6 params=(1.5707963267948966,)&#45;&gt;quake.h(2)@t7</title>
<path fill="none" stroke="black" d="M823.56,-503.7C823.56,-495.98 823.56,-486.71 823.56,-478.11"/>
<polygon fill="black" stroke="black" points="827.06,-478.1 823.56,-468.1 820.06,-478.1 827.06,-478.1"/>
</g>
</g>
</svg>
