<?xml version="1.0" encoding="UTF-8" standalone="no"?>
<!DOCTYPE svg PUBLIC "-//W3C//DTD SVG 1.1//EN"
 "http://www.w3.org/Graphics/SVG/1.1/DTD/svg11.dtd">
<!-- Generated by graphviz version 2.43.0 (0)
 -->
<!-- Title: kernel_DAG Pages: 1 -->
<svg width="318pt" height="548pt"
 viewBox="0.00 0.00 317.79 548.00" xmlns="http://www.w3.org/2000/svg" xmlns:xlink="http://www.w3.org/1999/xlink">
<g id="graph0" class="graph" transform="scale(1 1) rotate(0) translate(4 544)">
<title>kernel_DAG</title>
<polygon fill="white" stroke="transparent" points="-4,4 -4,-544 313.79,-544 313.79,4 -4,4"/>
<!-- q0_start -->
<g id="node1" class="node">
<title>q0_start</title>
<ellipse fill="green" stroke="green" cx="49.4" cy="-522" rx="49.29" ry="18"/>
<text text-anchor="middle" x="49.4" y="-518.3" font-family="Times,serif" font-size="14.00">q0_start</text>
</g>
<!-- quake.x(0)@t0 -->
<g id="node4" class="node">
<title>quake.x(0)@t0</title>
<ellipse fill="none" stroke="black" cx="49.4" cy="-450" rx="27" ry="18"/>
<text text-anchor="middle" x="49.4" y="-446.3" font-family="Times,serif" font-size="14.00">x</text>
</g>
<!-- q0_start&#45;&gt;quake.x(0)@t0 -->
<g id="edge1" class="edge">
<title>q0_start&#45;&gt;quake.x(0)@t0</title>
<path fill="none" stroke="black" d="M49.4,-503.7C49.4,-495.98 49.4,-486.71 49.4,-478.11"/>
<polygon fill="black" stroke="black" points="52.9,-478.1 49.4,-468.1 45.9,-478.1 52.9,-478.1"/>
</g>
<!-- q1_start -->
<g id="node2" class="node">
<title>q1_start</title>
<ellipse fill="green" stroke="green" cx="143.4" cy="-378" rx="49.29" ry="18"/>
<text text-anchor="middle" x="143.4" y="-374.3" font-family="Times,serif" font-size="14.00">q1_start</text>
</g>
<!-- quake.cr1(1,0)@t3 params=(1.5707963267948966,) -->
<g id="node7" class="node">
<title>quake.cr1(1,0)@t3 params=(1.5707963267948966,)</title>
<ellipse fill="none" stroke="black" cx="143.4" cy="-306" rx="27" ry="18"/>
<text text-anchor="middle" x="143.4" y="-302.3" font-family="Times,serif" font-size="14.00">cr1</text>
</g>
<!-- q1_start&#45;&gt;quake.cr1(1,0)@t3 params=(1.5707963267948966,) -->
<g id="edge4" class="edge">
<title>q1_start&#45;&gt;quake.cr1(1,0)@t3 params=(1.5707963267948966,)</title>
<path fill="none" stroke="black" d="M143.4,-359.7C143.4,-351.98 143.4,-342.71 143.4,-334.11"/>
<polygon fill="black" stroke="black" points="146.9,-334.1 143.4,-324.1 139.9,-334.1 146.9,-334.1"/>
</g>
<!-- q2_start -->
<g id="node3" class="node">
<title>q2_start</title>
<ellipse fill="green" stroke="green" cx="260.4" cy="-378" rx="49.29" ry="18"/>
<text text-anchor="middle" x="260.4" y="-374.3" font-family="Times,serif" font-size="14.00">q2_start</text>
</g>
<!-- quake.x(2)@t1 -->
<g id="node5" class="node">
<title>quake.x(2)@t1</title>
<ellipse fill="none" stroke="black" cx="241.4" cy="-306" rx="27" ry="18"/>
<text text-anchor="middle" x="241.4" y="-302.3" font-family="Times,serif" font-size="14.00">x</text>
</g>
<!-- q2_start&#45;&gt;quake.x(2)@t1 -->
<g id="edge2" class="edge">
<title>q2_start&#45;&gt;quake.x(2)@t1</title>
<path fill="none" stroke="black" d="M255.8,-360.05C253.65,-352.14 251.04,-342.54 248.64,-333.69"/>
<polygon fill="black" stroke="black" points="251.95,-332.52 245.95,-323.79 245.19,-334.36 251.95,-332.52"/>
</g>
<!-- quake.h(0)@t2 -->
<g id="node6" class="node">
<title>quake.h(0)@t2</title>
<ellipse fill="none" stroke="black" cx="49.4" cy="-378" rx="27" ry="18"/>
<text text-anchor="middle" x="49.4" y="-374.3" font-family="Times,serif" font-size="14.00">h</text>
</g>
<!-- quake.x(0)@t0&#45;&gt;quake.h(0)@t2 -->
<g id="edge3" class="edge">
<title>quake.x(0)@t0&#45;&gt;quake.h(0)@t2</title>
<path fill="none" stroke="black" d="M49.4,-431.7C49.4,-423.98 49.4,-414.71 49.4,-406.11"/>
<polygon fill="black" stroke="black" points="52.9,-406.1 49.4,-396.1 45.9,-406.1 52.9,-406.1"/>
</g>
<!-- quake.cr1(2,0)@t4 params=(0.7853981633974483,) -->
<g id="node8" class="node">
<title>quake.cr1(2,0)@t4 params=(0.7853981633974483,)</title>
<ellipse fill="none" stroke="black" cx="223.4" cy="-234" rx="27" ry="18"/>
<text text-anchor="middle" x="223.4" y="-230.3" font-family="Times,serif" font-size="14.00">cr1</text>
</g>
<!-- quake.x(2)@t1&#45;&gt;quake.cr1(2,0)@t4 params=(0.7853981633974483,) -->
<g id="edge6" class="edge">
<title>quake.x(2)@t1&#45;&gt;quake.cr1(2,0)@t4 params=(0.7853981633974483,)</title>
<path fill="none" stroke="black" d="M237.04,-288.05C235,-280.14 232.53,-270.54 230.26,-261.69"/>
<polygon fill="black" stroke="black" points="233.59,-260.6 227.71,-251.79 226.81,-262.35 233.59,-260.6"/>
</g>
<!-- quake.h(0)@t2&#45;&gt;quake.cr1(1,0)@t3 params=(1.5707963267948966,) -->
<g id="edge5" class="edge">
<title>quake.h(0)@t2&#45;&gt;quake.cr1(1,0)@t3 params=(1.5707963267948966,)</title>
<path fill="none" stroke="black" d="M67.08,-363.83C81.35,-353.21 101.62,-338.11 117.68,-326.15"/>
<polygon fill="black" stroke="black" points="120.18,-328.65 126.11,-319.87 116,-323.04 120.18,-328.65"/>
</g>
<!-- quake.cr1(1,0)@t3 params=(1.5707963267948966,)&#45;&gt;quake.cr1(2,0)@t4 params=(0.7853981633974483,) -->
<g id="edge7" class="edge">
<title>quake.cr1(1,0)@t3 params=(1.5707963267948966,)&#45;&gt;quake.cr1(2,0)@t4 params=(0.7853981633974483,)</title>
<path fill="none" stroke="black" d="M159.2,-291.17C170.82,-281.01 186.79,-267.03 199.9,-255.56"/>
<polygon fill="black" stroke="black" points="202.4,-258.02 207.62,-248.8 197.79,-252.75 202.4,-258.02"/>
</g>
<!-- quake.h(1)@t5 -->
<g id="node9" class="node">
<title>quake.h(1)@t5</title>
<ellipse fill="none" stroke="black" cx="143.4" cy="-234" rx="27" ry="18"/>
<text text-anchor="middle" x="143.4" y="-230.3" font-family="Times,serif" font-size="14.00">h</text>
</g>
<!-- quake.cr1(1,0)@t3 params=(1.5707963267948966,)&#45;&gt;quake.h(1)@t5 -->
<g id="edge8" class="edge">
<title>quake.cr1(1,0)@t3 params=(1.5707963267948966,)&#45;&gt;quake.h(1)@t5</title>
<path fill="none" stroke="black" d="M143.4,-287.7C143.4,-279.98 143.4,-270.71 143.4,-262.11"/>
<polygon fill="black" stroke="black" points="146.9,-262.1 143.4,-252.1 139.9,-262.1 146.9,-262.1"/>
</g>
<!-- quake.cr1(2,1)@t6 params=(1.5707963267948966,) -->
<g id="node10" class="node">
<title>quake.cr1(2,1)@t6 params=(1.5707963267948966,)</title>
<ellipse fill="none" stroke="black" cx="143.4" cy="-162" rx="27" ry="18"/>
<text text-anchor="middle" x="143.4" y="-158.3" font-family="Times,serif" font-size="14.00">cr1</text>
</g>
<!-- quake.cr1(2,0)@t4 params=(0.7853981633974483,)&#45;&gt;quake.cr1(2,1)@t6 params=(1.5707963267948966,) -->
<g id="edge9" class="edge">
<title>quake.cr1(2,0)@t4 params=(0.7853981633974483,)&#45;&gt;quake.cr1(2,1)@t6 params=(1.5707963267948966,)</title>
<path fill="none" stroke="black" d="M207.59,-219.17C195.98,-209.01 180,-195.03 166.89,-183.56"/>
<polygon fill="black" stroke="black" points="169,-180.75 159.17,-176.8 164.39,-186.02 169,-180.75"/>
</g>
<!-- q0_end -->
<g id="node12" class="node">
<title>q0_end</title>
<ellipse fill="red" stroke="red" cx="232.4" cy="-162" rx="44.39" ry="18"/>
<text text-anchor="middle" x="232.4" y="-158.3" font-family="Times,serif" font-size="14.00">q0_end</text>
</g>
<!-- quake.cr1(2,0)@t4 params=(0.7853981633974483,)&#45;&gt;q0_end -->
<g id="edge12" class="edge">
<title>quake.cr1(2,0)@t4 params=(0.7853981633974483,)&#45;&gt;q0_end</title>
<path fill="none" stroke="black" d="M225.57,-216.05C226.57,-208.35 227.76,-199.03 228.88,-190.36"/>
<polygon fill="black" stroke="black" points="232.37,-190.64 230.17,-180.28 225.43,-189.75 232.37,-190.64"/>
</g>
<!-- quake.h(1)@t5&#45;&gt;quake.cr1(2,1)@t6 params=(1.5707963267948966,) -->
<g id="edge10" class="edge">
<title>quake.h(1)@t5&#45;&gt;quake.cr1(2,1)@t6 params=(1.5707963267948966,)</title>
<path fill="none" stroke="black" d="M143.4,-215.7C143.4,-207.98 143.4,-198.71 143.4,-190.11"/>
<polygon fill="black" stroke="black" points="146.9,-190.1 143.4,-180.1 139.9,-190.1 146.9,-190.1"/>
</g>
<!-- quake.h(2)@t7 -->
<g id="node11" class="node">
<title>quake.h(2)@t7</title>
<ellipse fill="none" stroke="black" cx="99.4" cy="-90" rx="27" ry="18"/>
<text text-anchor="middle" x="99.4" y="-86.3" font-family="Times,serif" font-size="14.00">h</text>
</g>
<!-- quake.cr1(2,1)@t6 params=(1.5707963267948966,)&#45;&gt;quake.h(2)@t7 -->
<g id="edge11" class="edge">
<title>quake.cr1(2,1)@t6 params=(1.5707963267948966,)&#45;&gt;quake.h(2)@t7</title>
<path fill="none" stroke="black" d="M133.41,-145.12C127.9,-136.34 120.93,-125.26 114.74,-115.42"/>
<polygon fill="black" stroke="black" points="117.63,-113.42 109.34,-106.82 111.7,-117.15 117.63,-113.42"/>
</g>
<!-- q1_end -->
<g id="node13" class="node">
<title>q1_end</title>
<ellipse fill="red" stroke="red" cx="188.4" cy="-90" rx="44.39" ry="18"/>
<text text-anchor="middle" x="188.4" y="-86.3" font-family="Times,serif" font-size="14.00">q1_end</text>
</g>
<!-- quake.cr1(2,1)@t6 params=(1.5707963267948966,)&#45;&gt;q1_end -->
<g id="edge13" class="edge">
<title>quake.cr1(2,1)@t6 params=(1.5707963267948966,)&#45;&gt;q1_end</title>
<path fill="none" stroke="black" d="M153.61,-145.12C159.09,-136.59 165.97,-125.89 172.16,-116.25"/>
<polygon fill="black" stroke="black" points="175.13,-118.1 177.6,-107.8 169.25,-114.32 175.13,-118.1"/>
</g>
<!-- q2_end -->
<g id="node14" class="node">
<title>q2_end</title>
<ellipse fill="red" stroke="red" cx="99.4" cy="-18" rx="44.39" ry="18"/>
<text text-anchor="middle" x="99.4" y="-14.3" font-family="Times,serif" font-size="14.00">q2_end</text>
</g>
<!-- quake.h(2)@t7&#45;&gt;q2_end -->
<g id="edge14" class="edge">
<title>quake.h(2)@t7&#45;&gt;q2_end</title>
<path fill="none" stroke="black" d="M99.4,-71.7C99.4,-63.98 99.4,-54.71 99.4,-46.11"/>
<polygon fill="black" stroke="black" points="102.9,-46.1 99.4,-36.1 95.9,-46.1 102.9,-46.1"/>
</g>
</g>
</svg>
