<?xml version="1.0" encoding="UTF-8" standalone="no"?>
<!DOCTYPE svg PUBLIC "-//W3C//DTD SVG 1.1//EN"
 "http://www.w3.org/Graphics/SVG/1.1/DTD/svg11.dtd">
<!-- Generated by graphviz version 2.43.0 (0)
 -->
<!-- Title: kernel_DAG_Will Pages: 1 -->
<svg width="404pt" height="908pt"
 viewBox="0.00 0.00 404.00 908.00" xmlns="http://www.w3.org/2000/svg" xmlns:xlink="http://www.w3.org/1999/xlink">
<g id="graph0" class="graph" transform="scale(1 1) rotate(0) translate(4 904)">
<title>kernel_DAG_Will</title>
<polygon fill="white" stroke="transparent" points="-4,4 -4,-904 400,-904 400,4 -4,4"/>
<!-- Start -->
<g id="node1" class="node">
<title>Start</title>
<ellipse fill="green" stroke="green" cx="215" cy="-882" rx="34.39" ry="18"/>
<text text-anchor="middle" x="215" y="-878.3" font-family="Times,serif" font-size="14.00">Start</text>
</g>
<!-- quake.h(0)@t0 -->
<g id="node3" class="node">
<title>quake.h(0)@t0</title>
<ellipse fill="none" stroke="black" cx="27" cy="-810" rx="27" ry="18"/>
<text text-anchor="middle" x="27" y="-806.3" font-family="Times,serif" font-size="14.00">h</text>
</g>
<!-- Start&#45;&gt;quake.h(0)@t0 -->
<g id="edge1" class="edge">
<title>Start&#45;&gt;quake.h(0)@t0</title>
<path fill="none" stroke="black" d="M186.95,-871.33C157.26,-860.99 109.11,-843.92 68,-828 65.08,-826.87 62.05,-825.67 59.02,-824.45"/>
<polygon fill="black" stroke="black" points="60.06,-821.09 49.48,-820.54 57.41,-827.57 60.06,-821.09"/>
</g>
<!-- quake.cx(0,1)@t1 -->
<g id="node4" class="node">
<title>quake.cx(0,1)@t1</title>
<ellipse fill="none" stroke="black" cx="56" cy="-738" rx="27" ry="18"/>
<text text-anchor="middle" x="56" y="-734.3" font-family="Times,serif" font-size="14.00">cx</text>
</g>
<!-- Start&#45;&gt;quake.cx(0,1)@t1 -->
<g id="edge3" class="edge">
<title>Start&#45;&gt;quake.cx(0,1)@t1</title>
<path fill="none" stroke="black" d="M185.75,-872.23C162,-863.93 128.82,-849.5 106,-828 87.44,-810.51 73.94,-784.56 65.69,-765.18"/>
<polygon fill="black" stroke="black" points="68.85,-763.68 61.85,-755.73 62.37,-766.31 68.85,-763.68"/>
</g>
<!-- quake.cx(0,2)@t2 -->
<g id="node5" class="node">
<title>quake.cx(0,2)@t2</title>
<ellipse fill="none" stroke="black" cx="103" cy="-666" rx="27" ry="18"/>
<text text-anchor="middle" x="103" y="-662.3" font-family="Times,serif" font-size="14.00">cx</text>
</g>
<!-- Start&#45;&gt;quake.cx(0,2)@t2 -->
<g id="edge5" class="edge">
<title>Start&#45;&gt;quake.cx(0,2)@t2</title>
<path fill="none" stroke="black" d="M191.17,-868.85C175.51,-859.67 155.8,-845.64 144,-828 116.37,-786.68 107.36,-728.02 104.42,-694.1"/>
<polygon fill="black" stroke="black" points="107.9,-693.72 103.66,-684.01 100.92,-694.24 107.9,-693.72"/>
</g>
<!-- quake.cx(0,3)@t3 -->
<g id="node6" class="node">
<title>quake.cx(0,3)@t3</title>
<ellipse fill="none" stroke="black" cx="141" cy="-594" rx="27" ry="18"/>
<text text-anchor="middle" x="141" y="-590.3" font-family="Times,serif" font-size="14.00">cx</text>
</g>
<!-- Start&#45;&gt;quake.cx(0,3)@t3 -->
<g id="edge7" class="edge">
<title>Start&#45;&gt;quake.cx(0,3)@t3</title>
<path fill="none" stroke="black" d="M202.87,-865.15C195.73,-855.04 187.11,-841.36 182,-828 154.81,-756.95 145.5,-666.74 142.43,-622.29"/>
<polygon fill="black" stroke="black" points="145.92,-622.02 141.79,-612.26 138.94,-622.46 145.92,-622.02"/>
</g>
<!-- quake.cx(0,4)@t4 -->
<g id="node7" class="node">
<title>quake.cx(0,4)@t4</title>
<ellipse fill="none" stroke="black" cx="179" cy="-522" rx="27" ry="18"/>
<text text-anchor="middle" x="179" y="-518.3" font-family="Times,serif" font-size="14.00">cx</text>
</g>
<!-- Start&#45;&gt;quake.cx(0,4)@t4 -->
<g id="edge9" class="edge">
<title>Start&#45;&gt;quake.cx(0,4)@t4</title>
<path fill="none" stroke="black" d="M211.25,-864.05C205.71,-837.52 196,-784.52 196,-739 196,-739 196,-739 196,-665 196,-624.71 189.17,-578.44 184.17,-549.96"/>
<polygon fill="black" stroke="black" points="187.58,-549.19 182.36,-539.97 180.7,-550.43 187.58,-549.19"/>
</g>
<!-- quake.cx(0,5)@t5 -->
<g id="node8" class="node">
<title>quake.cx(0,5)@t5</title>
<ellipse fill="none" stroke="black" cx="217" cy="-450" rx="27" ry="18"/>
<text text-anchor="middle" x="217" y="-446.3" font-family="Times,serif" font-size="14.00">cx</text>
</g>
<!-- Start&#45;&gt;quake.cx(0,5)@t5 -->
<g id="edge11" class="edge">
<title>Start&#45;&gt;quake.cx(0,5)@t5</title>
<path fill="none" stroke="black" d="M218.75,-864.05C224.29,-837.52 234,-784.52 234,-739 234,-739 234,-739 234,-593 234,-552.71 227.17,-506.44 222.17,-477.96"/>
<polygon fill="black" stroke="black" points="225.58,-477.19 220.36,-467.97 218.7,-478.43 225.58,-477.19"/>
</g>
<!-- quake.cx(0,6)@t6 -->
<g id="node9" class="node">
<title>quake.cx(0,6)@t6</title>
<ellipse fill="none" stroke="black" cx="255" cy="-378" rx="27" ry="18"/>
<text text-anchor="middle" x="255" y="-374.3" font-family="Times,serif" font-size="14.00">cx</text>
</g>
<!-- Start&#45;&gt;quake.cx(0,6)@t6 -->
<g id="edge13" class="edge">
<title>Start&#45;&gt;quake.cx(0,6)@t6</title>
<path fill="none" stroke="black" d="M226.26,-864.8C242.87,-839.29 272,-787.61 272,-739 272,-739 272,-739 272,-521 272,-480.71 265.17,-434.44 260.17,-405.96"/>
<polygon fill="black" stroke="black" points="263.58,-405.19 258.36,-395.97 256.7,-406.43 263.58,-405.19"/>
</g>
<!-- quake.cx(0,7)@t7 -->
<g id="node10" class="node">
<title>quake.cx(0,7)@t7</title>
<ellipse fill="none" stroke="black" cx="293" cy="-306" rx="27" ry="18"/>
<text text-anchor="middle" x="293" y="-302.3" font-family="Times,serif" font-size="14.00">cx</text>
</g>
<!-- Start&#45;&gt;quake.cx(0,7)@t7 -->
<g id="edge15" class="edge">
<title>Start&#45;&gt;quake.cx(0,7)@t7</title>
<path fill="none" stroke="black" d="M233.32,-866.57C260.92,-843.06 310,-793.58 310,-739 310,-739 310,-739 310,-449 310,-408.71 303.17,-362.44 298.17,-333.96"/>
<polygon fill="black" stroke="black" points="301.58,-333.19 296.36,-323.97 294.7,-334.43 301.58,-333.19"/>
</g>
<!-- quake.cx(0,8)@t8 -->
<g id="node11" class="node">
<title>quake.cx(0,8)@t8</title>
<ellipse fill="none" stroke="black" cx="331" cy="-234" rx="27" ry="18"/>
<text text-anchor="middle" x="331" y="-230.3" font-family="Times,serif" font-size="14.00">cx</text>
</g>
<!-- Start&#45;&gt;quake.cx(0,8)@t8 -->
<g id="edge17" class="edge">
<title>Start&#45;&gt;quake.cx(0,8)@t8</title>
<path fill="none" stroke="black" d="M239.39,-869.05C277.79,-848.32 348,-801.83 348,-739 348,-739 348,-739 348,-377 348,-336.71 341.17,-290.44 336.17,-261.96"/>
<polygon fill="black" stroke="black" points="339.58,-261.19 334.36,-251.97 332.7,-262.43 339.58,-261.19"/>
</g>
<!-- quake.cx(0,9)@t9 -->
<g id="node12" class="node">
<title>quake.cx(0,9)@t9</title>
<ellipse fill="none" stroke="black" cx="369" cy="-162" rx="27" ry="18"/>
<text text-anchor="middle" x="369" y="-158.3" font-family="Times,serif" font-size="14.00">cx</text>
</g>
<!-- Start&#45;&gt;quake.cx(0,9)@t9 -->
<g id="edge19" class="edge">
<title>Start&#45;&gt;quake.cx(0,9)@t9</title>
<path fill="none" stroke="black" d="M244.01,-871.9C292.79,-854.57 386,-811.93 386,-739 386,-739 386,-739 386,-305 386,-264.71 379.17,-218.44 374.17,-189.96"/>
<polygon fill="black" stroke="black" points="377.58,-189.19 372.36,-179.97 370.7,-190.43 377.58,-189.19"/>
</g>
<!-- End -->
<g id="node2" class="node">
<title>End</title>
<ellipse fill="red" stroke="red" cx="219" cy="-18" rx="29.5" ry="18"/>
<text text-anchor="middle" x="219" y="-14.3" font-family="Times,serif" font-size="14.00">End</text>
</g>
<!-- quake.h(0)@t0&#45;&gt;quake.cx(0,1)@t1 -->
<g id="edge2" class="edge">
<title>quake.h(0)@t0&#45;&gt;quake.cx(0,1)@t1</title>
<path fill="none" stroke="black" d="M33.87,-792.41C37.27,-784.22 41.44,-774.14 45.25,-764.95"/>
<polygon fill="black" stroke="black" points="48.58,-766.05 49.18,-755.47 42.12,-763.37 48.58,-766.05"/>
</g>
<!-- quake.cx(0,1)@t1&#45;&gt;quake.cx(0,2)@t2 -->
<g id="edge4" class="edge">
<title>quake.cx(0,1)@t1&#45;&gt;quake.cx(0,2)@t2</title>
<path fill="none" stroke="black" d="M66.67,-721.12C72.55,-712.34 79.99,-701.26 86.61,-691.42"/>
<polygon fill="black" stroke="black" points="89.71,-693.07 92.38,-682.82 83.9,-689.17 89.71,-693.07"/>
</g>
<!-- quake.mz(0,1,2,3,4,5,6,7,8,9)@t10 -->
<g id="node13" class="node">
<title>quake.mz(0,1,2,3,4,5,6,7,8,9)@t10</title>
<ellipse fill="yellow" stroke="yellow" cx="219" cy="-90" rx="27" ry="18"/>
<text text-anchor="middle" x="219" y="-86.3" font-family="Times,serif" font-size="14.00">mz</text>
</g>
<!-- quake.cx(0,1)@t1&#45;&gt;quake.mz(0,1,2,3,4,5,6,7,8,9)@t10 -->
<g id="edge21" class="edge">
<title>quake.cx(0,1)@t1&#45;&gt;quake.mz(0,1,2,3,4,5,6,7,8,9)@t10</title>
<path fill="none" stroke="black" d="M54.42,-719.97C52.09,-693.33 48,-640.19 48,-595 48,-595 48,-595 48,-233 48,-186.96 66.63,-174.63 101,-144 124.98,-122.63 158.99,-108.6 184.35,-100.37"/>
<polygon fill="black" stroke="black" points="185.42,-103.7 193.94,-97.4 183.35,-97.01 185.42,-103.7"/>
</g>
<!-- quake.cx(0,2)@t2&#45;&gt;quake.cx(0,3)@t3 -->
<g id="edge6" class="edge">
<title>quake.cx(0,2)@t2&#45;&gt;quake.cx(0,3)@t3</title>
<path fill="none" stroke="black" d="M111.81,-648.76C116.42,-640.28 122.16,-629.71 127.32,-620.2"/>
<polygon fill="black" stroke="black" points="130.54,-621.61 132.23,-611.15 124.39,-618.27 130.54,-621.61"/>
</g>
<!-- quake.cx(0,2)@t2&#45;&gt;quake.mz(0,1,2,3,4,5,6,7,8,9)@t10 -->
<g id="edge22" class="edge">
<title>quake.cx(0,2)@t2&#45;&gt;quake.mz(0,1,2,3,4,5,6,7,8,9)@t10</title>
<path fill="none" stroke="black" d="M99.64,-648.03C94.69,-621.48 86,-568.44 86,-523 86,-523 86,-523 86,-233 86,-173.27 149.45,-128.31 188.7,-106.21"/>
<polygon fill="black" stroke="black" points="190.53,-109.2 197.63,-101.34 187.18,-103.05 190.53,-109.2"/>
</g>
<!-- quake.cx(0,3)@t3&#45;&gt;quake.cx(0,4)@t4 -->
<g id="edge8" class="edge">
<title>quake.cx(0,3)@t3&#45;&gt;quake.cx(0,4)@t4</title>
<path fill="none" stroke="black" d="M149.81,-576.76C154.42,-568.28 160.16,-557.71 165.32,-548.2"/>
<polygon fill="black" stroke="black" points="168.54,-549.61 170.23,-539.15 162.39,-546.27 168.54,-549.61"/>
</g>
<!-- quake.cx(0,3)@t3&#45;&gt;quake.mz(0,1,2,3,4,5,6,7,8,9)@t10 -->
<g id="edge23" class="edge">
<title>quake.cx(0,3)@t3&#45;&gt;quake.mz(0,1,2,3,4,5,6,7,8,9)@t10</title>
<path fill="none" stroke="black" d="M137.64,-576.03C132.69,-549.48 124,-496.44 124,-451 124,-451 124,-451 124,-233 124,-182.52 165.99,-136.39 194.14,-111.15"/>
<polygon fill="black" stroke="black" points="196.77,-113.5 202.02,-104.3 192.17,-108.22 196.77,-113.5"/>
</g>
<!-- quake.cx(0,4)@t4&#45;&gt;quake.cx(0,5)@t5 -->
<g id="edge10" class="edge">
<title>quake.cx(0,4)@t4&#45;&gt;quake.cx(0,5)@t5</title>
<path fill="none" stroke="black" d="M187.81,-504.76C192.42,-496.28 198.16,-485.71 203.32,-476.2"/>
<polygon fill="black" stroke="black" points="206.54,-477.61 208.23,-467.15 200.39,-474.27 206.54,-477.61"/>
</g>
<!-- quake.cx(0,4)@t4&#45;&gt;quake.mz(0,1,2,3,4,5,6,7,8,9)@t10 -->
<g id="edge24" class="edge">
<title>quake.cx(0,4)@t4&#45;&gt;quake.mz(0,1,2,3,4,5,6,7,8,9)@t10</title>
<path fill="none" stroke="black" d="M175.64,-504.03C170.69,-477.48 162,-424.44 162,-379 162,-379 162,-379 162,-233 162,-189.09 185.77,-142.67 202.61,-115.3"/>
<polygon fill="black" stroke="black" points="205.61,-117.1 208.01,-106.78 199.7,-113.35 205.61,-117.1"/>
</g>
<!-- quake.cx(0,5)@t5&#45;&gt;quake.cx(0,6)@t6 -->
<g id="edge12" class="edge">
<title>quake.cx(0,5)@t5&#45;&gt;quake.cx(0,6)@t6</title>
<path fill="none" stroke="black" d="M225.81,-432.76C230.42,-424.28 236.16,-413.71 241.32,-404.2"/>
<polygon fill="black" stroke="black" points="244.54,-405.61 246.23,-395.15 238.39,-402.27 244.54,-405.61"/>
</g>
<!-- quake.cx(0,5)@t5&#45;&gt;quake.mz(0,1,2,3,4,5,6,7,8,9)@t10 -->
<g id="edge25" class="edge">
<title>quake.cx(0,5)@t5&#45;&gt;quake.mz(0,1,2,3,4,5,6,7,8,9)@t10</title>
<path fill="none" stroke="black" d="M213.64,-432.03C208.69,-405.48 200,-352.44 200,-307 200,-307 200,-307 200,-233 200,-192.64 207.63,-146.39 213.22,-117.94"/>
<polygon fill="black" stroke="black" points="216.69,-118.45 215.25,-107.95 209.83,-117.06 216.69,-118.45"/>
</g>
<!-- quake.cx(0,6)@t6&#45;&gt;quake.cx(0,7)@t7 -->
<g id="edge14" class="edge">
<title>quake.cx(0,6)@t6&#45;&gt;quake.cx(0,7)@t7</title>
<path fill="none" stroke="black" d="M263.81,-360.76C268.42,-352.28 274.16,-341.71 279.32,-332.2"/>
<polygon fill="black" stroke="black" points="282.54,-333.61 284.23,-323.15 276.39,-330.27 282.54,-333.61"/>
</g>
<!-- quake.cx(0,6)@t6&#45;&gt;quake.mz(0,1,2,3,4,5,6,7,8,9)@t10 -->
<g id="edge26" class="edge">
<title>quake.cx(0,6)@t6&#45;&gt;quake.mz(0,1,2,3,4,5,6,7,8,9)@t10</title>
<path fill="none" stroke="black" d="M252.86,-359.97C246.84,-312.18 229.77,-176.54 222.43,-118.22"/>
<polygon fill="black" stroke="black" points="225.85,-117.43 221.13,-107.94 218.91,-118.3 225.85,-117.43"/>
</g>
<!-- quake.cx(0,7)@t7&#45;&gt;quake.cx(0,8)@t8 -->
<g id="edge16" class="edge">
<title>quake.cx(0,7)@t7&#45;&gt;quake.cx(0,8)@t8</title>
<path fill="none" stroke="black" d="M301.81,-288.76C306.42,-280.28 312.16,-269.71 317.32,-260.2"/>
<polygon fill="black" stroke="black" points="320.54,-261.61 322.23,-251.15 314.39,-258.27 320.54,-261.61"/>
</g>
<!-- quake.cx(0,7)@t7&#45;&gt;quake.mz(0,1,2,3,4,5,6,7,8,9)@t10 -->
<g id="edge27" class="edge">
<title>quake.cx(0,7)@t7&#45;&gt;quake.mz(0,1,2,3,4,5,6,7,8,9)@t10</title>
<path fill="none" stroke="black" d="M290.44,-287.99C285.54,-258 273.39,-194.14 252,-144 247.77,-134.08 241.85,-123.87 236.18,-115.09"/>
<polygon fill="black" stroke="black" points="238.93,-112.9 230.46,-106.54 233.11,-116.79 238.93,-112.9"/>
</g>
<!-- quake.cx(0,8)@t8&#45;&gt;quake.cx(0,9)@t9 -->
<g id="edge18" class="edge">
<title>quake.cx(0,8)@t8&#45;&gt;quake.cx(0,9)@t9</title>
<path fill="none" stroke="black" d="M339.81,-216.76C344.42,-208.28 350.16,-197.71 355.32,-188.2"/>
<polygon fill="black" stroke="black" points="358.54,-189.61 360.23,-179.15 352.39,-186.27 358.54,-189.61"/>
</g>
<!-- quake.cx(0,8)@t8&#45;&gt;quake.mz(0,1,2,3,4,5,6,7,8,9)@t10 -->
<g id="edge28" class="edge">
<title>quake.cx(0,8)@t8&#45;&gt;quake.mz(0,1,2,3,4,5,6,7,8,9)@t10</title>
<path fill="none" stroke="black" d="M326.06,-216.21C319.88,-197.23 307.88,-166.08 290,-144 278.41,-129.68 262.12,-117.16 248.07,-107.89"/>
<polygon fill="black" stroke="black" points="249.55,-104.68 239.23,-102.28 245.8,-110.59 249.55,-104.68"/>
</g>
<!-- quake.cx(0,9)@t9&#45;&gt;quake.mz(0,1,2,3,4,5,6,7,8,9)@t10 -->
<g id="edge20" class="edge">
<title>quake.cx(0,9)@t9&#45;&gt;quake.mz(0,1,2,3,4,5,6,7,8,9)@t10</title>
<path fill="none" stroke="black" d="M345.99,-152.42C319.58,-141.2 276.6,-121.33 247.97,-107.23"/>
<polygon fill="black" stroke="black" points="249.37,-104.01 238.86,-102.69 246.25,-110.28 249.37,-104.01"/>
</g>
<!-- quake.cx(0,9)@t9&#45;&gt;quake.mz(0,1,2,3,4,5,6,7,8,9)@t10 -->
<g id="edge29" class="edge">
<title>quake.cx(0,9)@t9&#45;&gt;quake.mz(0,1,2,3,4,5,6,7,8,9)@t10</title>
<path fill="none" stroke="black" d="M349.4,-149.44C324.42,-136.83 281.33,-116.69 251.47,-103.66"/>
<polygon fill="black" stroke="black" points="252.84,-100.44 242.28,-99.7 250.07,-106.87 252.84,-100.44"/>
</g>
<!-- quake.mz(0,1,2,3,4,5,6,7,8,9)@t10&#45;&gt;End -->
<g id="edge30" class="edge">
<title>quake.mz(0,1,2,3,4,5,6,7,8,9)@t10&#45;&gt;End</title>
<path fill="none" stroke="black" d="M192.42,-85.99C150.98,-75.55 147.23,-40.67 181.18,-25.8"/>
<polygon fill="black" stroke="black" points="182.35,-29.1 190.62,-22.48 180.03,-22.5 182.35,-29.1"/>
</g>
<!-- quake.mz(0,1,2,3,4,5,6,7,8,9)@t10&#45;&gt;End -->
<g id="edge31" class="edge">
<title>quake.mz(0,1,2,3,4,5,6,7,8,9)@t10&#45;&gt;End</title>
<path fill="none" stroke="black" d="M193.08,-83.97C168.65,-72.88 165.21,-46.14 182.75,-30.64"/>
<polygon fill="black" stroke="black" points="185.18,-33.22 191.55,-24.76 181.29,-27.4 185.18,-33.22"/>
</g>
<!-- quake.mz(0,1,2,3,4,5,6,7,8,9)@t10&#45;&gt;End -->
<g id="edge32" class="edge">
<title>quake.mz(0,1,2,3,4,5,6,7,8,9)@t10&#45;&gt;End</title>
<path fill="none" stroke="black" d="M195.93,-80.42C184.52,-69.64 182.25,-50.86 189.12,-36.9"/>
<polygon fill="black" stroke="black" points="192.1,-38.75 194.95,-28.55 186.36,-34.74 192.1,-38.75"/>
</g>
<!-- quake.mz(0,1,2,3,4,5,6,7,8,9)@t10&#45;&gt;End -->
<g id="edge33" class="edge">
<title>quake.mz(0,1,2,3,4,5,6,7,8,9)@t10&#45;&gt;End</title>
<path fill="none" stroke="black" d="M202.63,-75.5C198.76,-66.23 197.78,-53.67 199.71,-42.75"/>
<polygon fill="black" stroke="black" points="203.13,-43.51 202.45,-32.93 196.39,-41.63 203.13,-43.51"/>
</g>
<!-- quake.mz(0,1,2,3,4,5,6,7,8,9)@t10&#45;&gt;End -->
<g id="edge34" class="edge">
<title>quake.mz(0,1,2,3,4,5,6,7,8,9)@t10&#45;&gt;End</title>
<path fill="none" stroke="black" d="M213.16,-72.41C212.3,-64.51 212.05,-54.85 212.41,-45.94"/>
<polygon fill="black" stroke="black" points="215.9,-46.18 213.12,-35.96 208.92,-45.68 215.9,-46.18"/>
</g>
<!-- quake.mz(0,1,2,3,4,5,6,7,8,9)@t10&#45;&gt;End -->
<g id="edge35" class="edge">
<title>quake.mz(0,1,2,3,4,5,6,7,8,9)@t10&#45;&gt;End</title>
<path fill="none" stroke="black" d="M224.84,-72.41C225.7,-64.51 225.95,-54.85 225.59,-45.94"/>
<polygon fill="black" stroke="black" points="229.08,-45.68 224.88,-35.96 222.1,-46.18 229.08,-45.68"/>
</g>
<!-- quake.mz(0,1,2,3,4,5,6,7,8,9)@t10&#45;&gt;End -->
<g id="edge36" class="edge">
<title>quake.mz(0,1,2,3,4,5,6,7,8,9)@t10&#45;&gt;End</title>
<path fill="none" stroke="black" d="M235.37,-75.5C239.24,-66.23 240.22,-53.67 238.29,-42.75"/>
<polygon fill="black" stroke="black" points="241.61,-41.63 235.55,-32.93 234.87,-43.51 241.61,-41.63"/>
</g>
<!-- quake.mz(0,1,2,3,4,5,6,7,8,9)@t10&#45;&gt;End -->
<g id="edge37" class="edge">
<title>quake.mz(0,1,2,3,4,5,6,7,8,9)@t10&#45;&gt;End</title>
<path fill="none" stroke="black" d="M242.07,-80.42C253.48,-69.64 255.75,-50.86 248.88,-36.9"/>
<polygon fill="black" stroke="black" points="251.64,-34.74 243.05,-28.55 245.9,-38.75 251.64,-34.74"/>
</g>
<!-- quake.mz(0,1,2,3,4,5,6,7,8,9)@t10&#45;&gt;End -->
<g id="edge38" class="edge">
<title>quake.mz(0,1,2,3,4,5,6,7,8,9)@t10&#45;&gt;End</title>
<path fill="none" stroke="black" d="M244.92,-83.97C269.35,-72.88 272.79,-46.14 255.25,-30.64"/>
<polygon fill="black" stroke="black" points="256.71,-27.4 246.45,-24.76 252.82,-33.22 256.71,-27.4"/>
</g>
<!-- quake.mz(0,1,2,3,4,5,6,7,8,9)@t10&#45;&gt;End -->
<g id="edge39" class="edge">
<title>quake.mz(0,1,2,3,4,5,6,7,8,9)@t10&#45;&gt;End</title>
<path fill="none" stroke="black" d="M245.58,-85.99C287.02,-75.55 290.77,-40.67 256.82,-25.8"/>
<polygon fill="black" stroke="black" points="257.97,-22.5 247.38,-22.48 255.65,-29.1 257.97,-22.5"/>
</g>
</g>
</svg>
