<?xml version="1.0" encoding="UTF-8" standalone="no"?>
<!DOCTYPE svg PUBLIC "-//W3C//DTD SVG 1.1//EN"
 "http://www.w3.org/Graphics/SVG/1.1/DTD/svg11.dtd">
<!-- Generated by graphviz version 14.1.5 (0)
 -->
<!-- Title: kernel_DAG Pages: 1 -->
<svg width="286pt" height="548pt"
 viewBox="0.00 0.00 286.00 548.00" xmlns="http://www.w3.org/2000/svg" xmlns:xlink="http://www.w3.org/1999/xlink">
<g id="graph0" class="graph" transform="scale(1 1) rotate(0) translate(4 544)">
<title>kernel_DAG</title>
<polygon fill="white" stroke="none" points="-4,4 -4,-544 281.58,-544 281.58,4 -4,4"/>
<!-- q0_start -->
<g id="node1" class="node">
<title>q0_start</title>
<ellipse fill="green" stroke="green" cx="42.79" cy="-522" rx="42.79" ry="18"/>
<text xml:space="preserve" text-anchor="middle" x="42.79" y="-517.33" font-family="Times,serif" font-size="14.00">q0_start</text>
</g>
<!-- quake.x(0)@t0 -->
<g id="node4" class="node">
<title>quake.x(0)@t0</title>
<ellipse fill="none" stroke="black" cx="42.79" cy="-450" rx="27" ry="18"/>
<text xml:space="preserve" text-anchor="middle" x="42.79" y="-445.32" font-family="Times,serif" font-size="14.00">x</text>
</g>
<!-- q0_start&#45;&gt;quake.x(0)@t0 -->
<g id="edge1" class="edge">
<title>q0_start&#45;&gt;quake.x(0)@t0</title>
<path fill="none" stroke="black" d="M42.79,-503.7C42.79,-496.41 42.79,-487.73 42.79,-479.54"/>
<polygon fill="black" stroke="black" points="46.29,-479.62 42.79,-469.62 39.29,-479.62 46.29,-479.62"/>
</g>
<!-- q1_start -->
<g id="node2" class="node">
<title>q1_start</title>
<ellipse fill="green" stroke="green" cx="130.79" cy="-378" rx="42.79" ry="18"/>
<text xml:space="preserve" text-anchor="middle" x="130.79" y="-373.32" font-family="Times,serif" font-size="14.00">q1_start</text>
</g>
<!-- quake.cr1(1,0)@t3 params=(1.5707963267948966,) -->
<g id="node7" class="node">
<title>quake.cr1(1,0)@t3 params=(1.5707963267948966,)</title>
<ellipse fill="none" stroke="black" cx="130.79" cy="-306" rx="27" ry="18"/>
<text xml:space="preserve" text-anchor="middle" x="130.79" y="-301.32" font-family="Times,serif" font-size="14.00">cr1</text>
</g>
<!-- q1_start&#45;&gt;quake.cr1(1,0)@t3 params=(1.5707963267948966,) -->
<g id="edge4" class="edge">
<title>q1_start&#45;&gt;quake.cr1(1,0)@t3 params=(1.5707963267948966,)</title>
<path fill="none" stroke="black" d="M130.79,-359.7C130.79,-352.41 130.79,-343.73 130.79,-335.54"/>
<polygon fill="black" stroke="black" points="134.29,-335.62 130.79,-325.62 127.29,-335.62 134.29,-335.62"/>
</g>
<!-- q2_start -->
<g id="node3" class="node">
<title>q2_start</title>
<ellipse fill="green" stroke="green" cx="234.79" cy="-378" rx="42.79" ry="18"/>
<text xml:space="preserve" text-anchor="middle" x="234.79" y="-373.32" font-family="Times,serif" font-size="14.00">q2_start</text>
</g>
<!-- quake.x(2)@t1 -->
<g id="node5" class="node">
<title>quake.x(2)@t1</title>
<ellipse fill="none" stroke="black" cx="221.79" cy="-306" rx="27" ry="18"/>
<text xml:space="preserve" text-anchor="middle" x="221.79" y="-301.32" font-family="Times,serif" font-size="14.00">x</text>
</g>
<!-- q2_start&#45;&gt;quake.x(2)@t1 -->
<g id="edge2" class="edge">
<title>q2_start&#45;&gt;quake.x(2)@t1</title>
<path fill="none" stroke="black" d="M231.58,-359.7C230.21,-352.32 228.57,-343.52 227.04,-335.25"/>
<polygon fill="black" stroke="black" points="230.51,-334.79 225.24,-325.59 223.63,-336.06 230.51,-334.79"/>
</g>
<!-- quake.h(0)@t2 -->
<g id="node6" class="node">
<title>quake.h(0)@t2</title>
<ellipse fill="none" stroke="black" cx="42.79" cy="-378" rx="27" ry="18"/>
<text xml:space="preserve" text-anchor="middle" x="42.79" y="-373.32" font-family="Times,serif" font-size="14.00">h</text>
</g>
<!-- quake.x(0)@t0&#45;&gt;quake.h(0)@t2 -->
<g id="edge3" class="edge">
<title>quake.x(0)@t0&#45;&gt;quake.h(0)@t2</title>
<path fill="none" stroke="black" d="M42.79,-431.7C42.79,-424.41 42.79,-415.73 42.79,-407.54"/>
<polygon fill="black" stroke="black" points="46.29,-407.62 42.79,-397.62 39.29,-407.62 46.29,-407.62"/>
</g>
<!-- quake.cr1(2,0)@t4 params=(0.7853981633974483,) -->
<g id="node8" class="node">
<title>quake.cr1(2,0)@t4 params=(0.7853981633974483,)</title>
<ellipse fill="none" stroke="black" cx="208.79" cy="-234" rx="27" ry="18"/>
<text xml:space="preserve" text-anchor="middle" x="208.79" y="-229.32" font-family="Times,serif" font-size="14.00">cr1</text>
</g>
<!-- quake.x(2)@t1&#45;&gt;quake.cr1(2,0)@t4 params=(0.7853981633974483,) -->
<g id="edge6" class="edge">
<title>quake.x(2)@t1&#45;&gt;quake.cr1(2,0)@t4 params=(0.7853981633974483,)</title>
<path fill="none" stroke="black" d="M218.58,-287.7C217.21,-280.32 215.57,-271.52 214.04,-263.25"/>
<polygon fill="black" stroke="black" points="217.51,-262.79 212.24,-253.59 210.63,-264.06 217.51,-262.79"/>
</g>
<!-- quake.h(0)@t2&#45;&gt;quake.cr1(1,0)@t3 params=(1.5707963267948966,) -->
<g id="edge5" class="edge">
<title>quake.h(0)@t2&#45;&gt;quake.cr1(1,0)@t3 params=(1.5707963267948966,)</title>
<path fill="none" stroke="black" d="M59.76,-363.5C72.66,-353.24 90.63,-338.94 105.27,-327.3"/>
<polygon fill="black" stroke="black" points="107.04,-330.36 112.69,-321.4 102.69,-324.88 107.04,-330.36"/>
</g>
<!-- quake.cr1(1,0)@t3 params=(1.5707963267948966,)&#45;&gt;quake.cr1(2,0)@t4 params=(0.7853981633974483,) -->
<g id="edge7" class="edge">
<title>quake.cr1(1,0)@t3 params=(1.5707963267948966,)&#45;&gt;quake.cr1(2,0)@t4 params=(0.7853981633974483,)</title>
<path fill="none" stroke="black" d="M146.2,-291.17C157.24,-281.26 172.32,-267.73 184.91,-256.43"/>
<polygon fill="black" stroke="black" points="186.91,-259.34 192.02,-250.05 182.24,-254.13 186.91,-259.34"/>
</g>
<!-- quake.h(1)@t5 -->
<g id="node9" class="node">
<title>quake.h(1)@t5</title>
<ellipse fill="none" stroke="black" cx="130.79" cy="-234" rx="27" ry="18"/>
<text xml:space="preserve" text-anchor="middle" x="130.79" y="-229.32" font-family="Times,serif" font-size="14.00">h</text>
</g>
<!-- quake.cr1(1,0)@t3 params=(1.5707963267948966,)&#45;&gt;quake.h(1)@t5 -->
<g id="edge8" class="edge">
<title>quake.cr1(1,0)@t3 params=(1.5707963267948966,)&#45;&gt;quake.h(1)@t5</title>
<path fill="none" stroke="black" d="M130.79,-287.7C130.79,-280.41 130.79,-271.73 130.79,-263.54"/>
<polygon fill="black" stroke="black" points="134.29,-263.62 130.79,-253.62 127.29,-263.62 134.29,-263.62"/>
</g>
<!-- quake.cr1(2,1)@t6 params=(1.5707963267948966,) -->
<g id="node10" class="node">
<title>quake.cr1(2,1)@t6 params=(1.5707963267948966,)</title>
<ellipse fill="none" stroke="black" cx="130.79" cy="-162" rx="27" ry="18"/>
<text xml:space="preserve" text-anchor="middle" x="130.79" y="-157.32" font-family="Times,serif" font-size="14.00">cr1</text>
</g>
<!-- quake.cr1(2,0)@t4 params=(0.7853981633974483,)&#45;&gt;quake.cr1(2,1)@t6 params=(1.5707963267948966,) -->
<g id="edge9" class="edge">
<title>quake.cr1(2,0)@t4 params=(0.7853981633974483,)&#45;&gt;quake.cr1(2,1)@t6 params=(1.5707963267948966,)</title>
<path fill="none" stroke="black" d="M193.38,-219.17C182.34,-209.26 167.26,-195.73 154.67,-184.43"/>
<polygon fill="black" stroke="black" points="157.34,-182.13 147.56,-178.05 152.67,-187.34 157.34,-182.13"/>
</g>
<!-- q0_end -->
<g id="node12" class="node">
<title>q0_end</title>
<ellipse fill="red" stroke="red" cx="215.79" cy="-162" rx="39.63" ry="18"/>
<text xml:space="preserve" text-anchor="middle" x="215.79" y="-157.32" font-family="Times,serif" font-size="14.00">q0_end</text>
</g>
<!-- quake.cr1(2,0)@t4 params=(0.7853981633974483,)&#45;&gt;q0_end -->
<g id="edge12" class="edge">
<title>quake.cr1(2,0)@t4 params=(0.7853981633974483,)&#45;&gt;q0_end</title>
<path fill="none" stroke="black" d="M210.52,-215.7C211.25,-208.41 212.12,-199.73 212.94,-191.54"/>
<polygon fill="black" stroke="black" points="216.42,-191.91 213.93,-181.61 209.45,-191.21 216.42,-191.91"/>
</g>
<!-- quake.h(1)@t5&#45;&gt;quake.cr1(2,1)@t6 params=(1.5707963267948966,) -->
<g id="edge10" class="edge">
<title>quake.h(1)@t5&#45;&gt;quake.cr1(2,1)@t6 params=(1.5707963267948966,)</title>
<path fill="none" stroke="black" d="M130.79,-215.7C130.79,-208.41 130.79,-199.73 130.79,-191.54"/>
<polygon fill="black" stroke="black" points="134.29,-191.62 130.79,-181.62 127.29,-191.62 134.29,-191.62"/>
</g>
<!-- quake.h(2)@t7 -->
<g id="node11" class="node">
<title>quake.h(2)@t7</title>
<ellipse fill="none" stroke="black" cx="88.79" cy="-90" rx="27" ry="18"/>
<text xml:space="preserve" text-anchor="middle" x="88.79" y="-85.33" font-family="Times,serif" font-size="14.00">h</text>
</g>
<!-- quake.cr1(2,1)@t6 params=(1.5707963267948966,)&#45;&gt;quake.h(2)@t7 -->
<g id="edge11" class="edge">
<title>quake.cr1(2,1)@t6 params=(1.5707963267948966,)&#45;&gt;quake.h(2)@t7</title>
<path fill="none" stroke="black" d="M121.05,-144.76C116.07,-136.46 109.88,-126.15 104.27,-116.79"/>
<polygon fill="black" stroke="black" points="107.4,-115.22 99.26,-108.45 101.4,-118.82 107.4,-115.22"/>
</g>
<!-- q1_end -->
<g id="node13" class="node">
<title>q1_end</title>
<ellipse fill="red" stroke="red" cx="173.79" cy="-90" rx="39.63" ry="18"/>
<text xml:space="preserve" text-anchor="middle" x="173.79" y="-85.33" font-family="Times,serif" font-size="14.00">q1_end</text>
</g>
<!-- quake.cr1(2,1)@t6 params=(1.5707963267948966,)&#45;&gt;q1_end -->
<g id="edge13" class="edge">
<title>quake.cr1(2,1)@t6 params=(1.5707963267948966,)&#45;&gt;q1_end</title>
<path fill="none" stroke="black" d="M140.76,-144.76C145.79,-136.58 152.02,-126.45 157.7,-117.2"/>
<polygon fill="black" stroke="black" points="160.53,-119.28 162.78,-108.92 154.56,-115.61 160.53,-119.28"/>
</g>
<!-- q2_end -->
<g id="node14" class="node">
<title>q2_end</title>
<ellipse fill="red" stroke="red" cx="88.79" cy="-18" rx="39.63" ry="18"/>
<text xml:space="preserve" text-anchor="middle" x="88.79" y="-13.32" font-family="Times,serif" font-size="14.00">q2_end</text>
</g>
<!-- quake.h(2)@t7&#45;&gt;q2_end -->
<g id="edge14" class="edge">
<title>quake.h(2)@t7&#45;&gt;q2_end</title>
<path fill="none" stroke="black" d="M88.79,-71.7C88.79,-64.41 88.79,-55.73 88.79,-47.54"/>
<polygon fill="black" stroke="black" points="92.29,-47.62 88.79,-37.62 85.29,-47.62 92.29,-47.62"/>
</g>
</g>
</svg>
