<?xml version="1.0" encoding="UTF-8" standalone="no"?>
<!DOCTYPE svg PUBLIC "-//W3C//DTD SVG 1.1//EN"
 "http://www.w3.org/Graphics/SVG/1.1/DTD/svg11.dtd">
<!-- Generated by graphviz version 14.1.5 (0)
 -->
<!-- Title: ultimate_quake_inspector_DAG Pages: 1 -->
<svg width="902pt" height="1268pt"
 viewBox="0.00 0.00 902.00 1268.00" xmlns="http://www.w3.org/2000/svg" xmlns:xlink="http://www.w3.org/1999/xlink">
<g id="graph0" class="graph" transform="scale(1 1) rotate(0) translate(4 1264)">
<title>ultimate_quake_inspector_DAG</title>
<polygon fill="white" stroke="none" points="-4,4 -4,-1264 898.42,-1264 898.42,4 -4,4"/>
<!-- q0_start -->
<g id="node1" class="node">
<title>q0_start</title>
<ellipse fill="green" stroke="green" cx="435.63" cy="-1242" rx="42.79" ry="18"/>
<text xml:space="preserve" text-anchor="middle" x="435.63" y="-1237.33" font-family="Times,serif" font-size="14.00">q0_start</text>
</g>
<!-- quake.x(0)@t0 -->
<g id="node10" class="node">
<title>quake.x(0)@t0</title>
<ellipse fill="none" stroke="black" cx="419.63" cy="-1170" rx="27" ry="18"/>
<text xml:space="preserve" text-anchor="middle" x="419.63" y="-1165.33" font-family="Times,serif" font-size="14.00">x</text>
</g>
<!-- q0_start&#45;&gt;quake.x(0)@t0 -->
<g id="edge1" class="edge">
<title>q0_start&#45;&gt;quake.x(0)@t0</title>
<path fill="none" stroke="black" d="M431.68,-1223.7C429.99,-1216.32 427.98,-1207.52 426.09,-1199.25"/>
<polygon fill="black" stroke="black" points="429.52,-1198.55 423.88,-1189.58 422.7,-1200.11 429.52,-1198.55"/>
</g>
<!-- q1_start -->
<g id="node2" class="node">
<title>q1_start</title>
<ellipse fill="green" stroke="green" cx="331.63" cy="-1242" rx="42.79" ry="18"/>
<text xml:space="preserve" text-anchor="middle" x="331.63" y="-1237.33" font-family="Times,serif" font-size="14.00">q1_start</text>
</g>
<!-- quake.y(1)@t1 -->
<g id="node11" class="node">
<title>quake.y(1)@t1</title>
<ellipse fill="none" stroke="black" cx="339.63" cy="-1170" rx="27" ry="18"/>
<text xml:space="preserve" text-anchor="middle" x="339.63" y="-1165.33" font-family="Times,serif" font-size="14.00">y</text>
</g>
<!-- q1_start&#45;&gt;quake.y(1)@t1 -->
<g id="edge2" class="edge">
<title>q1_start&#45;&gt;quake.y(1)@t1</title>
<path fill="none" stroke="black" d="M333.61,-1223.7C334.44,-1216.41 335.44,-1207.73 336.37,-1199.54"/>
<polygon fill="black" stroke="black" points="339.85,-1199.94 337.51,-1189.61 332.89,-1199.15 339.85,-1199.94"/>
</g>
<!-- q2_start -->
<g id="node3" class="node">
<title>q2_start</title>
<ellipse fill="green" stroke="green" cx="253.63" cy="-1098" rx="42.79" ry="18"/>
<text xml:space="preserve" text-anchor="middle" x="253.63" y="-1093.33" font-family="Times,serif" font-size="14.00">q2_start</text>
</g>
<!-- quake.z(2)@t2 -->
<g id="node12" class="node">
<title>quake.z(2)@t2</title>
<ellipse fill="none" stroke="black" cx="269.63" cy="-1026" rx="27" ry="18"/>
<text xml:space="preserve" text-anchor="middle" x="269.63" y="-1021.33" font-family="Times,serif" font-size="14.00">z</text>
</g>
<!-- q2_start&#45;&gt;quake.z(2)@t2 -->
<g id="edge3" class="edge">
<title>q2_start&#45;&gt;quake.z(2)@t2</title>
<path fill="none" stroke="black" d="M257.59,-1079.7C259.27,-1072.32 261.29,-1063.52 263.18,-1055.25"/>
<polygon fill="black" stroke="black" points="266.57,-1056.11 265.39,-1045.58 259.75,-1054.55 266.57,-1056.11"/>
</g>
<!-- q3_start -->
<g id="node4" class="node">
<title>q3_start</title>
<ellipse fill="green" stroke="green" cx="181.63" cy="-1026" rx="42.79" ry="18"/>
<text xml:space="preserve" text-anchor="middle" x="181.63" y="-1021.33" font-family="Times,serif" font-size="14.00">q3_start</text>
</g>
<!-- quake.h(3)@t3 -->
<g id="node13" class="node">
<title>quake.h(3)@t3</title>
<ellipse fill="none" stroke="black" cx="189.63" cy="-954" rx="27" ry="18"/>
<text xml:space="preserve" text-anchor="middle" x="189.63" y="-949.33" font-family="Times,serif" font-size="14.00">h</text>
</g>
<!-- q3_start&#45;&gt;quake.h(3)@t3 -->
<g id="edge4" class="edge">
<title>q3_start&#45;&gt;quake.h(3)@t3</title>
<path fill="none" stroke="black" d="M183.61,-1007.7C184.44,-1000.41 185.44,-991.73 186.37,-983.54"/>
<polygon fill="black" stroke="black" points="189.85,-983.94 187.51,-973.61 182.89,-983.15 189.85,-983.94"/>
</g>
<!-- q4_start -->
<g id="node5" class="node">
<title>q4_start</title>
<ellipse fill="green" stroke="green" cx="230.63" cy="-666" rx="42.79" ry="18"/>
<text xml:space="preserve" text-anchor="middle" x="230.63" y="-661.33" font-family="Times,serif" font-size="14.00">q4_start</text>
</g>
<!-- quake.ct(1,4)@t12 -->
<g id="node22" class="node">
<title>quake.ct(1,4)@t12</title>
<ellipse fill="none" stroke="black" cx="280.63" cy="-594" rx="27" ry="18"/>
<text xml:space="preserve" text-anchor="middle" x="280.63" y="-589.33" font-family="Times,serif" font-size="14.00">ct</text>
</g>
<!-- q4_start&#45;&gt;quake.ct(1,4)@t12 -->
<g id="edge20" class="edge">
<title>q4_start&#45;&gt;quake.ct(1,4)@t12</title>
<path fill="none" stroke="black" d="M242.48,-648.41C248.57,-639.89 256.11,-629.33 262.88,-619.86"/>
<polygon fill="black" stroke="black" points="265.71,-621.91 268.67,-611.74 260.01,-617.85 265.71,-621.91"/>
</g>
<!-- q5_start -->
<g id="node6" class="node">
<title>q5_start</title>
<ellipse fill="green" stroke="green" cx="539.63" cy="-1242" rx="42.79" ry="18"/>
<text xml:space="preserve" text-anchor="middle" x="539.63" y="-1237.33" font-family="Times,serif" font-size="14.00">q5_start</text>
</g>
<!-- quake.exp_pauli(5,6,7,8)@t27 params=(0.5, &#39;XZYI&#39;) -->
<g id="node37" class="node">
<title>quake.exp_pauli(5,6,7,8)@t27 params=(0.5, &#39;XZYI&#39;)</title>
<ellipse fill="none" stroke="black" cx="695.63" cy="-1170" rx="49.63" ry="18"/>
<text xml:space="preserve" text-anchor="middle" x="695.63" y="-1165.33" font-family="Times,serif" font-size="14.00">exp_pauli</text>
</g>
<!-- q5_start&#45;&gt;quake.exp_pauli(5,6,7,8)@t27 params=(0.5, &#39;XZYI&#39;) -->
<g id="edge40" class="edge">
<title>q5_start&#45;&gt;quake.exp_pauli(5,6,7,8)@t27 params=(0.5, &#39;XZYI&#39;)</title>
<path fill="none" stroke="black" d="M568.25,-1228.16C592.55,-1217.25 627.73,-1201.47 654.96,-1189.25"/>
<polygon fill="black" stroke="black" points="656.27,-1192.5 663.96,-1185.21 653.4,-1186.11 656.27,-1192.5"/>
</g>
<!-- q6_start -->
<g id="node7" class="node">
<title>q6_start</title>
<ellipse fill="green" stroke="green" cx="643.63" cy="-1242" rx="42.79" ry="18"/>
<text xml:space="preserve" text-anchor="middle" x="643.63" y="-1237.33" font-family="Times,serif" font-size="14.00">q6_start</text>
</g>
<!-- q6_start&#45;&gt;quake.exp_pauli(5,6,7,8)@t27 params=(0.5, &#39;XZYI&#39;) -->
<g id="edge41" class="edge">
<title>q6_start&#45;&gt;quake.exp_pauli(5,6,7,8)@t27 params=(0.5, &#39;XZYI&#39;)</title>
<path fill="none" stroke="black" d="M655.96,-1224.41C662.11,-1216.13 669.69,-1205.92 676.57,-1196.66"/>
<polygon fill="black" stroke="black" points="679.34,-1198.8 682.5,-1188.68 673.72,-1194.63 679.34,-1198.8"/>
</g>
<!-- q7_start -->
<g id="node8" class="node">
<title>q7_start</title>
<ellipse fill="green" stroke="green" cx="747.63" cy="-1242" rx="42.79" ry="18"/>
<text xml:space="preserve" text-anchor="middle" x="747.63" y="-1237.33" font-family="Times,serif" font-size="14.00">q7_start</text>
</g>
<!-- q7_start&#45;&gt;quake.exp_pauli(5,6,7,8)@t27 params=(0.5, &#39;XZYI&#39;) -->
<g id="edge42" class="edge">
<title>q7_start&#45;&gt;quake.exp_pauli(5,6,7,8)@t27 params=(0.5, &#39;XZYI&#39;)</title>
<path fill="none" stroke="black" d="M735.31,-1224.41C729.16,-1216.13 721.58,-1205.92 714.7,-1196.66"/>
<polygon fill="black" stroke="black" points="717.54,-1194.63 708.77,-1188.68 711.92,-1198.8 717.54,-1194.63"/>
</g>
<!-- q8_start -->
<g id="node9" class="node">
<title>q8_start</title>
<ellipse fill="green" stroke="green" cx="851.63" cy="-1242" rx="42.79" ry="18"/>
<text xml:space="preserve" text-anchor="middle" x="851.63" y="-1237.33" font-family="Times,serif" font-size="14.00">q8_start</text>
</g>
<!-- q8_start&#45;&gt;quake.exp_pauli(5,6,7,8)@t27 params=(0.5, &#39;XZYI&#39;) -->
<g id="edge43" class="edge">
<title>q8_start&#45;&gt;quake.exp_pauli(5,6,7,8)@t27 params=(0.5, &#39;XZYI&#39;)</title>
<path fill="none" stroke="black" d="M823.02,-1228.16C798.72,-1217.25 763.54,-1201.47 736.31,-1189.25"/>
<polygon fill="black" stroke="black" points="737.87,-1186.11 727.31,-1185.21 735,-1192.5 737.87,-1186.11"/>
</g>
<!-- quake.s(0)@t4 -->
<g id="node14" class="node">
<title>quake.s(0)@t4</title>
<ellipse fill="none" stroke="black" cx="417.63" cy="-1098" rx="27" ry="18"/>
<text xml:space="preserve" text-anchor="middle" x="417.63" y="-1093.33" font-family="Times,serif" font-size="14.00">s</text>
</g>
<!-- quake.x(0)@t0&#45;&gt;quake.s(0)@t4 -->
<g id="edge5" class="edge">
<title>quake.x(0)@t0&#45;&gt;quake.s(0)@t4</title>
<path fill="none" stroke="black" d="M419.14,-1151.7C418.93,-1144.41 418.68,-1135.73 418.45,-1127.54"/>
<polygon fill="black" stroke="black" points="421.95,-1127.51 418.17,-1117.62 414.95,-1127.71 421.95,-1127.51"/>
</g>
<!-- quake.t(1)@t5 -->
<g id="node15" class="node">
<title>quake.t(1)@t5</title>
<ellipse fill="none" stroke="black" cx="341.63" cy="-1098" rx="27" ry="18"/>
<text xml:space="preserve" text-anchor="middle" x="341.63" y="-1093.33" font-family="Times,serif" font-size="14.00">t</text>
</g>
<!-- quake.y(1)@t1&#45;&gt;quake.t(1)@t5 -->
<g id="edge6" class="edge">
<title>quake.y(1)@t1&#45;&gt;quake.t(1)@t5</title>
<path fill="none" stroke="black" d="M340.13,-1151.7C340.34,-1144.41 340.58,-1135.73 340.82,-1127.54"/>
<polygon fill="black" stroke="black" points="344.31,-1127.71 341.1,-1117.62 337.32,-1127.51 344.31,-1127.71"/>
</g>
<!-- quake.cy(1,2)@t7 -->
<g id="node17" class="node">
<title>quake.cy(1,2)@t7</title>
<ellipse fill="none" stroke="black" cx="277.63" cy="-954" rx="27" ry="18"/>
<text xml:space="preserve" text-anchor="middle" x="277.63" y="-949.33" font-family="Times,serif" font-size="14.00">cy</text>
</g>
<!-- quake.z(2)@t2&#45;&gt;quake.cy(1,2)@t7 -->
<g id="edge10" class="edge">
<title>quake.z(2)@t2&#45;&gt;quake.cy(1,2)@t7</title>
<path fill="none" stroke="black" d="M271.61,-1007.7C272.44,-1000.41 273.44,-991.73 274.37,-983.54"/>
<polygon fill="black" stroke="black" points="277.85,-983.94 275.51,-973.61 270.89,-983.15 277.85,-983.94"/>
</g>
<!-- quake.cz(2,3)@t8 -->
<g id="node18" class="node">
<title>quake.cz(2,3)@t8</title>
<ellipse fill="none" stroke="black" cx="196.63" cy="-882" rx="27" ry="18"/>
<text xml:space="preserve" text-anchor="middle" x="196.63" y="-877.33" font-family="Times,serif" font-size="14.00">cz</text>
</g>
<!-- quake.h(3)@t3&#45;&gt;quake.cz(2,3)@t8 -->
<g id="edge12" class="edge">
<title>quake.h(3)@t3&#45;&gt;quake.cz(2,3)@t8</title>
<path fill="none" stroke="black" d="M191.36,-935.7C192.09,-928.41 192.96,-919.73 193.78,-911.54"/>
<polygon fill="black" stroke="black" points="197.26,-911.91 194.77,-901.61 190.29,-911.21 197.26,-911.91"/>
</g>
<!-- quake.cx(0,1)@t6 -->
<g id="node16" class="node">
<title>quake.cx(0,1)@t6</title>
<ellipse fill="none" stroke="black" cx="341.63" cy="-1026" rx="27" ry="18"/>
<text xml:space="preserve" text-anchor="middle" x="341.63" y="-1021.33" font-family="Times,serif" font-size="14.00">cx</text>
</g>
<!-- quake.s(0)@t4&#45;&gt;quake.cx(0,1)@t6 -->
<g id="edge7" class="edge">
<title>quake.s(0)@t4&#45;&gt;quake.cx(0,1)@t6</title>
<path fill="none" stroke="black" d="M402.25,-1082.83C391.64,-1073.06 377.33,-1059.88 365.28,-1048.78"/>
<polygon fill="black" stroke="black" points="367.83,-1046.37 358.1,-1042.17 363.09,-1051.52 367.83,-1046.37"/>
</g>
<!-- quake.t(1)@t5&#45;&gt;quake.cx(0,1)@t6 -->
<g id="edge8" class="edge">
<title>quake.t(1)@t5&#45;&gt;quake.cx(0,1)@t6</title>
<path fill="none" stroke="black" d="M341.63,-1079.7C341.63,-1072.41 341.63,-1063.73 341.63,-1055.54"/>
<polygon fill="black" stroke="black" points="345.13,-1055.62 341.63,-1045.62 338.13,-1055.62 345.13,-1055.62"/>
</g>
<!-- quake.cx(0,1)@t6&#45;&gt;quake.cy(1,2)@t7 -->
<g id="edge9" class="edge">
<title>quake.cx(0,1)@t6&#45;&gt;quake.cy(1,2)@t7</title>
<path fill="none" stroke="black" d="M328.06,-1010.15C319.58,-1000.87 308.47,-988.73 298.84,-978.19"/>
<polygon fill="black" stroke="black" points="301.54,-975.96 292.21,-970.94 296.37,-980.68 301.54,-975.96"/>
</g>
<!-- quake.ch(0,2)@t9 -->
<g id="node19" class="node">
<title>quake.ch(0,2)@t9</title>
<ellipse fill="none" stroke="black" cx="199.63" cy="-810" rx="27" ry="18"/>
<text xml:space="preserve" text-anchor="middle" x="199.63" y="-805.33" font-family="Times,serif" font-size="14.00">ch</text>
</g>
<!-- quake.cx(0,1)@t6&#45;&gt;quake.ch(0,2)@t9 -->
<g id="edge13" class="edge">
<title>quake.cx(0,1)@t6&#45;&gt;quake.ch(0,2)@t9</title>
<path fill="none" stroke="black" d="M338.52,-1007.7C334.65,-989.08 326.88,-959.03 313.63,-936 289.79,-894.55 250.16,-855.27 224.48,-832.16"/>
<polygon fill="black" stroke="black" points="226.96,-829.69 217.15,-825.68 222.33,-834.93 226.96,-829.69"/>
</g>
<!-- quake.cy(1,2)@t7&#45;&gt;quake.cz(2,3)@t8 -->
<g id="edge11" class="edge">
<title>quake.cy(1,2)@t7&#45;&gt;quake.cz(2,3)@t8</title>
<path fill="none" stroke="black" d="M261.63,-939.17C250.09,-929.2 234.31,-915.56 221.18,-904.21"/>
<polygon fill="black" stroke="black" points="223.6,-901.68 213.75,-897.79 219.03,-906.98 223.6,-901.68"/>
</g>
<!-- quake.cy(1,2)@t7&#45;&gt;quake.ct(1,4)@t12 -->
<g id="edge19" class="edge">
<title>quake.cy(1,2)@t7&#45;&gt;quake.ct(1,4)@t12</title>
<path fill="none" stroke="black" d="M282.38,-936.11C289.37,-909.66 301.63,-856.75 301.63,-811 301.63,-811 301.63,-811 301.63,-737 301.63,-697.1 293.42,-651.56 287.26,-623.04"/>
<polygon fill="black" stroke="black" points="290.71,-622.4 285.11,-613.41 283.88,-623.93 290.71,-622.4"/>
</g>
<!-- quake.cz(2,3)@t8&#45;&gt;quake.ch(0,2)@t9 -->
<g id="edge14" class="edge">
<title>quake.cz(2,3)@t8&#45;&gt;quake.ch(0,2)@t9</title>
<path fill="none" stroke="black" d="M197.38,-863.7C197.69,-856.41 198.06,-847.73 198.41,-839.54"/>
<polygon fill="black" stroke="black" points="201.9,-839.76 198.84,-829.62 194.91,-839.46 201.9,-839.76"/>
</g>
<!-- quake.swap(2,3)@t10 -->
<g id="node20" class="node">
<title>quake.swap(2,3)@t10</title>
<ellipse fill="none" stroke="black" cx="141.63" cy="-738" rx="30.69" ry="18"/>
<text xml:space="preserve" text-anchor="middle" x="141.63" y="-733.33" font-family="Times,serif" font-size="14.00">swap</text>
</g>
<!-- quake.cz(2,3)@t8&#45;&gt;quake.swap(2,3)@t10 -->
<g id="edge16" class="edge">
<title>quake.cz(2,3)@t8&#45;&gt;quake.swap(2,3)@t10</title>
<path fill="none" stroke="black" d="M185.14,-865.48C178.06,-855.27 169.28,-841.38 163.63,-828 155.39,-808.49 149.77,-785.21 146.28,-767.36"/>
<polygon fill="black" stroke="black" points="149.76,-766.93 144.51,-757.73 142.88,-768.2 149.76,-766.93"/>
</g>
<!-- quake.ch(0,2)@t9&#45;&gt;quake.swap(2,3)@t10 -->
<g id="edge15" class="edge">
<title>quake.ch(0,2)@t9&#45;&gt;quake.swap(2,3)@t10</title>
<path fill="none" stroke="black" d="M187.05,-793.81C179.7,-784.94 170.26,-773.55 161.89,-763.45"/>
<polygon fill="black" stroke="black" points="164.64,-761.28 155.56,-755.81 159.25,-765.74 164.64,-761.28"/>
</g>
<!-- quake.cs(0,3)@t11 -->
<g id="node21" class="node">
<title>quake.cs(0,3)@t11</title>
<ellipse fill="none" stroke="black" cx="142.63" cy="-666" rx="27" ry="18"/>
<text xml:space="preserve" text-anchor="middle" x="142.63" y="-661.33" font-family="Times,serif" font-size="14.00">cs</text>
</g>
<!-- quake.ch(0,2)@t9&#45;&gt;quake.cs(0,3)@t11 -->
<g id="edge17" class="edge">
<title>quake.ch(0,2)@t9&#45;&gt;quake.cs(0,3)@t11</title>
<path fill="none" stroke="black" d="M198.35,-791.6C196.49,-773.15 192.04,-743.49 181.63,-720 177.01,-709.57 170.06,-699.21 163.3,-690.45"/>
<polygon fill="black" stroke="black" points="166.13,-688.39 157.11,-682.83 160.7,-692.8 166.13,-688.39"/>
</g>
<!-- quake.swap(2,3)@t10&#45;&gt;quake.cs(0,3)@t11 -->
<g id="edge18" class="edge">
<title>quake.swap(2,3)@t10&#45;&gt;quake.cs(0,3)@t11</title>
<path fill="none" stroke="black" d="M141.88,-719.7C141.98,-712.41 142.11,-703.73 142.23,-695.54"/>
<polygon fill="black" stroke="black" points="145.72,-695.67 142.37,-685.62 138.73,-695.57 145.72,-695.67"/>
</g>
<!-- quake.rz(2)@t15 params=(0.1,) -->
<g id="node25" class="node">
<title>quake.rz(2)@t15 params=(0.1,)</title>
<ellipse fill="none" stroke="black" cx="87.63" cy="-450" rx="27" ry="18"/>
<text xml:space="preserve" text-anchor="middle" x="87.63" y="-445.32" font-family="Times,serif" font-size="14.00">rz</text>
</g>
<!-- quake.swap(2,3)@t10&#45;&gt;quake.rz(2)@t15 params=(0.1,) -->
<g id="edge23" class="edge">
<title>quake.swap(2,3)@t10&#45;&gt;quake.rz(2)@t15 params=(0.1,)</title>
<path fill="none" stroke="black" d="M128.3,-721.43C120.54,-711.42 111.38,-697.76 106.63,-684 82.36,-613.69 83.1,-524.64 85.48,-479.71"/>
<polygon fill="black" stroke="black" points="88.97,-479.96 86.09,-469.77 81.99,-479.54 88.97,-479.96"/>
</g>
<!-- quake.rx(0)@t13 params=(0.1,) -->
<g id="node23" class="node">
<title>quake.rx(0)@t13 params=(0.1,)</title>
<ellipse fill="none" stroke="black" cx="188.63" cy="-594" rx="27" ry="18"/>
<text xml:space="preserve" text-anchor="middle" x="188.63" y="-589.33" font-family="Times,serif" font-size="14.00">rx</text>
</g>
<!-- quake.cs(0,3)@t11&#45;&gt;quake.rx(0)@t13 params=(0.1,) -->
<g id="edge21" class="edge">
<title>quake.cs(0,3)@t11&#45;&gt;quake.rx(0)@t13 params=(0.1,)</title>
<path fill="none" stroke="black" d="M153.07,-649.12C158.66,-640.61 165.67,-629.94 171.99,-620.32"/>
<polygon fill="black" stroke="black" points="174.84,-622.37 177.41,-612.09 168.99,-618.52 174.84,-622.37"/>
</g>
<!-- quake.r1(3)@t16 params=(0.1,) -->
<g id="node26" class="node">
<title>quake.r1(3)@t16 params=(0.1,)</title>
<ellipse fill="none" stroke="black" cx="159.63" cy="-450" rx="27" ry="18"/>
<text xml:space="preserve" text-anchor="middle" x="159.63" y="-445.32" font-family="Times,serif" font-size="14.00">r1</text>
</g>
<!-- quake.cs(0,3)@t11&#45;&gt;quake.r1(3)@t16 params=(0.1,) -->
<g id="edge24" class="edge">
<title>quake.cs(0,3)@t11&#45;&gt;quake.r1(3)@t16 params=(0.1,)</title>
<path fill="none" stroke="black" d="M143.32,-647.58C144.57,-618.01 147.58,-556.13 152.63,-504 153.41,-496.03 154.45,-487.4 155.5,-479.47"/>
<polygon fill="black" stroke="black" points="158.96,-480.03 156.86,-469.65 152.03,-479.08 158.96,-480.03"/>
</g>
<!-- quake.ry(1)@t14 params=(0.1,) -->
<g id="node24" class="node">
<title>quake.ry(1)@t14 params=(0.1,)</title>
<ellipse fill="none" stroke="black" cx="260.63" cy="-522" rx="27" ry="18"/>
<text xml:space="preserve" text-anchor="middle" x="260.63" y="-517.33" font-family="Times,serif" font-size="14.00">ry</text>
</g>
<!-- quake.ct(1,4)@t12&#45;&gt;quake.ry(1)@t14 params=(0.1,) -->
<g id="edge22" class="edge">
<title>quake.ct(1,4)@t12&#45;&gt;quake.ry(1)@t14 params=(0.1,)</title>
<path fill="none" stroke="black" d="M275.79,-576.05C273.63,-568.49 271.03,-559.37 268.59,-550.85"/>
<polygon fill="black" stroke="black" points="271.96,-549.9 265.85,-541.24 265.23,-551.82 271.96,-549.9"/>
</g>
<!-- quake.rz(4)@t17 params=(1.5707963267948966,) -->
<g id="node27" class="node">
<title>quake.rz(4)@t17 params=(1.5707963267948966,)</title>
<ellipse fill="none" stroke="black" cx="305.63" cy="-378" rx="27" ry="18"/>
<text xml:space="preserve" text-anchor="middle" x="305.63" y="-373.32" font-family="Times,serif" font-size="14.00">rz</text>
</g>
<!-- quake.ct(1,4)@t12&#45;&gt;quake.rz(4)@t17 params=(1.5707963267948966,) -->
<g id="edge25" class="edge">
<title>quake.ct(1,4)@t12&#45;&gt;quake.rz(4)@t17 params=(1.5707963267948966,)</title>
<path fill="none" stroke="black" d="M286.87,-576.06C290.37,-565.78 294.46,-552.31 296.63,-540 304.74,-494.04 306.1,-439.67 306.07,-407.33"/>
<polygon fill="black" stroke="black" points="309.57,-407.56 306.01,-397.59 302.57,-407.61 309.57,-407.56"/>
</g>
<!-- quake.rz(0)@t18 params=(0.7853981633974483,) -->
<g id="node28" class="node">
<title>quake.rz(0)@t18 params=(0.7853981633974483,)</title>
<ellipse fill="none" stroke="black" cx="188.63" cy="-522" rx="27" ry="18"/>
<text xml:space="preserve" text-anchor="middle" x="188.63" y="-517.33" font-family="Times,serif" font-size="14.00">rz</text>
</g>
<!-- quake.rx(0)@t13 params=(0.1,)&#45;&gt;quake.rz(0)@t18 params=(0.7853981633974483,) -->
<g id="edge26" class="edge">
<title>quake.rx(0)@t13 params=(0.1,)&#45;&gt;quake.rz(0)@t18 params=(0.7853981633974483,)</title>
<path fill="none" stroke="black" d="M188.63,-575.7C188.63,-568.41 188.63,-559.73 188.63,-551.54"/>
<polygon fill="black" stroke="black" points="192.13,-551.62 188.63,-541.62 185.13,-551.62 192.13,-551.62"/>
</g>
<!-- quake.crx(0,1)@t19 params=(0.1,) -->
<g id="node29" class="node">
<title>quake.crx(0,1)@t19 params=(0.1,)</title>
<ellipse fill="none" stroke="black" cx="231.63" cy="-450" rx="27" ry="18"/>
<text xml:space="preserve" text-anchor="middle" x="231.63" y="-445.32" font-family="Times,serif" font-size="14.00">crx</text>
</g>
<!-- quake.ry(1)@t14 params=(0.1,)&#45;&gt;quake.crx(0,1)@t19 params=(0.1,) -->
<g id="edge28" class="edge">
<title>quake.ry(1)@t14 params=(0.1,)&#45;&gt;quake.crx(0,1)@t19 params=(0.1,)</title>
<path fill="none" stroke="black" d="M253.76,-504.41C250.47,-496.48 246.46,-486.78 242.75,-477.84"/>
<polygon fill="black" stroke="black" points="246.1,-476.77 239.04,-468.87 239.63,-479.45 246.1,-476.77"/>
</g>
<!-- quake.cry(1,2)@t20 params=(0.1,) -->
<g id="node30" class="node">
<title>quake.cry(1,2)@t20 params=(0.1,)</title>
<ellipse fill="none" stroke="black" cx="95.63" cy="-378" rx="27" ry="18"/>
<text xml:space="preserve" text-anchor="middle" x="95.63" y="-373.32" font-family="Times,serif" font-size="14.00">cry</text>
</g>
<!-- quake.rz(2)@t15 params=(0.1,)&#45;&gt;quake.cry(1,2)@t20 params=(0.1,) -->
<g id="edge30" class="edge">
<title>quake.rz(2)@t15 params=(0.1,)&#45;&gt;quake.cry(1,2)@t20 params=(0.1,)</title>
<path fill="none" stroke="black" d="M89.61,-431.7C90.44,-424.41 91.44,-415.73 92.37,-407.54"/>
<polygon fill="black" stroke="black" points="95.85,-407.94 93.51,-397.61 88.89,-407.15 95.85,-407.94"/>
</g>
<!-- quake.crz(2,3)@t21 params=(0.1,) -->
<g id="node31" class="node">
<title>quake.crz(2,3)@t21 params=(0.1,)</title>
<ellipse fill="none" stroke="black" cx="159.63" cy="-306" rx="27" ry="18"/>
<text xml:space="preserve" text-anchor="middle" x="159.63" y="-301.32" font-family="Times,serif" font-size="14.00">crz</text>
</g>
<!-- quake.r1(3)@t16 params=(0.1,)&#45;&gt;quake.crz(2,3)@t21 params=(0.1,) -->
<g id="edge32" class="edge">
<title>quake.r1(3)@t16 params=(0.1,)&#45;&gt;quake.crz(2,3)@t21 params=(0.1,)</title>
<path fill="none" stroke="black" d="M159.63,-431.59C159.63,-407.61 159.63,-364.14 159.63,-335.42"/>
<polygon fill="black" stroke="black" points="163.13,-335.62 159.63,-325.62 156.13,-335.62 163.13,-335.62"/>
</g>
<!-- quake.cr1(3,4)@t22 params=(0.1,) -->
<g id="node32" class="node">
<title>quake.cr1(3,4)@t22 params=(0.1,)</title>
<ellipse fill="none" stroke="black" cx="280.63" cy="-234" rx="27" ry="18"/>
<text xml:space="preserve" text-anchor="middle" x="280.63" y="-229.32" font-family="Times,serif" font-size="14.00">cr1</text>
</g>
<!-- quake.rz(4)@t17 params=(1.5707963267948966,)&#45;&gt;quake.cr1(3,4)@t22 params=(0.1,) -->
<g id="edge34" class="edge">
<title>quake.rz(4)@t17 params=(1.5707963267948966,)&#45;&gt;quake.cr1(3,4)@t22 params=(0.1,)</title>
<path fill="none" stroke="black" d="M302.62,-359.87C298.39,-335.88 290.67,-291.99 285.59,-263.16"/>
<polygon fill="black" stroke="black" points="289.1,-262.92 283.92,-253.68 282.21,-264.14 289.1,-262.92"/>
</g>
<!-- quake.rz(0)@t18 params=(0.7853981633974483,)&#45;&gt;quake.crx(0,1)@t19 params=(0.1,) -->
<g id="edge27" class="edge">
<title>quake.rz(0)@t18 params=(0.7853981633974483,)&#45;&gt;quake.crx(0,1)@t19 params=(0.1,)</title>
<path fill="none" stroke="black" d="M198.61,-504.76C203.71,-496.46 210.04,-486.15 215.79,-476.79"/>
<polygon fill="black" stroke="black" points="218.67,-478.79 220.92,-468.44 212.71,-475.13 218.67,-478.79"/>
</g>
<!-- quake.crx(0,1)@t19 params=(0.1,)&#45;&gt;quake.cry(1,2)@t20 params=(0.1,) -->
<g id="edge29" class="edge">
<title>quake.crx(0,1)@t19 params=(0.1,)&#45;&gt;quake.cry(1,2)@t20 params=(0.1,)</title>
<path fill="none" stroke="black" d="M210.68,-438.22C188.15,-426.62 152.11,-408.07 126.38,-394.82"/>
<polygon fill="black" stroke="black" points="128.23,-391.84 117.73,-390.37 125.02,-398.06 128.23,-391.84"/>
</g>
<!-- quake.sdg(0)@t23 -->
<g id="node33" class="node">
<title>quake.sdg(0)@t23</title>
<ellipse fill="none" stroke="black" cx="231.63" cy="-306" rx="27" ry="18"/>
<text xml:space="preserve" text-anchor="middle" x="231.63" y="-301.32" font-family="Times,serif" font-size="14.00">sdg</text>
</g>
<!-- quake.crx(0,1)@t19 params=(0.1,)&#45;&gt;quake.sdg(0)@t23 -->
<g id="edge35" class="edge">
<title>quake.crx(0,1)@t19 params=(0.1,)&#45;&gt;quake.sdg(0)@t23</title>
<path fill="none" stroke="black" d="M231.63,-431.59C231.63,-407.61 231.63,-364.14 231.63,-335.42"/>
<polygon fill="black" stroke="black" points="235.13,-335.62 231.63,-325.62 228.13,-335.62 235.13,-335.62"/>
</g>
<!-- quake.cry(1,2)@t20 params=(0.1,)&#45;&gt;quake.crz(2,3)@t21 params=(0.1,) -->
<g id="edge31" class="edge">
<title>quake.cry(1,2)@t20 params=(0.1,)&#45;&gt;quake.crz(2,3)@t21 params=(0.1,)</title>
<path fill="none" stroke="black" d="M109.21,-362.15C117.69,-352.87 128.8,-340.73 138.43,-330.19"/>
<polygon fill="black" stroke="black" points="140.89,-332.68 145.06,-322.94 135.73,-327.96 140.89,-332.68"/>
</g>
<!-- quake.tdg(1)@t24 -->
<g id="node34" class="node">
<title>quake.tdg(1)@t24</title>
<ellipse fill="none" stroke="black" cx="87.63" cy="-306" rx="27" ry="18"/>
<text xml:space="preserve" text-anchor="middle" x="87.63" y="-301.32" font-family="Times,serif" font-size="14.00">tdg</text>
</g>
<!-- quake.cry(1,2)@t20 params=(0.1,)&#45;&gt;quake.tdg(1)@t24 -->
<g id="edge36" class="edge">
<title>quake.cry(1,2)@t20 params=(0.1,)&#45;&gt;quake.tdg(1)@t24</title>
<path fill="none" stroke="black" d="M93.66,-359.7C92.82,-352.41 91.83,-343.73 90.89,-335.54"/>
<polygon fill="black" stroke="black" points="94.37,-335.15 89.76,-325.61 87.42,-335.94 94.37,-335.15"/>
</g>
<!-- quake.crz(2,3)@t21 params=(0.1,)&#45;&gt;quake.cr1(3,4)@t22 params=(0.1,) -->
<g id="edge33" class="edge">
<title>quake.crz(2,3)@t21 params=(0.1,)&#45;&gt;quake.cr1(3,4)@t22 params=(0.1,)</title>
<path fill="none" stroke="black" d="M179.61,-293.44C198.97,-282.24 228.56,-265.12 250.72,-252.3"/>
<polygon fill="black" stroke="black" points="252.41,-255.37 259.31,-247.33 248.9,-249.31 252.41,-255.37"/>
</g>
<!-- quake.mz(2)@t31 -->
<g id="node41" class="node">
<title>quake.mz(2)@t31</title>
<ellipse fill="yellow" stroke="yellow" cx="166.63" cy="-234" rx="27" ry="18"/>
<text xml:space="preserve" text-anchor="middle" x="166.63" y="-229.32" font-family="Times,serif" font-size="14.00">mz</text>
</g>
<!-- quake.crz(2,3)@t21 params=(0.1,)&#45;&gt;quake.mz(2)@t31 -->
<g id="edge50" class="edge">
<title>quake.crz(2,3)@t21 params=(0.1,)&#45;&gt;quake.mz(2)@t31</title>
<path fill="none" stroke="black" d="M161.36,-287.7C162.09,-280.41 162.96,-271.73 163.78,-263.54"/>
<polygon fill="black" stroke="black" points="167.26,-263.91 164.77,-253.61 160.29,-263.21 167.26,-263.91"/>
</g>
<!-- q3_end -->
<g id="node46" class="node">
<title>q3_end</title>
<ellipse fill="red" stroke="red" cx="372.63" cy="-162" rx="39.63" ry="18"/>
<text xml:space="preserve" text-anchor="middle" x="372.63" y="-157.32" font-family="Times,serif" font-size="14.00">q3_end</text>
</g>
<!-- quake.cr1(3,4)@t22 params=(0.1,)&#45;&gt;q3_end -->
<g id="edge58" class="edge">
<title>quake.cr1(3,4)@t22 params=(0.1,)&#45;&gt;q3_end</title>
<path fill="none" stroke="black" d="M297.94,-219.83C310.87,-209.99 328.84,-196.32 343.91,-184.85"/>
<polygon fill="black" stroke="black" points="345.81,-187.81 351.65,-178.97 341.57,-182.24 345.81,-187.81"/>
</g>
<!-- q4_end -->
<g id="node47" class="node">
<title>q4_end</title>
<ellipse fill="red" stroke="red" cx="275.63" cy="-162" rx="39.63" ry="18"/>
<text xml:space="preserve" text-anchor="middle" x="275.63" y="-157.32" font-family="Times,serif" font-size="14.00">q4_end</text>
</g>
<!-- quake.cr1(3,4)@t22 params=(0.1,)&#45;&gt;q4_end -->
<g id="edge59" class="edge">
<title>quake.cr1(3,4)@t22 params=(0.1,)&#45;&gt;q4_end</title>
<path fill="none" stroke="black" d="M279.4,-215.7C278.88,-208.41 278.26,-199.73 277.67,-191.54"/>
<polygon fill="black" stroke="black" points="281.17,-191.34 276.96,-181.61 274.18,-191.84 281.17,-191.34"/>
</g>
<!-- quake.cu3(0,1)@t26 params=(0.2, 0.3, 0.4) -->
<g id="node36" class="node">
<title>quake.cu3(0,1)@t26 params=(0.2, 0.3, 0.4)</title>
<ellipse fill="none" stroke="black" cx="87.63" cy="-162" rx="27" ry="18"/>
<text xml:space="preserve" text-anchor="middle" x="87.63" y="-157.32" font-family="Times,serif" font-size="14.00">cu3</text>
</g>
<!-- quake.sdg(0)@t23&#45;&gt;quake.cu3(0,1)@t26 params=(0.2, 0.3, 0.4) -->
<g id="edge38" class="edge">
<title>quake.sdg(0)@t23&#45;&gt;quake.cu3(0,1)@t26 params=(0.2, 0.3, 0.4)</title>
<path fill="none" stroke="black" d="M230.11,-287.55C227.55,-267.95 220.71,-236.24 202.63,-216 176.93,-187.22 158.64,-196.24 123.63,-180 122.33,-179.39 121,-178.78 119.65,-178.15"/>
<polygon fill="black" stroke="black" points="121.22,-175.02 110.68,-173.94 118.25,-181.36 121.22,-175.02"/>
</g>
<!-- quake.u3(1)@t25 params=(0.2, 0.3, 0.4) -->
<g id="node35" class="node">
<title>quake.u3(1)@t25 params=(0.2, 0.3, 0.4)</title>
<ellipse fill="none" stroke="black" cx="87.63" cy="-234" rx="27" ry="18"/>
<text xml:space="preserve" text-anchor="middle" x="87.63" y="-229.32" font-family="Times,serif" font-size="14.00">u3</text>
</g>
<!-- quake.tdg(1)@t24&#45;&gt;quake.u3(1)@t25 params=(0.2, 0.3, 0.4) -->
<g id="edge37" class="edge">
<title>quake.tdg(1)@t24&#45;&gt;quake.u3(1)@t25 params=(0.2, 0.3, 0.4)</title>
<path fill="none" stroke="black" d="M87.63,-287.7C87.63,-280.41 87.63,-271.73 87.63,-263.54"/>
<polygon fill="black" stroke="black" points="91.13,-263.62 87.63,-253.62 84.13,-263.62 91.13,-263.62"/>
</g>
<!-- quake.u3(1)@t25 params=(0.2, 0.3, 0.4)&#45;&gt;quake.cu3(0,1)@t26 params=(0.2, 0.3, 0.4) -->
<g id="edge39" class="edge">
<title>quake.u3(1)@t25 params=(0.2, 0.3, 0.4)&#45;&gt;quake.cu3(0,1)@t26 params=(0.2, 0.3, 0.4)</title>
<path fill="none" stroke="black" d="M87.63,-215.7C87.63,-208.41 87.63,-199.73 87.63,-191.54"/>
<polygon fill="black" stroke="black" points="91.13,-191.62 87.63,-181.62 84.13,-191.62 91.13,-191.62"/>
</g>
<!-- quake.mx(0)@t29 -->
<g id="node39" class="node">
<title>quake.mx(0)@t29</title>
<ellipse fill="yellow" stroke="yellow" cx="51.63" cy="-90" rx="27" ry="18"/>
<text xml:space="preserve" text-anchor="middle" x="51.63" y="-85.33" font-family="Times,serif" font-size="14.00">mx</text>
</g>
<!-- quake.cu3(0,1)@t26 params=(0.2, 0.3, 0.4)&#45;&gt;quake.mx(0)@t29 -->
<g id="edge48" class="edge">
<title>quake.cu3(0,1)@t26 params=(0.2, 0.3, 0.4)&#45;&gt;quake.mx(0)@t29</title>
<path fill="none" stroke="black" d="M79.28,-144.76C75.06,-136.55 69.83,-126.37 65.05,-117.09"/>
<polygon fill="black" stroke="black" points="68.32,-115.79 60.63,-108.49 62.09,-118.99 68.32,-115.79"/>
</g>
<!-- quake.my(1)@t30 -->
<g id="node40" class="node">
<title>quake.my(1)@t30</title>
<ellipse fill="yellow" stroke="yellow" cx="129.63" cy="-90" rx="27" ry="18"/>
<text xml:space="preserve" text-anchor="middle" x="129.63" y="-85.33" font-family="Times,serif" font-size="14.00">my</text>
</g>
<!-- quake.cu3(0,1)@t26 params=(0.2, 0.3, 0.4)&#45;&gt;quake.my(1)@t30 -->
<g id="edge49" class="edge">
<title>quake.cu3(0,1)@t26 params=(0.2, 0.3, 0.4)&#45;&gt;quake.my(1)@t30</title>
<path fill="none" stroke="black" d="M97.37,-144.76C102.36,-136.46 108.54,-126.15 114.16,-116.79"/>
<polygon fill="black" stroke="black" points="117.02,-118.82 119.17,-108.45 111.02,-115.22 117.02,-118.82"/>
</g>
<!-- quake.exp_pauli(5,6,7,8)@t28 params=(0.5, &#39;XYZI&#39;) -->
<g id="node38" class="node">
<title>quake.exp_pauli(5,6,7,8)@t28 params=(0.5, &#39;XYZI&#39;)</title>
<ellipse fill="none" stroke="black" cx="695.63" cy="-1098" rx="49.63" ry="18"/>
<text xml:space="preserve" text-anchor="middle" x="695.63" y="-1093.33" font-family="Times,serif" font-size="14.00">exp_pauli</text>
</g>
<!-- quake.exp_pauli(5,6,7,8)@t27 params=(0.5, &#39;XZYI&#39;)&#45;&gt;quake.exp_pauli(5,6,7,8)@t28 params=(0.5, &#39;XYZI&#39;) -->
<g id="edge44" class="edge">
<title>quake.exp_pauli(5,6,7,8)@t27 params=(0.5, &#39;XZYI&#39;)&#45;&gt;quake.exp_pauli(5,6,7,8)@t28 params=(0.5, &#39;XYZI&#39;)</title>
<path fill="none" stroke="black" d="M678.23,-1152.76C675.58,-1144.9 674.78,-1135.24 675.83,-1126.29"/>
<polygon fill="black" stroke="black" points="679.22,-1127.14 677.94,-1116.63 672.38,-1125.65 679.22,-1127.14"/>
</g>
<!-- quake.exp_pauli(5,6,7,8)@t27 params=(0.5, &#39;XZYI&#39;)&#45;&gt;quake.exp_pauli(5,6,7,8)@t28 params=(0.5, &#39;XYZI&#39;) -->
<g id="edge45" class="edge">
<title>quake.exp_pauli(5,6,7,8)@t27 params=(0.5, &#39;XZYI&#39;)&#45;&gt;quake.exp_pauli(5,6,7,8)@t28 params=(0.5, &#39;XYZI&#39;)</title>
<path fill="none" stroke="black" d="M689.72,-1151.7C688.97,-1144.41 688.72,-1135.73 688.99,-1127.54"/>
<polygon fill="black" stroke="black" points="692.48,-1127.82 689.64,-1117.61 685.49,-1127.36 692.48,-1127.82"/>
</g>
<!-- quake.exp_pauli(5,6,7,8)@t27 params=(0.5, &#39;XZYI&#39;)&#45;&gt;quake.exp_pauli(5,6,7,8)@t28 params=(0.5, &#39;XYZI&#39;) -->
<g id="edge46" class="edge">
<title>quake.exp_pauli(5,6,7,8)@t27 params=(0.5, &#39;XZYI&#39;)&#45;&gt;quake.exp_pauli(5,6,7,8)@t28 params=(0.5, &#39;XYZI&#39;)</title>
<path fill="none" stroke="black" d="M701.55,-1151.7C702.3,-1144.41 702.54,-1135.73 702.28,-1127.54"/>
<polygon fill="black" stroke="black" points="705.78,-1127.36 701.63,-1117.61 698.79,-1127.82 705.78,-1127.36"/>
</g>
<!-- quake.exp_pauli(5,6,7,8)@t27 params=(0.5, &#39;XZYI&#39;)&#45;&gt;quake.exp_pauli(5,6,7,8)@t28 params=(0.5, &#39;XYZI&#39;) -->
<g id="edge47" class="edge">
<title>quake.exp_pauli(5,6,7,8)@t27 params=(0.5, &#39;XZYI&#39;)&#45;&gt;quake.exp_pauli(5,6,7,8)@t28 params=(0.5, &#39;XYZI&#39;)</title>
<path fill="none" stroke="black" d="M713.04,-1152.76C715.68,-1144.9 716.48,-1135.24 715.44,-1126.29"/>
<polygon fill="black" stroke="black" points="718.88,-1125.65 713.33,-1116.63 712.04,-1127.14 718.88,-1125.65"/>
</g>
<!-- quake.mx(5,6,7,8)@t32 -->
<g id="node42" class="node">
<title>quake.mx(5,6,7,8)@t32</title>
<ellipse fill="yellow" stroke="yellow" cx="695.63" cy="-1026" rx="27" ry="18"/>
<text xml:space="preserve" text-anchor="middle" x="695.63" y="-1021.33" font-family="Times,serif" font-size="14.00">mx</text>
</g>
<!-- quake.exp_pauli(5,6,7,8)@t28 params=(0.5, &#39;XYZI&#39;)&#45;&gt;quake.mx(5,6,7,8)@t32 -->
<g id="edge51" class="edge">
<title>quake.exp_pauli(5,6,7,8)@t28 params=(0.5, &#39;XYZI&#39;)&#45;&gt;quake.mx(5,6,7,8)@t32</title>
<path fill="none" stroke="black" d="M678.23,-1080.76C675.33,-1072.15 674.65,-1061.38 676.18,-1051.75"/>
<polygon fill="black" stroke="black" points="679.51,-1052.82 678.74,-1042.25 672.76,-1050.99 679.51,-1052.82"/>
</g>
<!-- quake.exp_pauli(5,6,7,8)@t28 params=(0.5, &#39;XYZI&#39;)&#45;&gt;quake.mx(5,6,7,8)@t32 -->
<g id="edge52" class="edge">
<title>quake.exp_pauli(5,6,7,8)@t28 params=(0.5, &#39;XYZI&#39;)&#45;&gt;quake.mx(5,6,7,8)@t32</title>
<path fill="none" stroke="black" d="M689.72,-1079.7C688.95,-1072.21 688.71,-1063.26 689.01,-1054.88"/>
<polygon fill="black" stroke="black" points="692.49,-1055.35 689.69,-1045.13 685.5,-1054.87 692.49,-1055.35"/>
</g>
<!-- quake.exp_pauli(5,6,7,8)@t28 params=(0.5, &#39;XYZI&#39;)&#45;&gt;quake.mx(5,6,7,8)@t32 -->
<g id="edge53" class="edge">
<title>quake.exp_pauli(5,6,7,8)@t28 params=(0.5, &#39;XYZI&#39;)&#45;&gt;quake.mx(5,6,7,8)@t32</title>
<path fill="none" stroke="black" d="M701.55,-1079.7C702.32,-1072.21 702.56,-1063.26 702.26,-1054.88"/>
<polygon fill="black" stroke="black" points="705.77,-1054.87 701.58,-1045.13 698.78,-1055.35 705.77,-1054.87"/>
</g>
<!-- quake.exp_pauli(5,6,7,8)@t28 params=(0.5, &#39;XYZI&#39;)&#45;&gt;quake.mx(5,6,7,8)@t32 -->
<g id="edge54" class="edge">
<title>quake.exp_pauli(5,6,7,8)@t28 params=(0.5, &#39;XYZI&#39;)&#45;&gt;quake.mx(5,6,7,8)@t32</title>
<path fill="none" stroke="black" d="M713.04,-1080.76C715.94,-1072.15 716.62,-1061.38 715.09,-1051.75"/>
<polygon fill="black" stroke="black" points="718.51,-1050.99 712.52,-1042.25 711.75,-1052.82 718.51,-1050.99"/>
</g>
<!-- q0_end -->
<g id="node43" class="node">
<title>q0_end</title>
<ellipse fill="red" stroke="red" cx="39.63" cy="-18" rx="39.63" ry="18"/>
<text xml:space="preserve" text-anchor="middle" x="39.63" y="-13.32" font-family="Times,serif" font-size="14.00">q0_end</text>
</g>
<!-- quake.mx(0)@t29&#45;&gt;q0_end -->
<g id="edge55" class="edge">
<title>quake.mx(0)@t29&#45;&gt;q0_end</title>
<path fill="none" stroke="black" d="M48.67,-71.7C47.4,-64.32 45.89,-55.52 44.48,-47.25"/>
<polygon fill="black" stroke="black" points="47.96,-46.86 42.82,-37.6 41.06,-48.04 47.96,-46.86"/>
</g>
<!-- q1_end -->
<g id="node44" class="node">
<title>q1_end</title>
<ellipse fill="red" stroke="red" cx="136.63" cy="-18" rx="39.63" ry="18"/>
<text xml:space="preserve" text-anchor="middle" x="136.63" y="-13.32" font-family="Times,serif" font-size="14.00">q1_end</text>
</g>
<!-- quake.my(1)@t30&#45;&gt;q1_end -->
<g id="edge56" class="edge">
<title>quake.my(1)@t30&#45;&gt;q1_end</title>
<path fill="none" stroke="black" d="M131.36,-71.7C132.09,-64.41 132.96,-55.73 133.78,-47.54"/>
<polygon fill="black" stroke="black" points="137.26,-47.91 134.77,-37.61 130.29,-47.21 137.26,-47.91"/>
</g>
<!-- q2_end -->
<g id="node45" class="node">
<title>q2_end</title>
<ellipse fill="red" stroke="red" cx="172.63" cy="-162" rx="39.63" ry="18"/>
<text xml:space="preserve" text-anchor="middle" x="172.63" y="-157.32" font-family="Times,serif" font-size="14.00">q2_end</text>
</g>
<!-- quake.mz(2)@t31&#45;&gt;q2_end -->
<g id="edge57" class="edge">
<title>quake.mz(2)@t31&#45;&gt;q2_end</title>
<path fill="none" stroke="black" d="M168.12,-215.7C168.74,-208.41 169.49,-199.73 170.19,-191.54"/>
<polygon fill="black" stroke="black" points="173.67,-191.87 171.04,-181.61 166.7,-191.28 173.67,-191.87"/>
</g>
<!-- q5_end -->
<g id="node48" class="node">
<title>q5_end</title>
<ellipse fill="red" stroke="red" cx="550.63" cy="-954" rx="39.63" ry="18"/>
<text xml:space="preserve" text-anchor="middle" x="550.63" y="-949.33" font-family="Times,serif" font-size="14.00">q5_end</text>
</g>
<!-- quake.mx(5,6,7,8)@t32&#45;&gt;q5_end -->
<g id="edge60" class="edge">
<title>quake.mx(5,6,7,8)@t32&#45;&gt;q5_end</title>
<path fill="none" stroke="black" d="M674.24,-1014.67C651.33,-1003.61 614.56,-985.86 587.07,-972.59"/>
<polygon fill="black" stroke="black" points="588.93,-969.6 578.4,-968.41 585.89,-975.91 588.93,-969.6"/>
</g>
<!-- q6_end -->
<g id="node49" class="node">
<title>q6_end</title>
<ellipse fill="red" stroke="red" cx="647.63" cy="-954" rx="39.63" ry="18"/>
<text xml:space="preserve" text-anchor="middle" x="647.63" y="-949.33" font-family="Times,serif" font-size="14.00">q6_end</text>
</g>
<!-- quake.mx(5,6,7,8)@t32&#45;&gt;q6_end -->
<g id="edge61" class="edge">
<title>quake.mx(5,6,7,8)@t32&#45;&gt;q6_end</title>
<path fill="none" stroke="black" d="M684.74,-1009.12C678.99,-1000.73 671.8,-990.24 665.28,-980.73"/>
<polygon fill="black" stroke="black" points="668.21,-978.82 659.67,-972.56 662.44,-982.78 668.21,-978.82"/>
</g>
<!-- q7_end -->
<g id="node50" class="node">
<title>q7_end</title>
<ellipse fill="red" stroke="red" cx="744.63" cy="-954" rx="39.63" ry="18"/>
<text xml:space="preserve" text-anchor="middle" x="744.63" y="-949.33" font-family="Times,serif" font-size="14.00">q7_end</text>
</g>
<!-- quake.mx(5,6,7,8)@t32&#45;&gt;q7_end -->
<g id="edge62" class="edge">
<title>quake.mx(5,6,7,8)@t32&#45;&gt;q7_end</title>
<path fill="none" stroke="black" d="M706.75,-1009.12C712.62,-1000.73 719.97,-990.24 726.62,-980.73"/>
<polygon fill="black" stroke="black" points="729.48,-982.75 732.35,-972.55 723.75,-978.73 729.48,-982.75"/>
</g>
<!-- q8_end -->
<g id="node51" class="node">
<title>q8_end</title>
<ellipse fill="red" stroke="red" cx="841.63" cy="-954" rx="39.63" ry="18"/>
<text xml:space="preserve" text-anchor="middle" x="841.63" y="-949.33" font-family="Times,serif" font-size="14.00">q8_end</text>
</g>
<!-- quake.mx(5,6,7,8)@t32&#45;&gt;q8_end -->
<g id="edge63" class="edge">
<title>quake.mx(5,6,7,8)@t32&#45;&gt;q8_end</title>
<path fill="none" stroke="black" d="M717.18,-1014.67C740.25,-1003.61 777.27,-985.86 804.94,-972.59"/>
<polygon fill="black" stroke="black" points="806.18,-975.88 813.68,-968.4 803.15,-969.57 806.18,-975.88"/>
</g>
</g>
</svg>
