<?xml version="1.0" encoding="UTF-8" standalone="no"?>
<!DOCTYPE svg PUBLIC "-//W3C//DTD SVG 1.1//EN"
 "http://www.w3.org/Graphics/SVG/1.1/DTD/svg11.dtd">
<!-- Generated by graphviz version 14.1.5 (0)
 -->
<!-- Title: ultimate_quake_inspector_DAG_Will Pages: 1 -->
<svg width="421pt" height="1268pt"
 viewBox="0.00 0.00 421.00 1268.00" xmlns="http://www.w3.org/2000/svg" xmlns:xlink="http://www.w3.org/1999/xlink">
<g id="graph0" class="graph" transform="scale(1 1) rotate(0) translate(4 1264)">
<title>ultimate_quake_inspector_DAG_Will</title>
<polygon fill="white" stroke="none" points="-4,4 -4,-1264 416.63,-1264 416.63,4 -4,4"/>
<!-- Start -->
<g id="node1" class="node">
<title>Start</title>
<ellipse fill="green" stroke="green" cx="285" cy="-1242" rx="30.16" ry="18"/>
<text xml:space="preserve" text-anchor="middle" x="285" y="-1237.33" font-family="Times,serif" font-size="14.00">Start</text>
</g>
<!-- quake.x(0)@t0 -->
<g id="node3" class="node">
<title>quake.x(0)@t0</title>
<ellipse fill="none" stroke="black" cx="120" cy="-1170" rx="27" ry="18"/>
<text xml:space="preserve" text-anchor="middle" x="120" y="-1165.33" font-family="Times,serif" font-size="14.00">x</text>
</g>
<!-- Start&#45;&gt;quake.x(0)@t0 -->
<g id="edge1" class="edge">
<title>Start&#45;&gt;quake.x(0)@t0</title>
<path fill="none" stroke="black" d="M260.11,-1231.21C234.01,-1220.85 191.89,-1203.83 156,-1188 154.68,-1187.42 153.34,-1186.82 151.99,-1186.21"/>
<polygon fill="black" stroke="black" points="153.54,-1183.07 142.99,-1182.06 150.61,-1189.43 153.54,-1183.07"/>
</g>
<!-- quake.y(1)@t1 -->
<g id="node4" class="node">
<title>quake.y(1)@t1</title>
<ellipse fill="none" stroke="black" cx="192" cy="-1170" rx="27" ry="18"/>
<text xml:space="preserve" text-anchor="middle" x="192" y="-1165.33" font-family="Times,serif" font-size="14.00">y</text>
</g>
<!-- Start&#45;&gt;quake.y(1)@t1 -->
<g id="edge2" class="edge">
<title>Start&#45;&gt;quake.y(1)@t1</title>
<path fill="none" stroke="black" d="M267.07,-1227.5C253.34,-1217.17 234.2,-1202.76 218.68,-1191.08"/>
<polygon fill="black" stroke="black" points="220.86,-1188.35 210.77,-1185.13 216.66,-1193.94 220.86,-1188.35"/>
</g>
<!-- quake.z(2)@t2 -->
<g id="node5" class="node">
<title>quake.z(2)@t2</title>
<ellipse fill="none" stroke="black" cx="225" cy="-1026" rx="27" ry="18"/>
<text xml:space="preserve" text-anchor="middle" x="225" y="-1021.33" font-family="Times,serif" font-size="14.00">z</text>
</g>
<!-- Start&#45;&gt;quake.z(2)@t2 -->
<g id="edge3" class="edge">
<title>Start&#45;&gt;quake.z(2)@t2</title>
<path fill="none" stroke="black" d="M280.19,-1223.85C269.85,-1186.98 245.43,-1099.86 232.83,-1054.91"/>
<polygon fill="black" stroke="black" points="236.23,-1054.08 230.16,-1045.39 229.49,-1055.97 236.23,-1054.08"/>
</g>
<!-- quake.h(3)@t3 -->
<g id="node6" class="node">
<title>quake.h(3)@t3</title>
<ellipse fill="none" stroke="black" cx="82" cy="-954" rx="27" ry="18"/>
<text xml:space="preserve" text-anchor="middle" x="82" y="-949.33" font-family="Times,serif" font-size="14.00">h</text>
</g>
<!-- Start&#45;&gt;quake.h(3)@t3 -->
<g id="edge4" class="edge">
<title>Start&#45;&gt;quake.h(3)@t3</title>
<path fill="none" stroke="black" d="M255.61,-1237.59C205.04,-1231.07 104.99,-1215 84,-1188 37.31,-1127.94 58.14,-1030.38 72.48,-982.83"/>
<polygon fill="black" stroke="black" points="75.81,-983.9 75.49,-973.31 69.14,-981.79 75.81,-983.9"/>
</g>
<!-- quake.ct(1,4)@t12 -->
<g id="node15" class="node">
<title>quake.ct(1,4)@t12</title>
<ellipse fill="none" stroke="black" cx="231" cy="-882" rx="27" ry="18"/>
<text xml:space="preserve" text-anchor="middle" x="231" y="-877.33" font-family="Times,serif" font-size="14.00">ct</text>
</g>
<!-- Start&#45;&gt;quake.ct(1,4)@t12 -->
<g id="edge20" class="edge">
<title>Start&#45;&gt;quake.ct(1,4)@t12</title>
<path fill="none" stroke="black" d="M285,-1223.51C285,-1196.71 285,-1143.87 285,-1099 285,-1099 285,-1099 285,-1025 285,-981.97 263.07,-936.11 247.16,-908.5"/>
<polygon fill="black" stroke="black" points="250.31,-906.96 242.19,-900.16 244.3,-910.55 250.31,-906.96"/>
</g>
<!-- quake.exp_pauli(5,6,7,8)@t27 params=(0.5, &#39;XZYI&#39;) -->
<g id="node30" class="node">
<title>quake.exp_pauli(5,6,7,8)@t27 params=(0.5, &#39;XZYI&#39;)</title>
<ellipse fill="none" stroke="black" cx="363" cy="-1170" rx="49.63" ry="18"/>
<text xml:space="preserve" text-anchor="middle" x="363" y="-1165.33" font-family="Times,serif" font-size="14.00">exp_pauli</text>
</g>
<!-- Start&#45;&gt;quake.exp_pauli(5,6,7,8)@t27 params=(0.5, &#39;XZYI&#39;) -->
<g id="edge40" class="edge">
<title>Start&#45;&gt;quake.exp_pauli(5,6,7,8)@t27 params=(0.5, &#39;XZYI&#39;)</title>
<path fill="none" stroke="black" d="M286.53,-1223.7C294.55,-1213.73 308.31,-1201.17 322.47,-1190.81"/>
<polygon fill="black" stroke="black" points="324.3,-1193.81 330.53,-1185.24 320.31,-1188.05 324.3,-1193.81"/>
</g>
<!-- Start&#45;&gt;quake.exp_pauli(5,6,7,8)@t27 params=(0.5, &#39;XZYI&#39;) -->
<g id="edge41" class="edge">
<title>Start&#45;&gt;quake.exp_pauli(5,6,7,8)@t27 params=(0.5, &#39;XZYI&#39;)</title>
<path fill="none" stroke="black" d="M296.94,-1225.12C306.28,-1215.77 319.42,-1203.79 331.59,-1193.49"/>
<polygon fill="black" stroke="black" points="333.58,-1196.38 339.04,-1187.31 329.11,-1191 333.58,-1196.38"/>
</g>
<!-- Start&#45;&gt;quake.exp_pauli(5,6,7,8)@t27 params=(0.5, &#39;XZYI&#39;) -->
<g id="edge42" class="edge">
<title>Start&#45;&gt;quake.exp_pauli(5,6,7,8)@t27 params=(0.5, &#39;XZYI&#39;)</title>
<path fill="none" stroke="black" d="M304.67,-1228.16C316.2,-1219.01 330.59,-1206.44 342.27,-1195.41"/>
<polygon fill="black" stroke="black" points="344.38,-1198.24 349.13,-1188.77 339.51,-1193.21 344.38,-1198.24"/>
</g>
<!-- Start&#45;&gt;quake.exp_pauli(5,6,7,8)@t27 params=(0.5, &#39;XZYI&#39;) -->
<g id="edge43" class="edge">
<title>Start&#45;&gt;quake.exp_pauli(5,6,7,8)@t27 params=(0.5, &#39;XZYI&#39;)</title>
<path fill="none" stroke="black" d="M309.89,-1231.56C325,-1222.67 342.04,-1208.95 353.86,-1196.81"/>
<polygon fill="black" stroke="black" points="356.36,-1199.26 360.43,-1189.47 351.15,-1194.59 356.36,-1199.26"/>
</g>
<!-- End -->
<g id="node2" class="node">
<title>End</title>
<ellipse fill="red" stroke="red" cx="289" cy="-18" rx="27.53" ry="18"/>
<text xml:space="preserve" text-anchor="middle" x="289" y="-13.32" font-family="Times,serif" font-size="14.00">End</text>
</g>
<!-- quake.s(0)@t4 -->
<g id="node7" class="node">
<title>quake.s(0)@t4</title>
<ellipse fill="none" stroke="black" cx="120" cy="-1098" rx="27" ry="18"/>
<text xml:space="preserve" text-anchor="middle" x="120" y="-1093.33" font-family="Times,serif" font-size="14.00">s</text>
</g>
<!-- quake.x(0)@t0&#45;&gt;quake.s(0)@t4 -->
<g id="edge5" class="edge">
<title>quake.x(0)@t0&#45;&gt;quake.s(0)@t4</title>
<path fill="none" stroke="black" d="M120,-1151.7C120,-1144.41 120,-1135.73 120,-1127.54"/>
<polygon fill="black" stroke="black" points="123.5,-1127.62 120,-1117.62 116.5,-1127.62 123.5,-1127.62"/>
</g>
<!-- quake.t(1)@t5 -->
<g id="node8" class="node">
<title>quake.t(1)@t5</title>
<ellipse fill="none" stroke="black" cx="192" cy="-1098" rx="27" ry="18"/>
<text xml:space="preserve" text-anchor="middle" x="192" y="-1093.33" font-family="Times,serif" font-size="14.00">t</text>
</g>
<!-- quake.y(1)@t1&#45;&gt;quake.t(1)@t5 -->
<g id="edge6" class="edge">
<title>quake.y(1)@t1&#45;&gt;quake.t(1)@t5</title>
<path fill="none" stroke="black" d="M192,-1151.7C192,-1144.41 192,-1135.73 192,-1127.54"/>
<polygon fill="black" stroke="black" points="195.5,-1127.62 192,-1117.62 188.5,-1127.62 195.5,-1127.62"/>
</g>
<!-- quake.cy(1,2)@t7 -->
<g id="node10" class="node">
<title>quake.cy(1,2)@t7</title>
<ellipse fill="none" stroke="black" cx="219" cy="-954" rx="27" ry="18"/>
<text xml:space="preserve" text-anchor="middle" x="219" y="-949.33" font-family="Times,serif" font-size="14.00">cy</text>
</g>
<!-- quake.z(2)@t2&#45;&gt;quake.cy(1,2)@t7 -->
<g id="edge10" class="edge">
<title>quake.z(2)@t2&#45;&gt;quake.cy(1,2)@t7</title>
<path fill="none" stroke="black" d="M223.52,-1007.7C222.89,-1000.41 222.15,-991.73 221.45,-983.54"/>
<polygon fill="black" stroke="black" points="224.94,-983.28 220.6,-973.61 217.96,-983.87 224.94,-983.28"/>
</g>
<!-- quake.cz(2,3)@t8 -->
<g id="node11" class="node">
<title>quake.cz(2,3)@t8</title>
<ellipse fill="none" stroke="black" cx="90" cy="-882" rx="27" ry="18"/>
<text xml:space="preserve" text-anchor="middle" x="90" y="-877.33" font-family="Times,serif" font-size="14.00">cz</text>
</g>
<!-- quake.h(3)@t3&#45;&gt;quake.cz(2,3)@t8 -->
<g id="edge12" class="edge">
<title>quake.h(3)@t3&#45;&gt;quake.cz(2,3)@t8</title>
<path fill="none" stroke="black" d="M83.98,-935.7C84.81,-928.41 85.8,-919.73 86.74,-911.54"/>
<polygon fill="black" stroke="black" points="90.22,-911.94 87.87,-901.61 83.26,-911.15 90.22,-911.94"/>
</g>
<!-- quake.cx(0,1)@t6 -->
<g id="node9" class="node">
<title>quake.cx(0,1)@t6</title>
<ellipse fill="none" stroke="black" cx="150" cy="-1026" rx="27" ry="18"/>
<text xml:space="preserve" text-anchor="middle" x="150" y="-1021.33" font-family="Times,serif" font-size="14.00">cx</text>
</g>
<!-- quake.s(0)@t4&#45;&gt;quake.cx(0,1)@t6 -->
<g id="edge7" class="edge">
<title>quake.s(0)@t4&#45;&gt;quake.cx(0,1)@t6</title>
<path fill="none" stroke="black" d="M127.11,-1080.41C130.51,-1072.48 134.67,-1062.78 138.5,-1053.84"/>
<polygon fill="black" stroke="black" points="141.62,-1055.43 142.35,-1044.86 135.19,-1052.67 141.62,-1055.43"/>
</g>
<!-- quake.t(1)@t5&#45;&gt;quake.cx(0,1)@t6 -->
<g id="edge8" class="edge">
<title>quake.t(1)@t5&#45;&gt;quake.cx(0,1)@t6</title>
<path fill="none" stroke="black" d="M182.26,-1080.76C177.28,-1072.46 171.09,-1062.15 165.48,-1052.79"/>
<polygon fill="black" stroke="black" points="168.61,-1051.22 160.47,-1044.45 162.61,-1054.82 168.61,-1051.22"/>
</g>
<!-- quake.cx(0,1)@t6&#45;&gt;quake.cy(1,2)@t7 -->
<g id="edge9" class="edge">
<title>quake.cx(0,1)@t6&#45;&gt;quake.cy(1,2)@t7</title>
<path fill="none" stroke="black" d="M164.3,-1010.5C173.64,-1001.02 186.04,-988.44 196.67,-977.66"/>
<polygon fill="black" stroke="black" points="199.13,-980.14 203.66,-970.56 194.15,-975.23 199.13,-980.14"/>
</g>
<!-- quake.ch(0,2)@t9 -->
<g id="node12" class="node">
<title>quake.ch(0,2)@t9</title>
<ellipse fill="none" stroke="black" cx="135" cy="-810" rx="27" ry="18"/>
<text xml:space="preserve" text-anchor="middle" x="135" y="-805.33" font-family="Times,serif" font-size="14.00">ch</text>
</g>
<!-- quake.cx(0,1)@t6&#45;&gt;quake.ch(0,2)@t9 -->
<g id="edge13" class="edge">
<title>quake.cx(0,1)@t6&#45;&gt;quake.ch(0,2)@t9</title>
<path fill="none" stroke="black" d="M148.8,-1007.85C146.23,-971.14 140.16,-884.66 137,-839.53"/>
<polygon fill="black" stroke="black" points="140.5,-839.47 136.31,-829.74 133.52,-839.96 140.5,-839.47"/>
</g>
<!-- quake.cy(1,2)@t7&#45;&gt;quake.cz(2,3)@t8 -->
<g id="edge11" class="edge">
<title>quake.cy(1,2)@t7&#45;&gt;quake.cz(2,3)@t8</title>
<path fill="none" stroke="black" d="M198.56,-941.91C177.52,-930.49 144.49,-912.57 120.39,-899.49"/>
<polygon fill="black" stroke="black" points="122.13,-896.45 111.68,-894.76 118.8,-902.61 122.13,-896.45"/>
</g>
<!-- quake.cy(1,2)@t7&#45;&gt;quake.ct(1,4)@t12 -->
<g id="edge19" class="edge">
<title>quake.cy(1,2)@t7&#45;&gt;quake.ct(1,4)@t12</title>
<path fill="none" stroke="black" d="M221.97,-935.7C223.23,-928.32 224.74,-919.52 226.16,-911.25"/>
<polygon fill="black" stroke="black" points="229.57,-912.04 227.81,-901.6 222.67,-910.86 229.57,-912.04"/>
</g>
<!-- quake.cz(2,3)@t8&#45;&gt;quake.ch(0,2)@t9 -->
<g id="edge14" class="edge">
<title>quake.cz(2,3)@t8&#45;&gt;quake.ch(0,2)@t9</title>
<path fill="none" stroke="black" d="M100.21,-865.12C105.68,-856.61 112.54,-845.94 118.72,-836.32"/>
<polygon fill="black" stroke="black" points="121.55,-838.4 124.01,-828.09 115.66,-834.61 121.55,-838.4"/>
</g>
<!-- quake.swap(2,3)@t10 -->
<g id="node13" class="node">
<title>quake.swap(2,3)@t10</title>
<ellipse fill="none" stroke="black" cx="76" cy="-738" rx="30.69" ry="18"/>
<text xml:space="preserve" text-anchor="middle" x="76" y="-733.33" font-family="Times,serif" font-size="14.00">swap</text>
</g>
<!-- quake.cz(2,3)@t8&#45;&gt;quake.swap(2,3)@t10 -->
<g id="edge16" class="edge">
<title>quake.cz(2,3)@t8&#45;&gt;quake.swap(2,3)@t10</title>
<path fill="none" stroke="black" d="M88.28,-863.59C85.92,-839.61 81.63,-796.14 78.8,-767.42"/>
<polygon fill="black" stroke="black" points="82.3,-767.23 77.84,-757.62 75.33,-767.91 82.3,-767.23"/>
</g>
<!-- quake.ch(0,2)@t9&#45;&gt;quake.swap(2,3)@t10 -->
<g id="edge15" class="edge">
<title>quake.ch(0,2)@t9&#45;&gt;quake.swap(2,3)@t10</title>
<path fill="none" stroke="black" d="M122.2,-793.81C114.65,-784.85 104.92,-773.32 96.35,-763.14"/>
<polygon fill="black" stroke="black" points="99.28,-761.19 90.16,-755.8 93.93,-765.7 99.28,-761.19"/>
</g>
<!-- quake.cs(0,3)@t11 -->
<g id="node14" class="node">
<title>quake.cs(0,3)@t11</title>
<ellipse fill="none" stroke="black" cx="123" cy="-666" rx="27" ry="18"/>
<text xml:space="preserve" text-anchor="middle" x="123" y="-661.33" font-family="Times,serif" font-size="14.00">cs</text>
</g>
<!-- quake.ch(0,2)@t9&#45;&gt;quake.cs(0,3)@t11 -->
<g id="edge17" class="edge">
<title>quake.ch(0,2)@t9&#45;&gt;quake.cs(0,3)@t11</title>
<path fill="none" stroke="black" d="M133.53,-791.59C131.5,-767.61 127.83,-724.14 125.4,-695.42"/>
<polygon fill="black" stroke="black" points="128.9,-695.29 124.57,-685.62 121.93,-695.88 128.9,-695.29"/>
</g>
<!-- quake.swap(2,3)@t10&#45;&gt;quake.cs(0,3)@t11 -->
<g id="edge18" class="edge">
<title>quake.swap(2,3)@t10&#45;&gt;quake.cs(0,3)@t11</title>
<path fill="none" stroke="black" d="M86.9,-720.76C92.62,-712.25 99.74,-701.64 106.15,-692.09"/>
<polygon fill="black" stroke="black" points="108.97,-694.18 111.64,-683.92 103.16,-690.27 108.97,-694.18"/>
</g>
<!-- quake.rz(2)@t15 params=(0.1,) -->
<g id="node18" class="node">
<title>quake.rz(2)@t15 params=(0.1,)</title>
<ellipse fill="none" stroke="black" cx="44" cy="-450" rx="27" ry="18"/>
<text xml:space="preserve" text-anchor="middle" x="44" y="-445.32" font-family="Times,serif" font-size="14.00">rz</text>
</g>
<!-- quake.swap(2,3)@t10&#45;&gt;quake.rz(2)@t15 params=(0.1,) -->
<g id="edge23" class="edge">
<title>quake.swap(2,3)@t10&#45;&gt;quake.rz(2)@t15 params=(0.1,)</title>
<path fill="none" stroke="black" d="M74.05,-719.54C68.7,-671.76 53.79,-538.51 47.2,-479.61"/>
<polygon fill="black" stroke="black" points="50.69,-479.28 46.1,-469.74 43.73,-480.06 50.69,-479.28"/>
</g>
<!-- quake.rx(0)@t13 params=(0.1,) -->
<g id="node16" class="node">
<title>quake.rx(0)@t13 params=(0.1,)</title>
<ellipse fill="none" stroke="black" cx="171" cy="-594" rx="27" ry="18"/>
<text xml:space="preserve" text-anchor="middle" x="171" y="-589.33" font-family="Times,serif" font-size="14.00">rx</text>
</g>
<!-- quake.cs(0,3)@t11&#45;&gt;quake.rx(0)@t13 params=(0.1,) -->
<g id="edge21" class="edge">
<title>quake.cs(0,3)@t11&#45;&gt;quake.rx(0)@t13 params=(0.1,)</title>
<path fill="none" stroke="black" d="M133.89,-649.12C139.78,-640.52 147.2,-629.72 153.84,-620.02"/>
<polygon fill="black" stroke="black" points="156.53,-622.3 159.3,-612.07 150.75,-618.34 156.53,-622.3"/>
</g>
<!-- quake.r1(3)@t16 params=(0.1,) -->
<g id="node19" class="node">
<title>quake.r1(3)@t16 params=(0.1,)</title>
<ellipse fill="none" stroke="black" cx="99" cy="-594" rx="27" ry="18"/>
<text xml:space="preserve" text-anchor="middle" x="99" y="-589.33" font-family="Times,serif" font-size="14.00">r1</text>
</g>
<!-- quake.cs(0,3)@t11&#45;&gt;quake.r1(3)@t16 params=(0.1,) -->
<g id="edge24" class="edge">
<title>quake.cs(0,3)@t11&#45;&gt;quake.r1(3)@t16 params=(0.1,)</title>
<path fill="none" stroke="black" d="M117.19,-648.05C114.57,-640.4 111.4,-631.16 108.45,-622.56"/>
<polygon fill="black" stroke="black" points="111.8,-621.55 105.25,-613.22 105.18,-623.82 111.8,-621.55"/>
</g>
<!-- quake.ry(1)@t14 params=(0.1,) -->
<g id="node17" class="node">
<title>quake.ry(1)@t14 params=(0.1,)</title>
<ellipse fill="none" stroke="black" cx="226" cy="-810" rx="27" ry="18"/>
<text xml:space="preserve" text-anchor="middle" x="226" y="-805.33" font-family="Times,serif" font-size="14.00">ry</text>
</g>
<!-- quake.ct(1,4)@t12&#45;&gt;quake.ry(1)@t14 params=(0.1,) -->
<g id="edge22" class="edge">
<title>quake.ct(1,4)@t12&#45;&gt;quake.ry(1)@t14 params=(0.1,)</title>
<path fill="none" stroke="black" d="M229.76,-863.7C229.24,-856.41 228.62,-847.73 228.04,-839.54"/>
<polygon fill="black" stroke="black" points="231.53,-839.34 227.33,-829.61 224.55,-839.84 231.53,-839.34"/>
</g>
<!-- quake.rz(4)@t17 params=(1.5707963267948966,) -->
<g id="node20" class="node">
<title>quake.rz(4)@t17 params=(1.5707963267948966,)</title>
<ellipse fill="none" stroke="black" cx="281" cy="-522" rx="27" ry="18"/>
<text xml:space="preserve" text-anchor="middle" x="281" y="-517.33" font-family="Times,serif" font-size="14.00">rz</text>
</g>
<!-- quake.ct(1,4)@t12&#45;&gt;quake.rz(4)@t17 params=(1.5707963267948966,) -->
<g id="edge25" class="edge">
<title>quake.ct(1,4)@t12&#45;&gt;quake.rz(4)@t17 params=(1.5707963267948966,)</title>
<path fill="none" stroke="black" d="M241.89,-865.44C248.59,-855.22 256.84,-841.32 262,-828 276.62,-790.29 281,-779.45 281,-739 281,-739 281,-739 281,-665 281,-625.74 281,-580.38 281,-551.69"/>
<polygon fill="black" stroke="black" points="284.5,-552 281,-542 277.5,-552 284.5,-552"/>
</g>
<!-- quake.rz(0)@t18 params=(0.7853981633974483,) -->
<g id="node21" class="node">
<title>quake.rz(0)@t18 params=(0.7853981633974483,)</title>
<ellipse fill="none" stroke="black" cx="171" cy="-522" rx="27" ry="18"/>
<text xml:space="preserve" text-anchor="middle" x="171" y="-517.33" font-family="Times,serif" font-size="14.00">rz</text>
</g>
<!-- quake.rx(0)@t13 params=(0.1,)&#45;&gt;quake.rz(0)@t18 params=(0.7853981633974483,) -->
<g id="edge26" class="edge">
<title>quake.rx(0)@t13 params=(0.1,)&#45;&gt;quake.rz(0)@t18 params=(0.7853981633974483,)</title>
<path fill="none" stroke="black" d="M171,-575.7C171,-568.41 171,-559.73 171,-551.54"/>
<polygon fill="black" stroke="black" points="174.5,-551.62 171,-541.62 167.5,-551.62 174.5,-551.62"/>
</g>
<!-- quake.crx(0,1)@t19 params=(0.1,) -->
<g id="node22" class="node">
<title>quake.crx(0,1)@t19 params=(0.1,)</title>
<ellipse fill="none" stroke="black" cx="177" cy="-450" rx="27" ry="18"/>
<text xml:space="preserve" text-anchor="middle" x="177" y="-445.32" font-family="Times,serif" font-size="14.00">crx</text>
</g>
<!-- quake.ry(1)@t14 params=(0.1,)&#45;&gt;quake.crx(0,1)@t19 params=(0.1,) -->
<g id="edge28" class="edge">
<title>quake.ry(1)@t14 params=(0.1,)&#45;&gt;quake.crx(0,1)@t19 params=(0.1,)</title>
<path fill="none" stroke="black" d="M226,-791.51C226,-764.71 226,-711.87 226,-667 226,-667 226,-667 226,-593 226,-552.55 221.35,-541.82 207,-504 203.43,-494.58 198.36,-484.83 193.4,-476.31"/>
<polygon fill="black" stroke="black" points="196.49,-474.64 188.31,-467.91 190.5,-478.27 196.49,-474.64"/>
</g>
<!-- quake.cry(1,2)@t20 params=(0.1,) -->
<g id="node23" class="node">
<title>quake.cry(1,2)@t20 params=(0.1,)</title>
<ellipse fill="none" stroke="black" cx="44" cy="-378" rx="27" ry="18"/>
<text xml:space="preserve" text-anchor="middle" x="44" y="-373.32" font-family="Times,serif" font-size="14.00">cry</text>
</g>
<!-- quake.rz(2)@t15 params=(0.1,)&#45;&gt;quake.cry(1,2)@t20 params=(0.1,) -->
<g id="edge30" class="edge">
<title>quake.rz(2)@t15 params=(0.1,)&#45;&gt;quake.cry(1,2)@t20 params=(0.1,)</title>
<path fill="none" stroke="black" d="M44,-431.7C44,-424.41 44,-415.73 44,-407.54"/>
<polygon fill="black" stroke="black" points="47.5,-407.62 44,-397.62 40.5,-407.62 47.5,-407.62"/>
</g>
<!-- quake.crz(2,3)@t21 params=(0.1,) -->
<g id="node24" class="node">
<title>quake.crz(2,3)@t21 params=(0.1,)</title>
<ellipse fill="none" stroke="black" cx="99" cy="-306" rx="27" ry="18"/>
<text xml:space="preserve" text-anchor="middle" x="99" y="-301.32" font-family="Times,serif" font-size="14.00">crz</text>
</g>
<!-- quake.r1(3)@t16 params=(0.1,)&#45;&gt;quake.crz(2,3)@t21 params=(0.1,) -->
<g id="edge32" class="edge">
<title>quake.r1(3)@t16 params=(0.1,)&#45;&gt;quake.crz(2,3)@t21 params=(0.1,)</title>
<path fill="none" stroke="black" d="M99,-575.54C99,-527.76 99,-394.51 99,-335.61"/>
<polygon fill="black" stroke="black" points="102.5,-335.75 99,-325.75 95.5,-335.75 102.5,-335.75"/>
</g>
<!-- quake.cr1(3,4)@t22 params=(0.1,) -->
<g id="node25" class="node">
<title>quake.cr1(3,4)@t22 params=(0.1,)</title>
<ellipse fill="none" stroke="black" cx="281" cy="-162" rx="27" ry="18"/>
<text xml:space="preserve" text-anchor="middle" x="281" y="-157.32" font-family="Times,serif" font-size="14.00">cr1</text>
</g>
<!-- quake.rz(4)@t17 params=(1.5707963267948966,)&#45;&gt;quake.cr1(3,4)@t22 params=(0.1,) -->
<g id="edge34" class="edge">
<title>quake.rz(4)@t17 params=(1.5707963267948966,)&#45;&gt;quake.cr1(3,4)@t22 params=(0.1,)</title>
<path fill="none" stroke="black" d="M281,-503.51C281,-476.71 281,-423.87 281,-379 281,-379 281,-379 281,-305 281,-265.74 281,-220.38 281,-191.69"/>
<polygon fill="black" stroke="black" points="284.5,-192 281,-182 277.5,-192 284.5,-192"/>
</g>
<!-- quake.rz(0)@t18 params=(0.7853981633974483,)&#45;&gt;quake.crx(0,1)@t19 params=(0.1,) -->
<g id="edge27" class="edge">
<title>quake.rz(0)@t18 params=(0.7853981633974483,)&#45;&gt;quake.crx(0,1)@t19 params=(0.1,)</title>
<path fill="none" stroke="black" d="M172.48,-503.7C173.11,-496.41 173.85,-487.73 174.55,-479.54"/>
<polygon fill="black" stroke="black" points="178.04,-479.87 175.4,-469.61 171.06,-479.28 178.04,-479.87"/>
</g>
<!-- quake.crx(0,1)@t19 params=(0.1,)&#45;&gt;quake.cry(1,2)@t20 params=(0.1,) -->
<g id="edge29" class="edge">
<title>quake.crx(0,1)@t19 params=(0.1,)&#45;&gt;quake.cry(1,2)@t20 params=(0.1,)</title>
<path fill="none" stroke="black" d="M156.22,-438.06C134.36,-426.56 99.71,-408.32 74.7,-395.16"/>
<polygon fill="black" stroke="black" points="76.45,-392.13 65.97,-390.57 73.19,-398.32 76.45,-392.13"/>
</g>
<!-- quake.sdg(0)@t23 -->
<g id="node26" class="node">
<title>quake.sdg(0)@t23</title>
<ellipse fill="none" stroke="black" cx="182" cy="-378" rx="27" ry="18"/>
<text xml:space="preserve" text-anchor="middle" x="182" y="-373.32" font-family="Times,serif" font-size="14.00">sdg</text>
</g>
<!-- quake.crx(0,1)@t19 params=(0.1,)&#45;&gt;quake.sdg(0)@t23 -->
<g id="edge35" class="edge">
<title>quake.crx(0,1)@t19 params=(0.1,)&#45;&gt;quake.sdg(0)@t23</title>
<path fill="none" stroke="black" d="M178.24,-431.7C178.76,-424.41 179.38,-415.73 179.96,-407.54"/>
<polygon fill="black" stroke="black" points="183.45,-407.84 180.67,-397.61 176.47,-407.34 183.45,-407.84"/>
</g>
<!-- quake.cry(1,2)@t20 params=(0.1,)&#45;&gt;quake.crz(2,3)@t21 params=(0.1,) -->
<g id="edge31" class="edge">
<title>quake.cry(1,2)@t20 params=(0.1,)&#45;&gt;quake.crz(2,3)@t21 params=(0.1,)</title>
<path fill="none" stroke="black" d="M56.21,-361.46C63.11,-352.67 71.91,-341.48 79.73,-331.53"/>
<polygon fill="black" stroke="black" points="82.47,-333.71 85.89,-323.68 76.96,-329.38 82.47,-333.71"/>
</g>
<!-- quake.tdg(1)@t24 -->
<g id="node27" class="node">
<title>quake.tdg(1)@t24</title>
<ellipse fill="none" stroke="black" cx="27" cy="-306" rx="27" ry="18"/>
<text xml:space="preserve" text-anchor="middle" x="27" y="-301.32" font-family="Times,serif" font-size="14.00">tdg</text>
</g>
<!-- quake.cry(1,2)@t20 params=(0.1,)&#45;&gt;quake.tdg(1)@t24 -->
<g id="edge36" class="edge">
<title>quake.cry(1,2)@t20 params=(0.1,)&#45;&gt;quake.tdg(1)@t24</title>
<path fill="none" stroke="black" d="M39.88,-360.05C38.07,-352.6 35.9,-343.64 33.85,-335.22"/>
<polygon fill="black" stroke="black" points="37.31,-334.64 31.55,-325.75 30.51,-336.29 37.31,-334.64"/>
</g>
<!-- quake.crz(2,3)@t21 params=(0.1,)&#45;&gt;quake.cr1(3,4)@t22 params=(0.1,) -->
<g id="edge33" class="edge">
<title>quake.crz(2,3)@t21 params=(0.1,)&#45;&gt;quake.cr1(3,4)@t22 params=(0.1,)</title>
<path fill="none" stroke="black" d="M116.12,-291.64C148.1,-266.69 217.07,-212.88 254.89,-183.37"/>
<polygon fill="black" stroke="black" points="256.87,-186.27 262.6,-177.36 252.56,-180.75 256.87,-186.27"/>
</g>
<!-- quake.mz(2)@t31 -->
<g id="node34" class="node">
<title>quake.mz(2)@t31</title>
<ellipse fill="yellow" stroke="yellow" cx="99" cy="-234" rx="27" ry="18"/>
<text xml:space="preserve" text-anchor="middle" x="99" y="-229.32" font-family="Times,serif" font-size="14.00">mz</text>
</g>
<!-- quake.crz(2,3)@t21 params=(0.1,)&#45;&gt;quake.mz(2)@t31 -->
<g id="edge50" class="edge">
<title>quake.crz(2,3)@t21 params=(0.1,)&#45;&gt;quake.mz(2)@t31</title>
<path fill="none" stroke="black" d="M99,-287.7C99,-280.41 99,-271.73 99,-263.54"/>
<polygon fill="black" stroke="black" points="102.5,-263.62 99,-253.62 95.5,-263.62 102.5,-263.62"/>
</g>
<!-- quake.cr1(3,4)@t22 params=(0.1,)&#45;&gt;End -->
<g id="edge58" class="edge">
<title>quake.cr1(3,4)@t22 params=(0.1,)&#45;&gt;End</title>
<path fill="none" stroke="black" d="M277.38,-143.87C276.19,-119.86 278.36,-75.91 281.91,-47.08"/>
<polygon fill="black" stroke="black" points="285.37,-47.64 283.3,-37.25 278.44,-46.66 285.37,-47.64"/>
</g>
<!-- quake.cr1(3,4)@t22 params=(0.1,)&#45;&gt;End -->
<g id="edge59" class="edge">
<title>quake.cr1(3,4)@t22 params=(0.1,)&#45;&gt;End</title>
<path fill="none" stroke="black" d="M286.5,-144.15C290.39,-120.37 293.19,-76.62 292.93,-47.67"/>
<polygon fill="black" stroke="black" points="296.43,-47.68 292.67,-37.78 289.43,-47.87 296.43,-47.68"/>
</g>
<!-- quake.cu3(0,1)@t26 params=(0.2, 0.3, 0.4) -->
<g id="node29" class="node">
<title>quake.cu3(0,1)@t26 params=(0.2, 0.3, 0.4)</title>
<ellipse fill="none" stroke="black" cx="172" cy="-162" rx="27" ry="18"/>
<text xml:space="preserve" text-anchor="middle" x="172" y="-157.32" font-family="Times,serif" font-size="14.00">cu3</text>
</g>
<!-- quake.sdg(0)@t23&#45;&gt;quake.cu3(0,1)@t26 params=(0.2, 0.3, 0.4) -->
<g id="edge38" class="edge">
<title>quake.sdg(0)@t23&#45;&gt;quake.cu3(0,1)@t26 params=(0.2, 0.3, 0.4)</title>
<path fill="none" stroke="black" d="M181.2,-359.85C179.48,-323.14 175.44,-236.66 173.33,-191.53"/>
<polygon fill="black" stroke="black" points="176.84,-191.57 172.88,-181.74 169.85,-191.9 176.84,-191.57"/>
</g>
<!-- quake.u3(1)@t25 params=(0.2, 0.3, 0.4) -->
<g id="node28" class="node">
<title>quake.u3(1)@t25 params=(0.2, 0.3, 0.4)</title>
<ellipse fill="none" stroke="black" cx="27" cy="-234" rx="27" ry="18"/>
<text xml:space="preserve" text-anchor="middle" x="27" y="-229.32" font-family="Times,serif" font-size="14.00">u3</text>
</g>
<!-- quake.tdg(1)@t24&#45;&gt;quake.u3(1)@t25 params=(0.2, 0.3, 0.4) -->
<g id="edge37" class="edge">
<title>quake.tdg(1)@t24&#45;&gt;quake.u3(1)@t25 params=(0.2, 0.3, 0.4)</title>
<path fill="none" stroke="black" d="M27,-287.7C27,-280.41 27,-271.73 27,-263.54"/>
<polygon fill="black" stroke="black" points="30.5,-263.62 27,-253.62 23.5,-263.62 30.5,-263.62"/>
</g>
<!-- quake.u3(1)@t25 params=(0.2, 0.3, 0.4)&#45;&gt;quake.cu3(0,1)@t26 params=(0.2, 0.3, 0.4) -->
<g id="edge39" class="edge">
<title>quake.u3(1)@t25 params=(0.2, 0.3, 0.4)&#45;&gt;quake.cu3(0,1)@t26 params=(0.2, 0.3, 0.4)</title>
<path fill="none" stroke="black" d="M48.4,-222.67C72.7,-210.94 112.61,-191.67 140.48,-178.22"/>
<polygon fill="black" stroke="black" points="141.67,-181.53 149.15,-174.03 138.63,-175.22 141.67,-181.53"/>
</g>
<!-- quake.mx(0)@t29 -->
<g id="node32" class="node">
<title>quake.mx(0)@t29</title>
<ellipse fill="yellow" stroke="yellow" cx="153" cy="-90" rx="27" ry="18"/>
<text xml:space="preserve" text-anchor="middle" x="153" y="-85.33" font-family="Times,serif" font-size="14.00">mx</text>
</g>
<!-- quake.cu3(0,1)@t26 params=(0.2, 0.3, 0.4)&#45;&gt;quake.mx(0)@t29 -->
<g id="edge48" class="edge">
<title>quake.cu3(0,1)@t26 params=(0.2, 0.3, 0.4)&#45;&gt;quake.mx(0)@t29</title>
<path fill="none" stroke="black" d="M167.4,-144.05C165.35,-136.49 162.87,-127.37 160.56,-118.85"/>
<polygon fill="black" stroke="black" points="163.95,-117.98 157.95,-109.25 157.2,-119.82 163.95,-117.98"/>
</g>
<!-- quake.my(1)@t30 -->
<g id="node33" class="node">
<title>quake.my(1)@t30</title>
<ellipse fill="yellow" stroke="yellow" cx="225" cy="-90" rx="27" ry="18"/>
<text xml:space="preserve" text-anchor="middle" x="225" y="-85.33" font-family="Times,serif" font-size="14.00">my</text>
</g>
<!-- quake.cu3(0,1)@t26 params=(0.2, 0.3, 0.4)&#45;&gt;quake.my(1)@t30 -->
<g id="edge49" class="edge">
<title>quake.cu3(0,1)@t26 params=(0.2, 0.3, 0.4)&#45;&gt;quake.my(1)@t30</title>
<path fill="none" stroke="black" d="M183.76,-145.46C190.42,-136.67 198.89,-125.48 206.43,-115.53"/>
<polygon fill="black" stroke="black" points="209.11,-117.78 212.36,-107.7 203.53,-113.56 209.11,-117.78"/>
</g>
<!-- quake.exp_pauli(5,6,7,8)@t28 params=(0.5, &#39;XYZI&#39;) -->
<g id="node31" class="node">
<title>quake.exp_pauli(5,6,7,8)@t28 params=(0.5, &#39;XYZI&#39;)</title>
<ellipse fill="none" stroke="black" cx="363" cy="-1098" rx="49.63" ry="18"/>
<text xml:space="preserve" text-anchor="middle" x="363" y="-1093.33" font-family="Times,serif" font-size="14.00">exp_pauli</text>
</g>
<!-- quake.exp_pauli(5,6,7,8)@t27 params=(0.5, &#39;XZYI&#39;)&#45;&gt;quake.exp_pauli(5,6,7,8)@t28 params=(0.5, &#39;XYZI&#39;) -->
<g id="edge44" class="edge">
<title>quake.exp_pauli(5,6,7,8)@t27 params=(0.5, &#39;XZYI&#39;)&#45;&gt;quake.exp_pauli(5,6,7,8)@t28 params=(0.5, &#39;XYZI&#39;)</title>
<path fill="none" stroke="black" d="M345.6,-1152.76C342.95,-1144.9 342.15,-1135.24 343.19,-1126.29"/>
<polygon fill="black" stroke="black" points="346.59,-1127.14 345.3,-1116.63 339.75,-1125.65 346.59,-1127.14"/>
</g>
<!-- quake.exp_pauli(5,6,7,8)@t27 params=(0.5, &#39;XZYI&#39;)&#45;&gt;quake.exp_pauli(5,6,7,8)@t28 params=(0.5, &#39;XYZI&#39;) -->
<g id="edge45" class="edge">
<title>quake.exp_pauli(5,6,7,8)@t27 params=(0.5, &#39;XZYI&#39;)&#45;&gt;quake.exp_pauli(5,6,7,8)@t28 params=(0.5, &#39;XYZI&#39;)</title>
<path fill="none" stroke="black" d="M357.08,-1151.7C356.33,-1144.41 356.09,-1135.73 356.35,-1127.54"/>
<polygon fill="black" stroke="black" points="359.84,-1127.82 357.01,-1117.61 352.86,-1127.36 359.84,-1127.82"/>
</g>
<!-- quake.exp_pauli(5,6,7,8)@t27 params=(0.5, &#39;XZYI&#39;)&#45;&gt;quake.exp_pauli(5,6,7,8)@t28 params=(0.5, &#39;XYZI&#39;) -->
<g id="edge46" class="edge">
<title>quake.exp_pauli(5,6,7,8)@t27 params=(0.5, &#39;XZYI&#39;)&#45;&gt;quake.exp_pauli(5,6,7,8)@t28 params=(0.5, &#39;XYZI&#39;)</title>
<path fill="none" stroke="black" d="M368.92,-1151.7C369.67,-1144.41 369.91,-1135.73 369.65,-1127.54"/>
<polygon fill="black" stroke="black" points="373.14,-1127.36 368.99,-1117.61 366.16,-1127.82 373.14,-1127.36"/>
</g>
<!-- quake.exp_pauli(5,6,7,8)@t27 params=(0.5, &#39;XZYI&#39;)&#45;&gt;quake.exp_pauli(5,6,7,8)@t28 params=(0.5, &#39;XYZI&#39;) -->
<g id="edge47" class="edge">
<title>quake.exp_pauli(5,6,7,8)@t27 params=(0.5, &#39;XZYI&#39;)&#45;&gt;quake.exp_pauli(5,6,7,8)@t28 params=(0.5, &#39;XYZI&#39;)</title>
<path fill="none" stroke="black" d="M380.4,-1152.76C383.05,-1144.9 383.85,-1135.24 382.81,-1126.29"/>
<polygon fill="black" stroke="black" points="386.25,-1125.65 380.7,-1116.63 379.41,-1127.14 386.25,-1125.65"/>
</g>
<!-- quake.mx(5,6,7,8)@t32 -->
<g id="node35" class="node">
<title>quake.mx(5,6,7,8)@t32</title>
<ellipse fill="yellow" stroke="yellow" cx="363" cy="-738" rx="27" ry="18"/>
<text xml:space="preserve" text-anchor="middle" x="363" y="-733.33" font-family="Times,serif" font-size="14.00">mx</text>
</g>
<!-- quake.exp_pauli(5,6,7,8)@t28 params=(0.5, &#39;XYZI&#39;)&#45;&gt;quake.mx(5,6,7,8)@t32 -->
<g id="edge51" class="edge">
<title>quake.exp_pauli(5,6,7,8)@t28 params=(0.5, &#39;XYZI&#39;)&#45;&gt;quake.mx(5,6,7,8)@t32</title>
<path fill="none" stroke="black" d="M346.19,-1080.82C336,-1054.45 336,-1000.61 336,-955 336,-955 336,-955 336,-881 336,-839.8 336,-791.87 343.51,-763.56"/>
<polygon fill="black" stroke="black" points="346.81,-764.73 346.73,-754.14 340.19,-762.48 346.81,-764.73"/>
</g>
<!-- quake.exp_pauli(5,6,7,8)@t28 params=(0.5, &#39;XYZI&#39;)&#45;&gt;quake.mx(5,6,7,8)@t32 -->
<g id="edge52" class="edge">
<title>quake.exp_pauli(5,6,7,8)@t28 params=(0.5, &#39;XYZI&#39;)&#45;&gt;quake.mx(5,6,7,8)@t32</title>
<path fill="none" stroke="black" d="M357.29,-1079.95C354,-1053.29 354,-1000.11 354,-955 354,-955 354,-955 354,-881 354,-841.52 354,-795.88 356.2,-767.22"/>
<polygon fill="black" stroke="black" points="359.66,-767.85 357.14,-757.56 352.69,-767.17 359.66,-767.85"/>
</g>
<!-- quake.exp_pauli(5,6,7,8)@t28 params=(0.5, &#39;XYZI&#39;)&#45;&gt;quake.mx(5,6,7,8)@t32 -->
<g id="edge53" class="edge">
<title>quake.exp_pauli(5,6,7,8)@t28 params=(0.5, &#39;XYZI&#39;)&#45;&gt;quake.mx(5,6,7,8)@t32</title>
<path fill="none" stroke="black" d="M368.71,-1079.95C372,-1053.29 372,-1000.11 372,-955 372,-955 372,-955 372,-881 372,-841.52 372,-795.88 369.8,-767.22"/>
<polygon fill="black" stroke="black" points="373.31,-767.17 368.86,-757.56 366.34,-767.85 373.31,-767.17"/>
</g>
<!-- quake.exp_pauli(5,6,7,8)@t28 params=(0.5, &#39;XYZI&#39;)&#45;&gt;quake.mx(5,6,7,8)@t32 -->
<g id="edge54" class="edge">
<title>quake.exp_pauli(5,6,7,8)@t28 params=(0.5, &#39;XYZI&#39;)&#45;&gt;quake.mx(5,6,7,8)@t32</title>
<path fill="none" stroke="black" d="M379.81,-1080.82C390,-1054.45 390,-1000.61 390,-955 390,-955 390,-955 390,-881 390,-839.8 390,-791.87 382.49,-763.56"/>
<polygon fill="black" stroke="black" points="385.81,-762.48 379.27,-754.14 379.19,-764.73 385.81,-762.48"/>
</g>
<!-- quake.mx(0)@t29&#45;&gt;End -->
<g id="edge55" class="edge">
<title>quake.mx(0)@t29&#45;&gt;End</title>
<path fill="none" stroke="black" d="M173.95,-78.22C196.35,-66.69 232.1,-48.29 257.81,-35.05"/>
<polygon fill="black" stroke="black" points="259.16,-38.29 266.45,-30.6 255.96,-32.07 259.16,-38.29"/>
</g>
<!-- quake.my(1)@t30&#45;&gt;End -->
<g id="edge56" class="edge">
<title>quake.my(1)@t30&#45;&gt;End</title>
<path fill="none" stroke="black" d="M238.57,-74.15C247.06,-64.87 258.17,-52.73 267.8,-42.19"/>
<polygon fill="black" stroke="black" points="270.26,-44.68 274.43,-34.94 265.09,-39.96 270.26,-44.68"/>
</g>
<!-- quake.mz(2)@t31&#45;&gt;End -->
<g id="edge57" class="edge">
<title>quake.mz(2)@t31&#45;&gt;End</title>
<path fill="none" stroke="black" d="M95.44,-216.14C89.73,-184.09 82.38,-113.81 117,-72 149.31,-32.98 209.67,-22.13 249.6,-19.41"/>
<polygon fill="black" stroke="black" points="249.72,-22.91 259.52,-18.9 249.35,-15.92 249.72,-22.91"/>
</g>
<!-- quake.mx(5,6,7,8)@t32&#45;&gt;End -->
<g id="edge60" class="edge">
<title>quake.mx(5,6,7,8)@t32&#45;&gt;End</title>
<path fill="none" stroke="black" d="M347.21,-723.29C336,-697.96 336,-642.09 336,-595 336,-595 336,-595 336,-161 336,-117.07 307.8,-73.27 292.57,-46.17"/>
<polygon fill="black" stroke="black" points="295.81,-44.8 288,-37.64 289.64,-48.11 295.81,-44.8"/>
</g>
<!-- quake.mx(5,6,7,8)@t32&#45;&gt;End -->
<g id="edge61" class="edge">
<title>quake.mx(5,6,7,8)@t32&#45;&gt;End</title>
<path fill="none" stroke="black" d="M357.29,-719.95C354,-693.29 354,-640.11 354,-595 354,-595 354,-595 354,-161 354,-115.94 324.33,-71.01 304.85,-44.11"/>
<polygon fill="black" stroke="black" points="307.84,-42.27 299.1,-36.27 302.19,-46.41 307.84,-42.27"/>
</g>
<!-- quake.mx(5,6,7,8)@t32&#45;&gt;End -->
<g id="edge62" class="edge">
<title>quake.mx(5,6,7,8)@t32&#45;&gt;End</title>
<path fill="none" stroke="black" d="M368.71,-719.95C372,-693.29 372,-640.11 372,-595 372,-595 372,-595 372,-161 372,-113.55 339.1,-66.24 314.5,-39.98"/>
<polygon fill="black" stroke="black" points="317.12,-37.65 307.6,-32.99 312.14,-42.57 317.12,-37.65"/>
</g>
<!-- quake.mx(5,6,7,8)@t32&#45;&gt;End -->
<g id="edge63" class="edge">
<title>quake.mx(5,6,7,8)@t32&#45;&gt;End</title>
<path fill="none" stroke="black" d="M378.79,-723.29C390,-697.96 390,-642.09 390,-595 390,-595 390,-595 390,-161 390,-110.14 352.21,-59.46 320.79,-34.67"/>
<polygon fill="black" stroke="black" points="323.09,-32.02 312.94,-29 318.99,-37.69 323.09,-32.02"/>
</g>
</g>
</svg>
