<?xml version="1.0" encoding="UTF-8" standalone="no"?>
<!DOCTYPE svg PUBLIC "-//W3C//DTD SVG 1.1//EN"
 "http://www.w3.org/Graphics/SVG/1.1/DTD/svg11.dtd">
<!-- Generated by graphviz version 2.43.0 (0)
 -->
<!-- Title: ultimate_quake_inspector_DAG Pages: 1 -->
<svg width="981pt" height="1268pt"
 viewBox="0.00 0.00 980.59 1268.00" xmlns="http://www.w3.org/2000/svg" xmlns:xlink="http://www.w3.org/1999/xlink">
<g id="graph0" class="graph" transform="scale(1 1) rotate(0) translate(4 1264)">
<title>ultimate_quake_inspector_DAG</title>
<polygon fill="white" stroke="transparent" points="-4,4 -4,-1264 976.59,-1264 976.59,4 -4,4"/>
<!-- q0_start -->
<g id="node1" class="node">
<title>q0_start</title>
<ellipse fill="green" stroke="green" cx="455.2" cy="-1242" rx="49.29" ry="18"/>
<text text-anchor="middle" x="455.2" y="-1238.3" font-family="Times,serif" font-size="14.00">q0_start</text>
</g>
<!-- quake.x(0)@t0 -->
<g id="node10" class="node">
<title>quake.x(0)@t0</title>
<ellipse fill="none" stroke="black" cx="443.2" cy="-1170" rx="27" ry="18"/>
<text text-anchor="middle" x="443.2" y="-1166.3" font-family="Times,serif" font-size="14.00">x</text>
</g>
<!-- q0_start&#45;&gt;quake.x(0)@t0 -->
<g id="edge1" class="edge">
<title>q0_start&#45;&gt;quake.x(0)@t0</title>
<path fill="none" stroke="black" d="M452.23,-1223.7C450.91,-1215.98 449.32,-1206.71 447.84,-1198.11"/>
<polygon fill="black" stroke="black" points="451.27,-1197.37 446.13,-1188.1 444.37,-1198.55 451.27,-1197.37"/>
</g>
<!-- q1_start -->
<g id="node2" class="node">
<title>q1_start</title>
<ellipse fill="green" stroke="green" cx="338.2" cy="-1242" rx="49.29" ry="18"/>
<text text-anchor="middle" x="338.2" y="-1238.3" font-family="Times,serif" font-size="14.00">q1_start</text>
</g>
<!-- quake.y(1)@t1 -->
<g id="node11" class="node">
<title>quake.y(1)@t1</title>
<ellipse fill="none" stroke="black" cx="360.2" cy="-1170" rx="27" ry="18"/>
<text text-anchor="middle" x="360.2" y="-1166.3" font-family="Times,serif" font-size="14.00">y</text>
</g>
<!-- q1_start&#45;&gt;quake.y(1)@t1 -->
<g id="edge2" class="edge">
<title>q1_start&#45;&gt;quake.y(1)@t1</title>
<path fill="none" stroke="black" d="M343.52,-1224.05C346.03,-1216.06 349.09,-1206.33 351.9,-1197.4"/>
<polygon fill="black" stroke="black" points="355.26,-1198.38 354.92,-1187.79 348.58,-1196.28 355.26,-1198.38"/>
</g>
<!-- q2_start -->
<g id="node3" class="node">
<title>q2_start</title>
<ellipse fill="green" stroke="green" cx="269.2" cy="-1098" rx="49.29" ry="18"/>
<text text-anchor="middle" x="269.2" y="-1094.3" font-family="Times,serif" font-size="14.00">q2_start</text>
</g>
<!-- quake.z(2)@t2 -->
<g id="node12" class="node">
<title>quake.z(2)@t2</title>
<ellipse fill="none" stroke="black" cx="291.2" cy="-1026" rx="27" ry="18"/>
<text text-anchor="middle" x="291.2" y="-1022.3" font-family="Times,serif" font-size="14.00">z</text>
</g>
<!-- q2_start&#45;&gt;quake.z(2)@t2 -->
<g id="edge3" class="edge">
<title>q2_start&#45;&gt;quake.z(2)@t2</title>
<path fill="none" stroke="black" d="M274.52,-1080.05C277.03,-1072.06 280.09,-1062.33 282.9,-1053.4"/>
<polygon fill="black" stroke="black" points="286.26,-1054.38 285.92,-1043.79 279.58,-1052.28 286.26,-1054.38"/>
</g>
<!-- q3_start -->
<g id="node4" class="node">
<title>q3_start</title>
<ellipse fill="green" stroke="green" cx="197.2" cy="-1026" rx="49.29" ry="18"/>
<text text-anchor="middle" x="197.2" y="-1022.3" font-family="Times,serif" font-size="14.00">q3_start</text>
</g>
<!-- quake.h(3)@t3 -->
<g id="node13" class="node">
<title>quake.h(3)@t3</title>
<ellipse fill="none" stroke="black" cx="206.2" cy="-954" rx="27" ry="18"/>
<text text-anchor="middle" x="206.2" y="-950.3" font-family="Times,serif" font-size="14.00">h</text>
</g>
<!-- q3_start&#45;&gt;quake.h(3)@t3 -->
<g id="edge4" class="edge">
<title>q3_start&#45;&gt;quake.h(3)@t3</title>
<path fill="none" stroke="black" d="M199.42,-1007.7C200.41,-999.98 201.6,-990.71 202.71,-982.11"/>
<polygon fill="black" stroke="black" points="206.19,-982.47 204,-972.1 199.25,-981.58 206.19,-982.47"/>
</g>
<!-- q4_start -->
<g id="node5" class="node">
<title>q4_start</title>
<ellipse fill="green" stroke="green" cx="246.2" cy="-666" rx="49.29" ry="18"/>
<text text-anchor="middle" x="246.2" y="-662.3" font-family="Times,serif" font-size="14.00">q4_start</text>
</g>
<!-- quake.ct(1,4)@t12 -->
<g id="node22" class="node">
<title>quake.ct(1,4)@t12</title>
<ellipse fill="none" stroke="black" cx="296.2" cy="-594" rx="27" ry="18"/>
<text text-anchor="middle" x="296.2" y="-590.3" font-family="Times,serif" font-size="14.00">ct</text>
</g>
<!-- q4_start&#45;&gt;quake.ct(1,4)@t12 -->
<g id="edge20" class="edge">
<title>q4_start&#45;&gt;quake.ct(1,4)@t12</title>
<path fill="none" stroke="black" d="M258.05,-648.41C264.39,-639.53 272.31,-628.44 279.29,-618.67"/>
<polygon fill="black" stroke="black" points="282.15,-620.68 285.12,-610.51 276.46,-616.61 282.15,-620.68"/>
</g>
<!-- q5_start -->
<g id="node6" class="node">
<title>q5_start</title>
<ellipse fill="green" stroke="green" cx="572.2" cy="-1242" rx="49.29" ry="18"/>
<text text-anchor="middle" x="572.2" y="-1238.3" font-family="Times,serif" font-size="14.00">q5_start</text>
</g>
<!-- quake.exp_pauli(5,6,7,8)@t27 params=(&#39;%arg4&#39;, &#39;XZYI&#39;) -->
<g id="node37" class="node">
<title>quake.exp_pauli(5,6,7,8)@t27 params=(&#39;%arg4&#39;, &#39;XZYI&#39;)</title>
<ellipse fill="none" stroke="black" cx="747.2" cy="-1170" rx="54.69" ry="18"/>
<text text-anchor="middle" x="747.2" y="-1166.3" font-family="Times,serif" font-size="14.00">exp_pauli</text>
</g>
<!-- q5_start&#45;&gt;quake.exp_pauli(5,6,7,8)@t27 params=(&#39;%arg4&#39;, &#39;XZYI&#39;) -->
<g id="edge40" class="edge">
<title>q5_start&#45;&gt;quake.exp_pauli(5,6,7,8)@t27 params=(&#39;%arg4&#39;, &#39;XZYI&#39;)</title>
<path fill="none" stroke="black" d="M604.29,-1228.16C632.34,-1216.94 673.29,-1200.56 704.17,-1188.21"/>
<polygon fill="black" stroke="black" points="705.83,-1191.32 713.81,-1184.35 703.23,-1184.82 705.83,-1191.32"/>
</g>
<!-- q6_start -->
<g id="node7" class="node">
<title>q6_start</title>
<ellipse fill="green" stroke="green" cx="689.2" cy="-1242" rx="49.29" ry="18"/>
<text text-anchor="middle" x="689.2" y="-1238.3" font-family="Times,serif" font-size="14.00">q6_start</text>
</g>
<!-- q6_start&#45;&gt;quake.exp_pauli(5,6,7,8)@t27 params=(&#39;%arg4&#39;, &#39;XZYI&#39;) -->
<g id="edge41" class="edge">
<title>q6_start&#45;&gt;quake.exp_pauli(5,6,7,8)@t27 params=(&#39;%arg4&#39;, &#39;XZYI&#39;)</title>
<path fill="none" stroke="black" d="M702.94,-1224.41C710.16,-1215.69 719.15,-1204.85 727.14,-1195.21"/>
<polygon fill="black" stroke="black" points="729.86,-1197.4 733.55,-1187.47 724.47,-1192.94 729.86,-1197.4"/>
</g>
<!-- q7_start -->
<g id="node8" class="node">
<title>q7_start</title>
<ellipse fill="green" stroke="green" cx="806.2" cy="-1242" rx="49.29" ry="18"/>
<text text-anchor="middle" x="806.2" y="-1238.3" font-family="Times,serif" font-size="14.00">q7_start</text>
</g>
<!-- q7_start&#45;&gt;quake.exp_pauli(5,6,7,8)@t27 params=(&#39;%arg4&#39;, &#39;XZYI&#39;) -->
<g id="edge42" class="edge">
<title>q7_start&#45;&gt;quake.exp_pauli(5,6,7,8)@t27 params=(&#39;%arg4&#39;, &#39;XZYI&#39;)</title>
<path fill="none" stroke="black" d="M792.21,-1224.41C784.87,-1215.69 775.72,-1204.85 767.6,-1195.21"/>
<polygon fill="black" stroke="black" points="770.2,-1192.86 761.08,-1187.47 764.85,-1197.37 770.2,-1192.86"/>
</g>
<!-- q8_start -->
<g id="node9" class="node">
<title>q8_start</title>
<ellipse fill="green" stroke="green" cx="923.2" cy="-1242" rx="49.29" ry="18"/>
<text text-anchor="middle" x="923.2" y="-1238.3" font-family="Times,serif" font-size="14.00">q8_start</text>
</g>
<!-- q8_start&#45;&gt;quake.exp_pauli(5,6,7,8)@t27 params=(&#39;%arg4&#39;, &#39;XZYI&#39;) -->
<g id="edge43" class="edge">
<title>q8_start&#45;&gt;quake.exp_pauli(5,6,7,8)@t27 params=(&#39;%arg4&#39;, &#39;XZYI&#39;)</title>
<path fill="none" stroke="black" d="M890.91,-1228.16C862.59,-1216.89 821.17,-1200.42 790.07,-1188.05"/>
<polygon fill="black" stroke="black" points="791.36,-1184.8 780.77,-1184.35 788.77,-1191.3 791.36,-1184.8"/>
</g>
<!-- quake.s(0)@t4 -->
<g id="node14" class="node">
<title>quake.s(0)@t4</title>
<ellipse fill="none" stroke="black" cx="440.2" cy="-1098" rx="27" ry="18"/>
<text text-anchor="middle" x="440.2" y="-1094.3" font-family="Times,serif" font-size="14.00">s</text>
</g>
<!-- quake.x(0)@t0&#45;&gt;quake.s(0)@t4 -->
<g id="edge5" class="edge">
<title>quake.x(0)@t0&#45;&gt;quake.s(0)@t4</title>
<path fill="none" stroke="black" d="M442.45,-1151.7C442.12,-1143.98 441.73,-1134.71 441.36,-1126.11"/>
<polygon fill="black" stroke="black" points="444.85,-1125.95 440.93,-1116.1 437.86,-1126.25 444.85,-1125.95"/>
</g>
<!-- quake.t(1)@t5 -->
<g id="node15" class="node">
<title>quake.t(1)@t5</title>
<ellipse fill="none" stroke="black" cx="363.2" cy="-1098" rx="27" ry="18"/>
<text text-anchor="middle" x="363.2" y="-1094.3" font-family="Times,serif" font-size="14.00">t</text>
</g>
<!-- quake.y(1)@t1&#45;&gt;quake.t(1)@t5 -->
<g id="edge6" class="edge">
<title>quake.y(1)@t1&#45;&gt;quake.t(1)@t5</title>
<path fill="none" stroke="black" d="M360.94,-1151.7C361.27,-1143.98 361.67,-1134.71 362.03,-1126.11"/>
<polygon fill="black" stroke="black" points="365.53,-1126.25 362.46,-1116.1 358.54,-1125.95 365.53,-1126.25"/>
</g>
<!-- quake.cy(1,2)@t7 -->
<g id="node17" class="node">
<title>quake.cy(1,2)@t7</title>
<ellipse fill="none" stroke="black" cx="299.2" cy="-954" rx="27" ry="18"/>
<text text-anchor="middle" x="299.2" y="-950.3" font-family="Times,serif" font-size="14.00">cy</text>
</g>
<!-- quake.z(2)@t2&#45;&gt;quake.cy(1,2)@t7 -->
<g id="edge10" class="edge">
<title>quake.z(2)@t2&#45;&gt;quake.cy(1,2)@t7</title>
<path fill="none" stroke="black" d="M293.17,-1007.7C294.06,-999.98 295.11,-990.71 296.1,-982.11"/>
<polygon fill="black" stroke="black" points="299.58,-982.44 297.24,-972.1 292.63,-981.64 299.58,-982.44"/>
</g>
<!-- quake.cz(2,3)@t8 -->
<g id="node18" class="node">
<title>quake.cz(2,3)@t8</title>
<ellipse fill="none" stroke="black" cx="211.2" cy="-882" rx="27" ry="18"/>
<text text-anchor="middle" x="211.2" y="-878.3" font-family="Times,serif" font-size="14.00">cz</text>
</g>
<!-- quake.h(3)@t3&#45;&gt;quake.cz(2,3)@t8 -->
<g id="edge12" class="edge">
<title>quake.h(3)@t3&#45;&gt;quake.cz(2,3)@t8</title>
<path fill="none" stroke="black" d="M207.43,-935.7C207.98,-927.98 208.65,-918.71 209.26,-910.11"/>
<polygon fill="black" stroke="black" points="212.75,-910.33 209.97,-900.1 205.77,-909.83 212.75,-910.33"/>
</g>
<!-- quake.cx(0,1)@t6 -->
<g id="node16" class="node">
<title>quake.cx(0,1)@t6</title>
<ellipse fill="none" stroke="black" cx="363.2" cy="-1026" rx="27" ry="18"/>
<text text-anchor="middle" x="363.2" y="-1022.3" font-family="Times,serif" font-size="14.00">cx</text>
</g>
<!-- quake.s(0)@t4&#45;&gt;quake.cx(0,1)@t6 -->
<g id="edge7" class="edge">
<title>quake.s(0)@t4&#45;&gt;quake.cx(0,1)@t6</title>
<path fill="none" stroke="black" d="M424.61,-1082.83C413.58,-1072.81 398.61,-1059.19 386.2,-1047.92"/>
<polygon fill="black" stroke="black" points="388.25,-1045.04 378.49,-1040.91 383.54,-1050.22 388.25,-1045.04"/>
</g>
<!-- quake.t(1)@t5&#45;&gt;quake.cx(0,1)@t6 -->
<g id="edge8" class="edge">
<title>quake.t(1)@t5&#45;&gt;quake.cx(0,1)@t6</title>
<path fill="none" stroke="black" d="M363.2,-1079.7C363.2,-1071.98 363.2,-1062.71 363.2,-1054.11"/>
<polygon fill="black" stroke="black" points="366.7,-1054.1 363.2,-1044.1 359.7,-1054.1 366.7,-1054.1"/>
</g>
<!-- quake.cx(0,1)@t6&#45;&gt;quake.cy(1,2)@t7 -->
<g id="edge9" class="edge">
<title>quake.cx(0,1)@t6&#45;&gt;quake.cy(1,2)@t7</title>
<path fill="none" stroke="black" d="M349.62,-1010.15C340.88,-1000.6 329.36,-987.99 319.54,-977.25"/>
<polygon fill="black" stroke="black" points="322.08,-974.84 312.75,-969.82 316.91,-979.57 322.08,-974.84"/>
</g>
<!-- quake.ch(0,2)@t9 -->
<g id="node19" class="node">
<title>quake.ch(0,2)@t9</title>
<ellipse fill="none" stroke="black" cx="213.2" cy="-810" rx="27" ry="18"/>
<text text-anchor="middle" x="213.2" y="-806.3" font-family="Times,serif" font-size="14.00">ch</text>
</g>
<!-- quake.cx(0,1)@t6&#45;&gt;quake.ch(0,2)@t9 -->
<g id="edge13" class="edge">
<title>quake.cx(0,1)@t6&#45;&gt;quake.ch(0,2)@t9</title>
<path fill="none" stroke="black" d="M360.3,-1007.95C356.58,-989.28 348.91,-958.94 335.2,-936 309.38,-892.84 265.81,-853.14 238.33,-830.53"/>
<polygon fill="black" stroke="black" points="240.33,-827.65 230.35,-824.08 235.92,-833.09 240.33,-827.65"/>
</g>
<!-- quake.cy(1,2)@t7&#45;&gt;quake.cz(2,3)@t8 -->
<g id="edge11" class="edge">
<title>quake.cy(1,2)@t7&#45;&gt;quake.cz(2,3)@t8</title>
<path fill="none" stroke="black" d="M282.23,-939.5C269.12,-929.08 250.78,-914.49 236.02,-902.75"/>
<polygon fill="black" stroke="black" points="237.82,-899.7 227.81,-896.22 233.46,-905.18 237.82,-899.7"/>
</g>
<!-- quake.cy(1,2)@t7&#45;&gt;quake.ct(1,4)@t12 -->
<g id="edge19" class="edge">
<title>quake.cy(1,2)@t7&#45;&gt;quake.ct(1,4)@t12</title>
<path fill="none" stroke="black" d="M303.94,-936.11C310.93,-909.66 323.2,-856.75 323.2,-811 323.2,-811 323.2,-811 323.2,-737 323.2,-696.28 312.35,-650.13 304.4,-621.79"/>
<polygon fill="black" stroke="black" points="307.67,-620.49 301.53,-611.85 300.95,-622.43 307.67,-620.49"/>
</g>
<!-- quake.cz(2,3)@t8&#45;&gt;quake.ch(0,2)@t9 -->
<g id="edge14" class="edge">
<title>quake.cz(2,3)@t8&#45;&gt;quake.ch(0,2)@t9</title>
<path fill="none" stroke="black" d="M211.69,-863.7C211.91,-855.98 212.18,-846.71 212.42,-838.11"/>
<polygon fill="black" stroke="black" points="215.92,-838.2 212.71,-828.1 208.92,-838 215.92,-838.2"/>
</g>
<!-- quake.swap(2,3)@t10 -->
<g id="node20" class="node">
<title>quake.swap(2,3)@t10</title>
<ellipse fill="none" stroke="black" cx="151.2" cy="-738" rx="34.39" ry="18"/>
<text text-anchor="middle" x="151.2" y="-734.3" font-family="Times,serif" font-size="14.00">swap</text>
</g>
<!-- quake.cz(2,3)@t8&#45;&gt;quake.swap(2,3)@t10 -->
<g id="edge16" class="edge">
<title>quake.cz(2,3)@t8&#45;&gt;quake.swap(2,3)@t10</title>
<path fill="none" stroke="black" d="M199.53,-865.45C192.3,-855.23 183.27,-841.33 177.2,-828 168.05,-807.92 161.24,-783.82 156.89,-765.77"/>
<polygon fill="black" stroke="black" points="160.28,-764.87 154.62,-755.91 153.46,-766.44 160.28,-764.87"/>
</g>
<!-- quake.ch(0,2)@t9&#45;&gt;quake.swap(2,3)@t10 -->
<g id="edge15" class="edge">
<title>quake.ch(0,2)@t9&#45;&gt;quake.swap(2,3)@t10</title>
<path fill="none" stroke="black" d="M200.05,-794.15C191.89,-784.94 181.23,-772.91 171.95,-762.43"/>
<polygon fill="black" stroke="black" points="174.44,-759.96 165.19,-754.8 169.2,-764.6 174.44,-759.96"/>
</g>
<!-- quake.cs(0,3)@t11 -->
<g id="node21" class="node">
<title>quake.cs(0,3)@t11</title>
<ellipse fill="none" stroke="black" cx="152.2" cy="-666" rx="27" ry="18"/>
<text text-anchor="middle" x="152.2" y="-662.3" font-family="Times,serif" font-size="14.00">cs</text>
</g>
<!-- quake.ch(0,2)@t9&#45;&gt;quake.cs(0,3)@t11 -->
<g id="edge17" class="edge">
<title>quake.ch(0,2)@t9&#45;&gt;quake.cs(0,3)@t11</title>
<path fill="none" stroke="black" d="M211.88,-791.86C209.93,-773.37 205.24,-743.44 194.2,-720 188.99,-708.94 181.07,-698.11 173.5,-689.15"/>
<polygon fill="black" stroke="black" points="175.99,-686.68 166.74,-681.5 170.74,-691.31 175.99,-686.68"/>
</g>
<!-- quake.swap(2,3)@t10&#45;&gt;quake.cs(0,3)@t11 -->
<g id="edge18" class="edge">
<title>quake.swap(2,3)@t10&#45;&gt;quake.cs(0,3)@t11</title>
<path fill="none" stroke="black" d="M151.44,-719.7C151.55,-711.98 151.69,-702.71 151.81,-694.11"/>
<polygon fill="black" stroke="black" points="155.31,-694.15 151.95,-684.1 148.31,-694.05 155.31,-694.15"/>
</g>
<!-- quake.rz(2)@t15 params=(&#39;%arg0&#39;,) -->
<g id="node25" class="node">
<title>quake.rz(2)@t15 params=(&#39;%arg0&#39;,)</title>
<ellipse fill="none" stroke="black" cx="97.2" cy="-450" rx="27" ry="18"/>
<text text-anchor="middle" x="97.2" y="-446.3" font-family="Times,serif" font-size="14.00">rz</text>
</g>
<!-- quake.swap(2,3)@t10&#45;&gt;quake.rz(2)@t15 params=(&#39;%arg0&#39;,) -->
<g id="edge23" class="edge">
<title>quake.swap(2,3)@t10&#45;&gt;quake.rz(2)@t15 params=(&#39;%arg0&#39;,)</title>
<path fill="none" stroke="black" d="M137.51,-720.97C129.83,-711.01 120.88,-697.55 116.2,-684 91.66,-612.94 92.68,-522.73 95.12,-478.28"/>
<polygon fill="black" stroke="black" points="98.62,-478.46 95.74,-468.26 91.63,-478.02 98.62,-478.46"/>
</g>
<!-- quake.rx(0)@t13 params=(&#39;%arg0&#39;,) -->
<g id="node23" class="node">
<title>quake.rx(0)@t13 params=(&#39;%arg0&#39;,)</title>
<ellipse fill="none" stroke="black" cx="198.2" cy="-594" rx="27" ry="18"/>
<text text-anchor="middle" x="198.2" y="-590.3" font-family="Times,serif" font-size="14.00">rx</text>
</g>
<!-- quake.cs(0,3)@t11&#45;&gt;quake.rx(0)@t13 params=(&#39;%arg0&#39;,) -->
<g id="edge21" class="edge">
<title>quake.cs(0,3)@t11&#45;&gt;quake.rx(0)@t13 params=(&#39;%arg0&#39;,)</title>
<path fill="none" stroke="black" d="M162.63,-649.12C168.4,-640.34 175.68,-629.26 182.15,-619.42"/>
<polygon fill="black" stroke="black" points="185.23,-621.1 187.8,-610.82 179.38,-617.26 185.23,-621.1"/>
</g>
<!-- quake.r1(3)@t16 params=(&#39;%arg0&#39;,) -->
<g id="node26" class="node">
<title>quake.r1(3)@t16 params=(&#39;%arg0&#39;,)</title>
<ellipse fill="none" stroke="black" cx="169.2" cy="-450" rx="27" ry="18"/>
<text text-anchor="middle" x="169.2" y="-446.3" font-family="Times,serif" font-size="14.00">r1</text>
</g>
<!-- quake.cs(0,3)@t11&#45;&gt;quake.r1(3)@t16 params=(&#39;%arg0&#39;,) -->
<g id="edge24" class="edge">
<title>quake.cs(0,3)@t11&#45;&gt;quake.r1(3)@t16 params=(&#39;%arg0&#39;,)</title>
<path fill="none" stroke="black" d="M152.88,-647.58C154.14,-618.01 157.14,-556.13 162.2,-504 163.01,-495.56 164.14,-486.38 165.25,-478.08"/>
<polygon fill="black" stroke="black" points="168.72,-478.54 166.62,-468.15 161.79,-477.58 168.72,-478.54"/>
</g>
<!-- quake.ry(1)@t14 params=(&#39;%arg0&#39;,) -->
<g id="node24" class="node">
<title>quake.ry(1)@t14 params=(&#39;%arg0&#39;,)</title>
<ellipse fill="none" stroke="black" cx="270.2" cy="-522" rx="27" ry="18"/>
<text text-anchor="middle" x="270.2" y="-518.3" font-family="Times,serif" font-size="14.00">ry</text>
</g>
<!-- quake.ct(1,4)@t12&#45;&gt;quake.ry(1)@t14 params=(&#39;%arg0&#39;,) -->
<g id="edge22" class="edge">
<title>quake.ct(1,4)@t12&#45;&gt;quake.ry(1)@t14 params=(&#39;%arg0&#39;,)</title>
<path fill="none" stroke="black" d="M290.03,-576.41C287.03,-568.34 283.36,-558.43 279.98,-549.35"/>
<polygon fill="black" stroke="black" points="283.26,-548.11 276.49,-539.96 276.7,-550.55 283.26,-548.11"/>
</g>
<!-- quake.rz(4)@t17 params=(1.5707963267948966,) -->
<g id="node27" class="node">
<title>quake.rz(4)@t17 params=(1.5707963267948966,)</title>
<ellipse fill="none" stroke="black" cx="306.2" cy="-378" rx="27" ry="18"/>
<text text-anchor="middle" x="306.2" y="-374.3" font-family="Times,serif" font-size="14.00">rz</text>
</g>
<!-- quake.ct(1,4)@t12&#45;&gt;quake.rz(4)@t17 params=(1.5707963267948966,) -->
<g id="edge25" class="edge">
<title>quake.ct(1,4)@t12&#45;&gt;quake.rz(4)@t17 params=(1.5707963267948966,)</title>
<path fill="none" stroke="black" d="M300.26,-575.93C302.5,-565.6 305.06,-552.12 306.2,-540 310.55,-493.45 309.21,-438.99 307.76,-406.84"/>
<polygon fill="black" stroke="black" points="311.24,-406.26 307.26,-396.44 304.25,-406.6 311.24,-406.26"/>
</g>
<!-- quake.rz(0)@t18 params=(0.7853981633974483,) -->
<g id="node28" class="node">
<title>quake.rz(0)@t18 params=(0.7853981633974483,)</title>
<ellipse fill="none" stroke="black" cx="198.2" cy="-522" rx="27" ry="18"/>
<text text-anchor="middle" x="198.2" y="-518.3" font-family="Times,serif" font-size="14.00">rz</text>
</g>
<!-- quake.rx(0)@t13 params=(&#39;%arg0&#39;,)&#45;&gt;quake.rz(0)@t18 params=(0.7853981633974483,) -->
<g id="edge26" class="edge">
<title>quake.rx(0)@t13 params=(&#39;%arg0&#39;,)&#45;&gt;quake.rz(0)@t18 params=(0.7853981633974483,)</title>
<path fill="none" stroke="black" d="M198.2,-575.7C198.2,-567.98 198.2,-558.71 198.2,-550.11"/>
<polygon fill="black" stroke="black" points="201.7,-550.1 198.2,-540.1 194.7,-550.1 201.7,-550.1"/>
</g>
<!-- quake.crx(0,1)@t19 params=(&#39;%arg0&#39;,) -->
<g id="node29" class="node">
<title>quake.crx(0,1)@t19 params=(&#39;%arg0&#39;,)</title>
<ellipse fill="none" stroke="black" cx="241.2" cy="-450" rx="27" ry="18"/>
<text text-anchor="middle" x="241.2" y="-446.3" font-family="Times,serif" font-size="14.00">crx</text>
</g>
<!-- quake.ry(1)@t14 params=(&#39;%arg0&#39;,)&#45;&gt;quake.crx(0,1)@t19 params=(&#39;%arg0&#39;,) -->
<g id="edge28" class="edge">
<title>quake.ry(1)@t14 params=(&#39;%arg0&#39;,)&#45;&gt;quake.crx(0,1)@t19 params=(&#39;%arg0&#39;,)</title>
<path fill="none" stroke="black" d="M263.32,-504.41C259.93,-496.22 255.75,-486.14 251.95,-476.95"/>
<polygon fill="black" stroke="black" points="255.08,-475.37 248.02,-467.47 248.61,-478.05 255.08,-475.37"/>
</g>
<!-- quake.cry(1,2)@t20 params=(&#39;%arg0&#39;,) -->
<g id="node30" class="node">
<title>quake.cry(1,2)@t20 params=(&#39;%arg0&#39;,)</title>
<ellipse fill="none" stroke="black" cx="105.2" cy="-378" rx="27" ry="18"/>
<text text-anchor="middle" x="105.2" y="-374.3" font-family="Times,serif" font-size="14.00">cry</text>
</g>
<!-- quake.rz(2)@t15 params=(&#39;%arg0&#39;,)&#45;&gt;quake.cry(1,2)@t20 params=(&#39;%arg0&#39;,) -->
<g id="edge30" class="edge">
<title>quake.rz(2)@t15 params=(&#39;%arg0&#39;,)&#45;&gt;quake.cry(1,2)@t20 params=(&#39;%arg0&#39;,)</title>
<path fill="none" stroke="black" d="M99.17,-431.7C100.06,-423.98 101.11,-414.71 102.1,-406.11"/>
<polygon fill="black" stroke="black" points="105.58,-406.44 103.24,-396.1 98.63,-405.64 105.58,-406.44"/>
</g>
<!-- quake.crz(2,3)@t21 params=(&#39;%arg0&#39;,) -->
<g id="node31" class="node">
<title>quake.crz(2,3)@t21 params=(&#39;%arg0&#39;,)</title>
<ellipse fill="none" stroke="black" cx="169.2" cy="-306" rx="27" ry="18"/>
<text text-anchor="middle" x="169.2" y="-302.3" font-family="Times,serif" font-size="14.00">crz</text>
</g>
<!-- quake.r1(3)@t16 params=(&#39;%arg0&#39;,)&#45;&gt;quake.crz(2,3)@t21 params=(&#39;%arg0&#39;,) -->
<g id="edge32" class="edge">
<title>quake.r1(3)@t16 params=(&#39;%arg0&#39;,)&#45;&gt;quake.crz(2,3)@t21 params=(&#39;%arg0&#39;,)</title>
<path fill="none" stroke="black" d="M169.2,-431.87C169.2,-407.67 169.2,-363.21 169.2,-334.39"/>
<polygon fill="black" stroke="black" points="172.7,-334.19 169.2,-324.19 165.7,-334.19 172.7,-334.19"/>
</g>
<!-- quake.cr1(3,4)@t22 params=(&#39;%arg0&#39;,) -->
<g id="node32" class="node">
<title>quake.cr1(3,4)@t22 params=(&#39;%arg0&#39;,)</title>
<ellipse fill="none" stroke="black" cx="295.2" cy="-234" rx="27" ry="18"/>
<text text-anchor="middle" x="295.2" y="-230.3" font-family="Times,serif" font-size="14.00">cr1</text>
</g>
<!-- quake.rz(4)@t17 params=(1.5707963267948966,)&#45;&gt;quake.cr1(3,4)@t22 params=(&#39;%arg0&#39;,) -->
<g id="edge34" class="edge">
<title>quake.rz(4)@t17 params=(1.5707963267948966,)&#45;&gt;quake.cr1(3,4)@t22 params=(&#39;%arg0&#39;,)</title>
<path fill="none" stroke="black" d="M304.87,-359.87C302.99,-335.67 299.55,-291.21 297.32,-262.39"/>
<polygon fill="black" stroke="black" points="300.79,-261.89 296.53,-252.19 293.81,-262.43 300.79,-261.89"/>
</g>
<!-- quake.rz(0)@t18 params=(0.7853981633974483,)&#45;&gt;quake.crx(0,1)@t19 params=(&#39;%arg0&#39;,) -->
<g id="edge27" class="edge">
<title>quake.rz(0)@t18 params=(0.7853981633974483,)&#45;&gt;quake.crx(0,1)@t19 params=(&#39;%arg0&#39;,)</title>
<path fill="none" stroke="black" d="M207.95,-505.12C213.34,-496.34 220.15,-485.26 226.2,-475.42"/>
<polygon fill="black" stroke="black" points="229.23,-477.17 231.48,-466.82 223.26,-473.51 229.23,-477.17"/>
</g>
<!-- quake.crx(0,1)@t19 params=(&#39;%arg0&#39;,)&#45;&gt;quake.cry(1,2)@t20 params=(&#39;%arg0&#39;,) -->
<g id="edge29" class="edge">
<title>quake.crx(0,1)@t19 params=(&#39;%arg0&#39;,)&#45;&gt;quake.cry(1,2)@t20 params=(&#39;%arg0&#39;,)</title>
<path fill="none" stroke="black" d="M220.54,-438.37C197.77,-426.65 160.95,-407.7 135.05,-394.37"/>
<polygon fill="black" stroke="black" points="136.54,-391.2 126.05,-389.73 133.34,-397.42 136.54,-391.2"/>
</g>
<!-- quake.sdg(0)@t23 -->
<g id="node33" class="node">
<title>quake.sdg(0)@t23</title>
<ellipse fill="none" stroke="black" cx="241.2" cy="-306" rx="27.1" ry="18"/>
<text text-anchor="middle" x="241.2" y="-302.3" font-family="Times,serif" font-size="14.00">sdg</text>
</g>
<!-- quake.crx(0,1)@t19 params=(&#39;%arg0&#39;,)&#45;&gt;quake.sdg(0)@t23 -->
<g id="edge35" class="edge">
<title>quake.crx(0,1)@t19 params=(&#39;%arg0&#39;,)&#45;&gt;quake.sdg(0)@t23</title>
<path fill="none" stroke="black" d="M241.2,-431.87C241.2,-407.67 241.2,-363.21 241.2,-334.39"/>
<polygon fill="black" stroke="black" points="244.7,-334.19 241.2,-324.19 237.7,-334.19 244.7,-334.19"/>
</g>
<!-- quake.cry(1,2)@t20 params=(&#39;%arg0&#39;,)&#45;&gt;quake.crz(2,3)@t21 params=(&#39;%arg0&#39;,) -->
<g id="edge31" class="edge">
<title>quake.cry(1,2)@t20 params=(&#39;%arg0&#39;,)&#45;&gt;quake.crz(2,3)@t21 params=(&#39;%arg0&#39;,)</title>
<path fill="none" stroke="black" d="M118.77,-362.15C127.51,-352.6 139.03,-339.99 148.85,-329.25"/>
<polygon fill="black" stroke="black" points="151.48,-331.57 155.64,-321.82 146.31,-326.84 151.48,-331.57"/>
</g>
<!-- quake.tdg(1)@t24 -->
<g id="node34" class="node">
<title>quake.tdg(1)@t24</title>
<ellipse fill="none" stroke="black" cx="97.2" cy="-306" rx="27" ry="18"/>
<text text-anchor="middle" x="97.2" y="-302.3" font-family="Times,serif" font-size="14.00">tdg</text>
</g>
<!-- quake.cry(1,2)@t20 params=(&#39;%arg0&#39;,)&#45;&gt;quake.tdg(1)@t24 -->
<g id="edge36" class="edge">
<title>quake.cry(1,2)@t20 params=(&#39;%arg0&#39;,)&#45;&gt;quake.tdg(1)@t24</title>
<path fill="none" stroke="black" d="M103.22,-359.7C102.34,-351.98 101.28,-342.71 100.29,-334.11"/>
<polygon fill="black" stroke="black" points="103.76,-333.64 99.15,-324.1 96.81,-334.44 103.76,-333.64"/>
</g>
<!-- quake.crz(2,3)@t21 params=(&#39;%arg0&#39;,)&#45;&gt;quake.cr1(3,4)@t22 params=(&#39;%arg0&#39;,) -->
<g id="edge33" class="edge">
<title>quake.crz(2,3)@t21 params=(&#39;%arg0&#39;,)&#45;&gt;quake.cr1(3,4)@t22 params=(&#39;%arg0&#39;,)</title>
<path fill="none" stroke="black" d="M189.44,-293.75C210.2,-282.22 242.68,-264.18 266.17,-251.12"/>
<polygon fill="black" stroke="black" points="267.96,-254.13 275,-246.22 264.56,-248.02 267.96,-254.13"/>
</g>
<!-- quake.mz(2)@t31 -->
<g id="node41" class="node">
<title>quake.mz(2)@t31</title>
<ellipse fill="yellow" stroke="yellow" cx="174.2" cy="-234" rx="27" ry="18"/>
<text text-anchor="middle" x="174.2" y="-230.3" font-family="Times,serif" font-size="14.00">mz</text>
</g>
<!-- quake.crz(2,3)@t21 params=(&#39;%arg0&#39;,)&#45;&gt;quake.mz(2)@t31 -->
<g id="edge50" class="edge">
<title>quake.crz(2,3)@t21 params=(&#39;%arg0&#39;,)&#45;&gt;quake.mz(2)@t31</title>
<path fill="none" stroke="black" d="M170.43,-287.7C170.98,-279.98 171.65,-270.71 172.26,-262.11"/>
<polygon fill="black" stroke="black" points="175.75,-262.33 172.97,-252.1 168.77,-261.83 175.75,-262.33"/>
</g>
<!-- q3_end -->
<g id="node46" class="node">
<title>q3_end</title>
<ellipse fill="red" stroke="red" cx="400.2" cy="-162" rx="44.39" ry="18"/>
<text text-anchor="middle" x="400.2" y="-158.3" font-family="Times,serif" font-size="14.00">q3_end</text>
</g>
<!-- quake.cr1(3,4)@t22 params=(&#39;%arg0&#39;,)&#45;&gt;q3_end -->
<g id="edge58" class="edge">
<title>quake.cr1(3,4)@t22 params=(&#39;%arg0&#39;,)&#45;&gt;q3_end</title>
<path fill="none" stroke="black" d="M313.97,-220.49C329.38,-210.21 351.51,-195.46 369.5,-183.47"/>
<polygon fill="black" stroke="black" points="371.57,-186.29 377.94,-177.83 367.68,-180.47 371.57,-186.29"/>
</g>
<!-- q4_end -->
<g id="node47" class="node">
<title>q4_end</title>
<ellipse fill="red" stroke="red" cx="294.2" cy="-162" rx="44.39" ry="18"/>
<text text-anchor="middle" x="294.2" y="-158.3" font-family="Times,serif" font-size="14.00">q4_end</text>
</g>
<!-- quake.cr1(3,4)@t22 params=(&#39;%arg0&#39;,)&#45;&gt;q4_end -->
<g id="edge59" class="edge">
<title>quake.cr1(3,4)@t22 params=(&#39;%arg0&#39;,)&#45;&gt;q4_end</title>
<path fill="none" stroke="black" d="M294.95,-215.7C294.84,-207.98 294.71,-198.71 294.58,-190.11"/>
<polygon fill="black" stroke="black" points="298.08,-190.05 294.44,-180.1 291.08,-190.15 298.08,-190.05"/>
</g>
<!-- quake.cu3(0,1)@t26 params=(&#39;%arg1&#39;, &#39;%arg2&#39;, &#39;%arg3&#39;) -->
<g id="node36" class="node">
<title>quake.cu3(0,1)@t26 params=(&#39;%arg1&#39;, &#39;%arg2&#39;, &#39;%arg3&#39;)</title>
<ellipse fill="none" stroke="black" cx="97.2" cy="-162" rx="27.1" ry="18"/>
<text text-anchor="middle" x="97.2" y="-158.3" font-family="Times,serif" font-size="14.00">cu3</text>
</g>
<!-- quake.sdg(0)@t23&#45;&gt;quake.cu3(0,1)@t26 params=(&#39;%arg1&#39;, &#39;%arg2&#39;, &#39;%arg3&#39;) -->
<g id="edge38" class="edge">
<title>quake.sdg(0)@t23&#45;&gt;quake.cu3(0,1)@t26 params=(&#39;%arg1&#39;, &#39;%arg2&#39;, &#39;%arg3&#39;)</title>
<path fill="none" stroke="black" d="M239.25,-287.91C236.21,-268.36 228.62,-236.4 210.2,-216 184.88,-187.96 167.39,-196.07 133.2,-180 131.6,-179.25 129.97,-178.49 128.33,-177.71"/>
<polygon fill="black" stroke="black" points="129.43,-174.36 118.89,-173.26 126.44,-180.69 129.43,-174.36"/>
</g>
<!-- quake.u3(1)@t25 params=(&#39;%arg1&#39;, &#39;%arg2&#39;, &#39;%arg3&#39;) -->
<g id="node35" class="node">
<title>quake.u3(1)@t25 params=(&#39;%arg1&#39;, &#39;%arg2&#39;, &#39;%arg3&#39;)</title>
<ellipse fill="none" stroke="black" cx="97.2" cy="-234" rx="27" ry="18"/>
<text text-anchor="middle" x="97.2" y="-230.3" font-family="Times,serif" font-size="14.00">u3</text>
</g>
<!-- quake.tdg(1)@t24&#45;&gt;quake.u3(1)@t25 params=(&#39;%arg1&#39;, &#39;%arg2&#39;, &#39;%arg3&#39;) -->
<g id="edge37" class="edge">
<title>quake.tdg(1)@t24&#45;&gt;quake.u3(1)@t25 params=(&#39;%arg1&#39;, &#39;%arg2&#39;, &#39;%arg3&#39;)</title>
<path fill="none" stroke="black" d="M97.2,-287.7C97.2,-279.98 97.2,-270.71 97.2,-262.11"/>
<polygon fill="black" stroke="black" points="100.7,-262.1 97.2,-252.1 93.7,-262.1 100.7,-262.1"/>
</g>
<!-- quake.u3(1)@t25 params=(&#39;%arg1&#39;, &#39;%arg2&#39;, &#39;%arg3&#39;)&#45;&gt;quake.cu3(0,1)@t26 params=(&#39;%arg1&#39;, &#39;%arg2&#39;, &#39;%arg3&#39;) -->
<g id="edge39" class="edge">
<title>quake.u3(1)@t25 params=(&#39;%arg1&#39;, &#39;%arg2&#39;, &#39;%arg3&#39;)&#45;&gt;quake.cu3(0,1)@t26 params=(&#39;%arg1&#39;, &#39;%arg2&#39;, &#39;%arg3&#39;)</title>
<path fill="none" stroke="black" d="M97.2,-215.7C97.2,-207.98 97.2,-198.71 97.2,-190.11"/>
<polygon fill="black" stroke="black" points="100.7,-190.1 97.2,-180.1 93.7,-190.1 100.7,-190.1"/>
</g>
<!-- quake.mx(0)@t29 -->
<g id="node39" class="node">
<title>quake.mx(0)@t29</title>
<ellipse fill="yellow" stroke="yellow" cx="61.2" cy="-90" rx="27" ry="18"/>
<text text-anchor="middle" x="61.2" y="-86.3" font-family="Times,serif" font-size="14.00">mx</text>
</g>
<!-- quake.cu3(0,1)@t26 params=(&#39;%arg1&#39;, &#39;%arg2&#39;, &#39;%arg3&#39;)&#45;&gt;quake.mx(0)@t29 -->
<g id="edge48" class="edge">
<title>quake.cu3(0,1)@t26 params=(&#39;%arg1&#39;, &#39;%arg2&#39;, &#39;%arg3&#39;)&#45;&gt;quake.mx(0)@t29</title>
<path fill="none" stroke="black" d="M88.85,-144.76C84.48,-136.28 79.05,-125.71 74.15,-116.2"/>
<polygon fill="black" stroke="black" points="77.19,-114.44 69.5,-107.15 70.96,-117.64 77.19,-114.44"/>
</g>
<!-- quake.my(1)@t30 -->
<g id="node40" class="node">
<title>quake.my(1)@t30</title>
<ellipse fill="yellow" stroke="yellow" cx="141.2" cy="-90" rx="27" ry="18"/>
<text text-anchor="middle" x="141.2" y="-86.3" font-family="Times,serif" font-size="14.00">my</text>
</g>
<!-- quake.cu3(0,1)@t26 params=(&#39;%arg1&#39;, &#39;%arg2&#39;, &#39;%arg3&#39;)&#45;&gt;quake.my(1)@t30 -->
<g id="edge49" class="edge">
<title>quake.cu3(0,1)@t26 params=(&#39;%arg1&#39;, &#39;%arg2&#39;, &#39;%arg3&#39;)&#45;&gt;quake.my(1)@t30</title>
<path fill="none" stroke="black" d="M107.18,-145.12C112.69,-136.34 119.66,-125.26 125.85,-115.42"/>
<polygon fill="black" stroke="black" points="128.89,-117.15 131.25,-106.82 122.97,-113.42 128.89,-117.15"/>
</g>
<!-- quake.exp_pauli(5,6,7,8)@t28 params=(&#39;%arg4&#39;, &#39;UNKNOWN&#39;) -->
<g id="node38" class="node">
<title>quake.exp_pauli(5,6,7,8)@t28 params=(&#39;%arg4&#39;, &#39;UNKNOWN&#39;)</title>
<ellipse fill="none" stroke="black" cx="747.2" cy="-1098" rx="54.69" ry="18"/>
<text text-anchor="middle" x="747.2" y="-1094.3" font-family="Times,serif" font-size="14.00">exp_pauli</text>
</g>
<!-- quake.exp_pauli(5,6,7,8)@t27 params=(&#39;%arg4&#39;, &#39;XZYI&#39;)&#45;&gt;quake.exp_pauli(5,6,7,8)@t28 params=(&#39;%arg4&#39;, &#39;UNKNOWN&#39;) -->
<g id="edge44" class="edge">
<title>quake.exp_pauli(5,6,7,8)@t27 params=(&#39;%arg4&#39;, &#39;XZYI&#39;)&#45;&gt;quake.exp_pauli(5,6,7,8)@t28 params=(&#39;%arg4&#39;, &#39;UNKNOWN&#39;)</title>
<path fill="none" stroke="black" d="M729.79,-1152.76C727.03,-1144.55 726.28,-1134.37 727.54,-1125.09"/>
<polygon fill="black" stroke="black" points="731,-1125.68 729.82,-1115.15 724.17,-1124.11 731,-1125.68"/>
</g>
<!-- quake.exp_pauli(5,6,7,8)@t27 params=(&#39;%arg4&#39;, &#39;XZYI&#39;)&#45;&gt;quake.exp_pauli(5,6,7,8)@t28 params=(&#39;%arg4&#39;, &#39;UNKNOWN&#39;) -->
<g id="edge45" class="edge">
<title>quake.exp_pauli(5,6,7,8)@t27 params=(&#39;%arg4&#39;, &#39;XZYI&#39;)&#45;&gt;quake.exp_pauli(5,6,7,8)@t28 params=(&#39;%arg4&#39;, &#39;UNKNOWN&#39;)</title>
<path fill="none" stroke="black" d="M741.32,-1152.05C740.5,-1144.35 740.26,-1135.03 740.59,-1126.36"/>
<polygon fill="black" stroke="black" points="744.09,-1126.49 741.28,-1116.28 737.11,-1126.01 744.09,-1126.49"/>
</g>
<!-- quake.exp_pauli(5,6,7,8)@t27 params=(&#39;%arg4&#39;, &#39;XZYI&#39;)&#45;&gt;quake.exp_pauli(5,6,7,8)@t28 params=(&#39;%arg4&#39;, &#39;UNKNOWN&#39;) -->
<g id="edge46" class="edge">
<title>quake.exp_pauli(5,6,7,8)@t27 params=(&#39;%arg4&#39;, &#39;XZYI&#39;)&#45;&gt;quake.exp_pauli(5,6,7,8)@t28 params=(&#39;%arg4&#39;, &#39;UNKNOWN&#39;)</title>
<path fill="none" stroke="black" d="M753.07,-1152.05C753.89,-1144.35 754.13,-1135.03 753.8,-1126.36"/>
<polygon fill="black" stroke="black" points="757.29,-1126.01 753.11,-1116.28 750.3,-1126.49 757.29,-1126.01"/>
</g>
<!-- quake.exp_pauli(5,6,7,8)@t27 params=(&#39;%arg4&#39;, &#39;XZYI&#39;)&#45;&gt;quake.exp_pauli(5,6,7,8)@t28 params=(&#39;%arg4&#39;, &#39;UNKNOWN&#39;) -->
<g id="edge47" class="edge">
<title>quake.exp_pauli(5,6,7,8)@t27 params=(&#39;%arg4&#39;, &#39;XZYI&#39;)&#45;&gt;quake.exp_pauli(5,6,7,8)@t28 params=(&#39;%arg4&#39;, &#39;UNKNOWN&#39;)</title>
<path fill="none" stroke="black" d="M764.6,-1152.76C767.36,-1144.55 768.12,-1134.37 766.85,-1125.09"/>
<polygon fill="black" stroke="black" points="770.22,-1124.11 764.57,-1115.15 763.39,-1125.68 770.22,-1124.11"/>
</g>
<!-- quake.mx(5,6,7,8)@t32 -->
<g id="node42" class="node">
<title>quake.mx(5,6,7,8)@t32</title>
<ellipse fill="yellow" stroke="yellow" cx="747.2" cy="-1026" rx="27" ry="18"/>
<text text-anchor="middle" x="747.2" y="-1022.3" font-family="Times,serif" font-size="14.00">mx</text>
</g>
<!-- quake.exp_pauli(5,6,7,8)@t28 params=(&#39;%arg4&#39;, &#39;UNKNOWN&#39;)&#45;&gt;quake.mx(5,6,7,8)@t32 -->
<g id="edge51" class="edge">
<title>quake.exp_pauli(5,6,7,8)@t28 params=(&#39;%arg4&#39;, &#39;UNKNOWN&#39;)&#45;&gt;quake.mx(5,6,7,8)@t32</title>
<path fill="none" stroke="black" d="M729.79,-1080.76C726.77,-1071.77 726.15,-1060.43 727.95,-1050.49"/>
<polygon fill="black" stroke="black" points="731.34,-1051.36 730.7,-1040.79 724.61,-1049.45 731.34,-1051.36"/>
</g>
<!-- quake.exp_pauli(5,6,7,8)@t28 params=(&#39;%arg4&#39;, &#39;UNKNOWN&#39;)&#45;&gt;quake.mx(5,6,7,8)@t32 -->
<g id="edge52" class="edge">
<title>quake.exp_pauli(5,6,7,8)@t28 params=(&#39;%arg4&#39;, &#39;UNKNOWN&#39;)&#45;&gt;quake.mx(5,6,7,8)@t32</title>
<path fill="none" stroke="black" d="M741.32,-1080.05C740.49,-1072.23 740.25,-1062.75 740.61,-1053.98"/>
<polygon fill="black" stroke="black" points="744.11,-1054.01 741.33,-1043.79 737.13,-1053.51 744.11,-1054.01"/>
</g>
<!-- quake.exp_pauli(5,6,7,8)@t28 params=(&#39;%arg4&#39;, &#39;UNKNOWN&#39;)&#45;&gt;quake.mx(5,6,7,8)@t32 -->
<g id="edge53" class="edge">
<title>quake.exp_pauli(5,6,7,8)@t28 params=(&#39;%arg4&#39;, &#39;UNKNOWN&#39;)&#45;&gt;quake.mx(5,6,7,8)@t32</title>
<path fill="none" stroke="black" d="M753.07,-1080.05C753.9,-1072.23 754.14,-1062.75 753.79,-1053.98"/>
<polygon fill="black" stroke="black" points="757.26,-1053.51 753.06,-1043.79 750.28,-1054.01 757.26,-1053.51"/>
</g>
<!-- quake.exp_pauli(5,6,7,8)@t28 params=(&#39;%arg4&#39;, &#39;UNKNOWN&#39;)&#45;&gt;quake.mx(5,6,7,8)@t32 -->
<g id="edge54" class="edge">
<title>quake.exp_pauli(5,6,7,8)@t28 params=(&#39;%arg4&#39;, &#39;UNKNOWN&#39;)&#45;&gt;quake.mx(5,6,7,8)@t32</title>
<path fill="none" stroke="black" d="M764.6,-1080.76C767.63,-1071.77 768.24,-1060.43 766.44,-1050.49"/>
<polygon fill="black" stroke="black" points="769.78,-1049.45 763.69,-1040.79 763.05,-1051.36 769.78,-1049.45"/>
</g>
<!-- q0_end -->
<g id="node43" class="node">
<title>q0_end</title>
<ellipse fill="red" stroke="red" cx="44.2" cy="-18" rx="44.39" ry="18"/>
<text text-anchor="middle" x="44.2" y="-14.3" font-family="Times,serif" font-size="14.00">q0_end</text>
</g>
<!-- quake.mx(0)@t29&#45;&gt;q0_end -->
<g id="edge55" class="edge">
<title>quake.mx(0)@t29&#45;&gt;q0_end</title>
<path fill="none" stroke="black" d="M57.08,-72.05C55.19,-64.26 52.9,-54.82 50.77,-46.08"/>
<polygon fill="black" stroke="black" points="54.15,-45.17 48.39,-36.28 47.35,-46.82 54.15,-45.17"/>
</g>
<!-- q1_end -->
<g id="node44" class="node">
<title>q1_end</title>
<ellipse fill="red" stroke="red" cx="150.2" cy="-18" rx="44.39" ry="18"/>
<text text-anchor="middle" x="150.2" y="-14.3" font-family="Times,serif" font-size="14.00">q1_end</text>
</g>
<!-- quake.my(1)@t30&#45;&gt;q1_end -->
<g id="edge56" class="edge">
<title>quake.my(1)@t30&#45;&gt;q1_end</title>
<path fill="none" stroke="black" d="M143.37,-72.05C144.37,-64.35 145.56,-55.03 146.68,-46.36"/>
<polygon fill="black" stroke="black" points="150.17,-46.64 147.97,-36.28 143.23,-45.75 150.17,-46.64"/>
</g>
<!-- q2_end -->
<g id="node45" class="node">
<title>q2_end</title>
<ellipse fill="red" stroke="red" cx="186.2" cy="-162" rx="44.39" ry="18"/>
<text text-anchor="middle" x="186.2" y="-158.3" font-family="Times,serif" font-size="14.00">q2_end</text>
</g>
<!-- quake.mz(2)@t31&#45;&gt;q2_end -->
<g id="edge57" class="edge">
<title>quake.mz(2)@t31&#45;&gt;q2_end</title>
<path fill="none" stroke="black" d="M177.1,-216.05C178.42,-208.35 180.02,-199.03 181.51,-190.36"/>
<polygon fill="black" stroke="black" points="184.99,-190.72 183.23,-180.28 178.1,-189.54 184.99,-190.72"/>
</g>
<!-- q5_end -->
<g id="node48" class="node">
<title>q5_end</title>
<ellipse fill="red" stroke="red" cx="588.2" cy="-954" rx="44.39" ry="18"/>
<text text-anchor="middle" x="588.2" y="-950.3" font-family="Times,serif" font-size="14.00">q5_end</text>
</g>
<!-- quake.mx(5,6,7,8)@t32&#45;&gt;q5_end -->
<g id="edge60" class="edge">
<title>quake.mx(5,6,7,8)@t32&#45;&gt;q5_end</title>
<path fill="none" stroke="black" d="M725.09,-1015.27C699.57,-1004.03 657.16,-985.36 626.29,-971.77"/>
<polygon fill="black" stroke="black" points="627.68,-968.56 617.12,-967.73 624.86,-974.96 627.68,-968.56"/>
</g>
<!-- q6_end -->
<g id="node49" class="node">
<title>q6_end</title>
<ellipse fill="red" stroke="red" cx="694.2" cy="-954" rx="44.39" ry="18"/>
<text text-anchor="middle" x="694.2" y="-950.3" font-family="Times,serif" font-size="14.00">q6_end</text>
</g>
<!-- quake.mx(5,6,7,8)@t32&#45;&gt;q6_end -->
<g id="edge61" class="edge">
<title>quake.mx(5,6,7,8)@t32&#45;&gt;q6_end</title>
<path fill="none" stroke="black" d="M735.43,-1009.46C728.76,-1000.65 720.26,-989.43 712.72,-979.46"/>
<polygon fill="black" stroke="black" points="715.49,-977.33 706.66,-971.47 709.91,-981.55 715.49,-977.33"/>
</g>
<!-- q7_end -->
<g id="node50" class="node">
<title>q7_end</title>
<ellipse fill="red" stroke="red" cx="800.2" cy="-954" rx="44.39" ry="18"/>
<text text-anchor="middle" x="800.2" y="-950.3" font-family="Times,serif" font-size="14.00">q7_end</text>
</g>
<!-- quake.mx(5,6,7,8)@t32&#45;&gt;q7_end -->
<g id="edge62" class="edge">
<title>quake.mx(5,6,7,8)@t32&#45;&gt;q7_end</title>
<path fill="none" stroke="black" d="M758.96,-1009.46C765.63,-1000.65 774.13,-989.43 781.67,-979.46"/>
<polygon fill="black" stroke="black" points="784.48,-981.55 787.73,-971.47 778.9,-977.33 784.48,-981.55"/>
</g>
<!-- q8_end -->
<g id="node51" class="node">
<title>q8_end</title>
<ellipse fill="red" stroke="red" cx="906.2" cy="-954" rx="44.39" ry="18"/>
<text text-anchor="middle" x="906.2" y="-950.3" font-family="Times,serif" font-size="14.00">q8_end</text>
</g>
<!-- quake.mx(5,6,7,8)@t32&#45;&gt;q8_end -->
<g id="edge63" class="edge">
<title>quake.mx(5,6,7,8)@t32&#45;&gt;q8_end</title>
<path fill="none" stroke="black" d="M769.3,-1015.27C794.82,-1004.03 837.24,-985.36 868.1,-971.77"/>
<polygon fill="black" stroke="black" points="869.53,-974.96 877.28,-967.73 866.71,-968.56 869.53,-974.96"/>
</g>
</g>
</svg>
