<?xml version="1.0" encoding="UTF-8" standalone="no"?>
<!DOCTYPE svg PUBLIC "-//W3C//DTD SVG 1.1//EN"
 "http://www.w3.org/Graphics/SVG/1.1/DTD/svg11.dtd">
<!-- Generated by graphviz version 2.43.0 (0)
 -->
<!-- Title: ultimate_quake_inspector_DAG_Will Pages: 1 -->
<svg width="426pt" height="1268pt"
 viewBox="0.00 0.00 425.60 1268.00" xmlns="http://www.w3.org/2000/svg" xmlns:xlink="http://www.w3.org/1999/xlink">
<g id="graph0" class="graph" transform="scale(1 1) rotate(0) translate(4 1264)">
<title>ultimate_quake_inspector_DAG_Will</title>
<polygon fill="white" stroke="transparent" points="-4,4 -4,-1264 421.6,-1264 421.6,4 -4,4"/>
<!-- Start -->
<g id="node1" class="node">
<title>Start</title>
<ellipse fill="green" stroke="green" cx="280" cy="-1242" rx="34.39" ry="18"/>
<text text-anchor="middle" x="280" y="-1238.3" font-family="Times,serif" font-size="14.00">Start</text>
</g>
<!-- quake.x(0)@t0 -->
<g id="node3" class="node">
<title>quake.x(0)@t0</title>
<ellipse fill="none" stroke="black" cx="115" cy="-1170" rx="27" ry="18"/>
<text text-anchor="middle" x="115" y="-1166.3" font-family="Times,serif" font-size="14.00">x</text>
</g>
<!-- Start&#45;&gt;quake.x(0)@t0 -->
<g id="edge1" class="edge">
<title>Start&#45;&gt;quake.x(0)@t0</title>
<path fill="none" stroke="black" d="M253.15,-1230.43C226.94,-1220.01 186,-1203.44 151,-1188 149.2,-1187.2 147.35,-1186.38 145.49,-1185.53"/>
<polygon fill="black" stroke="black" points="146.78,-1182.27 136.24,-1181.25 143.84,-1188.63 146.78,-1182.27"/>
</g>
<!-- quake.y(1)@t1 -->
<g id="node4" class="node">
<title>quake.y(1)@t1</title>
<ellipse fill="none" stroke="black" cx="187" cy="-1170" rx="27" ry="18"/>
<text text-anchor="middle" x="187" y="-1166.3" font-family="Times,serif" font-size="14.00">y</text>
</g>
<!-- Start&#45;&gt;quake.y(1)@t1 -->
<g id="edge2" class="edge">
<title>Start&#45;&gt;quake.y(1)@t1</title>
<path fill="none" stroke="black" d="M261.18,-1226.83C247.12,-1216.25 227.75,-1201.67 212.33,-1190.06"/>
<polygon fill="black" stroke="black" points="214.32,-1187.18 204.22,-1183.96 210.11,-1192.77 214.32,-1187.18"/>
</g>
<!-- quake.z(2)@t2 -->
<g id="node5" class="node">
<title>quake.z(2)@t2</title>
<ellipse fill="none" stroke="black" cx="222" cy="-1026" rx="27" ry="18"/>
<text text-anchor="middle" x="222" y="-1022.3" font-family="Times,serif" font-size="14.00">z</text>
</g>
<!-- Start&#45;&gt;quake.z(2)@t2 -->
<g id="edge3" class="edge">
<title>Start&#45;&gt;quake.z(2)@t2</title>
<path fill="none" stroke="black" d="M275.35,-1223.85C265.27,-1186.66 241.34,-1098.37 229.26,-1053.77"/>
<polygon fill="black" stroke="black" points="232.58,-1052.67 226.59,-1043.94 225.83,-1054.5 232.58,-1052.67"/>
</g>
<!-- quake.h(3)@t3 -->
<g id="node6" class="node">
<title>quake.h(3)@t3</title>
<ellipse fill="none" stroke="black" cx="79" cy="-954" rx="27" ry="18"/>
<text text-anchor="middle" x="79" y="-950.3" font-family="Times,serif" font-size="14.00">h</text>
</g>
<!-- Start&#45;&gt;quake.h(3)@t3 -->
<g id="edge4" class="edge">
<title>Start&#45;&gt;quake.h(3)@t3</title>
<path fill="none" stroke="black" d="M246.48,-1237.08C194.75,-1230.26 99.32,-1214.37 79,-1188 32.06,-1127.08 54.84,-1028.14 69.67,-981.25"/>
<polygon fill="black" stroke="black" points="73.07,-982.13 72.87,-971.54 66.42,-979.94 73.07,-982.13"/>
</g>
<!-- quake.ct(1,4)@t12 -->
<g id="node15" class="node">
<title>quake.ct(1,4)@t12</title>
<ellipse fill="none" stroke="black" cx="253" cy="-882" rx="27" ry="18"/>
<text text-anchor="middle" x="253" y="-878.3" font-family="Times,serif" font-size="14.00">ct</text>
</g>
<!-- Start&#45;&gt;quake.ct(1,4)@t12 -->
<g id="edge20" class="edge">
<title>Start&#45;&gt;quake.ct(1,4)@t12</title>
<path fill="none" stroke="black" d="M280,-1223.95C280,-1197.29 280,-1144.11 280,-1099 280,-1099 280,-1099 280,-1025 280,-984.28 269.15,-938.13 261.21,-909.79"/>
<polygon fill="black" stroke="black" points="264.47,-908.49 258.33,-899.85 257.75,-910.43 264.47,-908.49"/>
</g>
<!-- quake.exp_pauli(5,6,7,8)@t27 params=(&#39;%arg4&#39;, &#39;XZYI&#39;) -->
<g id="node30" class="node">
<title>quake.exp_pauli(5,6,7,8)@t27 params=(&#39;%arg4&#39;, &#39;XZYI&#39;)</title>
<ellipse fill="none" stroke="black" cx="363" cy="-1170" rx="54.69" ry="18"/>
<text text-anchor="middle" x="363" y="-1166.3" font-family="Times,serif" font-size="14.00">exp_pauli</text>
</g>
<!-- Start&#45;&gt;quake.exp_pauli(5,6,7,8)@t27 params=(&#39;%arg4&#39;, &#39;XZYI&#39;) -->
<g id="edge40" class="edge">
<title>Start&#45;&gt;quake.exp_pauli(5,6,7,8)@t27 params=(&#39;%arg4&#39;, &#39;XZYI&#39;)</title>
<path fill="none" stroke="black" d="M282.77,-1223.7C291.69,-1213.52 306.8,-1200.63 322.03,-1190.14"/>
<polygon fill="black" stroke="black" points="324.03,-1193.02 330.46,-1184.6 320.18,-1187.17 324.03,-1193.02"/>
</g>
<!-- Start&#45;&gt;quake.exp_pauli(5,6,7,8)@t27 params=(&#39;%arg4&#39;, &#39;XZYI&#39;) -->
<g id="edge41" class="edge">
<title>Start&#45;&gt;quake.exp_pauli(5,6,7,8)@t27 params=(&#39;%arg4&#39;, &#39;XZYI&#39;)</title>
<path fill="none" stroke="black" d="M293.07,-1225.12C303.37,-1215.5 317.9,-1203.1 331.11,-1192.59"/>
<polygon fill="black" stroke="black" points="333.39,-1195.25 339.11,-1186.34 329.08,-1189.74 333.39,-1195.25"/>
</g>
<!-- Start&#45;&gt;quake.exp_pauli(5,6,7,8)@t27 params=(&#39;%arg4&#39;, &#39;XZYI&#39;) -->
<g id="edge42" class="edge">
<title>Start&#45;&gt;quake.exp_pauli(5,6,7,8)@t27 params=(&#39;%arg4&#39;, &#39;XZYI&#39;)</title>
<path fill="none" stroke="black" d="M301.46,-1227.5C313.81,-1218.18 329.12,-1205.54 341.46,-1194.58"/>
<polygon fill="black" stroke="black" points="344.03,-1196.98 349.09,-1187.67 339.33,-1191.79 344.03,-1196.98"/>
</g>
<!-- Start&#45;&gt;quake.exp_pauli(5,6,7,8)@t27 params=(&#39;%arg4&#39;, &#39;XZYI&#39;) -->
<g id="edge43" class="edge">
<title>Start&#45;&gt;quake.exp_pauli(5,6,7,8)@t27 params=(&#39;%arg4&#39;, &#39;XZYI&#39;)</title>
<path fill="none" stroke="black" d="M307.11,-1230.67C322.96,-1221.5 340.82,-1207.73 353.14,-1195.73"/>
<polygon fill="black" stroke="black" points="355.98,-1197.81 360.36,-1188.16 350.92,-1192.98 355.98,-1197.81"/>
</g>
<!-- End -->
<g id="node2" class="node">
<title>End</title>
<ellipse fill="red" stroke="red" cx="289" cy="-18" rx="29.5" ry="18"/>
<text text-anchor="middle" x="289" y="-14.3" font-family="Times,serif" font-size="14.00">End</text>
</g>
<!-- quake.s(0)@t4 -->
<g id="node7" class="node">
<title>quake.s(0)@t4</title>
<ellipse fill="none" stroke="black" cx="115" cy="-1098" rx="27" ry="18"/>
<text text-anchor="middle" x="115" y="-1094.3" font-family="Times,serif" font-size="14.00">s</text>
</g>
<!-- quake.x(0)@t0&#45;&gt;quake.s(0)@t4 -->
<g id="edge5" class="edge">
<title>quake.x(0)@t0&#45;&gt;quake.s(0)@t4</title>
<path fill="none" stroke="black" d="M115,-1151.7C115,-1143.98 115,-1134.71 115,-1126.11"/>
<polygon fill="black" stroke="black" points="118.5,-1126.1 115,-1116.1 111.5,-1126.1 118.5,-1126.1"/>
</g>
<!-- quake.t(1)@t5 -->
<g id="node8" class="node">
<title>quake.t(1)@t5</title>
<ellipse fill="none" stroke="black" cx="187" cy="-1098" rx="27" ry="18"/>
<text text-anchor="middle" x="187" y="-1094.3" font-family="Times,serif" font-size="14.00">t</text>
</g>
<!-- quake.y(1)@t1&#45;&gt;quake.t(1)@t5 -->
<g id="edge6" class="edge">
<title>quake.y(1)@t1&#45;&gt;quake.t(1)@t5</title>
<path fill="none" stroke="black" d="M187,-1151.7C187,-1143.98 187,-1134.71 187,-1126.11"/>
<polygon fill="black" stroke="black" points="190.5,-1126.1 187,-1116.1 183.5,-1126.1 190.5,-1126.1"/>
</g>
<!-- quake.cy(1,2)@t7 -->
<g id="node10" class="node">
<title>quake.cy(1,2)@t7</title>
<ellipse fill="none" stroke="black" cx="213" cy="-954" rx="27" ry="18"/>
<text text-anchor="middle" x="213" y="-950.3" font-family="Times,serif" font-size="14.00">cy</text>
</g>
<!-- quake.z(2)@t2&#45;&gt;quake.cy(1,2)@t7 -->
<g id="edge10" class="edge">
<title>quake.z(2)@t2&#45;&gt;quake.cy(1,2)@t7</title>
<path fill="none" stroke="black" d="M219.82,-1008.05C218.83,-1000.35 217.63,-991.03 216.52,-982.36"/>
<polygon fill="black" stroke="black" points="219.97,-981.75 215.22,-972.28 213.02,-982.64 219.97,-981.75"/>
</g>
<!-- quake.cz(2,3)@t8 -->
<g id="node11" class="node">
<title>quake.cz(2,3)@t8</title>
<ellipse fill="none" stroke="black" cx="88" cy="-882" rx="27" ry="18"/>
<text text-anchor="middle" x="88" y="-878.3" font-family="Times,serif" font-size="14.00">cz</text>
</g>
<!-- quake.h(3)@t3&#45;&gt;quake.cz(2,3)@t8 -->
<g id="edge12" class="edge">
<title>quake.h(3)@t3&#45;&gt;quake.cz(2,3)@t8</title>
<path fill="none" stroke="black" d="M81.18,-936.05C82.17,-928.35 83.37,-919.03 84.48,-910.36"/>
<polygon fill="black" stroke="black" points="87.98,-910.64 85.78,-900.28 81.03,-909.75 87.98,-910.64"/>
</g>
<!-- quake.cx(0,1)@t6 -->
<g id="node9" class="node">
<title>quake.cx(0,1)@t6</title>
<ellipse fill="none" stroke="black" cx="148" cy="-1026" rx="27" ry="18"/>
<text text-anchor="middle" x="148" y="-1022.3" font-family="Times,serif" font-size="14.00">cx</text>
</g>
<!-- quake.s(0)@t4&#45;&gt;quake.cx(0,1)@t6 -->
<g id="edge7" class="edge">
<title>quake.s(0)@t4&#45;&gt;quake.cx(0,1)@t6</title>
<path fill="none" stroke="black" d="M122.82,-1080.41C126.72,-1072.13 131.54,-1061.92 135.9,-1052.66"/>
<polygon fill="black" stroke="black" points="139.14,-1054.01 140.24,-1043.47 132.81,-1051.02 139.14,-1054.01"/>
</g>
<!-- quake.t(1)@t5&#45;&gt;quake.cx(0,1)@t6 -->
<g id="edge8" class="edge">
<title>quake.t(1)@t5&#45;&gt;quake.cx(0,1)@t6</title>
<path fill="none" stroke="black" d="M177.95,-1080.76C173.18,-1072.19 167.22,-1061.49 161.87,-1051.9"/>
<polygon fill="black" stroke="black" points="164.92,-1050.18 157,-1043.15 158.81,-1053.59 164.92,-1050.18"/>
</g>
<!-- quake.cx(0,1)@t6&#45;&gt;quake.cy(1,2)@t7 -->
<g id="edge9" class="edge">
<title>quake.cx(0,1)@t6&#45;&gt;quake.cy(1,2)@t7</title>
<path fill="none" stroke="black" d="M161.78,-1010.15C170.66,-1000.6 182.36,-987.99 192.34,-977.25"/>
<polygon fill="black" stroke="black" points="195,-979.53 199.24,-969.82 189.87,-974.77 195,-979.53"/>
</g>
<!-- quake.ch(0,2)@t9 -->
<g id="node12" class="node">
<title>quake.ch(0,2)@t9</title>
<ellipse fill="none" stroke="black" cx="134" cy="-810" rx="27" ry="18"/>
<text text-anchor="middle" x="134" y="-806.3" font-family="Times,serif" font-size="14.00">ch</text>
</g>
<!-- quake.cx(0,1)@t6&#45;&gt;quake.ch(0,2)@t9 -->
<g id="edge13" class="edge">
<title>quake.cx(0,1)@t6&#45;&gt;quake.ch(0,2)@t9</title>
<path fill="none" stroke="black" d="M146.88,-1007.85C144.46,-970.83 138.72,-883.18 135.79,-838.39"/>
<polygon fill="black" stroke="black" points="139.27,-837.98 135.13,-828.23 132.29,-838.44 139.27,-837.98"/>
</g>
<!-- quake.cy(1,2)@t7&#45;&gt;quake.cz(2,3)@t8 -->
<g id="edge11" class="edge">
<title>quake.cy(1,2)@t7&#45;&gt;quake.cz(2,3)@t8</title>
<path fill="none" stroke="black" d="M192.92,-941.75C172.32,-930.22 140.1,-912.18 116.79,-899.12"/>
<polygon fill="black" stroke="black" points="118.47,-896.05 108.03,-894.22 115.05,-902.16 118.47,-896.05"/>
</g>
<!-- quake.cy(1,2)@t7&#45;&gt;quake.ct(1,4)@t12 -->
<g id="edge19" class="edge">
<title>quake.cy(1,2)@t7&#45;&gt;quake.ct(1,4)@t12</title>
<path fill="none" stroke="black" d="M222.28,-936.76C227.17,-928.19 233.29,-917.49 238.77,-907.9"/>
<polygon fill="black" stroke="black" points="241.85,-909.57 243.77,-899.15 235.77,-906.09 241.85,-909.57"/>
</g>
<!-- quake.cz(2,3)@t8&#45;&gt;quake.ch(0,2)@t9 -->
<g id="edge14" class="edge">
<title>quake.cz(2,3)@t8&#45;&gt;quake.ch(0,2)@t9</title>
<path fill="none" stroke="black" d="M98.44,-865.12C104.2,-856.34 111.48,-845.26 117.96,-835.42"/>
<polygon fill="black" stroke="black" points="121.04,-837.1 123.6,-826.82 115.19,-833.26 121.04,-837.1"/>
</g>
<!-- quake.swap(2,3)@t10 -->
<g id="node13" class="node">
<title>quake.swap(2,3)@t10</title>
<ellipse fill="none" stroke="black" cx="73" cy="-738" rx="34.39" ry="18"/>
<text text-anchor="middle" x="73" y="-734.3" font-family="Times,serif" font-size="14.00">swap</text>
</g>
<!-- quake.cz(2,3)@t8&#45;&gt;quake.swap(2,3)@t10 -->
<g id="edge16" class="edge">
<title>quake.cz(2,3)@t8&#45;&gt;quake.swap(2,3)@t10</title>
<path fill="none" stroke="black" d="M86.19,-863.87C83.63,-839.67 78.94,-795.21 75.89,-766.39"/>
<polygon fill="black" stroke="black" points="79.35,-765.77 74.82,-756.19 72.39,-766.5 79.35,-765.77"/>
</g>
<!-- quake.ch(0,2)@t9&#45;&gt;quake.swap(2,3)@t10 -->
<g id="edge15" class="edge">
<title>quake.ch(0,2)@t9&#45;&gt;quake.swap(2,3)@t10</title>
<path fill="none" stroke="black" d="M121.06,-794.15C113.04,-784.94 102.55,-772.91 93.42,-762.43"/>
<polygon fill="black" stroke="black" points="95.97,-760.04 86.77,-754.8 90.7,-764.64 95.97,-760.04"/>
</g>
<!-- quake.cs(0,3)@t11 -->
<g id="node14" class="node">
<title>quake.cs(0,3)@t11</title>
<ellipse fill="none" stroke="black" cx="123" cy="-666" rx="27" ry="18"/>
<text text-anchor="middle" x="123" y="-662.3" font-family="Times,serif" font-size="14.00">cs</text>
</g>
<!-- quake.ch(0,2)@t9&#45;&gt;quake.cs(0,3)@t11 -->
<g id="edge17" class="edge">
<title>quake.ch(0,2)@t9&#45;&gt;quake.cs(0,3)@t11</title>
<path fill="none" stroke="black" d="M132.67,-791.87C130.8,-767.67 127.35,-723.21 125.12,-694.39"/>
<polygon fill="black" stroke="black" points="128.59,-693.89 124.33,-684.19 121.61,-694.43 128.59,-693.89"/>
</g>
<!-- quake.swap(2,3)@t10&#45;&gt;quake.cs(0,3)@t11 -->
<g id="edge18" class="edge">
<title>quake.swap(2,3)@t10&#45;&gt;quake.cs(0,3)@t11</title>
<path fill="none" stroke="black" d="M84.6,-720.76C90.93,-711.89 98.9,-700.74 105.93,-690.89"/>
<polygon fill="black" stroke="black" points="108.85,-692.84 111.81,-682.67 103.15,-688.77 108.85,-692.84"/>
</g>
<!-- quake.rz(2)@t15 params=(&#39;%arg0&#39;,) -->
<g id="node18" class="node">
<title>quake.rz(2)@t15 params=(&#39;%arg0&#39;,)</title>
<ellipse fill="none" stroke="black" cx="44" cy="-450" rx="27" ry="18"/>
<text text-anchor="middle" x="44" y="-446.3" font-family="Times,serif" font-size="14.00">rz</text>
</g>
<!-- quake.swap(2,3)@t10&#45;&gt;quake.rz(2)@t15 params=(&#39;%arg0&#39;,) -->
<g id="edge23" class="edge">
<title>quake.swap(2,3)@t10&#45;&gt;quake.rz(2)@t15 params=(&#39;%arg0&#39;,)</title>
<path fill="none" stroke="black" d="M71.27,-719.97C66.43,-672.19 52.68,-536.62 46.76,-478.27"/>
<polygon fill="black" stroke="black" points="50.25,-477.9 45.75,-468.31 43.28,-478.61 50.25,-477.9"/>
</g>
<!-- quake.rx(0)@t13 params=(&#39;%arg0&#39;,) -->
<g id="node16" class="node">
<title>quake.rx(0)@t13 params=(&#39;%arg0&#39;,)</title>
<ellipse fill="none" stroke="black" cx="171" cy="-594" rx="27" ry="18"/>
<text text-anchor="middle" x="171" y="-590.3" font-family="Times,serif" font-size="14.00">rx</text>
</g>
<!-- quake.cs(0,3)@t11&#45;&gt;quake.rx(0)@t13 params=(&#39;%arg0&#39;,) -->
<g id="edge21" class="edge">
<title>quake.cs(0,3)@t11&#45;&gt;quake.rx(0)@t13 params=(&#39;%arg0&#39;,)</title>
<path fill="none" stroke="black" d="M133.89,-649.12C139.97,-640.26 147.66,-629.04 154.46,-619.12"/>
<polygon fill="black" stroke="black" points="157.38,-621.05 160.15,-610.82 151.61,-617.09 157.38,-621.05"/>
</g>
<!-- quake.r1(3)@t16 params=(&#39;%arg0&#39;,) -->
<g id="node19" class="node">
<title>quake.r1(3)@t16 params=(&#39;%arg0&#39;,)</title>
<ellipse fill="none" stroke="black" cx="99" cy="-594" rx="27" ry="18"/>
<text text-anchor="middle" x="99" y="-590.3" font-family="Times,serif" font-size="14.00">r1</text>
</g>
<!-- quake.cs(0,3)@t11&#45;&gt;quake.r1(3)@t16 params=(&#39;%arg0&#39;,) -->
<g id="edge24" class="edge">
<title>quake.cs(0,3)@t11&#45;&gt;quake.r1(3)@t16 params=(&#39;%arg0&#39;,)</title>
<path fill="none" stroke="black" d="M117.19,-648.05C114.45,-640.06 111.11,-630.33 108.05,-621.4"/>
<polygon fill="black" stroke="black" points="111.31,-620.11 104.76,-611.79 104.69,-622.38 111.31,-620.11"/>
</g>
<!-- quake.ry(1)@t14 params=(&#39;%arg0&#39;,) -->
<g id="node17" class="node">
<title>quake.ry(1)@t14 params=(&#39;%arg0&#39;,)</title>
<ellipse fill="none" stroke="black" cx="226" cy="-810" rx="27" ry="18"/>
<text text-anchor="middle" x="226" y="-806.3" font-family="Times,serif" font-size="14.00">ry</text>
</g>
<!-- quake.ct(1,4)@t12&#45;&gt;quake.ry(1)@t14 params=(&#39;%arg0&#39;,) -->
<g id="edge22" class="edge">
<title>quake.ct(1,4)@t12&#45;&gt;quake.ry(1)@t14 params=(&#39;%arg0&#39;,)</title>
<path fill="none" stroke="black" d="M246.6,-864.41C243.49,-856.34 239.67,-846.43 236.17,-837.35"/>
<polygon fill="black" stroke="black" points="239.4,-836.03 232.54,-827.96 232.87,-838.55 239.4,-836.03"/>
</g>
<!-- quake.rz(4)@t17 params=(1.5707963267948966,) -->
<g id="node20" class="node">
<title>quake.rz(4)@t17 params=(1.5707963267948966,)</title>
<ellipse fill="none" stroke="black" cx="281" cy="-522" rx="27" ry="18"/>
<text text-anchor="middle" x="281" y="-518.3" font-family="Times,serif" font-size="14.00">rz</text>
</g>
<!-- quake.ct(1,4)@t12&#45;&gt;quake.rz(4)@t17 params=(1.5707963267948966,) -->
<g id="edge25" class="edge">
<title>quake.ct(1,4)@t12&#45;&gt;quake.rz(4)@t17 params=(1.5707963267948966,)</title>
<path fill="none" stroke="black" d="M258.53,-864.16C266.69,-837.79 281,-784.98 281,-739 281,-739 281,-739 281,-665 281,-625 281,-578.65 281,-550.08"/>
<polygon fill="black" stroke="black" points="284.5,-550.05 281,-540.05 277.5,-550.05 284.5,-550.05"/>
</g>
<!-- quake.rz(0)@t18 params=(0.7853981633974483,) -->
<g id="node21" class="node">
<title>quake.rz(0)@t18 params=(0.7853981633974483,)</title>
<ellipse fill="none" stroke="black" cx="171" cy="-522" rx="27" ry="18"/>
<text text-anchor="middle" x="171" y="-518.3" font-family="Times,serif" font-size="14.00">rz</text>
</g>
<!-- quake.rx(0)@t13 params=(&#39;%arg0&#39;,)&#45;&gt;quake.rz(0)@t18 params=(0.7853981633974483,) -->
<g id="edge26" class="edge">
<title>quake.rx(0)@t13 params=(&#39;%arg0&#39;,)&#45;&gt;quake.rz(0)@t18 params=(0.7853981633974483,)</title>
<path fill="none" stroke="black" d="M171,-575.7C171,-567.98 171,-558.71 171,-550.11"/>
<polygon fill="black" stroke="black" points="174.5,-550.1 171,-540.1 167.5,-550.1 174.5,-550.1"/>
</g>
<!-- quake.crx(0,1)@t19 params=(&#39;%arg0&#39;,) -->
<g id="node22" class="node">
<title>quake.crx(0,1)@t19 params=(&#39;%arg0&#39;,)</title>
<ellipse fill="none" stroke="black" cx="177" cy="-450" rx="27" ry="18"/>
<text text-anchor="middle" x="177" y="-446.3" font-family="Times,serif" font-size="14.00">crx</text>
</g>
<!-- quake.ry(1)@t14 params=(&#39;%arg0&#39;,)&#45;&gt;quake.crx(0,1)@t19 params=(&#39;%arg0&#39;,) -->
<g id="edge28" class="edge">
<title>quake.ry(1)@t14 params=(&#39;%arg0&#39;,)&#45;&gt;quake.crx(0,1)@t19 params=(&#39;%arg0&#39;,)</title>
<path fill="none" stroke="black" d="M226,-791.95C226,-765.29 226,-712.11 226,-667 226,-667 226,-667 226,-593 226,-552.55 221.35,-541.82 207,-504 203.27,-494.17 197.91,-483.98 192.75,-475.19"/>
<polygon fill="black" stroke="black" points="195.71,-473.33 187.52,-466.61 189.74,-476.97 195.71,-473.33"/>
</g>
<!-- quake.cry(1,2)@t20 params=(&#39;%arg0&#39;,) -->
<g id="node23" class="node">
<title>quake.cry(1,2)@t20 params=(&#39;%arg0&#39;,)</title>
<ellipse fill="none" stroke="black" cx="44" cy="-378" rx="27" ry="18"/>
<text text-anchor="middle" x="44" y="-374.3" font-family="Times,serif" font-size="14.00">cry</text>
</g>
<!-- quake.rz(2)@t15 params=(&#39;%arg0&#39;,)&#45;&gt;quake.cry(1,2)@t20 params=(&#39;%arg0&#39;,) -->
<g id="edge30" class="edge">
<title>quake.rz(2)@t15 params=(&#39;%arg0&#39;,)&#45;&gt;quake.cry(1,2)@t20 params=(&#39;%arg0&#39;,)</title>
<path fill="none" stroke="black" d="M44,-431.7C44,-423.98 44,-414.71 44,-406.11"/>
<polygon fill="black" stroke="black" points="47.5,-406.1 44,-396.1 40.5,-406.1 47.5,-406.1"/>
</g>
<!-- quake.crz(2,3)@t21 params=(&#39;%arg0&#39;,) -->
<g id="node24" class="node">
<title>quake.crz(2,3)@t21 params=(&#39;%arg0&#39;,)</title>
<ellipse fill="none" stroke="black" cx="99" cy="-306" rx="27" ry="18"/>
<text text-anchor="middle" x="99" y="-302.3" font-family="Times,serif" font-size="14.00">crz</text>
</g>
<!-- quake.r1(3)@t16 params=(&#39;%arg0&#39;,)&#45;&gt;quake.crz(2,3)@t21 params=(&#39;%arg0&#39;,) -->
<g id="edge32" class="edge">
<title>quake.r1(3)@t16 params=(&#39;%arg0&#39;,)&#45;&gt;quake.crz(2,3)@t21 params=(&#39;%arg0&#39;,)</title>
<path fill="none" stroke="black" d="M99,-575.97C99,-528.29 99,-393.18 99,-334.63"/>
<polygon fill="black" stroke="black" points="102.5,-334.31 99,-324.31 95.5,-334.31 102.5,-334.31"/>
</g>
<!-- quake.cr1(3,4)@t22 params=(&#39;%arg0&#39;,) -->
<g id="node25" class="node">
<title>quake.cr1(3,4)@t22 params=(&#39;%arg0&#39;,)</title>
<ellipse fill="none" stroke="black" cx="281" cy="-162" rx="27" ry="18"/>
<text text-anchor="middle" x="281" y="-158.3" font-family="Times,serif" font-size="14.00">cr1</text>
</g>
<!-- quake.rz(4)@t17 params=(1.5707963267948966,)&#45;&gt;quake.cr1(3,4)@t22 params=(&#39;%arg0&#39;,) -->
<g id="edge34" class="edge">
<title>quake.rz(4)@t17 params=(1.5707963267948966,)&#45;&gt;quake.cr1(3,4)@t22 params=(&#39;%arg0&#39;,)</title>
<path fill="none" stroke="black" d="M281,-503.95C281,-477.29 281,-424.11 281,-379 281,-379 281,-379 281,-305 281,-265 281,-218.65 281,-190.08"/>
<polygon fill="black" stroke="black" points="284.5,-190.05 281,-180.05 277.5,-190.05 284.5,-190.05"/>
</g>
<!-- quake.rz(0)@t18 params=(0.7853981633974483,)&#45;&gt;quake.crx(0,1)@t19 params=(&#39;%arg0&#39;,) -->
<g id="edge27" class="edge">
<title>quake.rz(0)@t18 params=(0.7853981633974483,)&#45;&gt;quake.crx(0,1)@t19 params=(&#39;%arg0&#39;,)</title>
<path fill="none" stroke="black" d="M172.48,-503.7C173.14,-495.98 173.94,-486.71 174.68,-478.11"/>
<polygon fill="black" stroke="black" points="178.17,-478.37 175.53,-468.1 171.19,-477.77 178.17,-478.37"/>
</g>
<!-- quake.crx(0,1)@t19 params=(&#39;%arg0&#39;,)&#45;&gt;quake.cry(1,2)@t20 params=(&#39;%arg0&#39;,) -->
<g id="edge29" class="edge">
<title>quake.crx(0,1)@t19 params=(&#39;%arg0&#39;,)&#45;&gt;quake.cry(1,2)@t20 params=(&#39;%arg0&#39;,)</title>
<path fill="none" stroke="black" d="M156.51,-438.22C134.41,-426.59 99.02,-407.96 73.84,-394.7"/>
<polygon fill="black" stroke="black" points="75.21,-391.47 64.73,-389.91 71.95,-397.67 75.21,-391.47"/>
</g>
<!-- quake.sdg(0)@t23 -->
<g id="node26" class="node">
<title>quake.sdg(0)@t23</title>
<ellipse fill="none" stroke="black" cx="182" cy="-378" rx="27.1" ry="18"/>
<text text-anchor="middle" x="182" y="-374.3" font-family="Times,serif" font-size="14.00">sdg</text>
</g>
<!-- quake.crx(0,1)@t19 params=(&#39;%arg0&#39;,)&#45;&gt;quake.sdg(0)@t23 -->
<g id="edge35" class="edge">
<title>quake.crx(0,1)@t19 params=(&#39;%arg0&#39;,)&#45;&gt;quake.sdg(0)@t23</title>
<path fill="none" stroke="black" d="M178.24,-431.7C178.79,-423.98 179.45,-414.71 180.06,-406.11"/>
<polygon fill="black" stroke="black" points="183.56,-406.33 180.78,-396.1 176.57,-405.83 183.56,-406.33"/>
</g>
<!-- quake.cry(1,2)@t20 params=(&#39;%arg0&#39;,)&#45;&gt;quake.crz(2,3)@t21 params=(&#39;%arg0&#39;,) -->
<g id="edge31" class="edge">
<title>quake.cry(1,2)@t20 params=(&#39;%arg0&#39;,)&#45;&gt;quake.crz(2,3)@t21 params=(&#39;%arg0&#39;,)</title>
<path fill="none" stroke="black" d="M55.93,-361.81C63.21,-352.55 72.66,-340.52 80.85,-330.09"/>
<polygon fill="black" stroke="black" points="83.66,-332.18 87.09,-322.16 78.16,-327.86 83.66,-332.18"/>
</g>
<!-- quake.tdg(1)@t24 -->
<g id="node27" class="node">
<title>quake.tdg(1)@t24</title>
<ellipse fill="none" stroke="black" cx="27" cy="-306" rx="27" ry="18"/>
<text text-anchor="middle" x="27" y="-302.3" font-family="Times,serif" font-size="14.00">tdg</text>
</g>
<!-- quake.cry(1,2)@t20 params=(&#39;%arg0&#39;,)&#45;&gt;quake.tdg(1)@t24 -->
<g id="edge36" class="edge">
<title>quake.cry(1,2)@t20 params=(&#39;%arg0&#39;,)&#45;&gt;quake.tdg(1)@t24</title>
<path fill="none" stroke="black" d="M39.88,-360.05C37.99,-352.26 35.7,-342.82 33.58,-334.08"/>
<polygon fill="black" stroke="black" points="36.96,-333.17 31.2,-324.28 30.15,-334.82 36.96,-333.17"/>
</g>
<!-- quake.crz(2,3)@t21 params=(&#39;%arg0&#39;,)&#45;&gt;quake.cr1(3,4)@t22 params=(&#39;%arg0&#39;,) -->
<g id="edge33" class="edge">
<title>quake.crz(2,3)@t21 params=(&#39;%arg0&#39;,)&#45;&gt;quake.cr1(3,4)@t22 params=(&#39;%arg0&#39;,)</title>
<path fill="none" stroke="black" d="M115.8,-291.9C147.95,-266.81 218.34,-211.89 256.02,-182.49"/>
<polygon fill="black" stroke="black" points="258.25,-185.19 263.98,-176.28 253.94,-179.67 258.25,-185.19"/>
</g>
<!-- quake.mz(2)@t31 -->
<g id="node34" class="node">
<title>quake.mz(2)@t31</title>
<ellipse fill="yellow" stroke="yellow" cx="99" cy="-234" rx="27" ry="18"/>
<text text-anchor="middle" x="99" y="-230.3" font-family="Times,serif" font-size="14.00">mz</text>
</g>
<!-- quake.crz(2,3)@t21 params=(&#39;%arg0&#39;,)&#45;&gt;quake.mz(2)@t31 -->
<g id="edge50" class="edge">
<title>quake.crz(2,3)@t21 params=(&#39;%arg0&#39;,)&#45;&gt;quake.mz(2)@t31</title>
<path fill="none" stroke="black" d="M99,-287.7C99,-279.98 99,-270.71 99,-262.11"/>
<polygon fill="black" stroke="black" points="102.5,-262.1 99,-252.1 95.5,-262.1 102.5,-262.1"/>
</g>
<!-- quake.cr1(3,4)@t22 params=(&#39;%arg0&#39;,)&#45;&gt;End -->
<g id="edge58" class="edge">
<title>quake.cr1(3,4)@t22 params=(&#39;%arg0&#39;,)&#45;&gt;End</title>
<path fill="none" stroke="black" d="M277.39,-144.15C276.16,-119.92 278.4,-74.96 282.04,-46.05"/>
<polygon fill="black" stroke="black" points="285.55,-46.22 283.5,-35.82 278.62,-45.23 285.55,-46.22"/>
</g>
<!-- quake.cr1(3,4)@t22 params=(&#39;%arg0&#39;,)&#45;&gt;End -->
<g id="edge59" class="edge">
<title>quake.cr1(3,4)@t22 params=(&#39;%arg0&#39;,)&#45;&gt;End</title>
<path fill="none" stroke="black" d="M286.5,-144.15C290.44,-120.05 293.26,-75.45 292.92,-46.51"/>
<polygon fill="black" stroke="black" points="296.41,-46.16 292.63,-36.27 289.41,-46.36 296.41,-46.16"/>
</g>
<!-- quake.cu3(0,1)@t26 params=(&#39;%arg1&#39;, &#39;%arg2&#39;, &#39;%arg3&#39;) -->
<g id="node29" class="node">
<title>quake.cu3(0,1)@t26 params=(&#39;%arg1&#39;, &#39;%arg2&#39;, &#39;%arg3&#39;)</title>
<ellipse fill="none" stroke="black" cx="172" cy="-162" rx="27.1" ry="18"/>
<text text-anchor="middle" x="172" y="-158.3" font-family="Times,serif" font-size="14.00">cu3</text>
</g>
<!-- quake.sdg(0)@t23&#45;&gt;quake.cu3(0,1)@t26 params=(&#39;%arg1&#39;, &#39;%arg2&#39;, &#39;%arg3&#39;) -->
<g id="edge38" class="edge">
<title>quake.sdg(0)@t23&#45;&gt;quake.cu3(0,1)@t26 params=(&#39;%arg1&#39;, &#39;%arg2&#39;, &#39;%arg3&#39;)</title>
<path fill="none" stroke="black" d="M181.2,-359.85C179.47,-322.83 175.37,-235.18 173.28,-190.39"/>
<polygon fill="black" stroke="black" points="176.77,-190.06 172.81,-180.23 169.78,-190.38 176.77,-190.06"/>
</g>
<!-- quake.u3(1)@t25 params=(&#39;%arg1&#39;, &#39;%arg2&#39;, &#39;%arg3&#39;) -->
<g id="node28" class="node">
<title>quake.u3(1)@t25 params=(&#39;%arg1&#39;, &#39;%arg2&#39;, &#39;%arg3&#39;)</title>
<ellipse fill="none" stroke="black" cx="27" cy="-234" rx="27" ry="18"/>
<text text-anchor="middle" x="27" y="-230.3" font-family="Times,serif" font-size="14.00">u3</text>
</g>
<!-- quake.tdg(1)@t24&#45;&gt;quake.u3(1)@t25 params=(&#39;%arg1&#39;, &#39;%arg2&#39;, &#39;%arg3&#39;) -->
<g id="edge37" class="edge">
<title>quake.tdg(1)@t24&#45;&gt;quake.u3(1)@t25 params=(&#39;%arg1&#39;, &#39;%arg2&#39;, &#39;%arg3&#39;)</title>
<path fill="none" stroke="black" d="M27,-287.7C27,-279.98 27,-270.71 27,-262.11"/>
<polygon fill="black" stroke="black" points="30.5,-262.1 27,-252.1 23.5,-262.1 30.5,-262.1"/>
</g>
<!-- quake.u3(1)@t25 params=(&#39;%arg1&#39;, &#39;%arg2&#39;, &#39;%arg3&#39;)&#45;&gt;quake.cu3(0,1)@t26 params=(&#39;%arg1&#39;, &#39;%arg2&#39;, &#39;%arg3&#39;) -->
<g id="edge39" class="edge">
<title>quake.u3(1)@t25 params=(&#39;%arg1&#39;, &#39;%arg2&#39;, &#39;%arg3&#39;)&#45;&gt;quake.cu3(0,1)@t26 params=(&#39;%arg1&#39;, &#39;%arg2&#39;, &#39;%arg3&#39;)</title>
<path fill="none" stroke="black" d="M48.4,-222.67C72.92,-210.83 113.31,-191.33 141.22,-177.86"/>
<polygon fill="black" stroke="black" points="143.03,-180.87 150.52,-173.37 139.99,-174.57 143.03,-180.87"/>
</g>
<!-- quake.mx(0)@t29 -->
<g id="node32" class="node">
<title>quake.mx(0)@t29</title>
<ellipse fill="yellow" stroke="yellow" cx="153" cy="-90" rx="27" ry="18"/>
<text text-anchor="middle" x="153" y="-86.3" font-family="Times,serif" font-size="14.00">mx</text>
</g>
<!-- quake.cu3(0,1)@t26 params=(&#39;%arg1&#39;, &#39;%arg2&#39;, &#39;%arg3&#39;)&#45;&gt;quake.mx(0)@t29 -->
<g id="edge48" class="edge">
<title>quake.cu3(0,1)@t26 params=(&#39;%arg1&#39;, &#39;%arg2&#39;, &#39;%arg3&#39;)&#45;&gt;quake.mx(0)@t29</title>
<path fill="none" stroke="black" d="M167.4,-144.05C165.25,-136.14 162.65,-126.54 160.24,-117.69"/>
<polygon fill="black" stroke="black" points="163.55,-116.52 157.56,-107.79 156.8,-118.36 163.55,-116.52"/>
</g>
<!-- quake.my(1)@t30 -->
<g id="node33" class="node">
<title>quake.my(1)@t30</title>
<ellipse fill="yellow" stroke="yellow" cx="225" cy="-90" rx="27" ry="18"/>
<text text-anchor="middle" x="225" y="-86.3" font-family="Times,serif" font-size="14.00">my</text>
</g>
<!-- quake.cu3(0,1)@t26 params=(&#39;%arg1&#39;, &#39;%arg2&#39;, &#39;%arg3&#39;)&#45;&gt;quake.my(1)@t30 -->
<g id="edge49" class="edge">
<title>quake.cu3(0,1)@t26 params=(&#39;%arg1&#39;, &#39;%arg2&#39;, &#39;%arg3&#39;)&#45;&gt;quake.my(1)@t30</title>
<path fill="none" stroke="black" d="M183.76,-145.46C190.62,-136.4 199.42,-124.79 207.12,-114.61"/>
<polygon fill="black" stroke="black" points="210.02,-116.58 213.27,-106.49 204.44,-112.35 210.02,-116.58"/>
</g>
<!-- quake.exp_pauli(5,6,7,8)@t28 params=(&#39;%arg4&#39;, &#39;UNKNOWN&#39;) -->
<g id="node31" class="node">
<title>quake.exp_pauli(5,6,7,8)@t28 params=(&#39;%arg4&#39;, &#39;UNKNOWN&#39;)</title>
<ellipse fill="none" stroke="black" cx="363" cy="-1098" rx="54.69" ry="18"/>
<text text-anchor="middle" x="363" y="-1094.3" font-family="Times,serif" font-size="14.00">exp_pauli</text>
</g>
<!-- quake.exp_pauli(5,6,7,8)@t27 params=(&#39;%arg4&#39;, &#39;XZYI&#39;)&#45;&gt;quake.exp_pauli(5,6,7,8)@t28 params=(&#39;%arg4&#39;, &#39;UNKNOWN&#39;) -->
<g id="edge44" class="edge">
<title>quake.exp_pauli(5,6,7,8)@t27 params=(&#39;%arg4&#39;, &#39;XZYI&#39;)&#45;&gt;quake.exp_pauli(5,6,7,8)@t28 params=(&#39;%arg4&#39;, &#39;UNKNOWN&#39;)</title>
<path fill="none" stroke="black" d="M345.6,-1152.76C342.83,-1144.55 342.08,-1134.37 343.34,-1125.09"/>
<polygon fill="black" stroke="black" points="346.8,-1125.68 345.63,-1115.15 339.98,-1124.11 346.8,-1125.68"/>
</g>
<!-- quake.exp_pauli(5,6,7,8)@t27 params=(&#39;%arg4&#39;, &#39;XZYI&#39;)&#45;&gt;quake.exp_pauli(5,6,7,8)@t28 params=(&#39;%arg4&#39;, &#39;UNKNOWN&#39;) -->
<g id="edge45" class="edge">
<title>quake.exp_pauli(5,6,7,8)@t27 params=(&#39;%arg4&#39;, &#39;XZYI&#39;)&#45;&gt;quake.exp_pauli(5,6,7,8)@t28 params=(&#39;%arg4&#39;, &#39;UNKNOWN&#39;)</title>
<path fill="none" stroke="black" d="M357.12,-1152.05C356.3,-1144.35 356.06,-1135.03 356.39,-1126.36"/>
<polygon fill="black" stroke="black" points="359.89,-1126.49 357.09,-1116.28 352.91,-1126.01 359.89,-1126.49"/>
</g>
<!-- quake.exp_pauli(5,6,7,8)@t27 params=(&#39;%arg4&#39;, &#39;XZYI&#39;)&#45;&gt;quake.exp_pauli(5,6,7,8)@t28 params=(&#39;%arg4&#39;, &#39;UNKNOWN&#39;) -->
<g id="edge46" class="edge">
<title>quake.exp_pauli(5,6,7,8)@t27 params=(&#39;%arg4&#39;, &#39;XZYI&#39;)&#45;&gt;quake.exp_pauli(5,6,7,8)@t28 params=(&#39;%arg4&#39;, &#39;UNKNOWN&#39;)</title>
<path fill="none" stroke="black" d="M368.88,-1152.05C369.7,-1144.35 369.94,-1135.03 369.61,-1126.36"/>
<polygon fill="black" stroke="black" points="373.09,-1126.01 368.91,-1116.28 366.11,-1126.49 373.09,-1126.01"/>
</g>
<!-- quake.exp_pauli(5,6,7,8)@t27 params=(&#39;%arg4&#39;, &#39;XZYI&#39;)&#45;&gt;quake.exp_pauli(5,6,7,8)@t28 params=(&#39;%arg4&#39;, &#39;UNKNOWN&#39;) -->
<g id="edge47" class="edge">
<title>quake.exp_pauli(5,6,7,8)@t27 params=(&#39;%arg4&#39;, &#39;XZYI&#39;)&#45;&gt;quake.exp_pauli(5,6,7,8)@t28 params=(&#39;%arg4&#39;, &#39;UNKNOWN&#39;)</title>
<path fill="none" stroke="black" d="M380.4,-1152.76C383.17,-1144.55 383.92,-1134.37 382.66,-1125.09"/>
<polygon fill="black" stroke="black" points="386.02,-1124.11 380.37,-1115.15 379.2,-1125.68 386.02,-1124.11"/>
</g>
<!-- quake.mx(5,6,7,8)@t32 -->
<g id="node35" class="node">
<title>quake.mx(5,6,7,8)@t32</title>
<ellipse fill="yellow" stroke="yellow" cx="363" cy="-738" rx="27" ry="18"/>
<text text-anchor="middle" x="363" y="-734.3" font-family="Times,serif" font-size="14.00">mx</text>
</g>
<!-- quake.exp_pauli(5,6,7,8)@t28 params=(&#39;%arg4&#39;, &#39;UNKNOWN&#39;)&#45;&gt;quake.mx(5,6,7,8)@t32 -->
<g id="edge51" class="edge">
<title>quake.exp_pauli(5,6,7,8)@t28 params=(&#39;%arg4&#39;, &#39;UNKNOWN&#39;)&#45;&gt;quake.mx(5,6,7,8)@t32</title>
<path fill="none" stroke="black" d="M346.19,-1080.82C336,-1054.45 336,-1000.61 336,-955 336,-955 336,-955 336,-881 336,-839.25 336,-790.59 343.82,-762.44"/>
<polygon fill="black" stroke="black" points="347.22,-763.3 347.21,-752.71 340.61,-761 347.22,-763.3"/>
</g>
<!-- quake.exp_pauli(5,6,7,8)@t28 params=(&#39;%arg4&#39;, &#39;UNKNOWN&#39;)&#45;&gt;quake.mx(5,6,7,8)@t32 -->
<g id="edge52" class="edge">
<title>quake.exp_pauli(5,6,7,8)@t28 params=(&#39;%arg4&#39;, &#39;UNKNOWN&#39;)&#45;&gt;quake.mx(5,6,7,8)@t32</title>
<path fill="none" stroke="black" d="M357.29,-1079.95C354,-1053.29 354,-1000.11 354,-955 354,-955 354,-955 354,-881 354,-840.78 354,-794.15 356.33,-765.61"/>
<polygon fill="black" stroke="black" points="359.82,-765.92 357.34,-755.61 352.85,-765.21 359.82,-765.92"/>
</g>
<!-- quake.exp_pauli(5,6,7,8)@t28 params=(&#39;%arg4&#39;, &#39;UNKNOWN&#39;)&#45;&gt;quake.mx(5,6,7,8)@t32 -->
<g id="edge53" class="edge">
<title>quake.exp_pauli(5,6,7,8)@t28 params=(&#39;%arg4&#39;, &#39;UNKNOWN&#39;)&#45;&gt;quake.mx(5,6,7,8)@t32</title>
<path fill="none" stroke="black" d="M368.71,-1079.95C372,-1053.29 372,-1000.11 372,-955 372,-955 372,-955 372,-881 372,-840.78 372,-794.15 369.67,-765.61"/>
<polygon fill="black" stroke="black" points="373.15,-765.21 368.66,-755.61 366.18,-765.92 373.15,-765.21"/>
</g>
<!-- quake.exp_pauli(5,6,7,8)@t28 params=(&#39;%arg4&#39;, &#39;UNKNOWN&#39;)&#45;&gt;quake.mx(5,6,7,8)@t32 -->
<g id="edge54" class="edge">
<title>quake.exp_pauli(5,6,7,8)@t28 params=(&#39;%arg4&#39;, &#39;UNKNOWN&#39;)&#45;&gt;quake.mx(5,6,7,8)@t32</title>
<path fill="none" stroke="black" d="M379.81,-1080.82C390,-1054.45 390,-1000.61 390,-955 390,-955 390,-955 390,-881 390,-839.25 390,-790.59 382.18,-762.44"/>
<polygon fill="black" stroke="black" points="385.39,-761 378.79,-752.71 378.78,-763.3 385.39,-761"/>
</g>
<!-- quake.mx(0)@t29&#45;&gt;End -->
<g id="edge55" class="edge">
<title>quake.mx(0)@t29&#45;&gt;End</title>
<path fill="none" stroke="black" d="M173.66,-78.37C196.16,-66.79 232.39,-48.14 258.24,-34.83"/>
<polygon fill="black" stroke="black" points="259.96,-37.88 267.25,-30.2 256.76,-31.66 259.96,-37.88"/>
</g>
<!-- quake.my(1)@t30&#45;&gt;End -->
<g id="edge56" class="edge">
<title>quake.my(1)@t30&#45;&gt;End</title>
<path fill="none" stroke="black" d="M238.57,-74.15C247.11,-64.82 258.3,-52.57 267.97,-42"/>
<polygon fill="black" stroke="black" points="270.84,-44.05 275,-34.31 265.67,-39.33 270.84,-44.05"/>
</g>
<!-- quake.mz(2)@t31&#45;&gt;End -->
<g id="edge57" class="edge">
<title>quake.mz(2)@t31&#45;&gt;End</title>
<path fill="none" stroke="black" d="M95.44,-216.14C89.73,-184.09 82.38,-113.81 117,-72 149.29,-33.01 209.6,-22.14 249.53,-19.42"/>
<polygon fill="black" stroke="black" points="249.92,-22.9 259.72,-18.87 249.54,-15.91 249.92,-22.9"/>
</g>
<!-- quake.mx(5,6,7,8)@t32&#45;&gt;End -->
<g id="edge60" class="edge">
<title>quake.mx(5,6,7,8)@t32&#45;&gt;End</title>
<path fill="none" stroke="black" d="M347.21,-723.29C336,-697.96 336,-642.09 336,-595 336,-595 336,-595 336,-161 336,-116.68 307.3,-72.49 292.17,-45.46"/>
<polygon fill="black" stroke="black" points="295.08,-43.48 287.29,-36.31 288.91,-46.78 295.08,-43.48"/>
</g>
<!-- quake.mx(5,6,7,8)@t32&#45;&gt;End -->
<g id="edge61" class="edge">
<title>quake.mx(5,6,7,8)@t32&#45;&gt;End</title>
<path fill="none" stroke="black" d="M357.34,-720.39C354,-693.87 354,-640.36 354,-595 354,-595 354,-595 354,-161 354,-115.79 324.14,-70.72 304.66,-43.85"/>
<polygon fill="black" stroke="black" points="307.25,-41.46 298.51,-35.47 301.6,-45.6 307.25,-41.46"/>
</g>
<!-- quake.mx(5,6,7,8)@t32&#45;&gt;End -->
<g id="edge62" class="edge">
<title>quake.mx(5,6,7,8)@t32&#45;&gt;End</title>
<path fill="none" stroke="black" d="M368.66,-720.39C372,-693.87 372,-640.36 372,-595 372,-595 372,-595 372,-161 372,-113.38 338.87,-65.92 314.25,-39.72"/>
<polygon fill="black" stroke="black" points="316.44,-36.95 306.93,-32.29 311.46,-41.87 316.44,-36.95"/>
</g>
<!-- quake.mx(5,6,7,8)@t32&#45;&gt;End -->
<g id="edge63" class="edge">
<title>quake.mx(5,6,7,8)@t32&#45;&gt;End</title>
<path fill="none" stroke="black" d="M378.79,-723.29C390,-697.96 390,-642.09 390,-595 390,-595 390,-595 390,-161 390,-110.22 352.32,-59.6 320.92,-34.78"/>
<polygon fill="black" stroke="black" points="322.83,-31.83 312.69,-28.76 318.7,-37.48 322.83,-31.83"/>
</g>
</g>
</svg>
